<svg width="216" height="190" viewBox="0 0 216 190" fill="none" xmlns="http://www.w3.org/2000/svg">
<path d="M94.274 188C93.4923 185.428 92.7051 182.862 91.9567 180.285C91.2082 177.708 90.4764 175.125 89.7724 172.537C89.0628 169.943 88.392 167.344 87.7433 164.739L87.4329 163.5C87.1951 163.726 86.9413 163.934 86.6734 164.122L86.9339 164.967C87.7322 167.533 88.5139 170.098 89.2568 172.681C90.0052 175.258 90.7278 177.843 91.4244 180.435C92.0842 182.84 92.6995 185.261 93.3204 187.677C89.8943 187.605 86.4682 187.494 83.0421 187.45L77.6258 187.361L72.215 187.311L61.3879 187.228L55.9771 187.222L51.2814 187.255C50.9322 184.973 50.5386 182.695 50.1616 180.401L48.8588 172.776L46.0702 157.157L50.9488 157.474L53.3437 157.607L55.7941 157.713C59.0539 157.846 62.3174 157.946 65.5846 158.013C68.8499 158.09 72.1152 158.102 75.3805 158.107C75.9793 158.102 76.578 158.096 77.1712 158.09C77.1907 157.574 77.3054 157.066 77.5094 156.591L75.3694 156.607L65.5901 156.68L55.8052 156.785L53.3548 156.824L50.8601 156.885L45.9482 157.046L47.7112 172.437L48.6869 180.313C49.0251 182.951 49.3466 185.595 49.7236 188.233L49.8289 188.955L50.5607 188.961L55.9771 189.005L61.3879 188.999L72.215 188.91L77.6258 188.861L83.0421 188.772C86.6512 188.727 90.2602 188.605 93.8693 188.533L94.4348 188.522L94.274 188Z" fill="black"/>
<path d="M78.5068 173.075C77.0099 172.337 75.6073 173.819 74.105 172.925C73.1348 172.342 72.8188 171.187 72.5915 170.337C71.8708 167.693 73.2124 166.227 72.3642 165.322C71.5548 164.466 69.3539 164.733 68.04 165.777C66.4434 167.043 66.9091 168.832 65.5342 169.426C64.8689 169.715 64.3035 169.498 62.1802 168.737C57.3127 166.999 56.9024 166.921 56.6585 167.149C55.6218 168.093 57.1353 172.164 59.2364 174.725C60.4117 176.158 55.6606 177.43 55.7438 178.552C55.838 179.79 58.1498 181.145 60.1456 180.829C63.1503 180.357 64.6305 176.252 65.3069 176.574C65.9167 176.858 64.1371 179.923 65.4566 182.351C66.3547 183.995 68.5112 185.061 69.5535 184.478C70.2853 184.072 70.3573 182.923 70.4682 180.679C70.6123 177.719 70.1578 175.98 70.6179 175.813C71.0226 175.663 71.455 177.002 72.7412 177.941C74.9199 179.529 78.9891 179.568 80.0258 177.635C80.7742 176.241 79.9648 173.797 78.5068 173.075ZM67.2805 174.591C65.135 174.591 65.1406 171.259 67.2805 171.259C69.4204 171.259 69.4204 174.591 67.2805 174.591V174.591Z" fill="#FD1A5A"/>
<path d="M64.9946 169.758C64.6224 169.007 64.3305 168.219 64.1238 167.406C63.9114 166.606 63.7976 165.784 63.7847 164.956C63.7833 164.131 63.931 163.312 64.2205 162.54C64.5327 161.794 64.9993 161.124 65.5894 160.572C65.0915 161.178 64.7273 161.882 64.5209 162.638C64.3496 163.385 64.3139 164.156 64.4156 164.915C64.5287 165.668 64.7333 166.405 65.0248 167.109C65.3048 167.806 65.6559 168.471 66.0726 169.096L64.9946 169.758ZM123.44 105.392C115.9 116.839 108.893 129.119 107.607 131.385C106.558 128.498 105.804 125.511 105.356 122.471C105.356 122.471 105.311 122.549 105.228 122.693C105.152 122.263 105.1 121.829 105.073 121.394C105.012 120.738 104.99 120.077 104.99 119.422C104.997 118.106 105.071 116.792 105.212 115.484C105.36 114.153 105.401 112.812 105.334 111.474C105.301 110.134 105.046 108.809 104.58 107.553C104.728 108.197 104.819 108.853 104.851 109.513C104.905 110.169 104.925 110.827 104.912 111.485C104.89 112.801 104.807 114.114 104.663 115.423C104.516 116.754 104.483 118.096 104.563 119.433C104.618 120.577 104.817 121.71 105.156 122.804C103.247 125.848 101.035 128.69 98.5534 131.285C96.3516 133.593 93.8041 135.541 91.0027 137.062C86.0132 139.795 77.3427 144.543 75.4466 145.587C75.6062 144.922 75.6844 144.239 75.6795 143.555C75.6795 141.066 77.132 138.1 77.7917 135.734V135.729L81.2787 136.384C83.5018 136.395 85.7305 136.412 87.9702 136.229C85.8857 135.407 83.8067 134.657 81.7333 133.89L78.0578 133.202C78.0126 132.945 77.913 132.701 77.7657 132.487C77.6185 132.272 77.4269 132.092 77.204 131.957C75.4854 130.897 74.2325 130.897 73.3788 132.318L72.0261 132.058C71.1224 127.575 69.2153 126.076 67.8959 125.581C67.4532 125.401 66.976 125.321 66.4989 125.348C66.4989 125.348 66.5155 125.337 66.5432 125.315C67.3526 124.681 79.6988 114.956 86.4345 104.509C93.4031 93.6948 100.483 87.0519 108.011 86.8799C108.011 86.8799 115.817 86.8243 119.637 87.1576C120.74 89.0017 122.303 100.588 123.44 105.392ZM124.77 148.564C124.927 148.61 125.086 148.647 125.247 148.676H115.141L124.77 148.564ZM133.785 91.0456C134.062 89.4182 134.328 87.6463 134.577 85.7135C134.577 85.7135 136.723 85.347 140.005 85.0137C138.297 86.0357 136.152 88.1908 133.785 91.0456ZM178.49 148.676H127.265C134.455 147.315 143.148 132.524 150.2 117.661C150.239 118.876 150.35 120.087 150.533 121.288C150.699 122.504 151.004 123.699 151.231 124.876C151.438 126.062 151.584 127.258 151.669 128.459C151.745 129.659 151.732 130.864 151.63 132.063C151.544 133.256 151.317 134.434 150.954 135.573L150.948 135.59L150.943 135.618C150.802 136.643 150.752 137.678 150.793 138.711C150.832 139.74 150.954 140.763 151.159 141.772C151.363 142.78 151.681 143.762 152.107 144.699C152.528 145.631 153.069 146.505 153.715 147.298C153.127 146.47 152.639 145.575 152.262 144.632C151.894 143.69 151.623 142.713 151.453 141.716C151.113 139.732 151.098 137.706 151.408 135.718C151.403 135.729 151.403 135.734 151.397 135.746L151.408 135.701C151.791 134.538 152.036 133.333 152.14 132.113C152.253 130.887 152.277 129.655 152.212 128.425C152.135 127.2 151.979 125.981 151.747 124.776C151.503 123.565 151.198 122.399 151.02 121.21C150.795 119.755 150.652 118.288 150.594 116.817C157.878 101.321 163.306 86.0078 163.306 86.0078C167.114 87.0799 170.28 88.835 171.971 91.6065C172.294 92.1404 172.643 92.6576 173.018 93.1561C175.53 96.4164 183.258 106.12 178.49 148.676Z" fill="#FD1A5A"/>
<path d="M123.34 105.501C122.832 103.689 122.457 101.847 122.055 100.013L120.937 94.4999L120.348 91.7578C120.147 90.8483 119.942 89.9364 119.686 89.0593C119.623 88.8397 119.562 88.6177 119.485 88.4142C119.423 88.2146 119.346 88.0205 119.252 87.8338C119.059 87.4604 118.815 87.1159 118.526 86.8101C118.246 86.5036 117.923 86.2393 117.568 86.0256C117.394 85.9238 117.212 85.8374 117.023 85.7673C116.855 85.7037 116.681 85.6591 116.503 85.6343L116.781 85.5795C116.112 85.8861 115.405 86.1041 114.68 86.2281C113.942 86.3583 113.188 86.3609 112.449 86.2359C111.676 86.1079 110.954 85.7688 110.361 85.2559C109.825 84.7548 109.36 84.1815 108.981 83.5523C108.26 82.3625 107.629 81.1199 107.094 79.8351C106.548 78.5674 106.055 77.2885 105.606 75.9825L105.928 76.1959C105.376 76.2347 104.823 76.1347 104.319 75.9051C104.049 75.7689 103.823 75.5577 103.669 75.2965C103.527 75.042 103.445 74.7579 103.431 74.4666C103.415 73.9337 103.502 73.4027 103.687 72.9028C103.854 72.4141 104.07 71.9436 104.331 71.4985C104.878 70.7036 105.139 69.7458 105.071 68.7827C105.027 68.3072 104.893 67.8445 104.675 67.4198C104.448 66.9989 104.189 66.5435 103.981 66.0857C103.763 65.6252 103.585 65.1464 103.45 64.6547C103.302 64.1704 103.18 63.6783 103.085 63.1806C102.968 62.6864 102.928 62.1795 102.848 61.6779C102.811 61.1718 102.759 60.6651 102.767 60.1557C102.758 59.1349 102.854 58.1159 103.055 57.1151C103.25 56.0965 103.572 55.1066 104.013 54.1687C104.045 54.1027 104.095 54.0471 104.158 54.0083C104.22 53.9695 104.292 53.949 104.365 53.9492C104.438 53.9494 104.51 53.9702 104.572 54.0094C104.634 54.0485 104.684 54.1043 104.715 54.1704L104.735 54.211C105.583 55.9475 106.627 57.5807 107.847 59.0788C109.048 60.5751 110.46 61.8891 112.037 62.9796C112.818 63.5164 113.651 63.9713 114.524 64.3372C115.387 64.7104 116.29 64.9829 117.216 65.1493C119.073 65.4745 120.975 65.4288 122.815 65.0148L122.851 65.0074C122.963 64.9848 123.079 64.9933 123.187 65.0318C123.294 65.0704 123.39 65.1377 123.462 65.2264C123.691 65.5094 123.89 65.8153 124.056 66.1393C124.216 66.4355 124.358 66.7415 124.48 67.0554C124.722 67.6696 124.915 68.3026 125.055 68.9481C125.314 70.2195 125.429 71.516 125.399 72.8131C125.377 74.0921 125.251 75.3671 125.022 76.6255C124.906 77.2693 124.834 77.8348 124.742 78.4343C124.707 78.7299 124.688 79.0271 124.684 79.3247C124.659 79.6204 124.657 79.9175 124.678 80.2135C124.697 81.3856 124.984 82.5377 125.515 83.5822C126.046 84.6109 126.875 85.4548 127.893 86.003C128.946 86.5461 130.125 86.7994 131.308 86.7372C132.519 86.6611 133.711 86.4024 134.844 85.9697L134.867 85.9615C134.903 85.9485 134.941 85.9452 134.979 85.9518C135.016 85.9585 135.051 85.975 135.08 85.9996C135.109 86.0242 135.132 86.056 135.144 86.0919C135.157 86.1278 135.16 86.1665 135.154 86.204C134.895 87.6293 134.642 89.054 134.368 90.4731C134.365 90.4896 134.356 90.5042 134.342 90.5136C134.328 90.523 134.311 90.5266 134.294 90.5234C134.279 90.5197 134.265 90.5105 134.256 90.4974C134.246 90.4843 134.242 90.4683 134.244 90.4523C134.388 89.0131 134.552 87.5792 134.711 86.146L135.021 86.3801C133.862 86.9238 132.62 87.2695 131.347 87.403C130.036 87.534 128.713 87.3145 127.514 86.7669C126.294 86.1942 125.286 85.2484 124.636 84.0654C123.996 82.9008 123.629 81.6055 123.563 80.2777C123.531 79.9528 123.524 79.6259 123.54 79.2999C123.534 78.9744 123.546 78.6489 123.574 78.3247C123.649 77.6894 123.72 77.0164 123.807 76.4303C123.99 75.2297 124.087 74.0175 124.098 72.8031C124.11 71.6053 123.988 70.41 123.734 69.2395C123.608 68.6671 123.438 68.1053 123.225 67.5594C123.122 67.2921 123.003 67.0316 122.867 66.7794C122.749 66.5487 122.611 66.3289 122.454 66.1227L123.101 66.3342C121.085 66.7829 118.997 66.807 116.971 66.405C115.96 66.2047 114.976 65.8893 114.036 65.4648C113.098 65.0524 112.205 64.5449 111.37 63.9501C109.718 62.7708 108.258 61.3435 107.04 59.7184C105.807 58.1236 104.783 56.3771 103.992 54.5215L104.714 54.5639C103.838 56.3024 103.362 58.2156 103.321 60.1627C103.28 61.1449 103.352 62.1287 103.537 63.0943C103.622 63.5792 103.733 64.059 103.871 64.5315C103.993 65.0056 104.157 65.4678 104.36 65.9129C104.559 66.3675 104.789 66.7842 105.03 67.2446C105.258 67.7162 105.401 68.2245 105.452 68.746C105.539 69.7933 105.268 70.8389 104.686 71.7127C104.198 72.5333 103.938 73.4693 103.932 74.4242C103.939 74.6294 104.004 74.8286 104.118 74.9994C104.232 75.1701 104.391 75.3057 104.577 75.3909C104.996 75.5495 105.448 75.6035 105.892 75.5481C105.959 75.5428 106.025 75.559 106.082 75.5942C106.139 75.6294 106.183 75.6819 106.208 75.744L106.215 75.7616C106.716 77.0176 107.269 78.2646 107.862 79.4808C108.435 80.6946 109.099 81.8636 109.847 82.9778C110.187 83.5114 110.597 83.9966 111.066 84.4203C111.524 84.7896 112.07 85.033 112.65 85.1267C113.893 85.2843 115.155 85.0918 116.295 84.571L116.343 84.5504C116.416 84.5198 116.495 84.5081 116.573 84.5162C116.86 84.5486 117.142 84.6191 117.411 84.7258C117.66 84.8216 117.901 84.939 118.129 85.0767C118.575 85.3504 118.978 85.6876 119.327 86.0779C119.679 86.4579 119.973 86.8876 120.2 87.3533C120.312 87.5881 120.404 87.8319 120.475 88.0821C120.558 88.3197 120.615 88.5517 120.675 88.7844C121.154 90.6421 121.453 92.4909 121.754 94.349L122.607 99.9145C122.867 101.772 123.148 103.624 123.463 105.473C123.464 105.481 123.464 105.489 123.462 105.497C123.461 105.505 123.457 105.513 123.453 105.52C123.448 105.527 123.442 105.533 123.435 105.537C123.428 105.542 123.42 105.545 123.412 105.546C123.397 105.549 123.381 105.546 123.367 105.537C123.354 105.529 123.344 105.516 123.34 105.501Z" fill="black"/>
<path d="M104.616 76.358C104.48 77.3643 104.362 78.3667 104.25 79.3663C104.145 80.3667 104.053 81.3662 104.021 82.3649C103.971 83.3577 104.013 84.353 104.147 85.338C104.216 85.825 104.346 86.3015 104.533 86.7563C104.715 87.2209 105.017 87.6285 105.408 87.9368C104.945 87.698 104.562 87.327 104.31 86.8705C104.053 86.4161 103.866 85.9257 103.755 85.4158C103.542 84.4076 103.459 83.376 103.51 82.3467C103.596 80.3083 103.969 78.2923 104.616 76.358ZM104.311 55.0346C104.181 54.8068 104.099 54.5551 104.069 54.2945C104.038 54.034 104.061 53.77 104.135 53.5184L104.238 53.1402L104.4 52.7895C104.455 52.6731 104.508 52.5531 104.571 52.4406L104.787 52.1242C105.074 51.7026 105.398 51.3077 105.756 50.9442C106.118 50.5921 106.504 50.2674 106.882 49.9301C108.476 48.722 110.184 47.6718 111.981 46.7941C112.878 46.3677 113.784 45.9599 114.691 45.5543C115.607 45.1774 116.529 44.8136 117.453 44.4558C118.38 44.116 119.32 43.8227 120.256 43.5115C120.729 43.3688 121.185 43.2069 121.691 43.0668C122.181 42.9349 122.678 42.829 123.18 42.7495C125.171 42.4212 127.209 42.5044 129.168 42.9938C131.118 43.4863 132.921 44.4434 134.424 45.7838C135.906 47.1446 137.127 48.7656 138.027 50.5668C138.933 52.3599 139.626 54.2533 140.09 56.2083L140.099 56.2612C140.583 58.945 141.441 61.5473 142.648 63.9916C143.243 65.2117 143.931 66.3834 144.708 67.4963C145.079 68.0637 145.507 68.5854 145.925 69.117C146.35 69.6417 146.825 70.122 147.285 70.616L148.788 72.0114L149.577 72.7468C149.845 72.9846 150.065 73.2762 150.31 73.5382C151.277 74.6087 152.075 75.8211 152.676 77.1334C153.921 79.7263 154.232 82.671 153.557 85.4678C153.553 85.4834 153.543 85.4968 153.53 85.5053C153.516 85.5139 153.5 85.5169 153.484 85.5137C153.468 85.5106 153.454 85.5015 153.445 85.4884C153.436 85.4753 153.432 85.4591 153.434 85.4432L153.435 85.436C153.613 84.0705 153.558 82.6846 153.272 81.3375C153.014 80.0031 152.545 78.7184 151.884 77.5315C151.731 77.2313 151.558 76.9415 151.366 76.664C151.176 76.3857 151.005 76.0961 150.801 75.8281C150.395 75.2911 149.955 74.7813 149.482 74.3016C149.242 74.0656 149.032 73.8021 148.769 73.5887L148.003 72.9284L146.397 71.5349C144.333 69.5382 142.658 67.1747 141.456 64.5648C140.858 63.2726 140.352 61.9395 139.942 60.5756C139.518 59.2103 139.206 57.8124 139.011 56.3959L139.02 56.4486C138.644 54.5466 138.081 52.6864 137.34 50.8948C136.597 49.1011 135.506 47.4729 134.13 46.1045C133.422 45.4428 132.635 44.8726 131.785 44.4073C130.93 43.9524 130.015 43.6191 129.068 43.4169C127.171 43.0382 125.214 43.0849 123.338 43.5536C122.873 43.6613 122.414 43.7935 121.963 43.9496C121.529 44.1027 121.069 44.3017 120.61 44.4764L117.849 45.5116C116.942 45.8775 116.033 46.2373 115.119 46.584L112.431 47.7416C110.66 48.5372 108.954 49.4678 107.325 50.5251C106.945 50.8153 106.551 51.0965 106.182 51.4021C105.821 51.7117 105.485 52.0498 105.177 52.4131L104.947 52.686C104.88 52.7823 104.825 52.8849 104.761 52.9836L104.575 53.2848L104.446 53.6086C104.261 54.0384 104.25 54.5234 104.415 54.9614L104.421 54.9746C104.427 54.989 104.428 55.0054 104.423 55.0204C104.418 55.0354 104.408 55.048 104.394 55.0556C104.38 55.0632 104.364 55.0652 104.348 55.0613C104.333 55.0574 104.32 55.0479 104.311 55.0346L104.311 55.0346ZM105.875 67.2741C106.75 66.644 107.705 66.1332 108.714 65.7551C109.218 65.5608 109.736 65.405 110.264 65.2889C110.794 65.1527 111.347 65.1272 111.888 65.214C111.372 65.3273 110.865 65.481 110.373 65.6737L108.896 66.2338C107.907 66.6055 106.921 66.9897 105.875 67.2741ZM108.642 70.8149C108.841 70.808 109.03 70.724 109.168 70.5805C109.306 70.4371 109.384 70.2454 109.384 70.0459C109.384 69.8465 109.306 69.6548 109.168 69.5113C109.03 69.3679 108.841 69.2838 108.642 69.2769C108.443 69.2838 108.255 69.3679 108.116 69.5113C107.978 69.6548 107.901 69.8465 107.901 70.0459C107.901 70.2454 107.978 70.4371 108.116 70.5805C108.255 70.724 108.443 70.808 108.642 70.8149ZM107.404 80.1314C108.163 80.1506 108.921 80.0899 109.667 79.9501C110.032 79.8787 110.397 79.7969 110.763 79.6965C111.131 79.6012 111.494 79.4821 111.888 79.3903C111.294 79.9405 110.556 80.3095 109.76 80.4539C109.361 80.5255 108.953 80.5402 108.55 80.4978C108.145 80.4636 107.754 80.3383 107.404 80.1314Z" fill="black"/>
<path d="M151.409 135.701V135.718C151.404 135.73 151.404 135.735 151.398 135.747L151.409 135.701Z" fill="white"/>
<path d="M122.125 107.406C122.853 105.716 123.7 104.081 124.66 102.512C125.591 100.936 126.605 99.4161 127.667 97.9309C128.733 96.4484 129.851 95.002 131.052 93.6189C132.234 92.2069 133.531 90.8964 134.931 89.7012C134.04 91.326 133.084 92.8737 132.09 94.3998C131.107 95.932 130.076 97.4278 129.017 98.9037C127.954 100.378 126.866 101.833 125.722 103.251C124.586 104.676 123.415 106.075 122.125 107.406Z" fill="black"/>
<path d="M163.306 86.0079C155.882 83.9084 146.031 84.4028 140.005 85.0137C140.366 84.7913 140.754 84.6141 141.158 84.4861C141.158 84.4861 158.366 81.4423 163.306 86.0079Z" fill="white"/>
<path d="M163.378 86.0486C163.145 86.0204 162.91 86.0057 162.675 86.0046C162.389 85.9943 162.104 85.9682 161.821 85.9263C161.335 85.8787 160.849 85.8378 160.37 85.7769C159.886 85.7382 159.403 85.7024 158.924 85.6497C158.442 85.6101 157.958 85.591 157.478 85.5423L154.588 85.3713C153.623 85.3343 152.66 85.2761 151.693 85.2082C149.762 85.0709 147.813 84.8333 145.862 84.8588C143.911 84.8942 141.967 85.0914 140.049 85.4482L138.097 85.7967L139.782 84.6384C140.161 84.3678 140.573 84.1452 141.007 83.9757L141.066 83.9619C142.925 83.5068 144.812 83.173 146.715 82.9628C147.664 82.8459 148.618 82.7593 149.574 82.6857C150.531 82.6401 151.492 82.5873 152.455 82.617C154.394 82.6302 156.326 82.8502 158.218 83.2733C159.176 83.4887 160.108 83.8046 160.999 84.2159C161.445 84.428 161.872 84.6773 162.276 84.9613C162.479 85.0992 162.664 85.2678 162.855 85.4176C162.968 85.5132 163.07 85.6224 163.157 85.7428C163.247 85.8667 163.308 85.9707 163.378 86.0486ZM163.233 85.9673C163.131 85.9039 163.02 85.8558 162.904 85.8244C162.814 85.7978 162.728 85.7605 162.647 85.7132C162.435 85.6146 162.237 85.5017 162.022 85.4186C161.594 85.2525 161.158 85.1108 160.715 84.9943C159.824 84.7721 158.917 84.6192 158.002 84.5369C156.159 84.3714 154.307 84.3159 152.457 84.3706C150.598 84.414 148.731 84.4731 146.861 84.5791C144.993 84.6935 143.116 84.8646 141.25 85.0103L141.309 84.9965C140.933 85.0813 140.57 85.2132 140.228 85.389L139.961 84.5793C141.928 84.5332 143.883 84.4653 145.837 84.3094C147.79 84.1584 149.749 83.8588 151.725 83.8102C152.218 83.8025 152.712 83.7841 153.206 83.8152C153.699 83.8346 154.193 83.8461 154.685 83.903C155.177 83.9523 155.67 83.9872 156.161 84.0483C156.652 84.1206 157.142 84.1842 157.631 84.2658C158.609 84.4314 159.577 84.6467 160.533 84.911C161.01 85.05 161.481 85.2091 161.951 85.3615C162.145 85.447 162.333 85.5424 162.517 85.6473C162.746 85.7748 162.985 85.8818 163.233 85.9673ZM107.816 133.582C108.782 133.818 109.701 134.037 110.62 134.227C111.54 134.405 112.452 134.551 113.366 134.644C113.822 134.706 114.28 134.715 114.739 134.753C115.197 134.752 115.66 134.79 116.123 134.768C117.058 134.775 117.98 134.645 118.983 134.588C118.156 135.158 117.223 135.553 116.239 135.75C115.253 135.969 114.238 136.021 113.235 135.904C112.236 135.802 111.257 135.555 110.331 135.168C109.401 134.802 108.548 134.264 107.816 133.582ZM131.274 135.356C132.24 135.592 133.159 135.81 134.078 136.001C134.999 136.179 135.91 136.325 136.824 136.418C137.281 136.48 137.738 136.489 138.198 136.527C138.655 136.525 139.119 136.564 139.581 136.541C140.516 136.549 141.438 136.419 142.441 136.361C141.615 136.931 140.681 137.327 139.697 137.523C138.711 137.742 137.696 137.795 136.693 137.678C135.694 137.576 134.716 137.328 133.789 136.942C132.859 136.576 132.006 136.038 131.274 135.356ZM53.0217 147.576C53.5769 148.294 54.0165 149.094 54.3245 149.948H54.0529C45.0608 149.942 36.0705 149.855 27.082 149.686C18.0899 149.503 9.09779 149.281 0.105666 148.898C0.0909709 148.897 0.0764934 148.894 0.063124 148.888C0.0497546 148.882 0.0377692 148.873 0.0279081 148.862C0.018047 148.851 0.0105214 148.838 0.00577875 148.825C0.00103614 148.811 -0.000819292 148.796 0.000330996 148.781C0.00217228 148.754 0.0138592 148.728 0.033229 148.709C0.0525988 148.689 0.0783382 148.677 0.105666 148.676C9.09779 148.281 18.0844 148.054 27.0765 147.865C35.7249 147.693 44.3733 147.596 53.0217 147.576ZM81.5005 147.715C81.0951 148.356 80.757 149.037 80.4915 149.748C77.5921 149.781 74.6945 149.811 71.7988 149.836C72.9214 149.424 73.8817 148.661 74.5374 147.659C76.8603 147.676 79.1813 147.694 81.5005 147.715ZM216 148.57C216 148.584 215.998 148.598 215.993 148.611C215.988 148.624 215.98 148.636 215.97 148.646C215.96 148.656 215.948 148.663 215.935 148.669C215.922 148.674 215.908 148.676 215.895 148.676C206.908 149.076 197.916 149.314 188.924 149.453L182.182 149.542L178.573 149.57L175.436 149.592C173.19 149.609 170.939 149.625 168.694 149.614C166.443 149.62 164.194 149.607 161.947 149.575C157.573 149.514 153.199 149.414 148.825 149.314C144.213 149.209 139.594 149.109 134.976 149.048C125.984 148.953 116.992 149.037 108 149.248C103.97 149.353 99.9393 149.442 95.909 149.514C94.7281 148.998 93.392 148.42 92.0615 147.842C97.3725 147.915 102.685 148.015 108 148.142C116.992 148.337 125.984 148.383 134.976 148.281C143.963 148.142 152.955 147.837 161.947 147.687C164.193 147.654 166.44 147.635 168.689 147.631C170.939 147.615 173.185 147.626 175.436 147.637L182.177 147.67L188.924 147.748C197.91 147.865 206.902 148.076 215.895 148.453C215.909 148.454 215.923 148.458 215.937 148.464C215.95 148.47 215.962 148.479 215.971 148.49C215.981 148.501 215.989 148.513 215.994 148.527C215.998 148.541 216.001 148.556 216 148.57Z" fill="black"/>
<path d="M153.723 148.85C150.073 149.37 146.406 149.788 142.74 150.165C139.072 150.524 135.402 150.864 131.73 151.186C128.059 151.515 124.384 151.781 120.71 152.069C117.035 152.343 113.363 152.643 109.684 152.875L109.679 152.875C109.648 152.877 109.616 152.876 109.584 152.873L99.7045 151.71L99.6964 151.709C99.6477 151.704 99.6002 151.69 99.5555 151.67C95.6493 149.903 91.7466 148.127 87.8256 146.401C86.8468 145.975 85.8586 145.534 84.882 145.15C84.5755 144.952 84.1031 145.281 83.7022 145.569C83.2938 145.888 82.9195 146.249 82.5851 146.645C81.2145 148.254 80.3507 150.234 80.1029 152.335C80.0991 152.37 80.0875 152.403 80.0689 152.432C79.6139 153.127 79.1679 153.828 78.7511 154.544C78.3253 155.248 77.9577 155.986 77.6521 156.751C77.4823 157.104 77.3882 157.49 77.3758 157.882C77.3634 158.275 77.4329 158.665 77.58 159.029C78.0203 159.74 78.4227 160.474 78.7857 161.228C78.802 161.271 78.8047 161.317 78.7935 161.362L78.7928 161.364C78.6703 161.865 78.6186 162.38 78.6391 162.895C78.6514 163.401 78.7721 163.899 78.993 164.354C79.2131 164.798 79.572 165.158 80.0151 165.379C80.2348 165.498 80.468 165.59 80.7096 165.653C80.9527 165.718 81.2113 165.74 81.4611 165.784L81.414 165.784C82.1157 165.682 82.8083 165.525 83.4855 165.314C84.1625 165.109 84.8195 164.842 85.4485 164.518C85.7601 164.359 86.0606 164.179 86.3476 163.978C86.637 163.784 86.8836 163.54 87.1543 163.326C87.6576 162.868 88.052 162.303 88.3085 161.673C88.334 161.609 88.3785 161.554 88.436 161.517C88.4935 161.479 88.5612 161.46 88.6298 161.462C88.6984 161.465 88.7647 161.488 88.8195 161.529C88.8744 161.571 88.9152 161.628 88.9364 161.694L88.9446 161.719C89.5277 163.542 90.806 165.061 92.5012 165.944C94.2478 166.726 96.1966 166.936 98.0693 166.543C99.9436 166.153 101.898 165.57 103.799 165.039C105.695 164.484 107.648 163.936 109.421 163.24L109.433 163.235C109.522 163.2 109.618 163.188 109.713 163.197C116.576 163.936 123.459 164.556 130.34 165.12C137.221 165.708 144.109 166.2 151.001 166.504C154.446 166.67 157.893 166.787 161.336 166.782C163.057 166.779 164.777 166.744 166.491 166.65C168.195 166.575 169.893 166.388 171.573 166.089C172.383 165.954 173.168 165.697 173.901 165.327C174.061 165.237 174.211 165.129 174.348 165.007L174.762 164.541C175.045 164.233 175.302 163.902 175.532 163.553C176.469 162.137 177.161 160.573 177.579 158.926C178.427 155.583 178.714 152.121 178.428 148.684C178.426 148.667 178.43 148.65 178.441 148.637C178.451 148.624 178.467 148.615 178.483 148.614C178.5 148.612 178.516 148.617 178.529 148.628C178.542 148.638 178.551 148.652 178.553 148.669C178.761 150.395 178.832 152.135 178.764 153.873C178.711 155.619 178.493 157.357 178.114 159.063C177.733 160.793 177.058 162.444 176.119 163.945C175.883 164.325 175.618 164.686 175.326 165.024L174.891 165.539C174.713 165.713 174.516 165.866 174.303 165.995C173.506 166.434 172.646 166.748 171.753 166.923C170.04 167.286 168.302 167.522 166.554 167.629C164.818 167.754 163.082 167.819 161.347 167.853C157.878 167.918 154.413 167.861 150.951 167.754C144.03 167.499 137.125 167.015 130.229 166.457C123.335 165.86 116.452 165.157 109.581 164.347L109.873 164.305C108.892 164.696 107.942 164.978 106.976 165.264C106.013 165.545 105.049 165.81 104.084 166.07L101.184 166.827C100.228 167.08 99.2325 167.299 98.2231 167.498C96.1542 167.884 94.0162 167.596 92.1229 166.675C91.2012 166.168 90.3885 165.484 89.7314 164.661C89.0742 163.839 88.5855 162.894 88.2933 161.882L88.9293 161.929C88.6225 162.64 88.161 163.273 87.5786 163.783C87.2789 164.013 86.9983 164.273 86.682 164.476C86.3702 164.683 86.0448 164.868 85.7079 165.031C85.042 165.356 84.3479 165.62 83.6344 165.819C82.924 166.023 82.1988 166.17 81.4654 166.259L81.451 166.261C81.44 166.262 81.4289 166.262 81.418 166.26C81.1416 166.206 80.8611 166.182 80.5884 166.106C80.3118 166.031 80.0452 165.923 79.7943 165.785C79.2732 165.516 78.8525 165.086 78.5944 164.559C78.3479 164.044 78.2149 163.482 78.2047 162.912C78.1864 162.351 78.2479 161.791 78.3874 161.249L78.3944 161.385C78.2425 161.009 78.0599 160.646 77.8485 160.3C77.6172 159.943 77.4057 159.575 77.2149 159.196C77.0256 158.785 76.946 158.332 76.9838 157.881C77.0287 157.447 77.1336 157.022 77.2955 156.618C77.6027 155.831 77.972 155.069 78.3998 154.341C78.8142 153.611 79.2557 152.901 79.7058 152.196L79.6719 152.293C79.9059 150.095 80.7854 148.017 82.1991 146.32C82.5468 145.888 82.9373 145.491 83.3648 145.137C83.5882 144.952 83.8312 144.793 84.0894 144.661C84.2369 144.587 84.3952 144.537 84.5584 144.512C84.6599 144.498 84.7631 144.502 84.8634 144.523C84.9412 144.545 85.0185 144.569 85.0802 144.592C86.1097 144.963 87.0915 145.371 88.0902 145.772C92.0658 147.39 96.0143 149.064 99.9685 150.725L99.8198 150.685L109.71 151.756L109.61 151.753L131.663 150.294C135.339 150.063 139.015 149.818 142.689 149.559L148.201 149.179L153.707 148.724C153.723 148.722 153.74 148.727 153.753 148.738C153.766 148.748 153.775 148.763 153.777 148.78C153.778 148.796 153.774 148.812 153.764 148.825C153.754 148.838 153.739 148.847 153.723 148.85Z" fill="black"/>
<path d="M84.2854 160.438C84.6426 160.065 85.0552 159.749 85.5087 159.502C85.9731 159.225 86.5231 159.128 87.054 159.231C87.5866 159.398 88.0323 159.768 88.2949 160.261C88.4199 160.498 88.5327 160.743 88.6351 160.99L88.8716 161.749C88.8817 161.782 88.8854 161.816 88.8823 161.85C88.8793 161.884 88.8696 161.917 88.8538 161.947C88.8381 161.977 88.8166 162.003 88.7905 162.025C88.7644 162.047 88.7343 162.063 88.7019 162.074C88.6695 162.084 88.6355 162.087 88.6017 162.084C88.5679 162.081 88.535 162.072 88.505 162.056C88.4749 162.04 88.4482 162.018 88.4265 161.992C88.4048 161.966 88.3884 161.936 88.3782 161.904C88.3761 161.897 88.3743 161.89 88.3728 161.883L88.3667 161.856L88.2062 161.131C88.1316 160.9 88.048 160.669 87.9543 160.445C87.769 160.008 87.42 159.661 86.9822 159.479C86.5083 159.351 86.0039 159.4 85.5642 159.619C85.0984 159.824 84.667 160.101 84.2854 160.438ZM78.3831 161.151C79.1891 160.129 79.939 159.064 80.6293 157.96C80.9757 157.408 81.2918 156.838 81.5761 156.251C81.8796 155.672 82.0839 155.046 82.1804 154.4C82.1257 155.057 81.9614 155.7 81.6943 156.303C81.4465 156.913 81.1657 157.509 80.853 158.088C80.2291 159.249 79.5423 160.375 78.7959 161.461C78.7572 161.518 78.6976 161.557 78.6303 161.569C78.563 161.582 78.4934 161.567 78.437 161.529C78.3805 161.49 78.3417 161.43 78.3291 161.363C78.3166 161.295 78.3312 161.225 78.37 161.169L78.3796 161.156L78.3831 161.151ZM77.2594 159.158L82.1804 150.881L77.7095 159.41C77.6938 159.44 77.6723 159.467 77.6462 159.489C77.6202 159.511 77.5901 159.527 77.5578 159.537C77.5254 159.547 77.4914 159.551 77.4577 159.548C77.4239 159.545 77.3911 159.535 77.3611 159.519C77.3311 159.503 77.3045 159.482 77.2828 159.456C77.2611 159.43 77.2448 159.399 77.2347 159.367C77.2246 159.335 77.221 159.3 77.2241 159.267C77.2272 159.233 77.2369 159.2 77.2526 159.17L77.2594 159.158ZM79.6692 152.171L82.9233 147.66L80.1009 152.454C80.0661 152.513 80.0093 152.556 79.943 152.573C79.8767 152.59 79.8063 152.58 79.7473 152.545C79.6883 152.51 79.6455 152.453 79.6284 152.387C79.6113 152.321 79.6213 152.25 79.6561 152.191C79.6601 152.184 79.6647 152.177 79.6692 152.171ZM67.8688 125.639C67.5599 125.499 67.2218 125.437 66.8833 125.456C66.5442 125.457 66.2055 125.483 65.8702 125.534C65.2197 125.659 64.6132 125.952 64.111 126.384C63.6281 126.827 63.2463 127.368 62.9916 127.972C62.7304 128.574 62.5674 129.215 62.5088 129.869C62.5009 129.961 62.4604 130.048 62.3946 130.113C62.3288 130.178 62.242 130.218 62.1496 130.225C62.0573 130.233 61.9654 130.207 61.8902 130.152C61.8151 130.098 61.7617 130.019 61.7395 129.929L61.7365 129.916C61.4616 128.743 61.0418 127.608 60.4868 126.538C59.9711 125.502 59.1873 124.624 58.2171 123.995C57.9865 123.853 57.7406 123.737 57.4841 123.65C57.3688 123.609 57.2496 123.58 57.1284 123.562L56.6899 123.507C56.1347 123.432 55.5705 123.459 55.0252 123.588C54.5093 123.702 54.0277 123.937 53.62 124.274C53.2123 124.61 52.89 125.039 52.6795 125.524L52.6576 125.575C52.6 125.708 52.4922 125.812 52.3578 125.865C52.2234 125.918 52.0734 125.916 51.9409 125.858C51.9029 125.841 51.8668 125.82 51.8334 125.796C51.547 125.579 51.2006 125.457 50.842 125.446C50.4468 125.446 50.0553 125.524 49.6903 125.676C48.906 125.951 48.2539 126.512 47.8636 127.247L47.8408 127.291L47.7997 127.384L47.7407 127.527C47.706 127.62 47.6764 127.715 47.6519 127.811C47.6038 127.996 47.5828 128.188 47.5896 128.379C47.6108 128.763 47.7609 129.129 48.0155 129.417C48.615 130.033 49.377 130.465 50.2126 130.664L50.2346 130.67C50.2888 130.685 50.336 130.719 50.368 130.765C50.7193 131.292 51.0267 131.848 51.2871 132.426C51.4217 132.705 51.5502 132.982 51.7025 133.241C51.8591 133.514 52.0157 133.786 52.1517 134.076C52.3025 134.369 52.4124 134.683 52.4785 135.006C52.5144 135.11 52.5207 135.221 52.4964 135.328C52.4722 135.435 52.4184 135.533 52.3413 135.611C52.2643 135.689 52.1669 135.744 52.0604 135.769C51.9538 135.794 51.8424 135.788 51.7387 135.753C51.1109 135.601 50.5123 135.346 49.9665 135C49.421 134.685 48.9007 134.351 48.3792 133.993C47.8659 133.614 47.3933 133.183 46.9689 132.707C46.7549 132.478 46.5478 132.219 46.3549 132.034C46.1523 131.844 45.9174 131.692 45.6613 131.584C45.138 131.378 44.5652 131.333 44.0159 131.453C43.4742 131.559 42.9732 131.816 42.5702 132.193C42.3961 132.372 42.2678 132.589 42.1962 132.828C42.1246 133.067 42.1119 133.32 42.1593 133.565C42.2628 134.115 42.4709 134.641 42.7722 135.113C43.0768 135.618 43.4279 136.093 43.8209 136.532C44.0168 136.753 44.2223 136.969 44.432 137.167L45.1204 137.769C45.5927 138.188 46.0514 138.617 46.4966 139.054C47.391 139.93 48.2598 140.818 49.1212 141.727C49.2009 141.81 49.2538 141.916 49.2729 142.03L49.2807 142.077C49.3549 142.445 49.4771 142.803 49.644 143.139C49.8185 143.496 50.0317 143.833 50.2798 144.143C50.5279 144.458 50.8084 144.745 51.1165 145.001C51.4263 145.275 51.7387 145.451 52.1598 145.765C52.9237 146.361 53.5748 147.089 54.0823 147.915C54.5947 148.734 54.9785 149.627 55.2203 150.563L55.1835 150.447C55.4742 151.203 56.0034 151.844 56.6907 152.271C57.4264 152.669 58.2519 152.87 59.0876 152.855C59.9813 152.851 60.8705 152.731 61.7331 152.497C62.613 152.268 63.4706 151.962 64.2958 151.58L64.3278 151.565C64.3411 151.559 64.3546 151.554 64.3685 151.549C65.4407 151.214 66.511 150.885 67.5934 150.586C68.6761 150.285 69.7538 149.984 70.8658 149.738C71.9306 149.578 72.9208 149.094 73.7029 148.353C74.4957 147.589 75.0756 146.631 75.3853 145.573C75.3901 145.557 75.4011 145.543 75.4159 145.535C75.4307 145.528 75.448 145.526 75.4641 145.531C75.479 145.535 75.4917 145.545 75.4998 145.559C75.5079 145.572 75.5109 145.588 75.5081 145.603C75.2975 146.738 74.7788 147.794 74.009 148.653C73.6172 149.089 73.1617 149.463 72.6581 149.763C72.4031 149.914 72.1348 150.041 71.8566 150.142C71.5671 150.237 71.2732 150.329 71.024 150.389C69.9667 150.691 68.9073 151.056 67.8539 151.419L64.6933 152.524L64.7657 152.493C63.8909 152.94 62.9772 153.306 62.0361 153.587C61.0822 153.883 60.0939 154.053 59.0961 154.092C58.0333 154.142 56.977 153.902 56.0397 153.397C55.5637 153.121 55.138 152.765 54.7809 152.346C54.4399 151.928 54.1578 151.466 53.9425 150.971L53.9298 150.938L53.9056 150.855C53.6879 150.073 53.3624 149.325 52.9386 148.633C52.5159 147.943 51.9759 147.332 51.343 146.828C51.0613 146.603 50.6094 146.319 50.2608 145.996C49.893 145.677 49.5594 145.321 49.2654 144.932C48.9674 144.542 48.7131 144.121 48.5072 143.676C48.288 143.212 48.137 142.72 48.059 142.213L48.2184 142.562C47.3917 141.654 46.5441 140.75 45.6836 139.873C45.2511 139.436 44.8198 138.998 44.3796 138.578C44.1576 138.36 43.9459 138.183 43.691 137.93C43.4582 137.693 43.244 137.451 43.0379 137.2C42.621 136.699 42.2521 136.159 41.9359 135.589C41.5927 134.996 41.3748 134.339 41.2958 133.658C41.2593 133.288 41.3022 132.915 41.4216 132.564C41.5482 132.209 41.7609 131.891 42.0405 131.638C42.5694 131.186 43.2155 130.893 43.9037 130.793C44.5801 130.68 45.2748 130.771 45.8992 131.055C46.2094 131.203 46.4907 131.405 46.7299 131.652C46.9715 131.91 47.1376 132.148 47.3373 132.382C47.7213 132.848 48.159 133.266 48.6412 133.629C49.1354 133.982 49.6527 134.328 50.1757 134.642C50.6729 134.969 51.2183 135.216 51.792 135.374C52.3653 135.549 52.0288 134.747 51.7915 134.251C51.6601 133.98 51.5042 133.716 51.349 133.452C51.1836 133.178 51.0353 132.899 50.8927 132.623C50.6243 132.078 50.3104 131.556 49.9544 131.063L50.1096 131.164C49.6365 131.068 49.1764 130.917 48.7389 130.713C48.2835 130.509 47.8694 130.223 47.5172 129.869C47.1383 129.483 46.8993 128.98 46.8382 128.442C46.8115 128.175 46.8241 127.906 46.8757 127.643C46.9004 127.515 46.932 127.388 46.9703 127.264L47.0321 127.085L47.0655 126.993L47.1261 126.861L47.1034 126.905C47.312 126.418 47.6197 125.98 48.0068 125.618C48.3879 125.265 48.8234 124.976 49.2964 124.762C49.7827 124.524 50.3152 124.396 50.8563 124.386C51.4378 124.386 52.005 124.566 52.4805 124.902L51.6345 125.173C51.7602 124.826 51.9356 124.5 52.1553 124.204C52.363 123.915 52.6054 123.652 52.877 123.422C53.4225 122.962 54.0702 122.64 54.7657 122.483C55.4348 122.334 56.1251 122.308 56.8035 122.405L57.2887 122.473C57.4748 122.503 57.6576 122.55 57.8345 122.614C58.1657 122.731 58.4826 122.885 58.7793 123.073C59.8949 123.824 60.783 124.867 61.3466 126.09C61.8965 127.254 62.2852 128.487 62.502 129.757L61.7297 129.804C61.8324 129.067 62.055 128.352 62.3885 127.688C62.7104 127.013 63.189 126.426 63.7842 125.976C64.3836 125.542 65.0862 125.272 65.822 125.195C66.1799 125.168 66.5395 125.173 66.8965 125.211C67.2586 125.233 67.6103 125.341 67.9231 125.525C67.9372 125.533 67.9477 125.546 67.9527 125.561C67.9576 125.576 67.9565 125.593 67.9496 125.608C67.9427 125.622 67.9305 125.634 67.9155 125.639C67.9005 125.645 67.8838 125.645 67.8689 125.639L67.8688 125.639Z" fill="black"/>
<path d="M69.5115 131.541C69.7604 132.113 69.9007 132.725 69.9251 133.348C69.9423 133.654 69.9416 133.961 69.9229 134.267C69.8967 134.574 69.8636 134.881 69.8104 135.185L69.8054 135.213C69.7985 135.252 69.7849 135.289 69.7652 135.324C69.6272 135.571 69.4685 135.805 69.2908 136.025C69.1024 136.244 68.894 136.445 68.6685 136.625C68.2364 137.005 67.7308 137.292 67.1833 137.467C66.5991 137.614 65.9829 137.561 65.432 137.317C65.1414 137.193 64.8763 137.016 64.6504 136.795C64.5888 136.73 64.5309 136.662 64.477 136.591C64.417 136.5 64.3659 136.402 64.3247 136.301L64.1908 135.914L63.9423 135.172C63.8672 134.969 63.7735 134.774 63.6622 134.589C63.5527 134.401 63.4321 134.221 63.301 134.049C63.2455 133.981 63.1461 133.843 63.0651 133.72C62.9822 133.596 62.8965 133.473 62.8188 133.347C62.5328 132.852 62.3295 132.315 62.2171 131.754C62.0965 131.214 62.0578 130.658 62.1023 130.106C62.1039 130.089 62.1123 130.072 62.1258 130.061C62.1394 130.05 62.1568 130.044 62.1743 130.046C62.1849 130.047 62.195 130.05 62.2039 130.056C62.2128 130.062 62.2203 130.069 62.2257 130.078C62.6968 130.977 63.2409 131.835 63.8525 132.644C63.9329 132.726 64.0053 132.813 64.0805 132.898C64.1582 132.984 64.212 133.059 64.3324 133.187C64.5373 133.417 64.7115 133.674 64.8507 133.949C64.9883 134.227 65.093 134.519 65.1627 134.821C65.2004 134.982 65.2189 135.112 65.2417 135.23L65.3092 135.603L65.372 135.98C65.3852 136.022 65.3714 136.006 65.3851 136.045C65.4054 136.081 65.4138 136.121 65.438 136.163C65.5456 136.351 65.6791 136.522 65.8345 136.672C65.9947 136.838 66.1929 136.962 66.4119 137.034C66.6309 137.106 66.8641 137.124 67.0913 137.085C67.3262 137.026 67.5447 136.915 67.7305 136.76C67.9162 136.604 68.0644 136.409 68.1638 136.188C68.2778 135.97 68.3795 135.747 68.4684 135.518C68.5459 135.285 68.6379 135.058 68.7439 134.836L68.6987 134.975C68.7643 134.413 68.9054 133.862 69.0009 133.29C69.1156 132.721 69.2289 132.156 69.3857 131.554C69.3878 131.545 69.3915 131.537 69.3967 131.53C69.402 131.523 69.4085 131.517 69.416 131.512C69.4236 131.508 69.4319 131.505 69.4407 131.503C69.4494 131.502 69.4583 131.502 69.4668 131.505C69.4765 131.507 69.4854 131.512 69.4932 131.518C69.5009 131.524 69.5071 131.532 69.5115 131.541ZM48.6693 142.146C48.5673 141.8 48.5223 141.44 48.5361 141.079C48.5439 140.716 48.6017 140.356 48.708 140.009C48.8126 139.647 48.9983 139.313 49.251 139.034C49.3744 138.89 49.5271 138.774 49.6987 138.694C49.8704 138.614 50.0571 138.572 50.2464 138.57C49.9663 138.747 49.7335 138.99 49.5678 139.277C49.4078 139.556 49.2827 139.854 49.1955 140.164C48.9927 140.79 48.8703 141.454 48.6693 142.146ZM50.1634 130.916C50.5981 130.808 50.9529 130.734 51.3299 130.66C51.517 130.625 51.7044 130.588 51.9006 130.559C52.108 130.522 52.3183 130.504 52.5289 130.504C52.2549 130.852 51.8628 131.086 51.4272 131.163C51.2115 131.203 50.9907 131.207 50.7737 131.175C50.55 131.147 50.3384 131.058 50.1634 130.916ZM52.4715 125.346C52.464 125.896 52.5363 126.444 52.686 126.974C52.8183 127.502 53.0997 127.982 53.4965 128.354C53.7063 128.531 53.9501 128.664 54.2129 128.743C54.4756 128.823 54.7518 128.848 55.0245 128.817C55.3082 128.794 55.5895 128.747 55.8656 128.678L56.6789 128.383L55.8905 128.753C55.6137 128.85 55.3293 128.924 55.0403 128.974C54.7408 129.034 54.4323 129.032 54.1336 128.968C53.8349 128.904 53.5522 128.781 53.3026 128.604C52.8134 128.225 52.4436 127.713 52.2376 127.128C52.0182 126.559 51.884 125.96 51.8392 125.351C51.8327 125.267 51.8598 125.184 51.9144 125.12C51.969 125.056 52.0468 125.016 52.1305 125.01C52.2143 125.003 52.2972 125.03 52.361 125.085C52.4248 125.14 52.4643 125.218 52.4708 125.302C52.4716 125.311 52.4719 125.321 52.4717 125.33L52.4715 125.346Z" fill="black"/>
<path d="M55.0186 128.924C55.4586 129.593 55.8471 130.294 56.1809 131.022C56.5507 131.757 56.8048 132.544 56.934 133.356C56.97 133.508 57.0419 133.648 57.1437 133.765C57.2455 133.882 57.3741 133.973 57.5186 134.03C57.8488 134.197 58.2039 134.31 58.5701 134.364C58.9442 134.428 59.3261 134.432 59.7015 134.377C60.0882 134.344 60.4474 134.163 60.7041 133.871C60.6075 134.055 60.4738 134.216 60.3114 134.345C60.149 134.474 59.9616 134.568 59.7611 134.621C59.3627 134.746 58.9443 134.794 58.5281 134.762C58.1036 134.74 57.6869 134.639 57.2997 134.463C57.0742 134.374 56.8752 134.229 56.7218 134.041C56.5684 133.854 56.4658 133.629 56.4237 133.39C56.3822 133.016 56.3006 132.647 56.1802 132.29C56.0713 131.916 55.9394 131.546 55.8124 131.172L55.0186 128.924Z" fill="black"/>
<path d="M63.2614 132.896C62.8235 132.813 62.391 132.724 61.9531 132.635L49.1024 130.002L47.8662 129.747L42.6771 128.675C40.6148 127.853 38.5525 127.037 36.5234 126.07C38.7742 126.003 40.9862 126.087 43.2038 126.17C44.623 126.487 46.0533 126.781 47.4836 127.075C48.1932 127.225 48.9028 127.37 49.6125 127.52L62.1637 130.091C62.3724 131.081 62.7433 132.028 63.2614 132.896Z" fill="black"/>
<path d="M62.1138 129.836C62.453 130.833 62.9283 131.779 63.526 132.646L64.0089 133.207C64.2167 133.418 64.4045 133.647 64.5698 133.893C64.7362 134.145 64.8721 134.417 64.9746 134.702C65.0822 135.006 65.1412 135.255 65.2185 135.498C65.2982 135.735 65.3573 136.052 65.4201 136.083C65.5421 136.242 65.6906 136.38 65.8591 136.489C66.1817 136.712 66.5762 136.807 66.9649 136.754C67.3752 136.651 67.7415 136.418 68.0092 136.09C68.174 135.916 68.3243 135.728 68.4586 135.529L68.8506 134.887L68.8149 134.996C68.9658 134.272 69.1228 133.532 69.2031 132.78C69.2504 132.405 69.2841 132.028 69.2953 131.649C69.3164 131.266 69.3027 130.883 69.2542 130.503C69.5674 131.228 69.7422 132.005 69.7696 132.794C69.7916 133.188 69.796 133.581 69.7885 133.975C69.7694 134.37 69.7253 134.765 69.6936 135.162C69.6919 135.185 69.6864 135.207 69.6774 135.227L69.6579 135.272C69.4379 135.811 69.142 136.315 68.7792 136.77C68.3869 137.298 67.8214 137.67 67.1821 137.822C66.847 137.888 66.502 137.883 66.1686 137.809C65.8352 137.736 65.5206 137.594 65.2444 137.392C64.9675 137.203 64.7271 136.965 64.5347 136.689C64.4731 136.604 64.4223 136.512 64.3835 136.414C64.3495 136.337 64.3242 136.256 64.308 136.173L64.2158 135.767C64.1512 135.493 64.1016 135.216 64.0436 135.011C63.9774 134.786 63.89 134.568 63.7824 134.361C63.6724 134.146 63.5427 133.943 63.3949 133.753C63.2333 133.509 63.0593 133.274 62.921 133.024C62.4209 132.034 62.1453 130.945 62.1138 129.836ZM147.981 66.8252C147.984 67.1031 148.058 67.3756 148.193 67.6181C148.329 67.8605 148.523 68.0651 148.758 68.2132C149.227 68.5097 149.745 68.7198 150.287 68.8336L151.922 69.216L152.743 69.4278C152.881 69.4649 153.018 69.5012 153.154 69.5449L153.54 69.6439C154.05 69.7917 154.579 69.8611 155.11 69.8499C155.65 69.8354 156.175 69.6719 156.628 69.3772C157.081 69.0698 157.435 68.638 157.648 68.1336C157.752 67.885 157.818 67.6225 157.845 67.3545C157.877 67.1066 157.862 66.8546 157.799 66.6127C157.726 66.42 157.594 66.2558 157.422 66.1445C157.213 66.0187 156.991 65.9161 156.759 65.8385C156.262 65.6623 155.706 65.509 155.144 65.3218C154.561 65.1377 153.995 64.9031 153.453 64.6206C153.172 64.4725 152.903 64.3033 152.648 64.1145C152.43 63.985 152.231 63.8254 152.018 63.7261C151.628 63.493 151.174 63.3903 150.722 63.4329C150.27 63.4756 149.843 63.6613 149.503 63.9633C149.063 64.3069 148.701 64.7393 148.438 65.2323C148.176 65.7253 148.02 66.2679 147.981 66.8252ZM147.852 66.8252C147.871 66.2332 147.964 65.646 148.127 65.0767C148.277 64.4738 148.533 63.9021 148.881 63.3874C149.267 62.7984 149.861 62.3768 150.544 62.2065C151.252 62.0552 151.991 62.1569 152.632 62.494C152.924 62.6475 153.204 62.8215 153.471 63.0147C153.682 63.1634 153.893 63.312 154.118 63.4499C154.585 63.7284 155.071 63.9727 155.572 64.1809C156.088 64.4043 156.634 64.599 157.189 64.8976C157.488 65.0506 157.762 65.2484 158.002 65.4841C158.268 65.7537 158.439 66.1022 158.49 66.4774C158.489 69.1789 155.892 71.0061 153.357 70.7014C152.765 70.6306 152.18 70.5016 151.613 70.3162C151.042 70.134 150.491 69.8911 149.972 69.5916C149.44 69.2878 148.956 68.9059 148.537 68.4587C148.114 68.0183 147.87 67.436 147.852 66.8252ZM156.078 48.586C156.087 49.0662 156.208 49.5375 156.431 49.9625C156.663 50.3791 156.981 50.7415 157.364 51.0257C158.14 51.5808 159.007 51.9972 159.926 52.2562C160.835 52.5531 161.77 52.7748 162.699 53.0281L164.103 53.3931C164.338 53.4522 164.574 53.5104 164.807 53.5788L165.488 53.7344C166.392 53.96 167.327 54.0349 168.255 53.9561C169.194 53.8776 170.096 53.5585 170.876 53.0294C171.653 52.4829 172.269 51.7356 172.656 50.867C172.739 50.646 172.829 50.4276 172.896 50.2029C172.957 49.9769 173.003 49.747 173.033 49.5148C173.105 49.0703 173.097 48.6168 173.012 48.1748C172.896 47.7848 172.657 47.4426 172.332 47.1989C171.967 46.9454 171.571 46.7386 171.155 46.5833C170.291 46.2424 169.351 45.9683 168.415 45.6348C167.456 45.3097 166.524 44.9086 165.629 44.4353C165.173 44.1885 164.735 43.9103 164.318 43.6026C163.959 43.3349 163.578 43.0962 163.181 42.8888C162.448 42.4689 161.602 42.2912 160.763 42.3809C159.907 42.53 159.114 42.9293 158.483 43.5285C157.786 44.1718 157.217 44.9419 156.806 45.7979C156.368 46.665 156.12 47.6154 156.078 48.586ZM155.949 48.586C155.979 47.5915 156.158 46.6071 156.481 45.666C156.781 44.6889 157.247 43.7712 157.86 42.9536C158.512 42.0556 159.462 41.4197 160.54 41.1596C161.651 40.9554 162.798 41.1315 163.796 41.6594C164.27 41.8988 164.72 42.1813 165.142 42.5032C165.518 42.7673 165.893 43.0314 166.293 43.2679C167.108 43.7455 167.961 44.1573 168.841 44.4995C169.734 44.8626 170.663 45.1787 171.585 45.6422C172.068 45.8733 172.516 46.175 172.911 46.5376C173.33 46.9394 173.607 47.4656 173.703 48.0382C173.767 49.0846 173.542 50.1284 173.051 51.0546C172.588 51.9597 171.929 52.7497 171.122 53.3667C170.296 53.9793 169.356 54.4209 168.357 54.6657C167.359 54.9104 166.321 54.9533 165.306 54.7919L164.547 54.6707C164.305 54.6227 164.065 54.5645 163.826 54.5072C163.346 54.3892 162.866 54.2732 162.393 54.1195C161.433 53.837 160.502 53.467 159.61 53.0143C158.702 52.5649 157.87 51.9769 157.143 51.2712C156.776 50.9253 156.482 50.5097 156.277 50.0487C156.072 49.5877 155.96 49.0905 155.949 48.586H155.949ZM160.039 24.0338C159.767 24.7166 159.635 25.4475 159.652 26.1826C159.685 26.9168 159.922 27.6273 160.336 28.2341C161.209 29.4222 162.355 30.3822 163.676 31.0328C166.32 32.3566 169.079 33.4368 171.918 34.2598C174.744 35.1517 177.595 35.9969 180.406 36.9883C181.816 37.4717 183.213 37.997 184.598 38.5641C185.974 39.1085 187.326 39.6669 188.728 40.1051C191.489 41.0844 194.385 41.6275 197.312 41.7149C198.768 41.7392 200.22 41.5445 201.618 41.1371C203.016 40.725 204.305 40.0052 205.39 39.0304C206.466 38.0388 207.324 36.8342 207.912 35.4929C208.493 34.143 208.884 32.7184 209.073 31.2604C209.272 29.7999 209.338 28.3242 209.268 26.8517C209.23 26.1149 209.187 25.3792 209.101 24.6457C209.038 23.9188 208.923 23.1973 208.758 22.4866C207.995 19.6558 206.784 16.9657 205.172 14.5184C203.594 12.0531 201.712 9.79717 199.571 7.80395C197.451 5.8152 195.013 4.1986 192.357 3.02209C191.038 2.4503 189.665 2.01408 188.259 1.72013C186.854 1.43699 185.419 1.32845 183.987 1.39699C181.104 1.43177 178.266 2.11492 175.682 3.39601C173.1 4.73167 170.79 6.53927 168.87 8.72563C166.924 10.9457 165.229 13.3759 163.819 15.9713C162.394 18.5781 161.132 21.2707 160.039 24.0338ZM159.92 23.9857C161.017 21.2205 162.186 18.4815 163.502 15.8045C164.799 13.0992 166.382 10.5416 168.225 8.1757C170.093 5.75934 172.439 3.75597 175.116 2.29141C177.845 0.863791 180.866 0.0872582 183.944 0.0224129C187.026 -0.108766 190.095 0.497761 192.896 1.79172C195.666 3.06568 198.202 4.79854 200.397 6.91741C202.585 9.0074 204.483 11.3824 206.04 13.9788C207.635 16.5535 208.787 19.3787 209.447 22.3363C209.925 25.3124 209.95 28.344 209.521 31.3276C209.081 34.2794 207.915 37.2552 205.671 39.3389C204.555 40.3774 203.229 41.1625 201.783 41.6407C200.344 42.1267 198.841 42.3937 197.324 42.4327C194.302 42.4742 191.293 42.0344 188.41 41.1298C186.967 40.7088 185.552 40.182 184.169 39.6286C182.802 39.0776 181.415 38.5682 180.027 38.0567C177.244 37.0535 174.439 36.0795 171.654 35.0244C170.261 34.4974 168.873 33.9519 167.504 33.3563C166.125 32.7753 164.789 32.0961 163.507 31.3239C162.867 30.9312 162.256 30.4948 161.676 30.0176C161.098 29.5329 160.595 28.9633 160.187 28.3283C159.772 27.6897 159.536 26.9511 159.504 26.1898C159.493 25.4345 159.634 24.6848 159.92 23.9857Z" fill="black"/>
<path d="M181.098 23.2345H181.319C180.273 24.1891 179.429 25.345 178.839 26.6332C178.249 27.9215 177.923 29.3156 177.882 30.7326C177.872 31.4979 177.946 32.262 178.103 33.0109C178.117 33.084 178.146 33.1536 178.188 33.2155C178.229 33.2774 178.282 33.3304 178.344 33.3715C178.406 33.4126 178.476 33.441 178.549 33.455C178.622 33.469 178.697 33.4683 178.77 33.453C180.541 33.0989 182.189 32.2874 183.55 31.0989C184.911 29.9105 185.939 28.3864 186.532 26.6775C187.223 28.3467 188.339 29.8049 189.769 30.9064C191.199 32.0079 192.893 32.714 194.681 32.9543C194.837 32.9707 194.994 32.9316 195.125 32.8437C195.229 32.7345 195.305 32.6011 195.345 32.4555C195.583 30.6677 195.356 28.8485 194.686 27.1744C194.016 25.5002 192.926 24.0279 191.521 22.9001C193.313 22.7801 195.044 22.2014 196.548 21.2195C198.053 20.2376 199.28 18.8853 200.114 17.292C200.147 17.23 200.168 17.162 200.174 17.0919C200.181 17.0219 200.174 16.9512 200.153 16.884C200.132 16.8168 200.098 16.7544 200.053 16.7004C200.008 16.6464 199.953 16.6019 199.891 16.5694C198.289 15.7485 196.502 15.358 194.704 15.4359C192.906 15.5139 191.16 16.0578 189.635 17.0143C190.113 15.2737 190.135 13.4388 189.698 11.6873C189.261 9.93572 188.38 8.32696 187.14 7.01683C187.09 6.96401 187.03 6.92194 186.963 6.89319C186.897 6.86444 186.825 6.84961 186.752 6.84961C186.68 6.84961 186.608 6.86444 186.541 6.89319C186.475 6.92194 186.415 6.96401 186.365 7.01683C184.959 8.34811 183.959 10.0504 183.478 11.9272C182.997 13.804 183.055 15.7788 183.647 17.6236C182.036 16.5513 180.149 15.9723 178.216 15.9574C176.285 15.902 174.38 16.4036 172.726 17.4026C172.662 17.4412 172.607 17.4923 172.564 17.5529C172.521 17.6135 172.491 17.6822 172.476 17.7549C172.46 17.8275 172.459 17.9026 172.474 17.9755C172.488 18.0485 172.517 18.1177 172.559 18.179C173.406 19.7052 174.644 20.9778 176.145 21.8663C177.645 22.7547 179.355 23.227 181.098 23.2345ZM186.419 17.5131C187.335 17.5275 188.21 17.9025 188.853 18.5573C189.497 19.212 189.858 20.094 189.858 21.0128C189.858 21.9316 189.497 22.8136 188.853 23.4683C188.21 24.1231 187.335 24.4981 186.419 24.5125C185.959 24.5143 185.504 24.425 185.08 24.2497C184.656 24.0745 184.27 23.8167 183.945 23.4913C183.621 23.166 183.364 22.7794 183.189 22.354C183.015 21.9286 182.926 21.4728 182.928 21.0128C182.933 20.0867 183.303 19.2 183.956 18.5449C184.609 17.8897 185.494 17.519 186.419 17.5131Z" fill="#FD1A5A"/>
<path d="M186.418 23.3443C187.05 23.3443 187.656 23.0928 188.103 22.6451C188.55 22.1973 188.801 21.5901 188.801 20.9569C188.801 20.3237 188.55 19.7164 188.103 19.2687C187.656 18.8209 187.05 18.5694 186.418 18.5694C186.105 18.567 185.794 18.6271 185.504 18.7462C185.214 18.8653 184.951 19.0409 184.729 19.263C184.507 19.485 184.332 19.749 184.213 20.0396C184.094 20.3301 184.034 20.6415 184.037 20.9555C184.05 21.5844 184.305 22.1839 184.749 22.629C185.192 23.0741 185.791 23.3303 186.418 23.3443ZM201.504 101.692C202.367 103.111 203.397 104.419 204.574 105.59C203.382 105.631 202.199 105.374 201.131 104.842C200.36 104.444 199.709 103.847 199.245 103.112C198.792 102.368 198.543 101.517 198.52 100.646C198.498 99.4533 198.777 98.2746 199.33 97.2184C199.868 98.7938 200.598 100.296 201.504 101.692Z" fill="black"/>
<path d="M205.394 102.162C205.416 103.356 205.133 104.536 204.574 105.59C204.036 104.014 203.306 102.512 202.4 101.116C201.534 99.6992 200.504 98.3908 199.33 97.2183C200.52 97.1758 201.701 97.4367 202.762 97.9764C203.533 98.3737 204.187 98.9664 204.659 99.6956C205.121 100.437 205.375 101.289 205.394 102.162ZM198.659 111.879C199.522 113.3 200.556 114.609 201.739 115.776C200.547 115.819 199.364 115.562 198.296 115.029C197.522 114.63 196.867 114.034 196.399 113.299C195.947 112.554 195.697 111.704 195.675 110.832C195.653 109.64 195.931 108.461 196.485 107.405C197.027 108.978 197.757 110.481 198.659 111.879Z" fill="black"/>
<path d="M202.549 112.349C202.57 113.541 202.291 114.72 201.739 115.776C201.192 114.205 200.462 112.703 199.565 111.302C198.696 109.886 197.662 108.577 196.485 107.405C197.674 107.361 198.855 107.622 199.916 108.163C200.695 108.553 201.352 109.149 201.817 109.887C202.281 110.625 202.534 111.477 202.549 112.349H202.549ZM195.451 123.09C196.316 124.51 197.351 125.818 198.531 126.988C197.338 127.033 196.153 126.772 195.088 126.23C194.313 125.839 193.657 125.245 193.192 124.511C192.739 123.766 192.489 122.916 192.467 122.044C192.444 120.851 192.722 119.672 193.277 118.617C193.819 120.19 194.549 121.692 195.451 123.09Z" fill="black"/>
<path d="M199.341 123.55C199.363 124.746 199.084 125.928 198.531 126.988C197.985 125.414 197.251 123.912 196.346 122.514C195.481 121.098 194.45 119.79 193.276 118.617C194.466 118.573 195.647 118.834 196.708 119.375C197.48 119.772 198.134 120.365 198.605 121.094C199.066 121.832 199.32 122.68 199.341 123.55ZM193.884 135.028C194.75 136.45 195.784 137.763 196.964 138.937C195.771 138.982 194.586 138.721 193.521 138.179C192.748 137.783 192.096 137.185 191.634 136.448C191.173 135.711 190.919 134.863 190.9 133.993C190.882 132.801 191.16 131.623 191.71 130.565C192.256 132.134 192.986 133.632 193.884 135.028Z" fill="black"/>
<path d="M197.774 135.498C197.802 136.694 197.523 137.878 196.964 138.936C195.839 135.797 194.046 132.941 191.71 130.565C192.9 130.521 194.081 130.782 195.142 131.323C195.917 131.714 196.573 132.308 197.039 133.042C197.505 133.777 197.76 134.627 197.774 135.498ZM193.416 142.324C194.606 142.284 195.787 142.544 196.85 143.081C197.624 143.477 198.279 144.072 198.748 144.805C199.209 145.542 199.463 146.391 199.483 147.261C199.505 148.456 199.225 149.637 198.667 150.694C197.475 150.739 196.291 150.48 195.226 149.942C194.452 149.546 193.799 148.949 193.335 148.213C192.879 147.472 192.629 146.622 192.608 145.752C192.586 144.559 192.864 143.381 193.416 142.324ZM208.634 104.832C207.208 105.506 205.833 106.284 204.521 107.16C204.703 106.025 205.121 104.941 205.746 103.978C206.177 103.326 206.768 102.796 207.462 102.44C208.137 102.109 208.888 101.969 209.636 102.034C210.737 102.144 211.819 102.396 212.855 102.782L208.634 104.832ZM212.258 106.327C211.81 107.118 211.137 107.759 210.325 108.165C209.512 108.572 208.597 108.728 207.697 108.612C206.52 108.447 205.416 107.942 204.521 107.16C205.325 107.087 206.118 106.926 206.887 106.679C207.649 106.435 208.393 106.139 209.114 105.793C209.836 105.436 210.525 105.014 211.171 104.533C211.833 104.056 212.404 103.462 212.855 102.782C213.11 103.996 212.897 105.263 212.258 106.327ZM206.972 114.442C205.213 115.082 203.423 115.648 201.622 116.406C202.138 115.26 202.869 114.224 203.775 113.353C204.437 112.727 205.221 112.244 206.077 111.932C206.888 111.638 207.753 111.522 208.613 111.591C209.8 111.71 210.976 111.921 212.13 112.221C210.481 113.115 208.754 113.858 206.972 114.442Z" fill="black"/>
<path d="M210.926 116.065C210.228 116.916 209.315 117.565 208.282 117.942C207.249 118.32 206.134 118.412 205.053 118.211C203.755 117.966 202.56 117.338 201.621 116.406C202.593 116.444 203.566 116.369 204.52 116.182C205.474 116.016 206.411 115.769 207.323 115.445C208.248 115.128 209.134 114.709 209.966 114.196C210.817 113.695 211.554 113.023 212.13 112.221C212.205 112.91 212.136 113.607 211.929 114.269C211.722 114.93 211.38 115.542 210.926 116.065ZM204.968 122.749C203.21 123.389 201.419 123.955 199.618 124.713C200.134 123.564 200.869 122.527 201.781 121.66C202.439 121.032 203.219 120.549 204.073 120.24C204.884 119.945 205.749 119.829 206.609 119.898C207.796 120.017 208.972 120.228 210.126 120.528C208.477 121.422 206.751 122.165 204.968 122.749Z" fill="black"/>
<path d="M208.922 124.372C208.225 125.224 207.312 125.872 206.279 126.25C205.246 126.627 204.131 126.72 203.05 126.518C201.752 126.274 200.557 125.645 199.618 124.714C200.59 124.752 201.563 124.677 202.517 124.49C203.471 124.323 204.408 124.077 205.32 123.753C206.244 123.435 207.131 123.016 207.963 122.504C208.814 122.003 209.551 121.33 210.127 120.528C210.202 121.218 210.133 121.915 209.926 122.576C209.719 123.238 209.377 123.849 208.922 124.372ZM203.284 132.925C201.505 133.736 199.64 134.399 197.774 135.231C198.296 134.054 199.029 132.982 199.938 132.071C200.593 131.408 201.362 130.869 202.208 130.48C202.986 130.136 203.821 129.94 204.67 129.903C205.587 129.818 206.524 129.999 208.177 129.775C207.519 130.51 206.745 131.131 205.885 131.612C205.048 132.106 204.179 132.545 203.284 132.925Z" fill="black"/>
<path d="M208.485 130.938C208.498 131.317 208.473 131.696 208.411 132.07C208.261 132.76 207.982 133.416 207.59 134.003C206.902 135.034 205.933 135.846 204.798 136.341C203.744 136.808 202.586 136.989 201.44 136.864C200.081 136.707 198.801 136.137 197.774 135.23C198.798 135.23 199.818 135.105 200.812 134.857C201.81 134.63 202.784 134.308 203.721 133.896C204.678 133.487 205.571 132.944 206.375 132.284C207.214 131.648 207.841 130.773 208.176 129.774C208.256 129.962 208.324 130.154 208.379 130.351C208.425 130.544 208.461 130.741 208.485 130.938ZM197.731 147.393C197.789 146.217 198.046 145.061 198.491 143.972C198.783 143.254 199.22 142.604 199.776 142.065C200.276 141.608 200.878 141.278 201.531 141.102C202.24 140.858 203.107 140.87 204.492 140.078C204.646 140.194 204.794 140.318 204.933 140.452C205.057 140.594 205.174 140.743 205.281 140.898C205.462 141.208 205.603 141.54 205.701 141.886C205.859 142.533 205.871 143.207 205.739 143.86C205.525 144.985 204.952 146.009 204.106 146.778C203.343 147.484 202.384 147.942 201.357 148.09C200.105 148.262 198.831 148.017 197.731 147.393ZM208.038 95.1255C207.418 96.8332 206.996 98.6066 206.78 100.411C206.007 99.4303 205.493 98.2696 205.288 97.0368C205.138 96.1033 205.215 95.1473 205.512 94.2499C205.821 93.3544 206.348 92.5506 207.047 91.9115C207.969 91.0725 209.087 90.4779 210.297 90.1816C209.359 91.7385 208.601 93.3971 208.038 95.1255ZM211.565 96.3427C211.25 97.2348 210.719 98.0346 210.02 98.6705C209.104 99.5149 207.989 100.113 206.78 100.411C207.709 98.8496 208.467 97.1921 209.039 95.4673C209.658 93.7592 210.08 91.9858 210.297 90.1816C211.073 91.162 211.59 92.3225 211.8 93.5559C211.952 94.49 211.871 95.4472 211.565 96.3427Z" fill="black"/>
<path d="M192.093 155.315C192.264 155.646 192.424 155.988 192.584 156.319C192.765 156.703 192.946 157.077 193.127 157.461C193.447 158.134 193.766 158.796 194.076 159.469C194.353 158.732 194.641 158.006 194.918 157.28C195.088 156.864 195.259 156.436 195.429 156.02C195.493 155.839 195.568 155.668 195.642 155.486C194.459 155.454 193.276 155.401 192.093 155.315ZM196.687 157.098L196.41 156.426C196.314 156.671 196.218 156.917 196.122 157.162C195.706 158.22 195.29 159.276 194.854 160.323C195.898 160.28 196.943 160.248 197.987 160.238L196.687 157.098ZM200.065 155.518C199.554 155.518 199.042 155.529 198.52 155.539C198.072 155.529 197.625 155.529 197.167 155.518L197.284 155.817L197.721 157.002L198.669 159.533L199.692 156.81L200.172 155.518H200.065ZM200.971 156.682L200.747 156.052L200.513 156.725L199.308 160.248C200.3 160.259 201.291 160.28 202.293 160.323L200.971 156.682ZM201.28 155.497L201.653 156.618L202.772 160.003L204.339 156.361L204.776 155.336C203.614 155.411 202.442 155.465 201.28 155.497V155.497ZM205.426 156.255L205.096 155.443L204.755 156.319L203.188 160.366C204.531 160.44 205.884 160.558 207.238 160.75L205.426 156.255ZM192.093 155.315C192.264 155.646 192.424 155.988 192.584 156.319C192.765 156.703 192.946 157.077 193.127 157.461C193.447 158.134 193.766 158.796 194.076 159.469C194.353 158.732 194.641 158.006 194.918 157.28C195.088 156.864 195.259 156.436 195.429 156.02C195.493 155.839 195.568 155.668 195.642 155.486C194.459 155.454 193.276 155.401 192.093 155.315ZM196.687 157.098L196.41 156.426C196.314 156.671 196.218 156.917 196.122 157.162C195.706 158.22 195.29 159.276 194.854 160.323C195.898 160.28 196.943 160.248 197.987 160.238L196.687 157.098ZM200.065 155.518C199.554 155.518 199.042 155.529 198.52 155.539C198.072 155.529 197.625 155.529 197.167 155.518L197.284 155.817L197.721 157.002L198.669 159.533L199.692 156.81L200.172 155.518H200.065ZM200.971 156.682L200.747 156.052L200.513 156.725L199.308 160.248C200.3 160.259 201.291 160.28 202.293 160.323L200.971 156.682ZM201.28 155.497L201.653 156.618L202.772 160.003L204.339 156.361L204.776 155.336C203.614 155.411 202.442 155.465 201.28 155.497V155.497ZM205.426 156.255L205.096 155.443L204.755 156.319L203.188 160.366C204.531 160.44 205.884 160.558 207.238 160.75L205.426 156.255ZM191.529 155.785C191.411 156.009 191.283 156.244 191.166 156.468L191.774 156.404C191.688 156.201 191.614 155.988 191.529 155.785ZM192.093 155.315C192.264 155.646 192.424 155.988 192.584 156.319C192.765 156.703 192.946 157.077 193.127 157.461C193.724 157.397 194.321 157.333 194.918 157.28C195.088 156.864 195.259 156.436 195.429 156.02C195.493 155.839 195.568 155.668 195.642 155.486C194.459 155.454 193.276 155.401 192.093 155.315ZM196.41 156.426C196.314 156.671 196.218 156.917 196.122 157.162C196.303 157.141 196.495 157.12 196.687 157.098L196.41 156.426ZM198.52 155.539C198.072 155.529 197.625 155.529 197.167 155.518L197.284 155.817C198.211 155.721 199.138 155.614 200.065 155.518C199.554 155.518 199.042 155.529 198.52 155.539ZM186.359 139.801L188.725 155.005C189.621 154.888 190.516 154.803 191.4 154.728C191.441 154.698 191.489 154.679 191.539 154.671C191.589 154.664 191.64 154.669 191.688 154.685L191.71 154.707C193.223 154.6 194.726 154.525 196.228 154.493C196.34 154.461 196.458 154.461 196.57 154.493C197.22 154.482 197.87 154.472 198.52 154.472C201.206 154.482 203.881 154.546 206.556 154.803C207.142 154.867 207.739 154.931 208.325 155.005L208.389 154.6L210.681 139.801L186.359 139.801ZM190.122 154.119C188.065 154.119 188.065 150.916 190.122 150.916C192.189 150.916 192.178 154.119 190.122 154.119ZM195.877 154.119C193.82 154.119 193.82 150.916 195.877 150.916C197.945 150.916 197.934 154.119 195.877 154.119ZM201.44 153.927C199.383 153.927 199.383 150.724 201.44 150.724C203.508 150.724 203.497 153.927 201.44 153.927V153.927ZM206.908 154.119C204.851 154.119 204.851 150.916 206.908 150.916C208.975 150.916 208.964 154.119 206.908 154.119ZM205.426 156.255L205.096 155.443L204.755 156.319L203.188 160.366C204.531 160.44 205.884 160.558 207.238 160.75L205.426 156.255ZM201.28 155.497L201.653 156.618L202.772 160.003L204.339 156.362L204.776 155.336C203.614 155.411 202.442 155.465 201.28 155.497ZM200.971 156.682L200.747 156.052L200.513 156.725L199.308 160.248C200.3 160.259 201.291 160.28 202.293 160.323L200.971 156.682ZM200.065 155.518C199.554 155.518 199.042 155.529 198.52 155.539C198.072 155.529 197.625 155.529 197.167 155.518L197.284 155.817L197.721 157.002L198.669 159.533L199.692 156.81L200.172 155.518H200.065ZM196.687 157.098L196.41 156.426C196.314 156.671 196.218 156.917 196.122 157.162C195.706 158.22 195.29 159.276 194.854 160.323C195.898 160.28 196.943 160.248 197.987 160.238L196.687 157.098ZM192.093 155.315C192.264 155.646 192.424 155.988 192.584 156.319C192.765 156.703 192.946 157.077 193.127 157.461C193.447 158.134 193.767 158.796 194.076 159.469C194.353 158.732 194.641 158.006 194.918 157.28C195.088 156.864 195.259 156.436 195.429 156.02C195.493 155.839 195.568 155.668 195.642 155.486C194.459 155.454 193.276 155.401 192.093 155.315L192.093 155.315ZM205.426 156.255L205.096 155.443L204.755 156.319L203.188 160.366C204.531 160.44 205.885 160.558 207.238 160.75L205.426 156.255ZM201.28 155.497L201.653 156.618L202.772 160.003L204.339 156.362L204.776 155.336C203.614 155.411 202.442 155.465 201.28 155.497ZM200.971 156.682L200.747 156.052L200.513 156.725L199.308 160.248C200.3 160.259 201.291 160.28 202.293 160.323L200.971 156.682ZM200.065 155.518C199.554 155.518 199.042 155.529 198.52 155.539C198.072 155.529 197.625 155.529 197.167 155.518L197.284 155.817L197.721 157.002L198.669 159.533L199.692 156.81L200.172 155.518H200.065ZM196.687 157.098L196.41 156.426C196.314 156.671 196.218 156.917 196.122 157.162C195.706 158.22 195.29 159.276 194.854 160.323C195.898 160.28 196.943 160.248 197.987 160.238L196.687 157.098ZM192.093 155.315C192.264 155.646 192.424 155.988 192.584 156.319C192.765 156.703 192.946 157.077 193.127 157.461C193.447 158.134 193.767 158.796 194.076 159.469C194.353 158.732 194.641 158.006 194.918 157.28C195.088 156.864 195.259 156.436 195.429 156.02C195.493 155.839 195.568 155.668 195.642 155.486C194.459 155.454 193.276 155.401 192.093 155.315L192.093 155.315ZM200.065 155.518C199.138 155.614 198.211 155.721 197.284 155.817L197.721 157.002C198.371 156.938 199.032 156.874 199.692 156.81L200.172 155.518H200.065ZM200.747 156.052L200.513 156.725C200.662 156.714 200.822 156.703 200.971 156.682L200.747 156.052ZM201.28 155.497L201.653 156.618C202.548 156.533 203.444 156.447 204.339 156.362L204.776 155.337C203.614 155.411 202.442 155.465 201.28 155.497ZM205.096 155.443L204.755 156.319C204.978 156.298 205.202 156.276 205.426 156.255L205.096 155.443ZM205.373 155.294L205.714 156.234L207.345 160.75V160.761C207.373 160.759 207.402 160.763 207.43 160.771L208.176 155.999L208.325 155.005C207.334 155.134 206.353 155.219 205.373 155.294V155.294ZM207.334 160.782C207.334 160.793 207.334 160.814 207.313 160.814C207.301 160.819 207.289 160.82 207.277 160.816C207.265 160.812 207.255 160.804 207.249 160.793C204.353 161.15 201.438 161.321 198.52 161.305C197.145 161.295 195.77 161.263 194.395 161.199C194.327 161.249 194.247 161.281 194.163 161.29C194.079 161.299 193.993 161.286 193.916 161.252C193.871 161.227 193.828 161.199 193.788 161.166C192.402 161.081 191.006 160.964 189.621 160.771L190.335 165.363H206.716L207.43 160.771C207.398 160.77 207.365 160.773 207.334 160.782V160.782ZM193.756 164.957C191.688 164.957 191.699 161.754 193.756 161.754C195.813 161.754 195.813 164.957 193.756 164.957L193.756 164.957ZM199.127 164.957C197.06 164.957 197.071 161.754 199.127 161.754C201.185 161.754 201.185 164.957 199.127 164.957V164.957ZM204.499 164.765C202.431 164.765 202.442 161.562 204.499 161.562C206.556 161.562 206.556 164.765 204.499 164.765V164.765ZM205.426 156.255L205.096 155.443L204.755 156.319L203.188 160.366C204.531 160.44 205.885 160.558 207.238 160.75L205.426 156.255ZM201.28 155.497L201.653 156.618L202.772 160.003L204.339 156.362L204.776 155.336C203.614 155.411 202.442 155.465 201.28 155.497ZM200.971 156.682L200.747 156.052L200.513 156.725L199.308 160.248C200.3 160.259 201.291 160.28 202.293 160.323L200.971 156.682ZM200.065 155.518C199.554 155.518 199.042 155.529 198.52 155.539C198.072 155.529 197.625 155.529 197.167 155.518L197.284 155.817L197.721 157.002L198.669 159.533L199.692 156.81L200.172 155.518H200.065ZM196.687 157.098L196.41 156.426C196.314 156.671 196.218 156.917 196.122 157.162C195.706 158.22 195.29 159.276 194.854 160.323C195.898 160.28 196.943 160.248 197.987 160.238L196.687 157.098ZM192.093 155.315C192.264 155.646 192.424 155.988 192.584 156.319C192.765 156.703 192.946 157.077 193.127 157.461C193.447 158.134 193.767 158.796 194.076 159.469C194.353 158.732 194.641 158.006 194.918 157.28C195.088 156.864 195.259 156.436 195.429 156.02C195.493 155.839 195.568 155.668 195.642 155.486C194.459 155.454 193.276 155.401 192.093 155.315L192.093 155.315ZM192.232 157.547C192.083 157.173 191.923 156.789 191.774 156.404C191.688 156.201 191.614 155.988 191.529 155.785C191.411 156.009 191.283 156.244 191.166 156.468C190.953 156.885 190.729 157.301 190.505 157.718C190.175 158.348 189.834 158.978 189.482 159.608C189.478 159.612 189.473 159.615 189.467 159.617C189.462 159.618 189.456 159.619 189.45 159.618L189.621 160.771C190.878 160.59 192.147 160.483 193.404 160.398C193.02 159.447 192.626 158.497 192.232 157.547L192.232 157.547ZM193.127 157.461C193.447 158.134 193.766 158.796 194.076 159.469C194.353 158.732 194.641 158.006 194.918 157.28C194.321 157.333 193.724 157.397 193.127 157.461V157.461ZM196.687 157.098C196.495 157.12 196.303 157.141 196.122 157.162C195.706 158.22 195.29 159.276 194.854 160.323C195.898 160.28 196.943 160.248 197.987 160.238L196.687 157.098ZM197.721 157.002L198.669 159.533L199.692 156.81C199.032 156.874 198.371 156.938 197.721 157.002L197.721 157.002ZM200.971 156.682C200.822 156.703 200.662 156.714 200.513 156.725L199.308 160.248C200.3 160.259 201.291 160.28 202.293 160.323L200.971 156.682ZM201.653 156.618L202.772 160.003L204.339 156.361C203.444 156.447 202.549 156.533 201.653 156.618V156.618ZM205.426 156.255C205.203 156.276 204.979 156.298 204.755 156.319L203.188 160.366C204.531 160.44 205.884 160.558 207.238 160.75L205.426 156.255ZM188.725 155.005L188.992 156.703L189.162 157.857L189.418 159.469C189.642 158.892 189.866 158.326 190.09 157.76C190.249 157.344 190.42 156.938 190.59 156.532C190.761 156.105 190.932 155.678 191.113 155.251C190.313 155.187 189.525 155.102 188.725 155.005V155.005Z" fill="black"/>
<path d="M199.999 152.578C199.045 151.85 198.533 150.703 198.091 149.607C197.924 149.037 197.707 148.473 197.579 147.89L197.218 146.133C196.924 143.767 196.834 141.38 196.95 138.999C196.992 136.613 197.348 134.263 197.623 131.903C198.055 129.573 198.388 127.217 198.952 124.917C199.482 122.607 200.012 120.298 200.681 118.029C201.326 115.752 201.946 113.469 202.741 111.241C203.509 109.005 204.199 106.745 205.054 104.542C205.919 102.342 206.74 100.129 207.641 97.9473C206.387 102.506 204.936 106.987 203.715 111.536L202.765 114.935L201.891 118.352C201.609 119.492 201.268 120.619 201.015 121.765L200.243 125.202C199.657 127.479 199.327 129.801 198.857 132.1C198.511 134.414 198.148 136.731 197.961 139.061C197.731 141.386 197.697 143.726 197.858 146.056L198.065 147.791C198.142 148.369 198.306 148.927 198.423 149.5C198.775 150.593 199.147 151.748 199.999 152.578ZM35.7285 110.572C35.2008 112.066 34.6019 113.53 34.0031 114.994L31.6185 119.02L27.0417 126.768H25.2759L25.5499 126.31L30.3093 118.248L32.694 114.211C33.6885 112.991 34.6731 111.761 35.7285 110.572ZM24.5859 115.635L24.0175 120.617L23.3174 126.768H21.7847L22.5054 120.444L23.0636 115.462C23.4796 113.825 23.8854 112.188 24.3929 110.572C24.5148 112.27 24.5552 113.947 24.5859 115.635ZM18.3041 126.768H19.2682L18.7303 122.996L18.2939 119.966L17.6242 115.208C17.1675 113.662 16.721 112.107 16.1831 110.572C16.1121 111.904 16.0918 113.225 16.1019 114.547V115.432L16.2947 116.743L16.792 120.18L17.7358 126.768H18.3041ZM15.0872 126.768H13.5548L12.6009 120.18L11.9211 115.431C11.9107 113.815 11.9107 112.198 12.0021 110.572C12.54 112.107 12.9864 113.662 13.4433 115.208L14.113 119.966L14.7624 124.501L15.0872 126.768Z" fill="black"/>
<path d="M16.2949 115.848V116.742L16.2848 120.524V126.767H14.7626V115.848C14.9858 114.292 15.209 112.737 15.5237 111.171C15.7469 112.3 15.9399 113.428 16.1022 114.546C16.1733 114.984 16.2342 115.411 16.2949 115.848ZM20.9835 116.63L20.4558 121.277L19.8366 126.767H18.3042L18.7306 122.995L18.9437 121.104L19.4613 116.458C19.8569 114.933 20.2528 113.408 20.7399 111.903C20.8819 113.479 20.9327 115.055 20.9835 116.63ZM10.3887 132.989V138.48C10.6528 138.449 10.9164 138.429 11.1803 138.398L13.4636 133.264C12.4386 133.192 11.4139 133.111 10.3887 132.989ZM13.7478 133.355L11.3022 138.388C12.7736 138.235 14.2552 138.134 15.7268 138.073L13.7478 133.355ZM14.0726 133.304L16.1631 137.819L17.8273 133.457C16.5791 133.437 15.3208 133.376 14.0726 133.304ZM18.355 133.894L16.6401 138.042C17.7257 138.001 18.8015 137.981 19.8874 137.971L18.355 133.894ZM20.5165 133.498C19.9887 133.487 19.4511 133.477 18.9234 133.477L20.4761 137.31L21.7954 133.477C21.369 133.487 20.9429 133.487 20.5165 133.498ZM22.4752 134.463L21.1458 137.971C21.9983 137.981 22.8506 137.992 23.7031 138.022C23.277 136.832 22.8709 135.653 22.4752 134.463ZM23.1855 133.457C23.6218 134.667 24.0381 135.877 24.4439 137.087C24.9919 135.836 25.5298 134.596 26.088 133.355C25.1237 133.406 24.1597 133.437 23.1855 133.457ZM26.6561 133.925C26.1487 135.307 25.6212 136.68 25.0935 138.063C26.2604 138.103 27.4274 138.174 28.5844 138.276C27.9145 136.832 27.2854 135.389 26.6561 133.925ZM10.3887 126.767V132.989C13.7518 132.622 17.1335 132.452 20.5165 132.481C21.1356 132.481 21.7547 132.491 22.3736 132.501C22.4632 132.476 22.5581 132.476 22.6477 132.501C23.9467 132.522 25.2355 132.572 26.5243 132.643C26.557 132.632 26.5911 132.625 26.6256 132.623C26.6779 132.624 26.7296 132.634 26.778 132.654C28.0668 132.735 29.3557 132.837 30.6443 132.989V126.767H10.3887ZM12.7533 131.312C10.7846 131.312 10.7947 128.262 12.7533 128.262C14.712 128.262 14.712 131.312 12.7533 131.312ZM18.2331 131.312C16.2645 131.312 16.2746 128.262 18.2331 128.262C20.1919 128.262 20.1919 131.312 18.2331 131.312ZM23.5307 131.129C21.562 131.129 21.5719 128.079 23.5307 128.079C25.4892 128.079 25.4892 131.129 23.5307 131.129ZM28.7365 131.312C26.7678 131.312 26.778 128.262 28.7365 128.262C30.6953 128.262 30.6953 131.312 28.7365 131.312ZM27.1028 133.294C27.6709 134.951 28.219 136.609 28.7264 138.286C29.3658 138.347 30.005 138.398 30.6442 138.48L30.6443 132.989C29.4671 133.122 28.2901 133.223 27.1028 133.294ZM13.7478 133.355L11.3022 138.388C12.7736 138.235 14.2552 138.134 15.7268 138.073L13.7478 133.355ZM14.0726 133.304L16.1631 137.819L17.8273 133.457C16.5791 133.437 15.3208 133.376 14.0726 133.304ZM18.355 133.894L16.6401 138.042C17.7257 138.001 18.8015 137.981 19.8874 137.971L18.355 133.894ZM20.5165 133.498C19.9887 133.487 19.4511 133.477 18.9234 133.477L20.4761 137.31L21.7954 133.477C21.369 133.487 20.9429 133.487 20.5165 133.498ZM22.4752 134.463L21.1458 137.971C21.9983 137.981 22.8506 137.992 23.7031 138.022C23.277 136.832 22.8709 135.653 22.4752 134.463ZM23.1855 133.457C23.6218 134.667 24.0381 135.877 24.4439 137.087C24.9919 135.836 25.5298 134.596 26.088 133.355C25.1237 133.406 24.1597 133.437 23.1855 133.457ZM26.6561 133.925C26.1487 135.307 25.6212 136.68 25.0935 138.063C26.2604 138.103 27.4274 138.174 28.5844 138.276C27.9145 136.832 27.2854 135.389 26.6561 133.925ZM13.7478 133.355L11.3022 138.388C12.7736 138.235 14.2552 138.134 15.7268 138.073L13.7478 133.355ZM14.0726 133.304L16.1631 137.819L17.8273 133.457C16.5791 133.437 15.3208 133.376 14.0726 133.304ZM18.355 133.894L16.6401 138.042C17.7257 138.001 18.8015 137.981 19.8874 137.971L18.355 133.894ZM20.5165 133.498C19.9887 133.487 19.4511 133.477 18.9234 133.477L20.4761 137.31L21.7954 133.477C21.369 133.487 20.9429 133.487 20.5165 133.498ZM22.4752 134.463L21.1458 137.971C21.9983 137.981 22.8506 137.992 23.7031 138.022C23.277 136.832 22.8709 135.653 22.4752 134.463ZM23.1855 133.457C23.6218 134.667 24.0381 135.877 24.4439 137.087C24.9919 135.836 25.5298 134.596 26.088 133.355C25.1237 133.406 24.1597 133.437 23.1855 133.457ZM26.6561 133.925C26.1487 135.307 25.6212 136.68 25.0935 138.063C26.2604 138.103 27.4274 138.174 28.5844 138.276C27.9145 136.832 27.2854 135.389 26.6561 133.925ZM10.3887 144.427V145.688C10.3887 148.379 11.4557 150.96 13.355 152.863C15.2544 154.765 17.8304 155.834 20.5165 155.834C23.2025 155.834 25.7786 154.765 27.6779 152.863C29.5772 150.96 30.6442 148.379 30.6442 145.688V144.427C23.9093 145.105 17.1236 145.105 10.3887 144.427ZM24.657 138.907C24.592 138.95 24.5176 138.978 24.4399 138.986C24.3622 138.995 24.2836 138.985 24.2105 138.957C24.1894 138.945 24.1691 138.931 24.1496 138.917C22.942 138.957 21.7243 138.978 20.5165 138.988C17.1337 139.006 13.7526 138.837 10.3887 138.48V144.427C13.7518 144.06 17.1335 143.89 20.5165 143.919C23.8994 143.891 27.2811 144.06 30.6442 144.427V138.48C28.6453 138.713 26.6561 138.835 24.657 138.907ZM13.2099 143.024C11.2412 143.024 11.2514 139.974 13.2099 139.974C15.1684 139.974 15.1684 143.024 13.2099 143.024ZM17.8679 142.933C15.8993 142.933 15.9094 139.883 17.8679 139.883C19.8265 139.883 19.8264 142.933 17.8679 142.933ZM22.9826 142.933C21.0139 142.933 21.0239 139.883 22.9826 139.883C24.9411 139.882 24.9411 142.933 22.9826 142.933ZM28.0973 142.75C26.1286 142.75 26.1385 139.7 28.0973 139.7C30.0558 139.7 30.0558 142.75 28.0973 142.75ZM28.5844 138.276C27.9145 136.832 27.2854 135.389 26.6561 133.925C26.1487 135.307 25.6212 136.68 25.0935 138.063C26.2604 138.103 27.4274 138.174 28.5844 138.276ZM26.088 133.355C25.1237 133.406 24.1597 133.437 23.1855 133.457C23.6218 134.667 24.0381 135.877 24.4439 137.087C24.9919 135.836 25.5298 134.596 26.088 133.355ZM23.7031 138.022C23.277 136.832 22.8709 135.653 22.4752 134.463L21.1458 137.971C21.9983 137.981 22.8506 137.992 23.7031 138.022ZM21.7954 133.477C21.369 133.487 20.9429 133.487 20.5165 133.498C19.9887 133.487 19.4511 133.477 18.9234 133.477L20.4761 137.31L21.7954 133.477ZM19.8874 137.971L18.355 133.894L16.6401 138.042C17.7257 138.001 18.8015 137.981 19.8874 137.971ZM17.8273 133.457C16.5791 133.437 15.3208 133.376 14.0726 133.304L16.1631 137.819L17.8273 133.457ZM13.7478 133.355L11.3022 138.388C12.7736 138.235 14.2552 138.134 15.7268 138.073L13.7478 133.355ZM26.6561 133.925C26.1487 135.307 25.6212 136.68 25.0935 138.063C26.2604 138.103 27.4274 138.174 28.5844 138.276C27.9145 136.832 27.2854 135.389 26.6561 133.925ZM23.1855 133.457C23.6218 134.667 24.0381 135.877 24.4439 137.087C24.9919 135.836 25.5298 134.596 26.088 133.355C25.1237 133.406 24.1597 133.437 23.1855 133.457ZM22.4752 134.463L21.1458 137.971C21.9983 137.981 22.8506 137.992 23.7031 138.022C23.277 136.832 22.8709 135.653 22.4752 134.463ZM20.5165 133.498C19.9887 133.487 19.4511 133.477 18.9234 133.477L20.4761 137.31L21.7954 133.477C21.369 133.487 20.9429 133.487 20.5165 133.498ZM18.355 133.894L16.6401 138.042C17.7257 138.001 18.8015 137.981 19.8874 137.971L18.355 133.894ZM14.0726 133.304L16.1631 137.819L17.8273 133.457C16.5791 133.437 15.3208 133.376 14.0726 133.304ZM13.7478 133.355L11.3022 138.388C12.7736 138.235 14.2552 138.134 15.7268 138.073L13.7478 133.355ZM26.6561 133.925C26.1487 135.307 25.6212 136.68 25.0935 138.063C26.2604 138.103 27.4274 138.174 28.5844 138.276C27.9145 136.832 27.2854 135.389 26.6561 133.925ZM23.1855 133.457C23.6218 134.667 24.0381 135.877 24.4439 137.087C24.9919 135.836 25.5298 134.596 26.088 133.355C25.1237 133.406 24.1597 133.437 23.1855 133.457ZM22.4752 134.463L21.1458 137.971C21.9983 137.981 22.8506 137.992 23.7031 138.022C23.277 136.832 22.8709 135.653 22.4752 134.463ZM20.5165 133.498C19.9887 133.487 19.4511 133.477 18.9234 133.477L20.4761 137.31L21.7954 133.477C21.369 133.487 20.9429 133.487 20.5165 133.498ZM18.355 133.894L16.6401 138.042C17.7257 138.001 18.8015 137.981 19.8874 137.971L18.355 133.894ZM14.0726 133.304L16.1631 137.819L17.8273 133.457C16.5791 133.437 15.3208 133.376 14.0726 133.304ZM13.7478 133.355L11.3022 138.388C12.7736 138.235 14.2552 138.134 15.7268 138.073L13.7478 133.355ZM107.607 131.385C107.997 132.851 108.434 134.278 108.862 135.709C109.304 137.134 109.748 138.557 110.213 139.974C110.432 140.687 110.666 141.396 110.903 142.104C111.114 142.821 111.379 143.52 111.589 144.24C111.82 144.952 112.05 145.666 112.265 146.387C112.484 147.108 112.711 147.826 112.89 148.567C112.485 147.924 112.123 147.26 111.762 146.594C111.426 145.918 111.084 145.242 110.781 144.55C110.166 143.168 109.624 141.754 109.158 140.315C108.693 138.872 108.315 137.403 108.025 135.916C107.716 134.426 107.576 132.906 107.607 131.385Z" fill="black"/>
<path d="M78.1142 133.819C78.1142 133.612 78.0936 133.405 78.0527 133.202H78.0583V133.208C78.0976 133.409 78.1163 133.614 78.1142 133.819Z" fill="white"/>
<path d="M73.3786 132.319C74.0217 132.447 74.6592 132.569 75.3023 132.691L78.0576 133.208C78.0791 134.056 77.9897 134.904 77.7915 135.729V135.735L74.8256 135.179C74.0605 135.035 73.301 134.885 72.536 134.729C72.4084 134.713 72.2865 134.685 72.159 134.657C71.2387 134.479 70.3129 134.302 69.3926 134.118C69.4966 133.265 69.5151 132.404 69.448 131.547C70.2408 131.708 71.0391 131.863 71.8319 132.019L72.0259 132.058" fill="black"/>
</svg>
