<svg width="266" height="179" viewBox="0 0 266 179" fill="none" xmlns="http://www.w3.org/2000/svg">
<g clip-path="url(#clip0_34_1508)">
<path d="M67.1352 36.8729L67.1289 36.8732C67.119 36.8736 67.1091 36.8713 67.1002 36.8667L67.0955 36.8642C66.2761 36.4479 65.4347 36.0769 64.5748 35.7529C63.7222 35.428 62.8384 35.1134 61.9791 34.861L62.0489 34.8712L62.0364 34.8715C62.015 34.8722 61.9937 34.8694 61.9732 34.8633L61.956 34.858C57.4159 33.4307 52.7018 32.6349 47.9457 32.4929C45.5754 32.4226 43.2029 32.4984 40.8419 32.72L33.6854 33.326C28.9129 33.7118 24.1314 33.9877 19.3522 34.2927C14.5719 34.5829 9.79366 34.8978 5.02221 35.2961L5.12432 34.9297C5.96864 35.5447 6.74103 36.2531 7.42684 37.0416C8.1054 37.8395 8.68372 38.7178 9.14886 39.6569C9.5989 40.6022 9.9556 41.5893 10.2139 42.6042C10.4585 43.6212 10.6155 44.6574 10.683 45.7014C10.799 47.7878 10.659 49.8806 10.2661 51.9328C9.89451 53.9941 9.31131 56.0113 8.52582 57.9523L7.95753 57.2193C11.3148 56.5836 14.6712 55.9422 18.0328 55.3313L28.1138 53.4763L27.5631 53.9739L27.636 53.757L27.6139 53.816C28.1016 52.2693 29.1062 50.9383 30.4583 50.047C31.8023 49.158 33.3963 48.7268 35.004 48.8174C36.6186 48.9213 38.1504 49.5703 39.3499 50.6586C39.5065 50.7844 39.6479 50.9282 39.7712 51.087L40.1607 51.5459C40.3943 51.8691 40.6097 52.2053 40.8058 52.5527C40.9922 52.8973 41.1195 53.2516 41.2778 53.6009C41.3517 53.7766 41.4321 53.9505 41.4999 54.1278L41.6661 54.6693C42.4685 57.5335 42.7769 60.5139 42.5781 63.4821C42.4461 66.4101 42.0361 69.319 41.3536 72.1691L40.8497 71.6622L47.6265 70.2419L54.4173 68.8811C54.4344 68.8777 54.4522 68.881 54.4668 68.8905C54.4814 68.9 54.4918 68.9149 54.4957 68.9319C54.4996 68.9489 54.4967 68.9668 54.4876 68.9817C54.4785 68.9967 54.464 69.0074 54.4471 69.0118L47.7495 70.7725L41.04 72.4825C40.9725 72.4996 40.9018 72.4995 40.8343 72.482C40.7669 72.4646 40.7049 72.4304 40.6542 72.3826C40.6034 72.3348 40.5655 72.275 40.5439 72.2086C40.5223 72.1423 40.5177 72.0715 40.5305 72.0029L40.5359 71.9755C41.0775 69.1628 41.3867 66.3101 41.4606 63.4465C41.5824 60.6201 41.2238 57.7936 40.4002 55.0877L40.2413 54.5935C40.1779 54.434 40.1032 54.2802 40.035 54.1233C39.8904 53.8165 39.769 53.4861 39.6078 53.198C39.4251 52.9304 39.2819 52.6328 39.0745 52.3863L38.7569 52.0225C38.6591 51.8946 38.5446 51.7806 38.4164 51.6836C37.445 50.8256 36.2133 50.321 34.9204 50.2512C33.6216 50.1765 32.3332 50.5226 31.2457 51.2383C30.1627 51.9544 29.3523 53.0157 28.9456 54.2506L28.9234 54.3099C28.9199 54.3268 28.9147 54.3432 28.9078 54.359L28.8629 54.4614C28.8173 54.5638 28.7473 54.6534 28.6591 54.7223C28.5709 54.7913 28.4671 54.8374 28.3569 54.8568L18.2512 56.5715C14.8839 57.1504 11.5112 57.699 8.13957 58.2532C8.04599 58.2686 7.95 58.2584 7.86171 58.2237C7.77343 58.189 7.69612 58.1311 7.63793 58.056C7.57974 57.981 7.54284 57.8916 7.53109 57.7972C7.51935 57.7029 7.5332 57.6072 7.5712 57.5201C8.37242 55.6645 8.99721 53.7373 9.43725 51.7641C9.89497 49.788 10.1008 47.7616 10.0499 45.7336C10.0168 44.7227 9.89714 43.7165 9.69232 42.7261C9.47532 41.7394 9.14914 40.7801 8.71984 39.8659C8.28224 38.9562 7.73507 38.1037 7.09056 37.3274C6.43583 36.557 5.69665 35.8629 4.88698 35.2582L4.88134 35.2539C4.84917 35.2288 4.8253 35.1946 4.81287 35.1557C4.80044 35.1168 4.80001 35.0751 4.81165 35.0359C4.8233 34.9968 4.84647 34.9621 4.87813 34.9364C4.90978 34.9107 4.94844 34.8951 4.98906 34.8918C9.76128 34.5032 14.5269 34.0341 19.29 33.5351C24.0545 33.0515 28.8165 32.5389 33.5876 32.1363L40.7463 31.5596C43.1559 31.3535 45.577 31.3164 47.9918 31.4483C50.4056 31.5823 52.8058 31.8984 55.1722 32.3939C57.5363 32.8733 59.8585 33.5413 62.1166 34.3914L62.0364 34.378L62.0489 34.3783L62.0678 34.3789C62.0852 34.3795 62.1025 34.3827 62.1189 34.3885C63.0138 34.7088 63.8512 35.0649 64.7031 35.4464C65.5504 35.8256 66.3719 36.2602 67.1623 36.7475L67.1291 36.7387L67.1353 36.7389C67.1526 36.7396 67.169 36.7469 67.1809 36.7594C67.1929 36.7719 67.1996 36.7886 67.1996 36.8059C67.1996 36.8233 67.1929 36.8399 67.1809 36.8524C67.169 36.8649 67.1526 36.8723 67.1353 36.873L67.1352 36.8729ZM96.4002 54.7498C96.0189 52.8349 95.2534 51.0176 94.1502 49.4081C93.5997 48.6365 92.9665 47.9276 92.2619 47.2943C91.5485 46.6695 90.7838 46.106 89.9759 45.6098C88.3165 44.6373 86.5459 43.8692 84.7027 43.3222C82.8335 42.7549 80.9223 42.3377 78.9871 42.0745L78.9497 42.0709C78.2884 41.8861 77.6292 41.6888 76.9724 41.4789C77.6611 41.5129 78.3471 41.5621 79.0311 41.6225L78.994 41.6188C81.0148 41.5304 83.0381 41.7234 85.006 42.1924C87.0045 42.6436 88.9164 43.4182 90.6663 44.4859C92.4505 45.5634 93.936 47.0731 94.9862 48.8762C95.9961 50.6631 96.486 52.698 96.4002 54.7498Z" fill="black"/>
<path d="M33.0559 49.2274C34.2214 48.7753 35.3999 48.3816 36.5866 48.0246C37.7722 47.6626 38.9639 47.3284 40.1618 47.022C41.3561 46.6993 42.5636 46.4361 43.7665 46.1517C44.9759 45.8974 46.183 45.6315 47.4017 45.4179L47.6833 45.3685L47.8603 45.504C48.3599 45.8908 48.8209 46.3253 49.2368 46.8014C49.6496 47.2544 50.0288 47.737 50.3714 48.2453C50.7149 48.7473 51.023 49.2727 51.2937 49.8177C51.5666 50.3568 51.7973 50.9162 51.9839 51.491C51.6348 51.0014 51.2754 50.5275 50.9055 50.0693C50.5304 49.6117 50.1519 49.1552 49.7571 48.7409C49.3541 48.3208 48.9418 47.9144 48.5134 47.5318C48.0949 47.1629 47.6565 46.8172 47.2003 46.4962L47.6587 46.5823C46.4643 46.9032 45.2584 47.1725 44.0558 47.4578C42.8463 47.7117 41.6416 47.9869 40.4237 48.2027C39.2097 48.4365 37.9892 48.6406 36.7621 48.8152C35.5365 48.9966 34.3027 49.1413 33.0559 49.2274ZM16.0889 34.1807C17.5175 35.5049 18.6417 37.1248 19.3835 38.9279C20.1591 40.7307 20.6485 42.644 20.8338 44.5985C20.9888 46.5481 20.8694 48.51 20.4793 50.4263C20.4322 50.6645 20.396 50.9044 20.3398 51.1401L20.1402 51.8399L19.7212 53.2274C19.3828 54.1319 18.9868 55.0137 18.5716 55.8742C18.7068 54.9143 18.9299 53.9942 19.0853 53.0631L19.2814 51.664L19.3894 50.9704C19.4184 50.7385 19.4273 50.5039 19.4472 50.2713C19.4795 49.805 19.5166 49.3411 19.5655 48.8792C19.6 48.4162 19.5818 47.9505 19.5931 47.4878C19.6138 46.5639 19.5836 45.6395 19.5026 44.7189C19.3328 42.8782 18.9671 41.0609 18.4117 39.2982C17.8521 37.5024 17.0718 35.7834 16.0889 34.1807Z" fill="black"/>
<path d="M52.3445 48.1305C53.344 47.7564 54.3499 47.3886 55.3621 47.0399C55.3061 47.454 55.2765 47.8712 55.2735 48.289C54.4068 48.5616 53.5338 48.8216 52.6545 49.0752C52.0598 49.2464 51.4651 49.4176 50.8642 49.5888C50.7819 49.462 50.6997 49.3415 50.6174 49.2274C50.5352 49.1069 50.4466 48.9928 50.3707 48.885C51.0286 48.6251 51.6866 48.3778 52.3445 48.1305ZM62.3146 45.9874C61.5428 46.2536 60.7837 46.52 60.0118 46.7799H60.0055C59.7652 46.3985 59.4853 46.0436 59.1705 45.7211L59.4551 45.6259C60.3092 45.3469 61.1632 45.068 62.0173 44.7953C62.1185 45.2265 62.226 45.6259 62.3146 45.9874ZM57.9685 41.8089C59.2401 41.3968 60.5116 40.9846 61.7895 40.5851C61.6514 41.0108 61.5851 41.4565 61.5934 41.904C60.5243 42.2845 59.4425 42.6458 58.367 43.0136C55.982 43.7935 53.5844 44.5607 51.1678 45.2519C50.0481 45.5815 48.922 45.8965 47.7896 46.1966C46.4864 46.5453 45.1832 46.8751 43.8611 47.1604C44.3861 46.9258 44.9112 46.6912 45.4426 46.4629C45.4489 46.4629 45.4489 46.4629 45.4552 46.4566C47.2392 45.6957 49.0485 44.9919 50.8578 44.3134C53.2112 43.4258 55.5898 42.6141 57.9685 41.8089ZM67.9196 39.5643C67.812 39.6087 67.7045 39.6531 67.5969 39.6911C67.3203 39.4592 67.0085 39.273 66.6733 39.1395C67.0149 39.0444 67.3566 38.9493 67.6982 38.8542C67.7804 39.1205 67.8563 39.3614 67.9196 39.5643ZM8.0497 57.7341C-6.23252 44.6687 5.00798 35.0968 5.00798 35.0968C14.9903 42.3415 8.0497 57.7341 8.0497 57.7341ZM40.9437 72.0703C29.1582 75.5937 28.2359 54.1658 28.2359 54.1658C28.2497 54.1219 28.2637 54.0782 28.2778 54.0348C30.0498 48.5792 37.6454 47.8735 40.2657 52.9746C43.8165 59.8871 40.9437 72.0703 40.9437 72.0703ZM49.8336 69.5111C47.8816 74.3318 45.8845 79.1027 44.0469 83.9177C42.1689 88.6734 40.5863 93.541 39.3082 98.4927C39.0067 99.7078 38.7751 100.939 38.6147 102.181C38.4403 103.383 38.4457 104.605 38.6307 105.805C38.7279 106.37 38.919 106.914 39.1962 107.416C39.4789 107.892 39.8708 108.294 40.3393 108.588C41.4088 109.131 42.6249 109.313 43.8063 109.108C46.3156 108.671 48.7297 107.8 50.9405 106.532C51.5019 106.221 52.0642 105.913 52.6186 105.588L54.2577 104.565C55.3638 103.908 56.4004 103.138 57.4615 102.415C58.5188 101.685 59.5243 100.881 60.5552 100.12L62.0525 98.9105C62.5508 98.5075 63.0636 98.1246 63.5443 97.6997C64.5108 96.8575 65.5167 96.068 66.4567 95.1979L67.8896 93.9228L69.2855 92.6071C71.1395 90.8465 72.923 89.0163 74.636 87.1165C76.361 85.231 78.0162 83.2829 79.6326 81.3023C82.8733 77.3315 85.8908 73.1829 88.6711 68.8756C90.0659 66.7178 91.4043 64.5198 92.6863 62.2816C93.9703 60.0454 95.199 57.7675 96.318 55.4326L96.5701 55.5223C95.0561 60.5349 93.0155 65.3723 90.4825 69.9531C87.9823 74.5695 85.0966 78.9654 81.8562 83.0936C78.581 87.2061 74.9446 91.016 70.9908 94.4778L69.5069 95.7709L67.9812 97.0145C66.9708 97.8505 65.9133 98.6287 64.8561 99.403C63.7971 100.175 62.6974 100.891 61.6076 101.615C60.4856 102.292 59.3931 103.01 58.2526 103.65C57.1135 104.292 55.9893 104.954 54.8276 105.549C53.676 106.159 52.5278 106.774 51.351 107.345C49.0074 108.558 46.5077 109.441 43.9229 109.969C42.5444 110.261 41.1097 110.116 39.817 109.554C39.1496 109.219 38.5722 108.728 38.1331 108.123C37.7202 107.524 37.405 106.863 37.1991 106.165C36.8344 104.827 36.6743 103.441 36.7243 102.055C36.7608 100.711 36.8954 99.3708 37.1269 98.0461C37.5993 95.4431 38.2921 92.8852 39.1978 90.4001C40.0655 87.9199 41.0574 85.4967 42.1341 83.1165C42.6614 81.9218 43.2347 80.7487 43.8119 79.5794C44.3843 78.4079 44.9879 77.2521 45.6092 76.1067C46.8474 73.8137 48.1527 71.5585 49.5979 69.3843L49.8336 69.5111ZM18.3907 37.8738C22.0339 37.3243 25.687 36.9067 29.3435 36.5355C32.9994 36.1559 36.6611 35.8545 40.3239 35.5683C43.9886 35.3071 47.6545 35.0626 51.3262 34.896C54.9973 34.721 58.6719 34.5935 62.3563 34.5988C58.7132 35.15 55.0601 35.5683 51.4036 35.9391C47.7476 36.3183 44.0859 36.6197 40.423 36.9043C36.7582 37.1639 33.0923 37.4083 29.4206 37.5746C25.7495 37.7492 22.0749 37.8775 18.3907 37.8738Z" fill="black"/>
<path d="M63.1372 99.3871C62.6132 94.7304 62.1093 90.0662 61.6581 85.3969L61.4853 83.646L61.3989 82.7705C61.3902 82.7022 61.3876 82.614 61.3741 82.562C61.3582 82.5205 61.3454 82.478 61.3355 82.4347C61.2918 82.3177 61.2419 82.2031 61.1863 82.0913C60.6701 81.1109 59.9927 80.1301 59.3641 79.1512C58.0813 77.1916 56.8441 75.1826 55.7382 73.091C55.1911 72.0417 54.6756 70.9719 54.2251 69.8678C53.7794 68.7497 53.4057 67.6364 53.0186 66.5371C52.2413 64.3298 51.4708 62.1204 50.729 59.9009L49.6035 56.5761L49.3221 55.7449C49.2124 55.4303 49.1389 55.1042 49.1029 54.773C49.0245 54.0992 49.1193 53.4165 49.3782 52.7897C49.636 52.1226 50.1261 51.5717 50.7579 51.2389C51.411 50.9514 52.1484 50.9218 52.8223 51.1559C53.9815 51.5918 55.0392 52.2611 55.9304 53.1224L55.2349 53.514C55.074 52.3833 54.9708 51.2451 54.9255 50.1038C54.9036 49.5343 54.9001 48.9585 54.9229 48.3884C54.9711 47.8137 54.9941 47.2296 55.0908 46.6593C55.174 46.0518 55.3904 45.4703 55.7243 44.9566C55.9236 44.6681 56.2176 44.4589 56.555 44.3656C56.8791 44.2989 57.215 44.3175 57.5298 44.4195C58.666 44.8066 59.6196 45.6008 60.2074 46.6495L60.0056 46.5392H60.0118L60.1427 46.5399L60.2122 46.6472C60.6008 47.2715 60.9526 47.9181 61.2657 48.5836C61.4111 48.9001 61.5816 49.2043 61.7757 49.4934C61.8954 49.6355 61.8936 49.6335 62.0639 49.6435C62.1174 49.6489 62.1712 49.6378 62.2182 49.6116C62.2652 49.5855 62.3031 49.5456 62.3268 49.4973C62.4448 49.1937 62.4921 48.8671 62.4651 48.5424C62.4559 48.1863 62.428 47.831 62.3815 47.4778C62.2907 46.764 62.1505 46.0574 61.9618 45.3631C61.7694 44.6562 61.6143 43.9396 61.4972 43.2163C61.3642 42.4765 61.354 41.7199 61.4669 40.9768C61.5377 40.5915 61.6804 40.2232 61.8875 39.8911C62.1053 39.5553 62.4025 39.2787 62.7527 39.0857C63.4441 38.7467 64.213 38.5981 64.9806 38.6553L64.9411 38.6572C65.2684 38.6256 65.5985 38.6365 65.923 38.6896C66.2443 38.7416 66.5584 38.8307 66.8592 38.9551C67.4675 39.2105 67.9947 39.6275 68.384 40.1611L68.3595 40.1327C68.4102 40.1864 68.4396 40.2567 68.4425 40.3305L68.4378 41.4117L67.9431 40.4495L67.9367 40.437L67.9304 40.425L67.9199 40.3946C67.034 38.0407 66.4371 35.5876 66.1423 33.0892C66.08 32.4419 66.0888 31.7897 66.1687 31.1444C66.2286 30.4248 66.5397 29.7494 67.0473 29.2369C67.3436 28.9799 67.7059 28.8112 68.093 28.75C68.468 28.706 68.8481 28.7448 69.2066 28.8637C69.8472 29.1044 70.4327 29.4725 70.9278 29.9458C71.8576 30.8315 72.6748 31.8288 73.3608 32.9151C74.0522 33.9706 74.6876 35.0619 75.2642 36.1845C76.4653 38.4105 77.413 40.7648 78.0894 43.203C78.734 45.6171 79.3427 48.0091 80.1694 50.3175C81.0034 52.5973 82.0097 54.8913 83.6108 56.5539C84.3536 57.3696 85.3491 57.9104 86.4365 58.0888C86.9949 58.1471 87.5587 58.1241 88.1105 58.0206C88.6986 57.9394 89.2807 57.8197 89.8532 57.6623C91.0015 57.3505 92.1088 56.9031 93.1517 56.3294C94.1833 55.7645 95.1364 55.0662 95.9863 54.2523L96.6695 53.5726L97.0333 54.4043C97.4276 55.3386 97.6672 56.3311 97.7425 57.3428C97.8245 58.3237 97.7894 59.3109 97.638 60.2835C97.3163 62.2077 96.6215 64.0501 95.593 65.7066C95.0823 66.5479 94.4611 67.3166 93.746 67.9919C93.0184 68.6397 92.2237 69.2076 91.3755 69.6857C90.5409 70.1559 89.6858 70.5462 88.9019 70.9843C88.1365 71.3556 87.4818 71.9218 87.0032 72.6263C86.6041 73.3896 86.393 74.2376 86.3875 75.0993C86.3265 76.0164 86.2918 76.9411 86.2809 77.8688C86.2578 79.7241 86.2935 81.5855 86.3595 83.4457C86.4307 85.3058 86.5029 87.1677 86.6231 89.0268C86.7545 90.8824 86.8572 92.7517 87.1685 94.5801L87.0453 94.6086C86.648 92.7733 86.4638 90.9144 86.2487 89.059C86.0526 87.2016 85.8737 85.3416 85.7516 83.4769C85.6281 81.6122 85.5346 79.7448 85.5004 77.8701C85.4826 76.9328 85.49 75.9918 85.5225 75.0471C85.5064 74.0388 85.7337 73.0416 86.1851 72.1404C86.7339 71.2809 87.4986 70.5813 88.4025 70.1118C89.2355 69.6267 90.0696 69.2276 90.8487 68.7681C91.6151 68.3169 92.3316 67.7853 92.986 67.1824C93.6146 66.5647 94.1575 65.8651 94.6001 65.1024C95.5144 63.5651 96.1212 61.8641 96.3866 60.0943C96.519 59.2222 96.5473 58.3373 96.4708 57.4585C96.403 56.6073 96.2041 55.7718 95.881 54.9817L96.9278 55.1336C95.0411 56.9501 92.7266 58.2586 90.1996 58.9374C89.5755 59.1114 88.9408 59.2446 88.2994 59.3361C87.9717 59.3716 87.6716 59.4332 87.3209 59.4461L86.7949 59.462C86.619 59.4515 86.4427 59.4311 86.2667 59.4145C84.8789 59.2085 83.6047 58.5284 82.6594 57.4894C80.8179 55.5182 79.8361 53.1035 78.9866 50.736C78.1601 48.3486 77.5671 45.9046 76.9534 43.5065C76.7969 42.9091 76.6408 42.3143 76.4523 41.7505C76.26 41.1757 76.0428 40.603 75.8164 40.0335C75.362 38.8943 74.8608 37.7691 74.3141 36.6691C73.7743 35.5686 73.177 34.4975 72.5247 33.4601C71.8979 32.4313 71.153 31.4797 70.3052 30.6247C69.9122 30.2241 69.4438 29.9054 68.9272 29.6872C68.697 29.6033 68.4519 29.5688 68.2076 29.5859C67.9777 29.6167 67.7607 29.7101 67.5802 29.856C67.2064 30.2351 66.9743 30.7318 66.9232 31.2623C66.8348 31.8508 66.8109 32.4471 66.852 33.0408C67.0821 35.4966 67.6104 37.9152 68.4253 40.2427L68.4086 40.2005L68.4147 40.2132L67.9153 40.3322C67.9145 40.3643 67.9204 40.3962 67.9325 40.426C67.9447 40.4557 67.9628 40.4826 67.9858 40.5049L67.9612 40.4763C67.6372 40.005 67.19 39.6323 66.6686 39.3991C66.1448 39.1685 65.5725 39.0707 65.0022 39.1143L64.9772 39.1167L64.9624 39.1162C64.2773 39.0568 63.5888 39.1796 62.9662 39.4722C62.6774 39.6373 62.4297 39.8659 62.2416 40.1407C62.0535 40.4155 61.9299 40.7294 61.8801 41.0589C61.7705 41.7547 61.7755 42.4639 61.8949 43.1581C62.0038 43.8705 62.1503 44.5766 62.3336 45.2735C62.527 45.9813 62.6762 46.7005 62.7802 47.4269C62.8328 47.7936 62.8661 48.1629 62.8799 48.5331C62.9172 48.9346 62.8548 49.3392 62.6982 49.7106C62.6335 49.8186 62.5431 49.9088 62.4352 49.9733C62.3272 50.0378 62.2051 50.0745 62.0795 50.0802C61.954 50.0859 61.829 50.0604 61.7157 50.0059C61.6024 49.9514 61.5043 49.8697 61.4302 49.768C61.213 49.4585 61.0225 49.131 60.8606 48.7892C60.5476 48.1437 60.1974 47.5171 59.8115 46.9126L60.0118 47.0205L60.0056 47.0206L59.8753 47.0213L59.8036 46.9102C59.2781 45.9725 58.4161 45.2707 57.3927 44.9474C57.1844 44.8573 56.951 44.8439 56.7338 44.9098C56.5166 44.9756 56.3297 45.1164 56.2061 45.3071C55.9443 45.7528 55.7815 46.2499 55.7286 46.7644C55.6538 47.3074 55.651 47.854 55.6202 48.4017C55.6147 48.9578 55.6348 49.5092 55.6729 50.0646C55.7505 51.1735 55.8834 52.2779 56.0712 53.3736L56.265 54.5029L55.3756 53.7652C54.559 53.0173 53.6011 52.4413 52.5585 52.071C52.1144 51.9216 51.6303 51.9455 51.203 52.138C50.8036 52.3796 50.4998 52.752 50.343 53.1923C50.1578 53.6554 50.094 54.1583 50.1575 54.6531C50.187 54.9043 50.2452 55.1513 50.3309 55.3892L50.6204 56.2188L51.7782 59.5372C52.5586 61.7466 53.3102 63.9661 54.0552 66.1876C54.4324 67.3014 54.7929 68.4131 55.2025 69.4744C55.6246 70.5436 56.114 71.5908 56.6372 72.6231C57.6892 74.6881 58.9098 76.6697 60.1352 78.6613C60.7409 79.6693 61.3769 80.634 61.9217 81.7413C61.9926 81.893 62.0538 82.0491 62.1049 82.2087C62.129 82.3081 62.1501 82.4087 62.1679 82.5085C62.1815 82.6 62.1805 82.6595 62.1875 82.7365L62.2493 83.6112L62.3726 85.361C62.7113 90.0268 62.9973 94.6976 63.2632 99.3759L63.1372 99.3871Z" fill="black"/>
<path d="M70.7597 47.1599L67.8848 40.4452L68.4763 40.2207L70.7597 47.1599Z" fill="black"/>
<path d="M164.431 24.2219C162.099 25.2123 159.668 26.045 157.234 26.8089C154.788 27.5651 152.301 28.1848 149.786 28.6653C147.257 29.1842 144.682 29.4413 142.101 29.4327C140.791 29.4207 139.486 29.2865 138.201 29.0317C136.877 28.7789 135.61 28.2874 134.462 27.581L134.518 27.6132C132.586 26.6474 130.645 25.7021 128.725 24.715L128.084 24.3856L128.47 23.8294C128.516 23.7547 128.574 23.688 128.641 23.6318C128.674 23.6012 128.709 23.5732 128.746 23.5482C128.804 23.508 128.872 23.4555 128.924 23.4284C129.03 23.3697 129.144 23.2972 129.246 23.2537C129.455 23.1503 129.661 23.0618 129.864 22.9844C130.272 22.8249 130.677 22.6836 131.084 22.5627C131.895 22.3048 132.712 22.1097 133.528 21.9184C135.16 21.541 136.799 21.2218 138.442 20.9608C140.084 20.6841 141.729 20.4413 143.376 20.2173C145.021 19.9836 146.671 19.789 148.318 19.5821L148.095 19.7053L151.465 15.8402C152.59 14.5502 153.674 13.2405 154.837 11.9648C157.186 9.4407 159.908 7.29282 162.907 5.59617C164.412 4.75741 165.975 4.02934 167.586 3.4177C169.203 2.82275 170.857 2.33617 172.539 1.96116C175.908 1.10238 179.398 0.825073 182.86 1.14114C186.364 1.57521 189.705 2.88022 192.578 4.93755C195.436 7.0252 197.764 9.75704 199.374 12.9126C200.172 14.4891 200.793 16.1489 201.228 17.8618L201.51 19.1567C201.588 19.5856 201.664 20.0112 201.729 20.4411C201.866 21.2987 201.977 22.161 202.062 23.0282C202.247 24.769 202.29 26.522 202.189 28.2697C202.095 30.0441 201.772 31.7988 201.228 33.4902L201.01 34.1479L200.349 33.9489L191.424 31.2599L182.475 28.6486C179.492 27.7784 176.502 26.9339 173.498 26.1454C171.999 25.7396 170.495 25.357 168.985 24.9976C168.228 24.8401 167.474 24.6369 166.711 24.5165L165.568 24.3113L164.431 24.2219ZM164.4 24.0848L165.591 24.0972L166.755 24.2305C167.535 24.3129 168.295 24.4765 169.067 24.5957C170.6 24.8777 172.129 25.1793 173.65 25.516C176.69 26.1923 179.716 26.9245 182.735 27.6825C185.755 28.4385 188.758 29.2566 191.762 30.0692C194.763 30.8919 197.766 31.7047 200.755 32.58L199.876 33.0386C200.879 29.921 200.872 26.5031 200.57 23.1754C200.49 22.3396 200.384 21.5055 200.252 20.673C200.19 20.2572 200.117 19.8404 200.042 19.428L199.78 18.2155C199.39 16.606 198.827 15.0438 198.101 13.5565C196.626 10.5742 194.473 7.98081 191.815 5.98541C189.134 4.00568 186.01 2.71295 182.716 2.21978C179.372 1.82382 175.987 1.98658 172.696 2.7014C169.357 3.29792 166.134 4.42218 163.147 6.03219C160.161 7.65473 157.463 9.7621 155.164 12.2687C152.929 14.8263 150.798 17.5213 148.639 20.1652L148.557 20.2653L148.415 20.2884C146.78 20.5553 145.143 20.8122 143.514 21.1035C141.883 21.3852 140.255 21.6857 138.637 22.0184C137.018 22.3474 135.406 22.6993 133.813 23.0945C133.017 23.294 132.226 23.5116 131.456 23.7538C131.068 23.8703 130.69 24.0053 130.327 24.1483C130.143 24.2192 129.969 24.2954 129.806 24.377C129.716 24.4154 129.657 24.4592 129.581 24.4987C129.553 24.5151 129.527 24.533 129.501 24.5523C129.486 24.5615 129.475 24.5698 129.483 24.5647C129.492 24.5497 129.46 24.6015 129.546 24.4772L129.29 23.5918C131.223 24.5543 133.135 25.5587 135.057 26.5425L135.088 26.5582L135.113 26.5748C137.108 27.8774 139.658 28.2528 142.126 28.3415C143.378 28.3722 144.632 28.3351 145.88 28.2303C147.135 28.1397 148.388 27.9878 149.637 27.7927C152.138 27.4178 154.611 26.849 157.075 26.2374C159.541 25.6165 161.966 24.8948 164.4 24.0848Z" fill="black"/>
<path d="M179.847 4.91797C178.649 6.32855 177.422 7.69962 176.189 9.06329L172.493 13.1478C171.262 14.5069 170.04 15.8745 168.829 17.2505C167.625 18.635 166.435 20.0277 165.253 21.4529C166.131 19.8205 167.137 18.2608 168.262 16.789C169.369 15.3044 170.572 13.8987 171.801 12.5188C173.046 11.1535 174.33 9.82591 175.668 8.5545C176.997 7.27053 178.392 6.05671 179.847 4.91797ZM186.244 5.59286C187.235 7.39469 188.111 9.2575 188.867 11.1702C189.636 13.0776 190.307 15.0222 190.882 17.004C191.451 18.987 191.895 21.0041 192.211 23.0432C192.526 25.0842 192.613 27.1539 192.472 29.2142C192.251 27.1852 191.924 25.169 191.493 23.174C191.056 21.1877 190.542 19.2198 189.984 17.2629C189.432 15.3032 188.807 13.3634 188.184 11.4196C187.542 9.48209 186.91 7.53692 186.244 5.59286ZM148.367 19.9344C149.472 19.9497 150.576 20.0272 151.673 20.1665C152.766 20.2898 153.85 20.467 154.932 20.6546C156.011 20.8595 157.087 21.076 158.154 21.3462C159.23 21.6025 160.29 21.9198 161.329 22.2965C160.224 22.2824 159.12 22.2054 158.024 22.0658C156.93 21.9423 155.846 21.7651 154.765 21.5763C153.686 21.3703 152.61 21.1538 151.543 20.8834C150.467 20.6268 149.407 20.31 148.367 19.9344ZM148.367 28.4442C148.385 29.3851 148.335 30.3244 148.268 31.2651C148.208 32.2146 148.073 33.1579 147.864 34.0861C147.761 34.5875 147.572 35.0674 147.307 35.5046C147.067 35.8625 146.835 36.2808 146.603 36.679C146.135 37.4835 145.684 38.3021 145.234 39.12C144.323 40.751 143.428 42.39 142.547 44.0372C142.115 44.8638 141.668 45.6827 141.255 46.5142C141.047 46.9291 140.849 47.3478 140.656 47.7636C140.562 47.9719 140.472 48.181 140.394 48.3871C140.36 48.4881 140.318 48.5942 140.298 48.6845C140.285 48.7225 140.276 48.7619 140.272 48.8019C140.27 48.8094 140.264 48.8472 140.264 48.8305C140.264 48.8148 140.26 48.7993 140.252 48.7855C140.245 48.7718 140.234 48.7602 140.22 48.7519L140.049 48.6311C140.368 48.7071 140.696 48.738 141.024 48.7231C141.374 48.7092 141.722 48.6622 142.063 48.5828C142.411 48.5011 142.753 48.398 143.088 48.2739C143.426 48.1446 143.757 47.997 144.079 47.8315L144.126 47.8077L144.157 47.8139C144.486 47.8762 144.794 48.0191 145.054 48.2299C145.302 48.4395 145.479 48.7211 145.562 49.0359C145.439 48.751 145.231 48.5112 144.967 48.3493C144.715 48.1902 144.429 48.0948 144.132 48.0713L144.211 48.0537C143.59 48.485 142.912 48.8267 142.197 49.069C141.83 49.1878 141.452 49.2715 141.069 49.3191C140.664 49.3753 140.252 49.3617 139.852 49.2788L139.736 49.2532L139.68 49.1579C139.635 49.0814 139.604 48.9976 139.588 48.9103C139.583 48.8619 139.582 48.813 139.587 48.7645C139.588 48.6875 139.599 48.6109 139.617 48.536C139.642 48.4085 139.675 48.2824 139.713 48.1583C139.786 47.9209 139.868 47.694 139.954 47.4699C140.124 47.0221 140.316 46.5888 140.511 46.1583C140.904 45.2988 141.31 44.4496 141.745 43.6157C142.6 41.9405 143.514 40.3 144.455 38.6745C144.933 37.8658 145.42 37.0627 145.922 36.2645C146.178 35.8638 146.429 35.4786 146.733 35.0738C146.968 34.7174 147.146 34.3259 147.26 33.9139C147.76 32.1198 148.13 30.2918 148.367 28.4442Z" fill="black"/>
<path d="M150.724 51.3736C148.03 47.2117 144.145 49.0362 144.145 49.0362C144.145 49.0362 142.643 69.7082 151.846 70.2706C158.849 70.6987 164.876 66.4361 169.113 61.8459C171.307 59.4567 172.696 56.4358 173.083 53.2113C173.658 48.503 174.521 41.3899 174.74 39.338C175.077 36.1884 176.35 27.9419 180.913 28.4445C180.913 28.4445 190.452 28.5396 185.514 45.0746C185.514 45.0746 184.167 55.423 192.921 54.1857C192.921 54.1857 191.125 49.0115 193.482 45.0746C195.839 41.1377 198.937 36.1605 198.791 32.7438C198.791 32.7438 167.894 23.5904 164.415 24.1528C166.557 25.2857 168.279 27.0771 169.329 29.2636C170.38 31.4502 170.703 33.9167 170.251 36.3009C169.225 42.9874 164.288 51.9603 161.997 55.8512C161.633 56.4718 161.109 56.9822 160.48 57.328C159.85 57.6738 159.139 57.8422 158.421 57.8152C157.095 57.7618 155.572 57.5671 154.848 56.9977C153.417 55.8729 150.724 51.3736 150.724 51.3736Z" fill="black"/>
<path d="M150.394 31.5436C151.05 31.0373 151.8 30.6683 152.601 30.4584C153.416 30.2286 154.268 30.1575 155.109 30.2487C155.97 30.3518 156.788 30.6788 157.484 31.197C158.159 31.7029 158.678 32.3905 158.98 33.1801C158.412 32.6458 157.778 32.1871 157.094 31.8154C156.437 31.4793 155.726 31.2636 154.993 31.1782C154.243 31.0949 153.487 31.0936 152.737 31.1742C151.971 31.2545 151.195 31.3806 150.394 31.5436ZM176.873 43.0501C178.377 43.6415 180.118 43.5747 181.232 42.5848C181.794 42.0856 182.243 41.4715 182.548 40.7839C182.877 40.077 183.14 39.3414 183.334 38.5863C183.768 37.0638 184.025 35.496 184.099 33.9142C184.133 33.1203 184.113 32.325 184.039 31.5338C184.002 31.1361 183.944 30.7405 183.867 30.3486C183.832 30.1505 183.782 29.9576 183.729 29.7632C183.688 29.5665 183.608 29.3801 183.494 29.2148C183.776 29.518 183.988 29.8795 184.115 30.2739C184.265 30.6591 184.391 31.0536 184.492 31.4548C184.683 32.2616 184.795 33.0851 184.828 33.9136C184.889 35.5761 184.688 37.2378 184.234 38.8381C183.785 40.3927 183.13 42.1135 181.672 43.1652C180.955 43.6801 180.081 43.9289 179.201 43.8691C178.365 43.8137 177.56 43.5305 176.873 43.0501ZM165.986 64.848C166.536 65.1848 167.045 65.5854 167.501 66.0416C167.96 66.4851 168.383 66.9645 168.767 67.4753C169.156 67.9909 169.491 68.5451 169.767 69.1292C170.088 69.7176 170.219 70.3921 170.139 71.0583C169.869 70.502 169.534 69.9803 169.14 69.5043C168.77 69.0157 168.382 68.5357 168.018 68.0362C167.647 67.5404 167.287 67.0327 166.942 66.5078C166.583 65.9787 166.264 65.424 165.986 64.848ZM192.921 54.1859C193.516 55.1078 194.057 56.063 194.544 57.0466C194.789 57.517 195.032 57.9813 195.306 58.4237C195.576 58.8896 195.906 59.3179 196.288 59.6975C195.694 59.6146 195.147 59.328 194.741 58.8865C194.325 58.4777 193.979 58.0035 193.716 57.4827C193.452 56.9769 193.249 56.4415 193.111 55.8877C192.959 55.3338 192.896 54.7596 192.921 54.1859Z" fill="black"/>
<path d="M206.615 51.8205C206.615 51.8205 195.791 52.6131 193.963 56.9437L194.292 57.5651L195.5 56.9437C201.308 54.0461 204.591 57.8948 200.555 58.5733C196.512 59.2454 172.441 70.2971 172.441 70.2971C162.003 73.2581 155.886 89.1667 155.886 89.1667C157.568 88.4439 159.283 87.7971 160.985 87.106C162.731 86.5417 164.464 85.933 166.229 85.4321C169.773 84.4292 173.387 83.6937 177.04 83.2319C180.7 82.7597 184.398 82.6451 188.08 82.8895C188.997 82.9909 189.914 83.048 190.832 83.1812C191.736 83.3397 192.654 83.4475 193.552 83.663C195.359 84.0189 197.118 84.5827 198.796 85.3433C197.051 84.8205 195.262 84.4617 193.451 84.2717C192.552 84.1323 191.641 84.0879 190.743 84.0054C189.838 83.9484 188.934 83.9167 188.029 83.8723C184.407 83.8172 180.785 84.0227 177.192 84.4873L174.497 84.8361L171.815 85.3116L170.474 85.5336L169.145 85.8252C168.253 86.0218 167.368 86.212 166.476 86.3959C164.704 86.808 162.946 87.2772 161.168 87.7021C159.409 88.1839 157.663 88.7165 155.886 89.1667C128.506 93.6685 101.79 110.541 100 110.091C98.2033 109.641 96.6281 95.4693 96.6281 91.8235C96.6281 88.1839 95.9576 81.2917 90.5676 81.2917C85.184 81.2917 85.8546 86.0155 85.8546 86.0155C95.9575 88.7166 72.6139 90.7456 65.655 91.6396C58.6962 92.5399 62.5109 89.8452 62.5109 89.8452C62.5109 89.8452 60.4928 87.683 58.3293 90.3714C57.6541 91.2386 57.1989 92.2571 57.0028 93.3393C56.8066 94.4216 56.8754 95.5355 57.2032 96.5852C57.8928 98.8932 58.9113 102.393 59.5945 105.139C60.7206 109.641 64.7567 142.035 66.1042 145.186C67.4517 148.331 95.2806 156.656 154.538 152.383C159.34 151.628 164.122 150.829 168.905 150.03C173.681 149.212 178.458 148.375 183.196 147.405C185.568 146.93 187.941 146.435 190.288 145.871C192.647 145.332 194.988 144.734 197.31 144.076C199.633 143.423 201.921 142.652 204.167 141.768C206.441 140.948 208.559 139.745 210.43 138.211C209.606 139.115 208.661 139.901 207.621 140.545C206.593 141.21 205.524 141.81 204.42 142.339C202.204 143.373 199.927 144.269 197.601 145.021C192.956 146.5 188.231 147.711 183.449 148.648C178.673 149.599 173.873 150.385 169.05 151.007C164.23 151.647 159.39 152.116 154.538 152.383C154.538 152.383 152.381 165.527 151.255 177.352H235.659C235.57 165.806 235.551 150.506 235.906 136.747C236.576 110.205 235.906 97.7139 235.906 97.7139C234.692 97.5795 233.494 97.3333 232.325 96.9784C231.155 96.6424 230.01 96.2429 228.865 95.8307C226.581 95.0065 224.354 94.0427 222.14 93.0536C219.938 92.0454 217.762 90.9928 215.618 89.8579C213.473 88.7356 211.354 87.5499 209.304 86.2437C211.588 87.0807 213.821 88.0128 216.041 88.9702C218.262 89.915 220.457 90.9167 222.665 91.8996L229.238 94.9177C231.446 95.8942 233.603 96.9467 235.906 97.7139C235.906 97.7139 247.015 102.78 248.027 89.953C249.033 77.1322 236.912 49.4618 206.615 51.8205ZM211.278 93.4783C212.394 94.5347 213.368 95.7326 214.175 97.0417C214.574 97.6948 214.915 98.386 215.276 99.0708C215.586 99.7746 215.839 100.497 216.13 101.214C216.267 101.573 216.377 101.942 216.459 102.317L216.75 103.433C216.946 104.174 217.09 104.929 217.18 105.69L217.332 106.832L217.408 107.402L217.433 107.973L217.509 110.262L217.528 110.833L217.49 111.403L217.408 112.545C217.357 113.305 217.307 114.06 217.224 114.814C216.971 116.311 216.731 117.807 216.408 119.285C215.997 120.743 215.599 122.195 215.143 123.628C215.327 122.125 215.561 120.648 215.795 119.17C215.972 117.687 216.073 116.197 216.244 114.719L216.301 112.494L216.332 111.384L216.351 110.833L216.313 110.281L216.2 108.068L216.174 107.516L216.092 106.971L215.928 105.881C215.556 102.966 214.676 100.139 213.328 97.53C212.629 96.2368 211.793 95.0229 210.835 93.9095C209.879 92.7699 208.76 91.7784 207.514 90.9674C208.911 91.5668 210.187 92.4178 211.278 93.4783ZM227.226 67.7989C226.773 68.7539 225.998 69.5175 225.037 69.9546C224.562 70.172 224.063 70.3337 223.551 70.4365C223.039 70.5092 222.524 70.5537 222.007 70.5697C221.495 70.5443 220.976 70.5443 220.47 70.4809L218.964 70.2336C218.464 70.1322 217.984 69.9864 217.49 69.8596L216.067 69.4728C215.139 69.23 214.193 69.0604 213.239 68.9655C211.305 68.7848 209.36 68.7784 207.425 68.9465C203.516 69.3002 199.642 69.9746 195.842 70.9628C193.931 71.4447 192.021 71.9646 190.129 72.5289C188.225 73.0679 186.353 73.6893 184.467 74.317C188.052 72.5861 191.768 71.1464 195.583 70.0117C199.405 68.8295 203.34 68.0496 207.324 67.6847C209.34 67.5242 211.367 67.5539 213.378 67.7735C214.39 67.9039 215.391 68.1138 216.37 68.4012L219.186 69.2699L220.596 69.5742C221.071 69.6566 221.545 69.6756 222.02 69.739C222.494 69.7707 222.969 69.7327 223.437 69.72C223.901 69.6576 224.357 69.5449 224.797 69.384C225.692 69.0755 226.448 68.4572 226.929 67.6403C227.177 67.2256 227.365 66.7771 227.486 66.3087C227.628 65.8354 227.705 65.3447 227.713 64.8504C227.823 65.8594 227.655 66.8793 227.226 67.7989Z" fill="#FD1A5A"/>
<path d="M115.709 177.354C128.166 176.992 140.623 176.749 153.081 176.626C159.309 176.539 165.538 176.52 171.766 176.469L190.452 176.418L209.138 176.467C215.367 176.519 221.595 176.536 227.824 176.623C240.281 176.745 252.738 176.989 265.195 177.354C252.738 177.719 240.281 177.963 227.824 178.086C221.595 178.173 215.367 178.19 209.138 178.242L190.452 178.291L171.766 178.239C165.538 178.189 159.309 178.169 153.081 178.083C140.623 177.96 128.166 177.717 115.709 177.354ZM152.491 38.3337C154.934 38.3337 154.938 34.5293 152.491 34.5293C150.049 34.5293 150.045 38.3337 152.491 38.3337Z" fill="black"/>
</g>
<defs>
<clipPath id="clip0_34_1508">
<rect width="266" height="178" fill="white" transform="translate(0 0.5)"/>
</clipPath>
</defs>
</svg>
