<svg width="553" height="562" viewBox="0 0 553 562" fill="none" xmlns="http://www.w3.org/2000/svg">
<path opacity="0.3" d="M260.959 95.8306C260.959 95.8306 305.226 52.3875 341.969 76.8539C378.712 101.32 378.712 118.942 403.998 122.805C429.284 126.6 481.347 99.0838 508.87 133.513C536.461 167.942 474.433 266.689 490.499 289.664C506.566 312.64 549.477 287.36 552.528 337.919C555.578 388.411 483.652 399.933 485.144 421.349C486.703 442.766 505.074 461.946 479.788 471.095C454.502 480.313 274.585 483.362 274.585 483.362L105.379 474.959C105.379 474.959 18.0638 422.163 22.6736 357.845C27.2834 293.527 108.429 279.024 96.9725 233.073C85.5159 187.122 43.3499 166.451 65.5853 138.935C91.3459 107.013 142.935 152.693 177.373 135.14C207.472 119.755 184.558 91.9675 218.522 81.3948C252.485 70.822 260.959 95.8306 260.959 95.8306Z" fill="#B9E099"/>
<path d="M100.837 450.356H420.132C420.132 450.356 536.529 444.256 550.291 468.723C564.052 493.189 413.217 491.698 408.675 506.202C404.066 520.773 481.415 531.481 481.415 546.798C481.415 562.115 443.113 557.507 273.161 559.065C192.016 559.811 121.174 564.826 121.174 552.152C121.174 539.479 176.695 539.885 179 527.686C181.305 515.419 23.555 523.891 23.555 508.574C23.555 493.257 63.3483 509.319 64.9075 494.002C66.4666 478.685 -2.47678 487.089 1.38731 467.977C5.11581 448.865 100.837 450.356 100.837 450.356Z" fill="#FD1A5A" stroke="#1E344A" stroke-width="2" stroke-miterlimit="10" stroke-linejoin="round"/>
<path d="M189.304 462.014C182.864 462.014 180.694 461.878 179.949 461.743C179.745 457.609 177.983 430.025 176.152 400.949C175.271 387.327 174.39 373.569 173.644 362.25C171.407 326.534 172.492 283.497 172.492 283.09V283.023L165.713 242.223C168.899 241.342 184.22 237.14 190.253 236.665L197.1 236.123L348.68 244.188C348.748 244.188 351.324 244.12 354.985 244.12C360.612 244.12 368.475 244.324 373.899 245.34L391.66 248.661L359.12 456.999C349.562 457.337 225.436 462.014 189.304 462.014Z" fill="#66B4BF"/>
<path d="M197.1 236.868L348.613 244.933H348.68H348.748C348.748 244.933 351.324 244.866 354.917 244.866C360.544 244.866 368.34 245.069 373.695 246.085L390.779 249.271L358.442 456.32C345.494 456.795 224.826 461.336 189.304 461.336C184.016 461.336 181.644 461.2 180.627 461.132C180.356 455.372 178.661 428.804 176.83 400.881C175.949 387.259 175.068 373.501 174.322 362.25C172.085 326.533 173.17 283.564 173.17 283.158V283.022V282.887L166.458 242.765C170.594 241.612 184.626 237.885 190.321 237.41L197.1 236.868ZM197.1 235.513C197.1 235.513 197.1 235.513 190.185 236.055C183.271 236.597 164.899 241.816 164.899 241.816L171.814 283.158C171.814 283.158 170.661 326.194 172.966 362.386C175.271 398.577 179.271 459.98 179.271 462.285C179.271 462.623 182.932 462.759 189.236 462.759C227.063 462.759 359.527 457.676 359.527 457.676L392.338 248.119C392.338 248.119 383.118 246.424 373.967 244.662C368.475 243.646 360.476 243.442 354.917 243.442C351.257 243.442 348.68 243.51 348.68 243.51L197.1 235.513Z" fill="#1E344A"/>
<path d="M347.053 373.567C346.986 370.246 346.24 337.85 351.663 312.028C357.358 284.783 379.458 250.557 392.406 248.863C393.084 248.795 393.761 248.728 394.372 248.728C406.438 248.728 412.336 265.061 412.336 298.677C412.336 333.581 400.947 411.995 399.32 423.042L347.053 373.567Z" fill="#4980A9"/>
<path d="M394.372 249.338C405.964 249.338 411.658 265.468 411.658 298.61C411.658 332.361 401.015 406.777 398.846 421.552L347.731 373.229C347.596 368.688 347.053 337.309 352.341 312.097C354.985 299.355 361.629 283.97 370.035 271.026C378.17 258.487 386.779 250.219 392.541 249.473C393.151 249.406 393.761 249.338 394.372 249.338ZM394.372 247.982C393.694 247.982 393.016 248.05 392.338 248.118C379.119 249.812 356.748 284.309 350.985 311.826C345.223 339.41 346.376 373.839 346.376 373.839L399.795 424.33C399.795 424.33 413.014 336.495 413.014 298.61C413.014 262.757 406.303 247.982 394.372 247.982Z" fill="#1E344A"/>
<path d="M110.599 362.454C111.819 357.303 120.361 322.874 134.529 290.342C147.816 259.844 161.916 245.883 165.442 242.697L173.915 280.176C174.729 283.836 175.136 287.564 175.068 291.359L173.441 377.093L110.599 362.454Z" fill="#4980A9"/>
<path d="M165.103 243.985L173.305 280.311C174.119 283.903 174.526 287.631 174.458 291.291L172.899 376.212L111.548 361.979C113.242 355.066 121.649 321.993 135.275 290.613C147.477 262.284 160.561 248.254 165.103 243.985ZM165.916 241.409C165.916 241.409 149.443 254.422 133.919 290.003C118.395 325.585 109.785 362.928 109.785 362.928L174.119 377.838L175.746 291.291C175.814 287.496 175.407 283.7 174.593 279.973L165.916 241.409Z" fill="#1E344A"/>
<path d="M329.157 240.053C315.599 235.377 309.294 228.803 307.396 226.499C305.904 215.451 308.887 202.371 308.887 202.371L237.436 206.98C237.436 206.98 242.249 211.385 243.401 219.857C243.401 219.857 242.113 229.413 228.894 233.412C215.675 237.41 199.812 236.19 199.812 236.19C199.812 236.19 209.777 293.459 267.128 296.78C326.852 300.237 348.342 244.594 348.342 244.594C348.342 244.594 337.224 242.832 329.157 240.053Z" fill="#EED58C" stroke="#1E344A" stroke-width="2.8799" stroke-miterlimit="10"/>
<path d="M237.436 207.047L308.887 202.438C308.887 202.438 294.516 246.763 275.737 248.322C256.959 249.88 243.401 219.992 243.401 219.992L237.436 207.047Z" fill="#1E344A"/>
<path d="M212.421 137.85C212.421 137.85 194.388 137.85 190.931 128.904C187.474 119.958 191.134 115.146 191.134 115.146C191.134 115.146 181.237 113.18 180.898 103.963C180.491 94.7458 184.287 87.6295 184.287 87.6295C184.287 87.6295 174.322 80.0388 174.593 71.4993C175.068 58.8934 186.05 54.0136 186.05 54.0136C186.05 54.0136 176.627 41.3399 188.084 33.4103C199.54 25.4808 211.065 34.3592 211.065 34.3592C211.065 34.3592 204.896 16.8735 218.454 13.9592C232.012 11.1127 240.961 15.6535 240.961 15.6535C240.961 15.6535 255.4 0.539922 268.416 0.743244C281.432 0.878792 286.516 17.2123 286.516 17.2123C286.516 17.2123 299.939 7.45287 314.243 14.5691C328.479 21.6854 325.496 29.615 325.496 29.615C325.496 29.615 350.985 24.5997 360.544 34.1558C370.102 43.7797 361.696 52.5904 361.696 52.5904C361.696 52.5904 380.61 49.9472 384.474 65.8063C388.406 81.6654 377.492 86.5452 377.492 86.5452C377.492 86.5452 386.372 102.608 378.644 113.79C370.916 124.973 363.256 123.889 363.256 123.889C363.256 123.889 365.154 132.767 356.68 142.798C348.206 152.76 328.682 152.693 328.682 152.693L212.421 137.85Z" fill="#1E344A"/>
<path d="M216.827 180.548C211.743 181.768 205.235 172.618 202.184 160.08C199.134 147.542 200.828 136.427 205.845 135.207L215.065 134.055L224.759 179.599L216.827 180.548Z" fill="#D65555" stroke="#1E344A" stroke-width="2" stroke-miterlimit="10" stroke-linejoin="round"/>
<path d="M224.85 179.562C229.91 178.344 231.567 167.209 228.552 154.691C225.537 142.173 218.991 133.012 213.932 134.23C208.873 135.448 207.215 146.584 210.23 159.102C213.245 171.62 219.791 180.78 224.85 179.562Z" fill="#A23D3D" stroke="#1E344A" stroke-width="2" stroke-miterlimit="10" stroke-linejoin="round"/>
<path d="M215.336 105.793C215.336 105.793 213.573 139.07 215.878 147.949C218.183 156.827 220.556 163.876 220.556 163.876C220.556 163.876 220.895 178.108 225.979 189.359C240.351 221.009 268.687 229.887 268.687 229.887C268.687 229.887 293.634 220.196 308.955 202.507C324.276 184.75 322.107 164.011 322.107 164.011L327.055 119.416L298.651 75.2949L235.673 88.3075L215.336 105.793Z" fill="#EED58C" stroke="#1E344A" stroke-width="2.8799" stroke-miterlimit="10"/>
<path d="M309.972 136.562C309.972 136.562 298.176 131.751 288.957 132.36C283.805 132.699 280.008 134.733 277.636 136.427C276.076 137.579 273.839 137.105 272.823 135.41C271.941 133.852 272.348 131.886 273.839 130.937C276.89 128.904 282.517 125.99 289.499 126.261C303.193 126.871 309.972 136.562 309.972 136.562Z" fill="#1E344A"/>
<path d="M276.822 160.08C276.822 160.08 282.856 153.98 290.313 153.167C297.837 152.354 305.159 155.336 305.159 155.336C305.159 155.336 301.43 162.045 291.804 163.604C282.178 165.095 276.822 160.08 276.822 160.08Z" fill="white" stroke="#1E344A" stroke-width="2" stroke-miterlimit="10"/>
<path d="M225.572 162.519C225.572 162.519 228.623 157.436 237.842 157.572C247.062 157.775 253.028 162.858 253.028 162.858C253.028 162.858 248.553 166.315 238.859 166.925C231.47 167.399 225.572 162.519 225.572 162.519Z" fill="white" stroke="#1E344A" stroke-width="2" stroke-miterlimit="10"/>
<path d="M216.759 142.391C216.759 142.391 226.657 137.443 233.3 136.833C239.944 136.224 244.079 138.731 244.079 138.731C245.774 139.002 247.401 138.053 248.011 136.495C248.757 134.461 247.604 132.225 245.503 131.75C241.774 130.869 235.876 130.192 229.911 132.089C220.081 135.207 216.759 142.391 216.759 142.391Z" fill="#1E344A"/>
<path d="M257.976 165.977L254.044 185.902C254.044 185.902 258.18 187.258 261.908 185.834C265.637 184.479 268.009 182.242 268.009 182.242" stroke="#1E344A" stroke-width="2" stroke-miterlimit="10"/>
<path d="M260.145 199.524C260.145 199.524 259.671 196 264.281 194.916C272.619 192.95 275.941 195.864 280.347 195.187C284.754 194.509 287.533 192.272 287.533 192.272C287.533 192.272 284.754 199.05 272.551 200.676C260.281 202.371 260.145 199.524 260.145 199.524Z" fill="#D65555" stroke="#1E344A" stroke-width="2" stroke-miterlimit="10" stroke-linejoin="round"/>
<path d="M263.399 201.422C263.399 201.422 266.111 206.776 270.314 207.183C281.161 208.335 285.77 195.119 285.77 195.119C285.77 195.119 279.534 199.524 272.619 200.677C265.637 201.897 263.399 201.422 263.399 201.422Z" fill="#D65555" stroke="#1E344A" stroke-width="2" stroke-miterlimit="10" stroke-linejoin="round"/>
<path d="M230.046 164.824C230.046 164.824 231.402 159.876 237.164 159.944C242.927 160.012 244.96 166.044 244.96 166.044C244.96 166.044 241.3 167.06 236.69 166.654C232.08 166.247 230.046 164.824 230.046 164.824Z" fill="#A6D97D" stroke="#1E344A" stroke-width="1.3096" stroke-miterlimit="10"/>
<path d="M282.042 162.587C282.042 162.587 283.398 157.098 290.177 156.42C296.888 155.742 298.786 161.367 298.786 161.367C298.786 161.367 295.261 163.536 289.635 164.078C284.076 164.621 282.042 162.587 282.042 162.587Z" fill="#A6D97D" stroke="#1E344A" stroke-width="1.3096" stroke-miterlimit="10"/>
<path d="M341.359 129.107C341.563 127.481 341.698 125.786 341.766 124.16C343.393 86.5451 314.175 54.8269 276.551 53.2003C252.824 52.1837 231.47 63.4342 218.454 81.2588C231.334 69.1272 248.96 61.9432 268.077 62.7564C304.006 64.2475 332.275 93.3225 333.292 128.701L341.359 129.107Z" fill="#FD1A5A" stroke="#1E344A" stroke-width="2" stroke-miterlimit="10" stroke-linejoin="round"/>
<path d="M223.064 76.2431C223.064 76.2431 208.082 95.5587 206.862 105.793C205.642 116.094 198.117 121.516 204.828 126.803C211.472 132.089 215.132 127.616 215.132 127.616C215.132 127.616 219.946 122.465 223.2 117.585C226.454 112.773 225.098 108.842 225.098 108.842C225.098 108.842 232.012 116.772 242.927 112.299C253.841 107.758 260.891 95.8298 260.891 95.8298C260.891 95.8298 264.349 104.03 273.636 102.133C282.923 100.235 283.873 95.6942 283.873 95.6942C283.873 95.6942 282.246 107.148 291.736 109.791C301.227 112.502 304.888 106.538 304.888 106.538C304.888 106.538 302.515 117.924 310.04 120.567C317.565 123.21 319.87 124.43 319.87 124.43C319.87 124.43 314.65 130.327 317.565 133.173C320.48 135.952 328.479 137.443 328.479 137.443L333.292 128.836C333.292 128.836 337.902 114.468 333.292 105.86C328.682 97.253 323.327 96.2364 323.327 96.2364C323.327 96.2364 320.886 81.5972 312.345 75.4976C303.803 69.3979 298.38 71.0923 298.38 71.0923C298.38 71.0923 283.873 60.1129 274.721 58.9607C265.569 57.8086 261.163 62.2139 261.163 62.2139C261.163 62.2139 248.96 60.5195 242.317 63.2982C235.673 66.077 230.046 73.1255 230.046 73.1255L223.064 76.2431Z" fill="#1E344A"/>
<path opacity="0.2" d="M224.826 89.5949C224.826 89.5949 223.267 107.691 235.063 107.487C246.791 107.216 261.095 86.3417 261.095 86.3417C261.095 86.3417 262.654 97.05 271.806 96.5756C281.025 96.0334 284.076 84.5796 284.076 84.5796C284.076 84.5796 276.144 93.7969 270.789 88.9171C265.433 84.0374 263.128 74.3457 263.128 74.3457C263.128 74.3457 243.944 98.4733 235.537 97.05C226.386 95.4912 224.826 89.5949 224.826 89.5949Z" fill="#66B4BF"/>
<path opacity="0.2" d="M217.166 113.18C217.166 113.18 210.251 121.991 203.405 115.891C196.558 109.791 204.15 96.3721 204.15 96.3721C204.15 96.3721 193.033 114.739 199.947 122.397C206.862 130.056 217.166 113.18 217.166 113.18Z" fill="#66B4BF"/>
<path opacity="0.2" d="M192.287 82.6146C192.287 82.6146 184.626 79.9036 187.677 70.0086C190.728 60.0458 201.439 61.9435 201.439 61.9435C201.439 61.9435 189.982 51.2352 196.49 45.8811C202.998 40.5269 216.759 47.4399 216.759 47.4399C216.759 47.4399 202.184 31.3774 194.185 37.4771C186.118 43.5767 192.287 57.4026 192.287 57.4026C192.287 57.4026 182.593 58.6904 180.423 68.1109C177.373 81.4624 192.287 82.6146 192.287 82.6146Z" fill="#66B4BF"/>
<path opacity="0.1" d="M306.515 172.821C306.786 175.803 302.447 178.514 296.821 178.989C291.262 179.463 286.516 177.43 286.245 174.448C285.974 171.466 290.313 168.755 295.939 168.28C301.566 167.874 306.311 169.907 306.515 172.821Z" fill="#C4007B"/>
<path opacity="0.1" d="M247.604 177.837C247.333 180.819 242.655 182.784 237.029 182.31C231.47 181.836 227.131 179.057 227.402 176.075C227.674 173.093 232.351 171.127 237.978 171.602C243.537 172.144 247.808 174.923 247.604 177.837Z" fill="#C4007B"/>
<path d="M217.912 152.422C217.641 150.253 219.2 148.288 221.437 148.017C225.233 147.678 231.538 147.339 238.452 148.084C249.909 149.304 254.993 150.05 256.349 153.438C257.705 156.827 256.892 170.856 253.434 173.974C249.977 177.159 229.368 175.736 224.352 173.025C220.691 171.06 218.725 158.793 217.912 152.422Z" stroke="#1E344A" stroke-width="6" stroke-miterlimit="10"/>
<path d="M270.653 149.237C268.145 149.711 266.45 152.083 266.857 154.659C267.942 161.165 274.585 173.432 278.178 174.11C283.262 175.059 305.294 172.686 307.26 169.501C309.158 166.248 312.345 145.441 308.616 144.018C305.633 142.798 280.89 147.271 270.653 149.237Z" stroke="#1E344A" stroke-width="6" stroke-miterlimit="10"/>
<path d="M257.163 158.115L267.128 157.505" stroke="#1E344A" stroke-width="6" stroke-miterlimit="10"/>
<path d="M310.04 152.151L326.784 137.037" stroke="#1E344A" stroke-width="6" stroke-miterlimit="10"/>
<path d="M324.75 173.092C319.598 172.482 316.616 161.638 318.107 148.829C319.598 136.02 325.022 126.125 330.174 126.735L339.258 128.836L332.546 174.922L324.75 173.092Z" fill="#A23D3D" stroke="#1E344A" stroke-width="2" stroke-miterlimit="10" stroke-linejoin="round"/>
<path d="M344.636 152.833C346.141 140.046 343.172 129.187 338.004 128.579C332.836 127.97 327.426 137.843 325.92 150.631C324.414 163.418 327.384 174.277 332.552 174.885C337.72 175.494 343.13 165.621 344.636 152.833Z" fill="#D65555" stroke="#1E344A" stroke-width="2" stroke-miterlimit="10" stroke-linejoin="round"/>
<path d="M109.785 362.928C109.785 362.928 144.155 366.452 149.511 346.527C154.866 326.601 132.902 326.127 140.291 313.114C147.68 300.101 157.103 306.743 158.934 290.681C160.696 274.618 148.494 263.91 148.494 263.91C148.494 263.91 135.749 284.581 126.055 311.081C116.361 337.58 109.785 362.928 109.785 362.928Z" fill="#365D8D" stroke="#1E344A" stroke-width="2" stroke-miterlimit="10"/>
<path d="M363.459 280.446C363.459 280.446 388.338 295.018 390.236 318.332C392.135 341.646 373.763 328.295 373.017 345.509C372.272 362.724 385.627 361.978 382.237 376.143C378.78 390.308 346.443 373.839 346.443 373.839C346.443 373.839 345.494 349.372 348.952 325.584C352.341 301.863 363.459 280.446 363.459 280.446Z" fill="#365D8D" stroke="#1E344A" stroke-width="2" stroke-miterlimit="10"/>
<path d="M257.976 295.763C257.976 295.763 301.024 396.204 333.224 423.788C365.357 451.372 394.101 464.52 398.1 450.22C402.1 435.852 407.862 424.94 386.644 388.207C365.357 351.473 286.11 282.547 286.11 282.547C286.11 282.547 292.55 237.071 285.567 231.446C280.754 227.65 251.129 226.837 247.672 230.293C244.215 233.75 234.453 272.788 239.063 271.026C243.672 269.331 251.672 246.898 251.672 246.898H259.129C259.129 246.898 252.214 268.111 253.367 277.329C254.519 286.614 257.976 295.763 257.976 295.763Z" fill="#EED58C" stroke="#1E344A" stroke-width="2.8799" stroke-miterlimit="10"/>
<path d="M250.519 239.104C250.519 239.104 252.078 242.154 251.672 245.611C251.265 249.067 250.519 250.016 250.519 250.016" fill="#EED58C"/>
<path d="M250.519 239.104C250.519 239.104 252.078 242.154 251.672 245.611C251.265 249.067 250.519 250.016 250.519 250.016" stroke="#1E344A" stroke-width="2.8799" stroke-miterlimit="10" stroke-linecap="round"/>
<path d="M263.874 239.511C263.874 239.511 260.824 242.357 259.671 245.272C258.519 248.118 257.57 253.133 257.57 253.133" fill="#EED58C"/>
<path d="M263.874 239.511C263.874 239.511 260.824 242.357 259.671 245.272C258.519 248.118 257.57 253.133 257.57 253.133" stroke="#1E344A" stroke-width="2.8799" stroke-miterlimit="10" stroke-linecap="round"/>
<path opacity="0.1" d="M261.976 303.219C261.976 303.219 303.871 313.52 317.7 341.104C331.462 368.688 321.7 385.293 332.614 400.203C343.528 415.114 359.595 412.809 367.052 425.483C374.509 438.089 370.509 449.611 370.509 449.611C370.509 449.611 348.138 442.155 323.394 412.877C298.719 383.599 290.109 362.385 290.109 362.385L261.976 303.219Z" fill="#C4007B"/>
<path d="M346.376 492.648L365.9 462.827H346.376V492.648Z" fill="#E3E3E3" stroke="#1E344A" stroke-width="2" stroke-miterlimit="10" stroke-linejoin="round"/>
<path d="M365.899 462.827V464.793C365.899 469.401 364.611 473.874 362.103 477.737L349.765 496.646C347.664 499.9 344.003 501.865 340.139 501.933H334.309L346.376 492.716L365.899 462.827Z" fill="#AFAFAF" stroke="#1E344A" stroke-width="2" stroke-miterlimit="10" stroke-linejoin="round"/>
<path d="M84.9736 314.063L93.3119 493.732C93.5153 498.611 97.5827 502.474 102.464 502.474L337.156 501.932C342.24 501.932 346.308 497.798 346.308 492.715L345.291 315.689C345.291 310.674 341.224 306.608 336.207 306.608L94.1932 304.507C88.9733 304.439 84.7703 308.776 84.9736 314.063Z" fill="#E3E3E3" stroke="#1E344A" stroke-width="2" stroke-miterlimit="10"/>
<path d="M209.641 395.12C209.641 395.12 200.422 386.445 191.88 394.036C183.338 401.626 197.71 421.213 202.388 421.755C207.133 422.297 211.065 420.332 211.065 420.332C211.065 420.332 216.149 423.043 220.691 421.62C225.979 419.993 238.113 400.745 228.487 394.239C218.861 387.665 209.641 395.12 209.641 395.12Z" fill="white"/>
<path d="M209.98 389.495C209.98 389.495 208.692 384.074 212.149 378.448C215.607 372.823 220.827 370.315 220.827 370.315C220.827 370.315 220.623 377.771 217.369 382.447C214.183 387.123 209.98 389.495 209.98 389.495Z" fill="white"/>
<path opacity="0.5" d="M84.9736 314.062L92.7018 492.85C92.973 498.476 97.6505 502.949 103.277 502.881L133.309 502.474C133.309 502.474 159.137 463.436 153.375 441.071C147.612 418.706 119.479 430.769 112.632 403.728C105.718 376.753 131.614 374.991 129.851 349.779C128.089 323.28 84.9736 314.062 84.9736 314.062Z" fill="#AFAFAF"/>
<path d="M421.217 474.145L418.573 433.955L446.91 439.648L447.249 482.549L421.217 474.145Z" fill="#D65555" stroke="#1E344A" stroke-width="2" stroke-miterlimit="10" stroke-linejoin="round"/>
<path d="M446.909 439.649L482.093 430.838L479.042 471.435L447.248 482.549L446.909 439.649Z" fill="#993939" stroke="#1E344A" stroke-width="2" stroke-miterlimit="10" stroke-linejoin="round"/>
<path d="M418.573 433.955L448.13 426.297L482.093 430.838L446.91 439.648L418.573 433.955Z" fill="#1E344A"/>
<path d="M442.029 434.09C442.029 434.09 429.284 427.516 425.352 419.18C421.42 410.844 423.793 395.934 423.793 395.934C423.793 395.934 431.046 400.339 438.232 412.809C445.486 425.348 442.029 434.09 442.029 434.09Z" fill="#84CB74" stroke="#1E344A" stroke-width="2" stroke-miterlimit="10"/>
<path d="M473.009 396.002C473.009 396.002 460.264 402.576 456.333 410.912C452.401 419.248 454.773 434.159 454.773 434.159C454.773 434.159 462.027 429.753 469.213 417.283C476.534 404.745 473.009 396.002 473.009 396.002Z" fill="#84CB74"/>
<path d="M473.009 396.002L473.936 395.628L473.526 394.61L472.551 395.113L473.009 396.002ZM454.773 434.159L453.786 434.316L454.02 435.786L455.292 435.013L454.773 434.159ZM469.213 417.283L468.349 416.779L468.346 416.784L469.213 417.283ZM473.009 396.002C472.551 395.113 472.55 395.113 472.55 395.113C472.55 395.114 472.55 395.114 472.549 395.114C472.549 395.114 472.548 395.115 472.547 395.115C472.545 395.116 472.542 395.118 472.539 395.119C472.532 395.123 472.521 395.128 472.508 395.135C472.482 395.149 472.444 395.169 472.395 395.195C472.297 395.247 472.154 395.324 471.972 395.425C471.607 395.625 471.084 395.92 470.445 396.3C469.169 397.058 467.426 398.158 465.555 399.523C461.851 402.229 457.506 406.079 455.428 410.486L457.237 411.339C459.091 407.409 463.085 403.804 466.735 401.139C468.542 399.819 470.231 398.754 471.467 398.019C472.085 397.652 472.588 397.368 472.936 397.177C473.11 397.081 473.244 397.009 473.335 396.961C473.38 396.937 473.414 396.919 473.436 396.907C473.448 396.901 473.456 396.897 473.461 396.894C473.464 396.893 473.465 396.892 473.467 396.891C473.467 396.891 473.467 396.891 473.468 396.891C473.468 396.891 473.468 396.891 473.468 396.891C473.468 396.891 473.467 396.891 473.009 396.002ZM455.428 410.486C453.357 414.877 452.977 420.89 453.079 425.683C453.13 428.102 453.306 430.255 453.47 431.803C453.551 432.578 453.63 433.203 453.688 433.635C453.717 433.852 453.741 434.02 453.758 434.135C453.767 434.193 453.774 434.237 453.778 434.267C453.781 434.283 453.782 434.294 453.784 434.302C453.784 434.306 453.785 434.31 453.785 434.312C453.785 434.313 453.785 434.314 453.786 434.314C453.786 434.315 453.786 434.315 453.786 434.315C453.786 434.316 453.786 434.316 454.773 434.159C455.761 434.002 455.761 434.002 455.761 434.002C455.761 434.002 455.761 434.002 455.761 434.001C455.761 434.001 455.761 434.001 455.761 434C455.76 433.999 455.76 433.997 455.76 433.993C455.759 433.987 455.757 433.977 455.755 433.964C455.751 433.937 455.745 433.897 455.737 433.843C455.721 433.736 455.698 433.576 455.67 433.368C455.614 432.953 455.538 432.347 455.459 431.594C455.3 430.086 455.128 427.991 455.078 425.64C454.977 420.894 455.376 415.283 457.237 411.339L455.428 410.486ZM454.773 434.159C455.292 435.013 455.293 435.013 455.293 435.013C455.293 435.013 455.294 435.013 455.294 435.012C455.295 435.012 455.296 435.011 455.296 435.011C455.298 435.01 455.3 435.008 455.303 435.007C455.308 435.004 455.316 434.999 455.324 434.994C455.342 434.983 455.366 434.967 455.398 434.947C455.46 434.907 455.549 434.849 455.662 434.771C455.89 434.616 456.216 434.384 456.628 434.069C457.45 433.438 458.612 432.471 459.999 431.111C462.772 428.391 466.438 424.1 470.079 417.782L468.346 416.784C464.801 422.936 461.248 427.083 458.598 429.683C457.273 430.984 456.172 431.898 455.41 432.482C455.029 432.774 454.733 432.984 454.536 433.119C454.437 433.186 454.363 433.235 454.315 433.265C454.292 433.28 454.275 433.291 454.264 433.298C454.259 433.301 454.256 433.303 454.254 433.304C454.253 433.305 454.253 433.305 454.253 433.305C454.253 433.305 454.253 433.305 454.253 433.305C454.253 433.305 454.254 433.304 454.254 433.304C454.254 433.304 454.254 433.304 454.773 434.159ZM470.076 417.787C473.828 411.362 474.821 405.871 474.856 401.95C474.874 399.993 474.653 398.435 474.424 397.356C474.309 396.816 474.192 396.396 474.101 396.105C474.056 395.959 474.017 395.846 473.988 395.766C473.974 395.726 473.962 395.695 473.953 395.671C473.949 395.66 473.945 395.651 473.943 395.643C473.941 395.64 473.94 395.637 473.939 395.634C473.938 395.633 473.938 395.632 473.938 395.631C473.937 395.63 473.937 395.629 473.937 395.629C473.937 395.629 473.936 395.628 473.009 396.002C472.082 396.376 472.081 396.375 472.081 396.375C472.081 396.375 472.081 396.374 472.081 396.374C472.081 396.374 472.081 396.373 472.08 396.373C472.08 396.373 472.08 396.373 472.081 396.373C472.081 396.375 472.082 396.378 472.084 396.383C472.089 396.394 472.096 396.413 472.105 396.44C472.125 396.495 472.155 396.582 472.191 396.699C472.265 396.936 472.366 397.296 472.467 397.772C472.67 398.724 472.873 400.135 472.856 401.932C472.824 405.517 471.919 410.665 468.349 416.779L470.076 417.787Z" fill="#1E344A"/>
<path d="M447.248 435.446C447.248 435.446 440.74 422.23 441.147 410.98C441.554 399.661 450.367 390.309 450.367 390.309C450.367 390.309 457.62 398.509 456.875 410.37C456.061 422.23 447.248 435.446 447.248 435.446Z" fill="#74BC66" stroke="#1E344A" stroke-width="2" stroke-miterlimit="10"/>
<path d="M71.6866 244.458C84.7905 244.458 95.4134 233.838 95.4134 220.738C95.4134 207.637 84.7905 197.017 71.6866 197.017C58.5826 197.017 47.9597 207.637 47.9597 220.738C47.9597 233.838 58.5826 244.458 71.6866 244.458Z" fill="#FD1A5A" stroke="#1E344A" stroke-width="2" stroke-miterlimit="10" stroke-linejoin="round"/>
<path d="M70.9408 207.521L74.8727 215.451L83.6177 216.739L77.3132 222.906L78.8046 231.649L70.9408 227.515L63.1449 231.649L64.6363 222.906L58.2639 216.739L67.009 215.451L70.9408 207.521Z" fill="white"/>
<path d="M450.299 168.687C468.27 168.687 482.839 154.122 482.839 136.156C482.839 118.189 468.27 103.624 450.299 103.624C432.328 103.624 417.76 118.189 417.76 136.156C417.76 154.122 432.328 168.687 450.299 168.687Z" fill="#FDB92C"/>
<path d="M428.945 141.171L444.74 129.378H468.264L452.672 141.171H428.945Z" fill="white"/>
<path d="M435.046 142.865V146.999C435.046 150.32 437.69 152.963 441.012 152.963H450.774C452.129 152.963 453.418 152.489 454.502 151.675L460.603 146.796C462.976 144.898 464.4 141.984 464.4 138.934L464.196 135.003L452.875 143.068L435.046 142.865Z" fill="white"/>
<path d="M449.147 133.512C449.147 133.512 456.197 128.158 453.756 125.447C451.248 122.736 449.553 121.991 450.909 119.144C452.265 116.298 457.01 117.247 457.01 117.247" stroke="white" stroke-miterlimit="10"/>
<path d="M460.671 117.518C460.671 118.602 459.79 119.415 458.773 119.415C457.688 119.415 456.875 118.534 456.875 117.518C456.875 116.433 457.756 115.62 458.773 115.62C459.79 115.62 460.671 116.433 460.671 117.518Z" fill="white"/>
<path d="M461.552 118.263L465.62 120.5L466.433 118.738L465.145 118.196L466.772 117.925L466.501 116.095L461.688 116.84L461.552 118.263Z" fill="white"/>
</svg>
