<svg width="154" height="210" viewBox="0 0 154 210" fill="none" xmlns="http://www.w3.org/2000/svg">
<path d="M106.658 49.981C106.677 49.478 106.532 48.9824 106.245 48.5689C106.097 48.3796 105.91 48.2237 105.697 48.1115C105.485 47.9994 105.25 47.9335 105.01 47.9182C104.751 47.9015 104.493 47.9716 104.277 48.1175C104.072 48.2682 103.918 48.4796 103.838 48.7221C103.682 49.1828 103.708 49.6859 103.912 50.1279L103.646 49.9688C104.648 49.8778 105.656 49.8819 106.658 49.981ZM106.69 50.021C105.709 50.2883 104.703 50.4501 103.687 50.5034L103.487 50.512L103.421 50.3442C103.304 50.0605 103.255 49.7532 103.279 49.4471C103.303 49.1411 103.399 48.845 103.559 48.5831C103.72 48.3402 103.932 48.1355 104.18 47.9833C104.429 47.831 104.707 47.7349 104.997 47.7017C105.291 47.6426 105.596 47.6554 105.884 47.7392C106.184 47.841 106.441 48.0423 106.611 48.3098C106.777 48.5612 106.873 48.8531 106.887 49.1544C106.901 49.4557 106.833 49.7551 106.69 50.021V50.021ZM111.845 49.5754C111.877 49.0659 111.739 48.5601 111.454 48.1368C111.307 47.9418 111.12 47.781 110.905 47.6653C110.689 47.5497 110.452 47.482 110.208 47.467C109.945 47.4519 109.684 47.5254 109.467 47.676C109.26 47.8311 109.108 48.0471 109.031 48.2937C108.875 48.761 108.91 49.2707 109.126 49.713L108.861 49.559C109.854 49.4728 110.853 49.4782 111.845 49.5754ZM111.877 49.6158C110.905 49.8796 109.908 50.0411 108.903 50.0978L108.707 50.1074L108.638 49.9437C108.51 49.6673 108.45 49.364 108.464 49.0596C108.478 48.7553 108.565 48.4587 108.718 48.1951C108.871 47.9315 109.085 47.7086 109.342 47.5452C109.599 47.3819 109.891 47.2828 110.195 47.2566C110.493 47.1968 110.801 47.2111 111.093 47.2983C111.397 47.4024 111.655 47.6087 111.824 47.8822C111.989 48.1389 112.082 48.4361 112.091 48.7416C112.101 49.047 112.027 49.3493 111.877 49.6158V49.6158ZM116.994 49.1723C117.07 48.6446 116.961 48.1066 116.684 47.651C116.543 47.4373 116.354 47.2599 116.132 47.1333C115.909 47.0067 115.66 46.9344 115.405 46.9224C115.129 46.9096 114.858 46.9944 114.639 47.1619C114.432 47.3315 114.283 47.5618 114.213 47.8204C114.137 48.0617 114.113 48.3162 114.142 48.5674C114.17 48.8186 114.251 49.061 114.379 49.2791L114.12 49.143C114.578 49.1023 115.038 49.0866 115.497 49.0961C115.97 49.1044 116.46 49.13 116.994 49.1723ZM117.024 49.214C116.602 49.3311 116.136 49.4314 115.653 49.5144C115.159 49.599 114.662 49.6582 114.162 49.6916L113.981 49.7019L113.903 49.5555C113.748 49.268 113.666 48.9467 113.664 48.62C113.662 48.2932 113.74 47.971 113.892 47.6818C114.048 47.4144 114.266 47.1881 114.526 47.0219C114.787 46.8557 115.084 46.7542 115.392 46.7261C115.703 46.6677 116.023 46.6876 116.324 46.7839C116.64 46.8957 116.904 47.1192 117.067 47.4122C117.229 47.6865 117.31 48.0007 117.303 48.3192C117.295 48.6377 117.199 48.9476 117.024 49.214ZM35.4565 87.0229C31.6263 87.2866 28.0072 88.8752 25.2196 91.5164C22.4639 94.1427 20.7198 97.6551 19.712 101.296C19.216 103.129 18.8683 105 18.6723 106.889C18.5479 107.831 18.5241 108.785 18.4448 109.732C18.4319 110.683 18.3835 111.634 18.3994 112.586C18.4644 116.398 18.7955 120.201 19.3902 123.967L19.8623 126.789L20.3853 129.613L21.4379 135.263L23.5431 146.563L27.6593 169.181L27.1614 168.805C29.1202 168.606 31.0943 168.302 33.0414 167.932C34.9915 167.56 36.9249 167.103 38.8257 166.542C40.7258 165.993 42.577 165.286 44.3599 164.43C46.1404 163.61 47.742 162.446 49.0734 161.007L49.0077 161.231L47.5396 148.647L46.0296 136.068L44.4761 123.495L42.8963 110.925L42.8704 110.719L43.0765 110.68L62.4128 107.073L62.8031 107L62.8052 107.401L62.9582 135.508L63.0384 163.616L62.8558 163.199C64.4972 164.557 66.3185 165.682 68.268 166.541C68.7631 166.743 69.2505 166.965 69.7509 167.152L71.268 167.67L72.8182 168.075C73.3327 168.22 73.8663 168.275 74.3892 168.381C76.4963 168.741 78.644 168.801 80.7678 168.556C81.8315 168.451 82.8867 168.272 83.9259 168.021C84.4494 167.909 84.9651 167.764 85.47 167.586L87.0034 167.105L86.6247 167.632L87.4739 141.275L88.3987 114.919L88.4244 114.187L89.0598 114.589C90.4611 115.45 92.0838 115.881 93.7274 115.829C95.3937 115.767 97.0166 115.28 98.442 114.414C99.8879 113.542 101.19 112.451 102.302 111.18C102.885 110.562 103.39 109.875 103.915 109.206C104.391 108.499 104.904 107.816 105.331 107.075C107.101 104.138 108.593 101.043 109.79 97.8299C111.017 94.6218 112.038 91.3351 112.96 88.0211L113.068 88.0495C112.216 91.3849 111.263 94.6985 110.1 97.9456C108.968 101.213 107.524 104.364 105.79 107.355C105.367 108.112 104.856 108.816 104.381 109.542C103.855 110.234 103.349 110.943 102.76 111.587C101.622 112.926 100.283 114.079 98.7915 115.008C97.274 115.956 95.5394 116.502 93.7521 116.593C92.8545 116.633 91.9558 116.542 91.0844 116.322C90.1986 116.108 89.3523 115.755 88.5768 115.276L89.2377 114.945L88.5495 141.308L87.7858 167.668L87.7738 168.079L87.4068 168.195L85.8094 168.701C85.2824 168.887 84.7443 169.039 84.1982 169.157C83.1106 169.422 82.0062 169.611 80.8926 169.725C78.6635 169.984 76.4088 169.926 74.1959 169.552C69.7423 168.819 65.5636 166.914 62.0884 164.033L61.905 163.876L61.9056 163.616L61.9859 135.508L62.1387 107.401L62.5311 107.729L43.155 111.115L43.335 110.871L44.8468 123.449L46.3849 136.025L47.9666 148.594L49.5902 161.159L49.6064 161.285L49.5243 161.383C48.1597 162.908 46.5075 164.147 44.6627 165.032C42.856 165.932 40.9774 166.679 39.0464 167.267C37.1243 167.863 35.1728 168.353 33.2053 168.756C31.2346 169.159 29.262 169.493 27.2499 169.723L26.8304 169.771L26.7519 169.347L22.5708 146.741L20.5273 135.43L19.5056 129.774L18.9977 126.945L18.5371 124.096C17.9526 120.287 17.6573 116.439 17.6537 112.586C17.6506 111.622 17.7122 110.658 17.7386 109.694C17.8316 108.734 17.8691 107.768 18.008 106.812C18.2335 104.892 18.613 102.993 19.143 101.133C20.2057 97.4284 22.0871 93.8623 24.9662 91.2438C27.8524 88.6256 31.5593 87.0937 35.451 86.911L35.4565 87.0229Z" fill="black"/>
<path d="M63.394 86.3389C64.5509 86.5718 65.6949 86.8606 66.8381 87.1555C67.9777 87.4623 69.1094 87.7979 70.2331 88.1623C71.3598 88.5164 72.4697 88.9202 73.5796 89.3247C74.6851 89.7451 75.7806 90.1764 76.8722 90.6537L76.5064 90.6889C78.4339 89.4291 80.5784 88.538 82.8309 88.061C83.9367 87.8032 85.0556 87.6053 86.1827 87.4683C87.3089 87.3436 88.4348 87.2375 89.5648 87.2093C88.4513 87.4023 87.3393 87.5799 86.2412 87.8225C85.1407 88.0488 84.0524 88.3139 82.9762 88.6178C80.8309 89.1793 78.7905 90.0844 76.9342 91.2981L76.7623 91.4179L76.5682 91.3333C74.4291 90.4005 72.234 89.5475 70.0394 88.7178C68.9388 88.3084 67.8372 87.8988 66.7276 87.51C65.6255 87.0956 64.5053 86.7377 63.394 86.3389Z" fill="black"/>
<path d="M62.472 107.401C62.7458 105.465 63.2481 103.567 63.9684 101.749C64.673 99.9085 65.6138 98.1677 66.7672 96.5702C67.3549 95.7726 68.0091 95.0262 68.7227 94.339C69.4471 93.6588 70.2408 93.0565 71.0906 92.5418C71.9472 92.0429 72.8624 91.6524 73.8151 91.3792C74.7638 91.1301 75.7398 91.0007 76.7205 90.994C75.7675 91.1432 74.8323 91.3888 73.929 91.7273C73.0429 92.0739 72.1954 92.5123 71.4006 93.0355C69.8376 94.1192 68.4734 95.4648 67.3681 97.013C66.2452 98.5643 65.285 100.227 64.5028 101.975C63.701 103.735 63.0224 105.548 62.472 107.401ZM43.1156 110.898C42.8673 110.52 42.6605 110.116 42.4988 109.694C42.334 109.284 42.195 108.865 42.0825 108.438C41.9695 108.011 41.8837 107.577 41.8257 107.139C41.7585 106.692 41.7403 106.239 41.7714 105.787C42.0205 106.165 42.2277 106.568 42.3893 106.991C42.5541 107.4 42.6928 107.82 42.8045 108.247C42.9167 108.675 43.0021 109.108 43.0603 109.546C43.1272 109.993 43.1458 110.447 43.1156 110.898ZM36.358 50.6558C35.7431 47.738 35.6485 44.7344 36.0787 41.7837C36.2992 40.2988 36.6906 38.8444 37.2449 37.4495C37.7967 36.0411 38.5802 34.7352 39.5631 33.5858C40.5508 32.4418 41.7269 31.4754 43.0406 30.7286C43.722 30.3999 44.4425 30.1592 45.1846 30.0124C45.923 29.8454 46.6866 29.8212 47.4342 29.9411C48.1859 30.0745 48.8871 30.4105 49.4621 30.913C49.7351 31.176 49.9754 31.471 50.1776 31.7917C50.2759 31.9528 50.3802 32.1115 50.4736 32.2753L50.6891 32.7967C50.8389 33.1469 50.9636 33.4891 51.0894 33.8312C51.2212 34.1709 51.3702 34.5037 51.5357 34.8283C51.8546 35.4752 52.2663 36.072 52.7579 36.5996C53.2253 37.1193 53.8266 37.5003 54.496 37.7009C55.158 37.8641 55.8565 37.7856 56.4659 37.4795C57.092 37.17 57.651 36.7401 58.1109 36.2143C58.3625 35.9676 58.5606 35.6632 58.7901 35.3928C59.0169 35.0799 59.2668 34.7845 59.5378 34.509C60.089 33.9432 60.7515 33.4979 61.4834 33.2014C62.2505 32.854 63.1213 32.8136 63.9172 33.0883C64.6861 33.4235 65.3055 34.0292 65.658 34.7906C66.0093 35.4812 66.2642 36.2167 66.4154 36.9767C66.6906 38.4563 66.8185 39.9596 66.7972 41.4645L66.7293 45.8932C66.67 48.8456 66.5979 51.798 66.4747 54.7504H66.4C66.2768 51.798 66.2047 48.8456 66.1454 45.8932L66.0775 41.4645C66.0516 40.7307 65.9922 40.0134 65.9571 39.2877C65.9403 38.9263 65.9002 38.5663 65.837 38.2101C65.7941 37.8498 65.7099 37.5017 65.6379 37.1504C65.4988 36.4612 65.2692 35.7935 64.9551 35.1645C64.6874 34.5713 64.2181 34.0921 63.6307 33.8123C63.0174 33.5977 62.3452 33.626 61.7521 33.8916C61.1075 34.1406 60.5217 34.521 60.0319 35.0085C59.7809 35.2551 59.5489 35.5203 59.3378 35.8017C59.1041 36.1044 58.8538 36.3938 58.5881 36.6687C58.0554 37.2395 57.4153 37.6994 56.7044 38.0221C55.9691 38.3638 55.1341 38.4241 54.3574 38.1915C53.6149 37.9368 52.9572 37.4817 52.4569 36.8765C51.9628 36.3032 51.5551 35.6606 51.2469 34.9693C50.9258 34.2965 50.7214 33.5577 50.445 32.8937L50.2455 32.3887C50.1585 32.2316 50.0613 32.0799 49.97 31.9249C49.7834 31.6184 49.5604 31.3356 49.3059 31.0826C48.767 30.607 48.1044 30.294 47.3948 30.1801C45.9494 30.0435 44.4974 30.3624 43.2422 31.0923C42.0221 31.8714 40.9403 32.8484 40.0412 33.9832C39.1385 35.1117 38.4011 36.3631 37.8509 37.6996C37.289 39.041 36.8839 40.4429 36.644 41.8774C36.3863 43.3178 36.2446 44.7765 36.2203 46.2395C36.1853 47.71 36.2558 49.181 36.4313 50.6413L36.358 50.6558ZM31.5032 65.0855C31.5058 67.2405 31.5668 69.3912 31.6861 71.5376C31.8265 73.6806 31.9858 75.8231 32.3346 77.9344C32.5009 78.9908 32.7011 80.0394 32.9477 81.0749C33.1798 82.1111 33.4952 83.1269 33.8907 84.1123C34.2694 85.0954 34.8252 86.0007 35.5305 86.7831C36.239 87.5651 37.227 88.0364 38.2804 88.0949L38.2934 88.0954L38.3084 88.0992C39.4402 88.3782 40.603 88.5111 41.7685 88.4949C42.9315 88.4981 44.089 88.3335 45.2051 88.0062C45.7592 87.8468 46.2974 87.6365 46.8128 87.3779C47.0729 87.257 47.324 87.1175 47.5642 86.9607L48.3259 86.5061C49.3885 85.8464 50.6467 85.5753 51.8865 85.7388C53.1198 85.9444 54.2639 86.5126 55.1732 87.3711C55.4062 87.5813 55.6223 87.8094 55.8196 88.0534C55.9887 88.2616 56.1785 88.4521 56.3862 88.622C56.7923 88.9647 57.2684 89.2145 57.7811 89.354C58.2901 89.4613 58.8173 89.4469 59.3197 89.3121C59.572 89.2271 59.8195 89.1284 60.0611 89.0164C60.2912 88.8689 60.5305 88.7395 60.7553 88.5813C61.6439 87.877 62.4273 87.0493 63.0817 86.1232L63.1018 86.0973L63.1259 86.0714C63.2986 85.8719 63.4529 85.6572 63.587 85.43C63.737 85.1929 63.8672 84.9374 63.9969 84.6829C64.2481 84.1619 64.4665 83.6258 64.6509 83.0775C65.0228 81.9679 65.3197 80.8345 65.5396 79.685C65.6642 79.1108 65.7462 78.5274 65.851 77.9478C65.9261 77.3635 66.0135 76.78 66.079 76.1935C66.1383 75.6064 66.2108 75.0195 66.2618 74.4304L66.4001 72.6602L66.4747 72.6618L66.4772 74.4416C66.4675 75.035 66.4382 75.6283 66.4184 76.2227C66.3831 76.8159 66.3259 77.4081 66.2805 78.0019C66.2052 78.5925 66.1527 79.1868 66.0567 79.7762C65.8836 80.9628 65.6205 82.1346 65.2697 83.2812C65.0947 83.8616 64.8835 84.4305 64.6375 84.9845C64.5074 85.2615 64.377 85.5387 64.2191 85.8075C64.0621 86.0962 63.8724 86.3658 63.6538 86.6111L63.6977 86.5595C63.0111 87.5672 62.1779 88.4665 61.2256 89.2278C60.9712 89.407 60.6928 89.5603 60.4264 89.7255C60.1365 89.8618 59.8383 89.9797 59.5337 90.0786C58.8982 90.2525 58.2292 90.2632 57.5885 90.1098C56.9659 89.9318 56.3901 89.6188 55.9022 89.1929C55.6586 88.986 55.4368 88.7547 55.2405 88.5025C55.0716 88.2868 54.8863 88.0846 54.6862 87.8976C53.8867 87.1202 52.8796 86.5905 51.7863 86.3722C50.6806 86.2001 49.5493 86.407 48.576 86.9593L47.8036 87.3721C47.5441 87.5241 47.2743 87.6577 46.996 87.7718C46.4488 88.0148 45.8812 88.209 45.2998 88.3522C42.9779 88.8895 40.5632 88.8819 38.2447 88.3301L38.2724 88.3343C37.1496 88.2871 36.0846 87.823 35.2852 87.0327C34.5023 86.2512 33.8705 85.3315 33.4219 84.3201C32.957 83.3287 32.5884 82.2949 32.3213 81.2329C32.0444 80.1801 31.8315 79.1115 31.6839 78.033C31.3847 75.8864 31.2199 73.7232 31.1905 71.5561C31.1481 69.395 31.2276 67.2332 31.4286 65.0811L31.5032 65.0855Z" fill="black"/>
<path d="M84.4271 82.2073C84.2768 81.9284 84.0826 81.6755 83.8519 81.4584C83.6308 81.2322 83.3979 81.0177 83.1595 80.8098C82.6827 80.3937 82.1876 79.9988 81.6842 79.6153C80.6815 78.8448 79.6485 78.1089 78.5844 77.4301C78.065 77.0828 77.5153 76.7832 76.942 76.5349C76.3612 76.3046 75.7598 76.1053 75.1578 75.9135C73.953 75.5294 72.7358 75.1768 71.5176 74.8293L67.8531 73.7865C67.5354 73.6814 67.2352 73.5292 66.9626 73.3349C66.7061 73.1364 66.462 72.9223 66.2318 72.6937L64.8397 71.3973L63.4577 70.0899L62.7666 69.4361C62.5199 69.2221 62.3037 68.9753 62.1238 68.7026C61.9445 68.4256 61.8172 68.1182 61.748 67.7955C61.6996 67.6321 61.686 67.4603 61.708 67.2913C61.73 67.1222 61.7871 66.9597 61.8757 66.8141C61.9993 66.6979 62.1508 66.6154 62.3154 66.5747C62.4801 66.534 62.6525 66.5363 62.816 66.5815C63.1311 66.6394 63.4393 66.7295 63.7359 66.8505L63.7011 66.8857C63.577 66.5128 63.4868 66.1295 63.4316 65.7404C63.5043 66.1245 63.6115 66.5013 63.7518 66.8662L63.7725 66.9197L63.717 66.9015C63.4209 66.7964 63.1148 66.7218 62.8035 66.6791C62.6599 66.6445 62.5099 66.6468 62.3673 66.6857C62.2248 66.7245 62.0944 66.7987 61.9881 66.9013C61.9205 67.032 61.8805 67.1752 61.8704 67.322C61.8604 67.4688 61.8806 67.6161 61.9298 67.7548C62.0019 68.0522 62.1274 68.3341 62.3003 68.5866C62.4769 68.8396 62.6875 69.067 62.9262 69.2623L63.634 69.8979L65.0498 71.1691L66.4555 72.4513C66.677 72.6677 66.9115 72.8706 67.1575 73.0587C67.4038 73.2311 67.6745 73.3654 67.9606 73.4574C69.1666 73.7921 70.4056 74.1186 71.6195 74.4756C72.837 74.8342 74.0531 75.1978 75.2613 75.5943C75.8655 75.7926 76.4672 75.9974 77.0632 76.2396C77.6516 76.5016 78.2122 76.8223 78.7364 77.1968C79.7914 77.9116 80.8103 78.6722 81.7932 79.4786C82.2807 79.8866 82.7592 80.3057 83.2184 80.7453C83.4482 80.965 83.6722 81.1912 83.8838 81.4286C84.1055 81.6573 84.289 81.9202 84.4271 82.2073ZM85.4577 62.707C85.5264 63.4034 85.5374 64.1044 85.4907 64.8026C85.4705 65.1569 85.424 65.5093 85.3515 65.8568C85.3135 66.0378 85.2553 66.214 85.178 66.382C85.0992 66.5841 84.9532 66.7529 84.7647 66.86L84.8446 66.6005C85.4775 67.529 86.2193 68.3784 87.054 69.1304C87.4637 69.5062 87.9334 69.8108 88.4436 70.0315C88.9575 70.2626 89.5403 70.2884 90.0727 70.1037C89.8138 70.2412 89.5291 70.3234 89.2367 70.345C88.9443 70.3666 88.6507 70.3272 88.3744 70.2292C87.8178 70.042 87.2999 69.755 86.8461 69.3822C85.9511 68.6428 85.1757 67.7694 84.5473 66.793L84.4384 66.6288L84.6273 66.5335C84.8499 66.3373 84.9983 66.0706 85.0478 65.778C85.1418 65.4501 85.2113 65.1156 85.2556 64.7774C85.349 64.0949 85.412 63.4026 85.4577 62.707Z" fill="black"/>
<path d="M67.9383 72.211C67.8605 71.8695 67.8697 71.5138 67.9651 71.1768C68.0162 71.0018 68.1019 70.8389 68.2171 70.6977C68.3379 70.5562 68.4855 70.4401 68.6514 70.3559L68.6379 70.3632C68.7519 70.2627 68.8335 70.1305 68.8721 69.9834C68.907 69.8178 68.9191 69.6482 68.9081 69.4793C68.9145 69.1799 68.9967 68.8869 69.1472 68.6279C69.2976 68.369 69.5113 68.1525 69.7683 67.9987C69.9298 67.9084 70.096 67.8268 70.2662 67.7543C70.558 67.6239 70.7959 67.3509 70.7647 67.1445L70.7698 67.1613C70.7244 66.9233 70.7709 66.6769 70.8998 66.4718C71.0022 66.2939 71.1276 66.1302 71.2726 65.9851C71.5521 65.7153 71.8577 65.474 72.185 65.2647C72.4839 65.0535 72.7318 64.778 72.9105 64.4584C73.0938 64.1307 73.1576 63.7495 73.0911 63.3798C73.2207 63.7526 73.2065 64.1604 73.0515 64.5233C72.8969 64.8903 72.6535 65.2131 72.3432 65.4625C72.0476 65.6894 71.7699 65.9386 71.5125 66.208C71.393 66.3365 71.2908 66.4802 71.2086 66.6354C71.1402 66.7589 71.1064 66.8986 71.1108 67.0397L71.116 67.0568C71.1346 67.1744 71.1266 67.2947 71.0928 67.4089C71.0589 67.523 70.9999 67.6282 70.9202 67.7166C70.7863 67.8738 70.6199 67.9999 70.4324 68.0861C70.2704 68.1526 70.1118 68.2273 69.9574 68.3099C69.7471 68.4339 69.5703 68.6075 69.4422 68.8154C69.3141 69.0233 69.2387 69.2593 69.2225 69.503C69.2371 69.7037 69.2028 69.9048 69.1226 70.0893C69.0425 70.2737 68.9189 70.436 68.7623 70.5622L68.7574 70.5654L68.7485 70.5696C68.6044 70.6301 68.4735 70.7182 68.3632 70.829C68.2522 70.9447 68.1621 71.0787 68.0966 71.225C67.9716 71.5379 67.9175 71.8747 67.9383 72.211ZM63.7265 66.8765C64.3844 67.3339 64.9859 67.8675 65.5185 68.4661C65.7884 68.7633 66.0382 69.078 66.2663 69.4083C66.5129 69.7337 66.6859 70.1087 66.7734 70.5076C66.5585 70.1779 66.312 69.8701 66.0373 69.5883L65.2415 68.7162C64.7013 68.1328 64.1955 67.5185 63.7265 66.8765ZM65.6531 63.0212C66.3379 63.601 66.9512 64.2603 67.4802 64.9851C67.7477 65.3472 67.9896 65.7275 68.2044 66.1231C68.4369 66.5167 68.5758 66.9585 68.6104 67.4144C68.4398 67.0089 68.2198 66.6261 67.9554 66.2746L67.1798 65.2066C66.6585 64.4941 66.1278 63.7868 65.6531 63.0212ZM66.4374 59.166C67.2985 59.8357 68.0901 60.5902 68.8004 61.4183C69.159 61.8308 69.4929 62.2641 69.8005 62.716C70.1224 63.1632 70.3692 63.66 70.531 64.1868C70.2427 63.731 69.9204 63.2975 69.5669 62.8902C69.2203 62.4792 68.8743 62.0676 68.5183 61.6626C67.8153 60.8445 67.1009 60.035 66.4374 59.166ZM81.8114 79.6065C81.8251 80.0961 81.8838 80.5834 81.9867 81.0622C82.0678 81.5348 82.2525 81.9836 82.5275 82.3763C82.6609 82.5546 82.851 82.6822 83.0665 82.7379C83.2821 82.7937 83.5102 82.7743 83.7132 82.6829C84.1463 82.4987 84.5413 82.2354 84.878 81.9065C85.592 81.2606 86.2025 80.5088 86.6884 79.6774C87.1862 78.8466 87.6198 77.9788 87.9854 77.0817C88.7397 75.2976 89.277 73.4292 89.5857 71.5167C89.6554 71.0484 89.6897 70.5755 89.6883 70.102C89.7075 69.6796 89.6235 69.2588 89.4437 68.8761C89.4113 68.8255 89.3666 68.784 89.3138 68.7553C89.261 68.7266 89.2018 68.7118 89.1418 68.7121C88.9576 68.7471 88.7819 68.8171 88.6241 68.9182C88.2425 69.1721 87.8893 69.4663 87.5706 69.7958L87.5475 69.8175C87.4929 69.8686 87.4238 69.9017 87.3496 69.9121C87.2755 69.9225 87.2 69.9098 87.1334 69.8757C87.0667 69.8416 87.0122 69.7878 86.9773 69.7215C86.9424 69.6553 86.9287 69.5799 86.9382 69.5056C87.0046 68.9137 87.2037 68.3445 87.5208 67.8404C87.6934 67.5725 87.9237 67.3468 88.1949 67.1796C88.4661 67.0124 88.7712 66.9081 89.0879 66.8742C89.6826 66.839 90.2761 66.9603 90.8095 67.2259C91.0555 67.3583 91.3178 67.4714 91.5488 67.6218L92.2379 68.0779L92.203 68.0559C93.348 68.6606 94.5358 69.1805 95.7568 69.6115C96.9563 70.0727 98.2282 70.3164 99.5131 70.3313L99.9831 70.296L100.488 70.2473C100.822 70.2238 101.158 70.2201 101.494 70.2363C102.158 70.2706 102.819 70.3586 103.47 70.4994C104.762 70.7666 106.024 71.1675 107.234 71.6955C105.994 71.2696 104.72 70.9556 103.424 70.7574C102.783 70.6581 102.135 70.6097 101.486 70.6124C101.164 70.6084 100.843 70.6234 100.524 70.6573L100.05 70.7202L99.5391 70.7777C98.1914 70.8139 96.8482 70.6084 95.5729 70.171C94.3009 69.7704 93.067 69.2576 91.8856 68.6386L91.8778 68.6341L91.8504 68.6165L91.2031 68.1993C90.987 68.0617 90.7548 67.9685 90.5324 67.8497C90.108 67.6411 89.637 67.5453 89.1649 67.5716C88.9516 67.596 88.7468 67.6688 88.5659 67.7844C88.385 67.8999 88.2329 68.0553 88.1211 68.2386C87.8779 68.6443 87.7257 69.0981 87.6748 69.5684L87.0425 69.2783C87.4007 68.8957 87.8069 68.561 88.2509 68.2825C88.5098 68.1227 88.8003 68.0211 89.1024 67.9847C89.2875 67.9804 89.4708 68.0231 89.635 68.1088C89.7992 68.1946 89.9389 68.3206 90.0412 68.4752C90.2999 68.9747 90.4205 69.5344 90.3904 70.0962C90.3864 70.605 90.3439 71.1127 90.2632 71.6151C89.9371 73.5837 89.3514 75.5004 88.5214 77.3149C88.1127 78.2233 87.6351 79.099 87.0928 79.9345C86.5547 80.7828 85.8899 81.5436 85.1215 82.1906C84.7335 82.527 84.2856 82.7872 83.8012 82.9574C83.5421 83.0433 83.2634 83.05 83.0005 82.9767C82.7421 82.8923 82.5191 82.7241 82.3669 82.4988C82.0985 82.0697 81.9297 81.5858 81.873 81.0828C81.8073 80.5937 81.7866 80.0995 81.8114 79.6065ZM81.3018 79.208C80.6895 90.2805 73.7781 89.7837 73.7781 89.7837C73.7781 89.7837 64.6713 90.7512 61.1501 88.7862L63.3905 86.3431C63.3905 86.3431 66.1909 83.5974 66.4374 72.6593L66.736 72.9357C67.1116 73.2823 67.5649 73.5334 68.0578 73.6679C70.1451 74.2395 75.9998 75.8645 77.3925 76.5593C78.7592 77.3365 80.0637 78.2182 81.2944 79.1967L81.3018 79.208Z" fill="#FD1A5A"/>
<path d="M85.4577 62.7076L99.5717 60.9593L103.246 63.38L120.272 62.1696V59.1662C120.272 59.1662 124.036 58.2248 123.857 54.7506C123.866 54.3058 123.783 53.8639 123.614 53.4526C123.444 53.0413 123.192 52.6693 122.872 52.3601C122.553 52.0508 122.173 51.8108 121.756 51.6552C121.34 51.4996 120.896 51.4317 120.452 51.4557L120.183 48.9453L102.977 50.2901L99.3925 52.7109L54.8101 56.3868C54.8101 56.3868 53.5555 49.3936 50.7775 57.1489C50.7775 57.1489 48.411 64.5007 51.2297 68.6921C51.2297 68.6921 52.4353 70.7767 54.2275 66.6525L63.4317 65.7403" stroke="black" stroke-width="0.699" stroke-miterlimit="10"/>
<path d="M40.0476 81.9575C40.2214 81.6215 40.4385 81.3097 40.6935 81.0303C41.4466 80.1798 43.5735 77.367 44.1238 72.2106C44.7959 65.9122 48.4546 68.8709 48.9103 69.6105C49.3661 70.3502 50.6431 75.9986 54.8773 67.795C54.8773 67.795 56.4612 77.9633 42.4295 83.3167C42.0209 83.4763 41.5912 83.5756 41.154 83.6114C40.3144 83.6729 39.2865 83.4833 40.0476 81.9575ZM81.9233 81.0335C82.0685 81.7331 82.3921 82.3831 82.8626 82.9206C83.0793 83.2009 83.32 83.4619 83.582 83.7005C84.1008 84.183 84.6663 84.6126 85.2702 84.983C85.5633 85.182 85.87 85.3603 86.1881 85.5165L87.1347 85.9995L88.1155 86.4122C90.7676 87.4387 93.5225 88.1767 96.3325 88.6134C97.7412 88.819 99.141 89.0786 100.562 89.2014L102.686 89.4309C103.381 89.4908 104.095 89.5078 104.801 89.5139C106.211 89.5337 107.62 89.4341 109.014 89.2161C109.699 89.1087 110.374 88.9477 111.034 88.7345C111.666 88.5237 112.254 88.1988 112.768 87.7759L112.678 87.9144L115.264 80.7982C116.118 78.4232 117.022 76.0665 117.899 73.6998L117.888 73.8156C117.622 71.9226 117.35 70.0309 117.107 68.1345C116.858 66.239 116.601 64.3447 116.372 62.4463C116.725 64.3255 117.052 66.209 117.386 68.0913C117.727 69.9726 118.037 71.8585 118.355 73.7433L118.365 73.7998L118.344 73.8594C117.518 76.2444 116.72 78.6394 115.871 81.0162L113.349 88.1552L113.319 88.2419L113.259 88.2939C112.053 89.341 110.56 89.7105 109.133 89.9489C107.697 90.1611 106.245 90.2512 104.794 90.2182C104.07 90.2053 103.353 90.1824 102.624 90.1134L100.484 89.8631C99.0542 89.7247 97.6397 89.4565 96.2216 89.2274C93.3875 88.7087 90.6175 87.886 87.9596 86.7736C87.6319 86.623 87.2995 86.4831 86.977 86.3224L86.0344 85.7883C85.0913 85.2529 84.2257 84.5913 83.4615 83.8217C83.2053 83.5669 82.9719 83.2903 82.7636 82.995C82.3178 82.4254 82.0281 81.7493 81.9233 81.0335Z" fill="#FD1A5A"/>
<path d="M120.454 51.4576L120.185 48.9434L102.977 50.2885L99.3938 52.7095L83.0288 54.0597C83.0339 54.0545 85.1901 40.5629 81.8084 36.3933C78.432 32.2237 64.404 33.8171 64.404 33.8171C64.9235 34.4013 65.3491 35.0627 65.6656 35.7777C66.0881 36.7365 66.3098 37.7717 66.3171 38.8195C66.3585 39.1972 66.3895 39.5955 66.4102 40.0145C66.4309 40.418 66.4361 40.8164 66.4361 41.2147V54.7632C67.8166 54.5822 69.1972 54.4477 70.5778 54.3132C71.9583 54.1839 73.3389 54.0856 74.7195 53.9666C76.1052 53.8787 77.4858 53.7752 78.8715 53.7028C80.2573 53.6303 81.643 53.5682 83.0288 53.5424C81.6533 53.7234 80.2728 53.8579 78.8922 53.9924C77.5116 54.1218 76.1311 54.2201 74.7454 54.339C73.3648 54.427 71.979 54.5305 70.5985 54.5977C69.2127 54.6701 67.8269 54.7374 66.4361 54.7632V55.2806L82.9925 54.0649L54.8124 56.3876C54.8124 56.3876 53.5559 49.3935 50.7792 57.1481C50.7792 57.1481 48.4111 64.4991 51.2291 68.6894C51.2291 68.6894 52.4338 70.7742 54.2281 66.6512L63.4318 65.7407C63.2354 64.5406 63.3543 62.8437 65.6553 63.0196C65.6553 63.0196 63.7266 59.9933 66.436 59.1656C66.436 59.1656 64.4867 56.2531 66.0586 55.5806C67.6253 54.9081 68.6543 56.8791 69.4195 57.5516C70.1796 58.2241 73.675 63.2007 77.5271 63.2473L85.4589 62.7092L99.5697 60.9607L103.246 63.3818L120.273 62.1712V59.1656C120.273 59.1656 124.037 58.2241 123.856 54.7529C123.866 54.3083 123.784 53.8664 123.614 53.4551C123.445 53.0437 123.193 52.6717 122.874 52.3624C122.555 52.053 122.175 51.813 121.758 51.6573C121.342 51.5016 120.898 51.4336 120.454 51.4576ZM73.0442 60.0295C72.8432 60.0224 72.6529 59.9375 72.5133 59.7928C72.3736 59.648 72.2956 59.4547 72.2956 59.2536C72.2956 59.0524 72.3736 58.8591 72.5133 58.7144C72.6529 58.5696 72.8432 58.4847 73.0442 58.4776C73.2451 58.4848 73.4354 58.5697 73.575 58.7144C73.7145 58.8592 73.7925 59.0524 73.7925 59.2536C73.7925 59.4547 73.7145 59.648 73.5749 59.7927C73.4353 59.9375 73.2451 60.0224 73.0442 60.0295ZM78.6026 59.7606C78.4017 59.7534 78.2114 59.6685 78.0717 59.5238C77.9321 59.3791 77.8541 59.1857 77.8541 58.9846C77.8541 58.7834 77.9321 58.5901 78.0717 58.4454C78.2114 58.3006 78.4017 58.2158 78.6026 58.2086C78.8035 58.2158 78.9938 58.3007 79.1334 58.4454C79.273 58.5902 79.351 58.7835 79.351 58.9846C79.351 59.1857 79.273 59.379 79.1334 59.5237C78.9938 59.6685 78.8035 59.7534 78.6026 59.7606ZM83.2614 59.0467C83.0605 59.0395 82.8701 58.9546 82.7305 58.8099C82.5909 58.6652 82.5129 58.4718 82.5129 58.2707C82.5129 58.0695 82.5909 57.8762 82.7305 57.7315C82.8701 57.5867 83.0605 57.5019 83.2614 57.4947C83.4623 57.5019 83.6526 57.5868 83.7922 57.7315C83.9318 57.8763 84.0098 58.0696 84.0098 58.2707C84.0098 58.4718 83.9318 58.6651 83.7922 58.8098C83.6526 58.9546 83.4623 59.0395 83.2614 59.0467ZM89.2645 58.2397C89.0636 58.2325 88.8733 58.1476 88.7336 58.0029C88.594 57.8581 88.516 57.6648 88.516 57.4637C88.516 57.2625 88.594 57.0692 88.7336 56.9245C88.8733 56.7797 89.0636 56.6948 89.2645 56.6877C89.4654 56.6949 89.6557 56.7798 89.7953 56.9245C89.9349 57.0693 90.0129 57.2626 90.0129 57.4637C90.0129 57.6648 89.9349 57.8581 89.7953 58.0028C89.6557 58.1476 89.4654 58.2325 89.2645 58.2397ZM105.754 60.9297C105.553 60.9226 105.363 60.8377 105.223 60.6929C105.083 60.5482 105.005 60.3549 105.005 60.1537C105.005 59.9526 105.083 59.7593 105.223 59.6145C105.363 59.4698 105.553 59.3849 105.754 59.3778C105.955 59.3849 106.145 59.4698 106.285 59.6146C106.424 59.7593 106.502 59.9526 106.502 60.1537C106.502 60.3549 106.424 60.5482 106.285 60.6929C106.145 60.8376 105.955 60.9225 105.754 60.9297ZM105.847 53.0406C105.646 53.034 105.455 52.9493 105.315 52.8045C105.175 52.6597 105.096 52.4661 105.096 52.2646C105.096 52.0632 105.175 51.8696 105.315 51.7248C105.455 51.58 105.646 51.4953 105.847 51.4887C106.048 51.4953 106.239 51.58 106.379 51.7248C106.519 51.8696 106.597 52.0632 106.597 52.2646C106.597 52.4661 106.519 52.6597 106.379 52.8045C106.239 52.9492 106.048 53.0339 105.847 53.0406ZM110.506 51.1265C110.707 51.1337 110.897 51.2186 111.036 51.3633C111.176 51.5081 111.254 51.7014 111.254 51.9025C111.254 52.1037 111.176 52.297 111.036 52.4417C110.897 52.5864 110.707 52.6713 110.506 52.6785C110.305 52.6713 110.114 52.5864 109.975 52.4417C109.835 52.2969 109.757 52.1036 109.757 51.9025C109.757 51.7014 109.835 51.5081 109.975 51.3634C110.114 51.2186 110.305 51.1337 110.506 51.1265ZM111.043 60.3917C110.842 60.385 110.651 60.3003 110.511 60.1555C110.371 60.0107 110.293 59.8172 110.293 59.6157C110.293 59.4142 110.371 59.2207 110.511 59.0759C110.651 58.9311 110.842 58.8464 111.043 58.8397C111.245 58.8464 111.435 58.9311 111.575 59.0759C111.715 59.2207 111.794 59.4143 111.794 59.6157C111.794 59.8171 111.715 60.0107 111.575 60.1555C111.435 60.3003 111.245 60.385 111.043 60.3917ZM115.164 50.9506C115.365 50.9578 115.556 51.0427 115.695 51.1874C115.835 51.3322 115.913 51.5255 115.913 51.7266C115.913 51.9278 115.835 52.1211 115.695 52.2658C115.556 52.4105 115.365 52.4954 115.164 52.5026C114.963 52.4955 114.773 52.4106 114.633 52.2659C114.494 52.1211 114.416 51.9278 114.416 51.7266C114.416 51.5254 114.494 51.3321 114.633 51.1874C114.773 51.0426 114.963 50.9578 115.164 50.9506ZM115.883 59.5847C115.682 59.578 115.491 59.4933 115.351 59.3485C115.211 59.2037 115.133 59.0101 115.133 58.8087C115.133 58.6072 115.211 58.4136 115.351 58.2688C115.491 58.124 115.682 58.0394 115.883 58.0327C116.084 58.0394 116.275 58.124 116.415 58.2688C116.555 58.4136 116.633 58.6072 116.633 58.8087C116.633 59.0101 116.555 59.2037 116.415 59.3485C116.275 59.4933 116.084 59.578 115.883 59.5847ZM36.2492 49.9402C35.896 49.6077 35.453 49.3864 34.9752 49.3038C34.5036 49.2323 34.0215 49.2807 33.5734 49.4445C32.6826 49.8139 31.8881 50.3825 31.2509 51.1068C30.9163 51.4605 30.6049 51.8356 30.3185 52.2295C30.0188 52.6155 29.7406 53.0178 29.4851 53.4345C28.9317 54.2421 28.4768 55.1161 27.9942 55.9705L28.0229 55.893C27.8921 56.5161 27.8835 57.1587 27.9975 57.7851C28.041 58.0586 28.1697 58.3113 28.3653 58.5072C28.5654 58.6673 28.8153 58.7523 29.0716 58.7472L30.0617 58.7943L29.2838 59.3446C28.9799 59.5699 28.6263 59.7186 28.2529 59.7782C28.1567 59.7915 28.0595 59.7966 27.9624 59.7934C27.8641 59.8007 27.7652 59.7909 27.6703 59.7645L27.3809 59.6923C27.293 59.6505 27.2088 59.5997 27.1237 59.5518C26.9584 59.459 26.8111 59.3374 26.6886 59.1927C26.5608 59.0662 26.4528 58.9211 26.3682 58.7623C26.1889 58.4699 26.045 58.1573 25.9393 57.831C25.5988 56.573 25.4305 55.2747 25.439 53.9715C25.4197 51.3986 25.6945 48.8628 25.8349 46.3173C25.9125 45.0443 26.007 43.7719 26.1184 42.5002L26.3017 40.5921C26.3903 39.9584 26.4505 39.3208 26.5628 38.689C26.7525 37.4134 27.047 36.1555 27.4431 34.9282C27.8633 33.6861 28.482 32.5202 29.275 31.4761C29.4781 31.2157 29.695 30.9665 29.9249 30.7296L30.6477 30.0506L31.4435 29.4613C31.7076 29.2623 32.0058 29.1225 32.2859 28.9506C33.4211 28.3116 34.5671 27.7775 35.724 27.2223C38.0393 26.1258 40.4137 25.1588 42.8363 24.3258C44.0576 23.9148 45.3024 23.5769 46.5638 23.3137L47.5244 23.1518L48.5043 23.0681C49.1488 23.0388 49.786 23.0463 50.4266 23.0528C52.9827 23.0815 55.5337 23.2865 58.0616 23.6665L58.052 23.7406C56.7828 23.6454 55.5116 23.579 54.2403 23.5567C52.9697 23.5239 51.6989 23.5196 50.4306 23.5605C49.7979 23.584 49.1604 23.6072 48.5335 23.6492L47.6122 23.7541L46.6931 23.9361C45.4677 24.2284 44.2606 24.5932 43.0783 25.0285C41.8883 25.4547 40.7069 25.9122 39.541 26.4107C38.3716 26.8994 37.2105 27.4102 36.0579 27.9429C34.9122 28.4763 33.7361 28.9997 32.6426 29.5953C32.3783 29.7527 32.0917 29.8797 31.8446 30.0614L31.0956 30.5972L30.416 31.2164C30.1991 31.4332 29.9941 31.6616 29.8018 31.9006C29.028 32.8712 28.4141 33.9592 27.9833 35.1235C27.5557 36.3094 27.2201 37.5265 26.9793 38.764C26.5138 41.2649 26.208 43.7929 26.0638 46.3327C25.8505 48.8674 25.7878 51.4126 25.8763 53.9547C25.9229 55.2027 26.1361 56.4389 26.51 57.6304C26.6716 58.1713 27.002 58.6462 27.4529 58.9855L27.6142 59.074L27.7895 59.1126C27.8474 59.1318 27.9089 59.1376 27.9694 59.1295C28.0312 59.1321 28.0931 59.129 28.1544 59.1204C28.4121 59.0755 28.6562 58.9726 28.8683 58.8195L29.0804 59.4169C28.6512 59.4282 28.2336 59.2765 27.9116 58.9922C27.6224 58.7023 27.4316 58.3288 27.3662 57.9245C27.2962 57.5634 27.2705 57.1952 27.2898 56.8279C27.306 56.4688 27.3515 56.1115 27.426 55.7598L27.4353 55.7154L27.4548 55.6822C27.9612 54.8195 28.438 53.9413 29.0199 53.1215C29.2975 52.7028 29.5999 52.301 29.9253 51.9183C30.2388 51.5236 30.5774 51.1493 30.9389 50.798C31.642 50.0535 32.5172 49.4933 33.4876 49.1666C33.9845 49.0213 34.51 49.0035 35.0157 49.1149C35.5156 49.2346 35.9663 49.506 36.3061 49.8918L36.2492 49.9402Z" fill="#FD1A5A"/>
<path d="M36.0219 30.8123C36.6051 31.1131 37.0494 31.6281 37.2615 32.2494C37.4989 32.8514 37.65 33.484 37.7102 34.1283C37.7634 34.766 37.7629 35.407 37.7087 36.0445C37.6542 36.6784 37.5519 37.3072 37.4029 37.9256L37.4176 36.033C37.4159 35.4062 37.3927 34.7832 37.3388 34.1647C37.2829 33.5502 37.166 32.9427 36.9897 32.3513C36.8359 31.7497 36.4974 31.2114 36.0219 30.8123ZM49.1692 30.8123L55.0817 32.3709C56.0661 32.636 56.921 33.2496 57.4876 34.0976C57.9363 34.7604 58.5282 35.4513 59.097 35.5563C56.0339 39.709 52.4341 38.5329 50.7325 33.2554L49.1692 30.8123ZM32.5635 62.4469C33.1605 63.3199 33.7222 64.2138 34.2786 65.1108C34.5621 65.5563 34.8288 66.0115 35.1034 66.4621C35.3396 66.9168 35.6233 67.3451 35.9498 67.7398C36.312 68.0995 36.7242 68.405 37.1736 68.6469C37.6248 68.9076 38.0891 69.1447 38.5648 69.3573C39.5193 69.7878 40.5057 70.1574 41.5024 70.5077C40.4622 70.3024 39.442 70.0061 38.4536 69.6222C37.9536 69.4343 37.4676 69.2112 36.9991 68.9545C36.5146 68.7031 36.0702 68.3809 35.6806 67.9985C35.3361 67.5799 35.04 67.1237 34.7981 66.6385C34.5421 66.1773 34.2784 65.7206 34.0313 65.2542C33.5267 64.3275 33.0275 63.3976 32.5635 62.4469ZM68.9239 27.1812C68.8566 27.7338 68.8686 28.2932 68.9595 28.8423C69.0455 29.3869 69.1768 29.9232 69.352 30.4459C69.5247 30.9726 69.7247 31.4899 69.9512 31.9958L70.3041 32.7566C70.4258 33.0097 70.5589 33.2571 70.6728 33.519C70.4882 33.3037 70.3229 33.0736 70.1463 32.8494C69.9916 32.6118 69.8337 32.3742 69.6912 32.1274C69.4087 31.6294 69.1761 31.1047 68.997 30.5608C68.8155 30.014 68.7058 29.4459 68.6706 28.8708C68.6263 28.2957 68.7129 27.718 68.9239 27.1812ZM76.9687 34.0765C77.5069 34.2038 78.0718 34.1543 78.5797 33.9355C79.0698 33.6963 79.4874 33.3308 79.7894 32.8765C80.3775 31.9517 80.7926 30.9277 81.0145 29.8544C81.2611 28.7831 81.4372 27.6968 81.5418 26.6024C81.6505 25.5087 81.7041 24.4103 81.7025 23.3113L81.7064 23.3556L81.3447 21.448L81.257 20.9854L81.7031 21.1224C82.5116 21.3347 83.2592 21.7333 83.8862 22.2863C84.0485 22.4403 84.1881 22.6167 84.3007 22.8101C84.3619 22.9091 84.412 23.0144 84.4503 23.1243L84.4826 23.2062C84.4921 23.2255 84.486 23.198 84.482 23.1994C84.4964 23.2172 84.5122 23.2339 84.5291 23.2494C84.8108 23.4748 85.1157 23.6696 85.4387 23.8303C86.7966 24.545 88.2391 25.1532 89.6716 25.7583C92.5485 26.9563 95.4647 28.0701 98.3699 29.2104L102.744 30.8816L104.95 31.712C105.697 32.0578 106.377 32.5339 106.957 33.118C107.521 33.6991 108.007 34.3505 108.404 35.0563C108.788 35.7602 109.094 36.504 109.315 37.2746C109.738 38.8045 109.939 40.3873 109.912 41.9745L109.904 41.9201C110.272 43.215 110.665 44.5093 111.105 45.7851C111.325 46.423 111.554 47.0587 111.806 47.6847C112.048 48.3156 112.322 48.9335 112.628 49.5358C111.959 48.357 111.384 47.1271 110.909 45.8576C110.413 44.5957 109.956 43.3195 109.537 42.0291L109.53 42.0072L109.529 41.9745C109.514 40.4327 109.279 38.9009 108.829 37.4262C108.599 36.6998 108.29 36.0009 107.908 35.342C107.519 34.6958 107.051 34.1005 106.515 33.57C105.987 33.0476 105.371 32.6224 104.696 32.3139L102.509 31.5136L98.1145 29.8794C95.186 28.7852 92.2815 27.6248 89.4012 26.3981C87.9631 25.7749 86.5277 25.1567 85.1266 24.4038C84.7515 24.2135 84.3999 23.9799 84.0789 23.7078C84.0249 23.6564 83.9771 23.5987 83.9365 23.536C83.9116 23.4915 83.8899 23.4452 83.8715 23.3977L83.8494 23.3435C83.8247 23.2685 83.7912 23.1966 83.7495 23.1295C83.6666 22.9842 83.5631 22.8517 83.4422 22.7361C82.8991 22.2446 82.2524 21.8817 81.5501 21.6743L81.9085 21.3488L82.2188 23.2655L82.2231 23.2923L82.2228 23.3101C82.1948 24.4273 82.1104 25.5423 81.9701 26.6509C81.8403 27.7611 81.6248 28.8595 81.3257 29.9364C81.0492 31.0278 80.5764 32.0596 79.9304 32.9815C79.596 33.4426 79.1421 33.8037 78.6178 34.0258C78.0878 34.2196 77.5096 34.2374 76.9687 34.0765Z" fill="#FD1A5A"/>
<path d="M92.9853 40.562C92.7831 41.0474 92.6876 41.5707 92.7052 42.0963C92.6963 42.6218 92.7103 43.1456 92.7458 43.6713C92.8122 44.7207 92.9228 45.7715 93.0575 46.8211C93.117 47.3471 93.1779 47.8729 93.2549 48.3983L93.4539 49.9799C93.5797 51.0375 93.7223 52.0945 93.7837 53.1729C93.0665 51.1454 92.5744 49.045 92.3165 46.9098C92.2479 46.3767 92.2158 45.8364 92.1726 45.2996C92.1622 44.7584 92.1298 44.2192 92.1653 43.6758C92.1834 43.1314 92.2428 42.5891 92.343 42.0537C92.4002 41.7852 92.4747 41.5207 92.566 41.2619C92.649 40.9989 92.7926 40.7592 92.9853 40.562ZM95.4629 61.4678C95.7509 62.1864 95.9927 62.9227 96.187 63.6722C96.3917 64.4142 96.5537 65.1644 96.7074 65.9163C96.8474 66.6708 96.9782 67.4271 97.0663 68.1917C97.1672 68.9595 97.2183 69.7329 97.2194 70.5072C96.9305 69.7889 96.6883 69.0526 96.4943 68.303C96.2896 67.5611 96.1276 66.8108 95.9749 66.0588C95.8358 65.304 95.705 64.5477 95.6171 63.7831C95.5164 63.0154 95.4649 62.242 95.4629 61.4678ZM94.7988 36.4602C95.3973 35.7346 96.0733 35.0767 96.8147 34.4981C97.5539 33.9098 98.3501 33.3969 99.1912 32.9671C100.039 32.5412 100.938 32.2267 101.866 32.0313C102.793 31.8461 103.744 31.8203 104.68 31.9549C104.214 31.9605 103.75 31.9937 103.288 32.0546C103.06 32.0907 102.828 32.0992 102.604 32.1544L101.93 32.3113C101.043 32.557 100.182 32.8884 99.3585 33.3009C98.536 33.7218 97.7432 34.1984 96.9856 34.7274C96.2233 35.2615 95.4931 35.8401 94.7988 36.4602ZM25.641 51.9778C21.5017 52.66 17.3546 53.2681 13.1996 53.8022L6.96438 54.5798L6.18433 54.6706C6.06067 54.6865 5.90368 54.6996 5.83233 54.7163C5.72987 54.7345 5.61502 54.7622 5.5063 54.7922C5.06268 54.9163 4.63824 55.1009 4.24493 55.3408C3.86508 55.5827 3.52302 55.8794 3.22984 56.2213C2.9476 56.5711 2.72529 56.9652 2.57196 57.3877C2.27816 58.2923 2.17381 59.2478 2.26542 60.1945C2.34396 61.2526 2.38895 62.3033 2.4271 63.3503L2.66067 69.6365C2.79038 73.8275 3.0422 78.0106 3.38226 82.1872C3.72962 86.3632 4.173 90.5317 4.62641 94.6971L5.93127 107.192C6.14546 109.275 6.39655 111.352 6.64152 113.429C6.84944 115.511 7.14867 117.579 7.37648 119.657C7.49597 120.695 7.64702 121.727 7.78072 122.762C7.91795 123.797 8.05074 124.833 8.21861 125.859C8.3821 126.887 8.52698 127.921 8.70568 128.944L9.30531 131.994L9.31504 132.04C9.44216 132.635 9.63915 133.213 9.90189 133.761C10.1786 134.322 10.5147 134.852 10.9043 135.342C11.7031 136.328 12.7163 137.119 13.8668 137.654L14.7581 138.019C15.0606 138.128 15.3798 138.191 15.691 138.281L16.1607 138.411C16.3193 138.446 16.4822 138.462 16.6431 138.488L17.6147 138.633C18.2676 138.688 18.929 138.691 19.5905 138.713L21.5802 138.591L21.6035 138.739L19.6119 139.058C18.94 139.092 18.263 139.145 17.5844 139.144C16.2065 139.129 14.8418 138.874 13.5517 138.389C12.2387 137.871 11.0614 137.06 10.1096 136.018C9.63079 135.492 9.21662 134.91 8.87595 134.286C8.53097 133.643 8.26812 132.96 8.09357 132.252L8.10322 132.298C7.10084 128.199 6.33385 124.047 5.80603 119.86C5.54384 117.777 5.27585 115.691 5.06396 113.603C4.85812 111.514 4.65208 109.425 4.48016 107.334C4.09999 103.155 3.80317 98.9711 3.56023 94.784C3.32602 90.596 3.15078 86.4058 2.89603 82.2219C2.64043 78.0381 2.32639 73.8587 1.90702 69.6862L1.30649 63.4278L1.0008 60.3149C0.848537 59.1748 0.958671 58.015 1.32279 56.924C1.52522 56.3594 1.82018 55.8325 2.19557 55.3649C2.58465 54.9099 3.04368 54.5198 3.55542 54.2092C4.06125 53.9096 4.60634 53.6821 5.17497 53.533C5.3191 53.496 5.45966 53.4639 5.61522 53.4384C5.80136 53.4067 5.90643 53.4042 6.04255 53.388L6.82402 53.3087L13.0813 52.7259C17.2545 52.3529 21.4357 52.054 25.6248 51.8292L25.641 51.9778Z" fill="black"/>
<path d="M13.2046 131.712C13.6632 134.706 14.0399 137.702 14.4234 140.698L14.9588 145.195L15.4307 149.693C15.5831 151.193 15.8136 152.69 16.019 154.187C16.2193 155.682 16.2888 157.191 16.2265 158.697C16.166 160.216 16.0211 161.73 15.7926 163.233C15.5696 164.785 15.2024 166.313 14.6956 167.797L14.2726 167.814C13.6453 166.377 13.1533 164.885 12.803 163.357C12.4512 161.878 12.1819 160.381 11.9963 158.872C11.81 157.376 11.7547 155.866 11.8311 154.36C11.9122 152.851 12.0185 151.341 12.0466 149.833L12.1457 145.311L12.3084 140.786C12.4434 137.768 12.5716 134.751 12.7816 131.73L13.2046 131.712ZM46.5607 138.922C47.8879 138.766 49.2227 138.684 50.5591 138.676C51.8893 138.65 53.2163 138.689 54.5427 138.74C55.8683 138.813 57.193 138.9 58.5148 139.052C59.8445 139.186 61.1656 139.394 62.4718 139.677C61.1447 139.835 59.8097 139.917 58.4733 139.925C57.1432 139.951 55.8162 139.912 54.4898 139.859C53.1644 139.785 51.8396 139.698 50.5178 139.546C49.1883 139.412 47.8672 139.204 46.5607 138.922ZM44.3106 110.681C45.6032 110.536 46.903 110.465 48.2037 110.469C49.4982 110.453 50.789 110.504 52.0791 110.566C53.3678 110.65 54.656 110.748 55.9403 110.911C57.2329 111.056 58.5161 111.276 59.7835 111.57C58.4909 111.716 57.191 111.788 55.8902 111.784C54.5957 111.799 53.3048 111.749 52.0149 111.685C50.7262 111.599 49.4381 111.502 48.1539 111.338C46.8613 111.193 45.5781 110.973 44.3106 110.681ZM44.6541 123.413C46.1389 123.182 47.6238 123.06 49.1086 122.978C50.5934 122.888 52.0782 122.865 53.563 122.853C55.0478 122.863 56.5326 122.887 58.0174 122.976C59.5086 123.047 60.9953 123.193 62.4718 123.413C60.9953 123.634 59.5086 123.78 58.0174 123.851C56.5326 123.94 55.0478 123.964 53.563 123.973C52.0782 123.962 50.5934 123.938 49.1086 123.849C47.6238 123.767 46.1389 123.645 44.6541 123.413ZM88.5341 124.215C90.485 124.239 92.4191 124.245 94.3277 124.119C95.2722 124.061 96.2122 123.944 97.1419 123.768C98.0298 123.63 98.8835 123.325 99.6573 122.868C99.9936 122.665 100.274 122.382 100.471 122.042C100.559 121.875 100.622 121.697 100.661 121.513L100.791 120.811C100.969 119.874 101.084 118.921 101.213 117.968C101.444 116.056 101.615 114.129 101.797 112.184C102.07 114.122 102.166 116.081 102.084 118.037C102.058 119.018 101.96 119.997 101.839 120.977L101.724 121.71C101.67 122.003 101.574 122.286 101.441 122.551C101.164 123.062 100.761 123.494 100.27 123.805C99.8175 124.09 99.3286 124.311 98.8165 124.463C98.3298 124.618 97.8315 124.734 97.3263 124.81C96.3411 124.955 95.3453 125.015 94.3498 124.99C92.3878 124.957 90.4363 124.697 88.5341 124.215Z" fill="black"/>
<path d="M88.0193 141.213C90.1982 141.342 92.3778 141.448 94.558 141.53C96.7382 141.6 98.9174 141.649 101.096 141.676C105.439 141.745 109.782 141.552 114.102 141.098C115.171 140.96 116.238 140.807 117.28 140.577C118.315 140.376 119.327 140.075 120.303 139.678C120.541 139.588 120.771 139.48 120.993 139.354L121.327 139.18L121.626 138.973C121.84 138.833 122.045 138.679 122.238 138.511L122.858 137.991C123.682 137.292 124.481 136.562 125.279 135.832C126.869 134.373 128.378 132.828 129.799 131.205C131.224 129.624 132.438 127.864 133.41 125.971C133.534 125.743 133.636 125.503 133.715 125.256L133.971 124.527C134.056 124.277 134.13 123.994 134.211 123.729L134.466 122.94C134.818 121.897 135.183 120.862 135.562 119.837C136.315 117.781 137.094 115.739 137.877 113.698C139.447 109.619 140.99 105.531 142.507 101.435C143.989 97.3258 145.52 93.2343 146.924 89.0985C147.633 87.0335 148.337 84.9668 149.007 82.892C149.341 81.8543 149.669 80.815 149.974 79.7737C150.129 79.2529 150.271 78.7323 150.407 78.2124L150.584 77.4404L150.644 77.0737C150.655 77.0283 150.659 76.9813 150.655 76.9347C150.655 76.9 150.658 76.8653 150.664 76.8311L150.681 76.5763C150.996 75.4631 151.253 74.3345 151.451 73.1949C151.656 72.0648 151.77 70.9202 151.793 69.7719C151.844 68.6772 151.678 67.5834 151.305 66.5529C151.15 66.1038 150.872 65.7074 150.502 65.4091C150.133 65.1108 149.687 64.9227 149.215 64.8662L148.597 64.7921L148.622 64.1459C148.713 61.6134 148.673 59.0779 148.505 56.5495C148.348 54.0212 148.049 51.5037 147.609 49.0093C147.186 46.5305 146.548 44.0934 145.701 41.726C144.889 39.3915 143.682 37.2139 142.132 35.2886L142.077 35.2164C142.08 35.2343 142.132 35.2823 142.11 35.2641L142.076 35.2366C142.052 35.2121 142.025 35.1904 141.996 35.1721L141.768 35.0187C141.584 34.9234 141.406 34.8222 141.215 34.7291C140.811 34.5579 140.414 34.3779 139.979 34.2412L139.34 34.0194L138.681 33.8318C138.24 33.7089 137.805 33.5731 137.351 33.4775L136.005 33.1575C135.554 33.0554 135.096 32.9743 134.642 32.8816L133.276 32.6158L131.898 32.3918C128.222 31.7991 124.503 31.3833 120.777 31.068L117.982 30.8134L115.181 30.6059L112.38 30.4034L109.574 30.244C107.703 30.1517 105.834 30.0014 103.961 29.9323L98.3423 29.6579L98.3444 29.5084C102.096 29.4725 105.849 29.4424 109.602 29.5221L112.418 29.5794L115.232 29.68L118.048 29.7859L120.863 29.9438C124.614 30.1772 128.364 30.5113 132.105 31.0288L133.508 31.2251L134.908 31.465C135.374 31.5494 135.841 31.6217 136.307 31.7162L137.703 32.0206C138.169 32.1143 138.631 32.252 139.094 32.3764L139.789 32.5669L140.481 32.7988C140.943 32.9394 141.404 33.1383 141.865 33.3311C142.096 33.4404 142.329 33.5666 142.56 33.6874L142.918 33.9237C142.987 33.9702 143.051 34.0217 143.112 34.0778L143.211 34.1655C143.267 34.2198 143.318 34.2788 143.364 34.3419L143.308 34.2699C145.011 36.3167 146.329 38.6556 147.198 41.1729C147.65 42.4007 148.035 43.6522 148.35 44.922C148.673 46.1854 148.941 47.4599 149.148 48.7416C149.567 51.2981 149.841 53.8763 149.969 56.4639C150.109 59.0495 150.117 61.6407 149.991 64.2271L149.399 63.5069C150.113 63.6023 150.786 63.8947 151.344 64.3514C151.873 64.8123 152.279 65.3991 152.522 66.0579C152.939 67.2587 153.112 68.5306 153.03 69.799C152.98 71.0107 152.833 72.2165 152.592 73.405C152.364 74.5871 152.065 75.7545 151.696 76.9005L151.713 76.646C151.716 76.7472 151.716 76.8498 151.713 76.9518C151.713 77.0417 151.704 77.1315 151.686 77.2194L151.599 77.6587L151.382 78.4767C151.224 79.0087 151.061 79.5367 150.887 80.0575C150.544 81.1022 150.179 82.1349 149.81 83.1654C149.07 85.2254 148.314 87.2772 147.541 89.3208L142.934 101.594C141.417 105.69 139.921 109.795 138.502 113.926C137.792 115.991 137.088 118.058 136.411 120.131C136.071 121.166 135.744 122.204 135.433 123.243L135.21 124.021C135.141 124.282 135.085 124.529 135.005 124.8C134.856 125.355 134.667 125.899 134.439 126.427C133.495 128.465 132.265 130.357 130.786 132.045C129.354 133.73 127.819 135.325 126.19 136.819C125.375 137.562 124.544 138.286 123.696 138.991L123.053 139.515C122.831 139.702 122.597 139.874 122.353 140.031L121.973 140.282L121.58 140.483C121.323 140.622 121.058 140.742 120.784 140.844C119.731 141.256 118.64 141.566 117.527 141.768C116.433 141.994 115.334 142.136 114.236 142.262C109.861 142.659 105.462 142.735 101.075 142.49C98.8875 142.404 96.704 142.256 94.5255 142.061C92.3469 141.87 90.1716 141.655 88.0042 141.361L88.0193 141.213Z" fill="black"/>
<path d="M135.193 33.5186C135.846 33.6075 136.465 33.863 136.991 34.2604C137.532 34.6416 138.019 35.0948 138.438 35.6075L138.761 35.9861L139.037 36.3959L139.586 37.2227C139.883 37.8068 140.205 38.3879 140.462 38.9918C140.697 39.6024 140.954 40.2106 141.159 40.8331L141.696 42.7206C141.874 43.3508 141.958 43.9976 142.094 44.6357C142.219 45.2758 142.35 45.9154 142.415 46.5618C142.557 47.8538 142.739 49.1433 142.774 50.4396C142.827 51.7352 142.915 53.0286 142.855 54.3227C142.83 56.9069 142.65 59.4873 142.317 62.0501C142.23 60.7581 142.194 59.4718 142.154 58.1873L142.135 57.2246L142.079 56.2631L141.981 54.3425C141.938 53.7036 141.942 53.062 141.878 52.4258L141.716 50.5159C141.65 49.2384 141.463 47.9787 141.306 46.715C141.009 44.1976 140.455 41.7172 139.652 39.3127C139.45 38.716 139.169 38.1556 138.941 37.5656L138.496 36.7385L138.271 36.3237L138.003 35.9401C137.665 35.4119 137.26 34.929 136.799 34.5029L136.446 34.1889L136.055 33.9228C135.791 33.7433 135.5 33.6068 135.193 33.5186Z" fill="black"/>
<path d="M118.051 73.7544C118.473 72.3486 118.985 70.9747 119.535 69.612C120.081 68.2402 120.714 66.9045 121.429 65.6131C121.793 64.9571 122.199 64.3255 122.644 63.7222C123.098 63.0781 123.651 62.5102 124.283 62.0395C124.642 61.7723 125.058 61.5925 125.498 61.5143C125.754 61.4749 125.892 61.4661 126.088 61.448L126.638 61.4007L128.834 61.2405C131.771 61.0447 134.717 61.0171 137.657 61.1578C139.144 61.2312 140.624 61.4131 142.085 61.7019C142.836 61.86 143.571 62.0835 144.282 62.3699C144.659 62.5237 145.016 62.7216 145.346 62.9593C145.724 63.222 146.024 63.5823 146.213 64.0018L146.057 63.8008C146.627 64.3086 147.11 64.9069 147.486 65.5716C147.861 66.2082 148.153 66.8905 148.353 67.6016C148.738 69.0054 148.854 70.4694 148.694 71.9163C148.544 73.3406 148.215 74.7402 147.715 76.0819C147.497 76.7595 147.251 77.4229 146.999 78.0831L146.253 80.0681L143.208 87.9787C142.193 90.6156 141.15 93.2408 140.079 95.8543C139.021 98.4734 137.915 101.072 136.82 103.674C135.713 106.272 134.634 108.882 133.491 111.463C131.239 116.642 128.886 121.775 126.489 126.889L126.522 126.797C126.108 128.159 125.661 129.481 125.144 130.792C124.631 132.101 124.075 133.394 123.454 134.658C122.846 135.933 122.127 137.152 121.304 138.3C120.892 138.878 120.429 139.418 119.919 139.912C119.413 140.417 118.812 140.817 118.151 141.088L118.092 140.951C118.693 140.626 119.228 140.191 119.669 139.669C120.12 139.154 120.524 138.599 120.875 138.01C121.576 136.826 122.192 135.593 122.719 134.322C123.253 133.05 123.723 131.75 124.15 130.436C124.569 129.123 124.98 127.793 125.313 126.471L125.323 126.435L125.346 126.379C127.543 121.18 129.751 115.984 132.033 110.823L138.934 95.3632C141.225 90.2067 143.645 85.1026 145.788 79.8849C146.066 79.2364 146.307 78.5751 146.563 77.9188C146.819 77.2624 147.071 76.6049 147.289 75.9398L147.618 74.9417L147.872 73.9289C147.954 73.5915 148.018 73.2499 148.064 72.9055L148.143 72.3913L148.175 71.8732C148.29 70.5025 148.118 69.123 147.67 67.8225C147.45 67.1848 147.148 66.5782 146.773 66.0178C146.419 65.4716 145.983 64.9838 145.48 64.572L145.395 64.5072L145.323 64.3708C144.971 63.8839 144.462 63.5339 143.881 63.3802C143.223 63.1592 142.546 62.9955 141.86 62.891C140.444 62.6774 139.017 62.5421 137.586 62.4856C134.703 62.3576 131.797 62.3694 128.894 62.4772L126.717 62.5684L126.174 62.5983C126.007 62.607 125.78 62.6218 125.675 62.637C125.393 62.681 125.124 62.7884 124.89 62.9512C124.332 63.3328 123.838 63.7994 123.425 64.334C122.979 64.8884 122.563 65.4665 122.18 66.0658C120.658 68.5416 119.325 71.1286 118.192 73.8048L118.051 73.7544ZM113.225 137.001C113.638 139.774 113.969 142.55 114.307 145.325L114.774 149.49L115.177 153.656C115.306 155.044 115.514 156.431 115.697 157.818C115.874 159.202 115.921 160.599 115.835 161.992C115.752 163.398 115.584 164.797 115.332 166.183C115.084 167.622 114.694 169.032 114.166 170.393L113.743 170.405C113.14 169.076 112.67 167.69 112.341 166.268C112.013 164.898 111.766 163.51 111.603 162.111C111.44 160.726 111.407 159.328 111.507 157.936C111.611 156.541 111.74 155.145 111.791 153.751L111.959 149.569L112.191 145.385C112.372 142.595 112.546 139.805 112.802 137.013L113.225 137.001ZM131.806 124.846C132.115 127.44 132.343 130.032 132.578 132.623L132.889 136.509L133.138 140.394C133.216 141.689 133.372 142.984 133.503 144.278C133.629 145.569 133.623 146.87 133.486 148.16C133.35 149.467 133.13 150.763 132.828 152.041C132.525 153.378 132.081 154.68 131.506 155.924H131.083C130.531 154.676 130.113 153.373 129.836 152.037C129.558 150.754 129.364 149.455 129.253 148.148C129.141 146.853 129.16 145.551 129.311 144.26C129.467 142.965 129.648 141.67 129.751 140.374L130.074 136.489L130.461 132.605C130.745 130.016 131.023 127.428 131.383 124.842L131.806 124.846ZM4.53711 54.75C5.05816 54.8936 5.59055 54.9923 6.12842 55.045C6.66421 55.1099 7.20097 55.1634 7.73969 55.1974C8.81602 55.2737 9.89587 55.2998 10.9752 55.3051C13.1335 55.3321 15.2925 55.2745 17.4503 55.1997L19.0685 55.1272C19.6367 55.0915 20.207 55.1088 20.772 55.1789C21.9229 55.332 23.027 55.7327 24.0085 56.3534C24.9896 56.9853 25.8174 57.8281 26.4318 58.8205C26.7347 59.3132 26.9861 59.8357 27.182 60.3798C27.3768 60.9031 27.5471 61.4335 27.6983 61.9679C28.2559 64.1033 28.5873 66.2915 28.6872 68.4963C28.7753 70.6714 28.8907 72.8019 29.1402 74.9459C29.3876 77.0832 29.7185 79.2135 30.1739 81.3209C30.6031 83.4398 31.204 85.5202 31.9707 87.5414C30.0186 83.6528 28.9419 79.362 28.2736 75.0607C27.9175 72.9115 27.7775 70.7116 27.6285 68.5611C27.5067 66.4346 27.1687 64.326 26.6198 62.268C26.4801 61.759 26.3229 61.2559 26.1439 60.7626C25.9774 60.2851 25.7617 59.8263 25.5004 59.3934C24.9727 58.5318 24.2641 57.7953 23.4236 57.2349C22.5831 56.6746 21.6308 56.3038 20.6329 56.1483C20.1241 56.0744 19.6098 56.0459 19.096 56.0632L17.4668 56.0707C15.2944 56.0706 13.1202 56.0094 10.951 55.8508C9.86711 55.7616 8.78439 55.6515 7.70787 55.4911C6.62623 55.3654 5.56243 55.1168 4.53711 54.75ZM48.4938 164.869C47.775 167.29 33.4368 173.389 33.4368 173.389L33.2093 173.725C31.7266 175.936 30.1031 178.05 28.3489 180.052C29.3069 179.707 30.3573 179.72 31.3065 180.088C31.7862 180.277 32.2136 180.579 32.5526 180.968C32.8857 181.347 33.1264 181.799 33.2559 182.287C33.0024 181.878 32.6964 181.504 32.3458 181.175C32.0033 180.855 31.6032 180.604 31.1669 180.435C30.7291 180.261 30.27 180.146 29.8018 180.093C29.3196 180.038 28.8335 180.024 28.3489 180.052C27.6663 180.833 26.9631 181.599 26.2392 182.349C26.7103 182.216 27.1977 182.15 27.6871 182.152C28.1815 182.144 28.6745 182.209 29.1503 182.344C29.6386 182.476 30.0909 182.717 30.474 183.047C30.841 183.389 31.0938 183.835 31.1979 184.325C30.9718 183.915 30.6617 183.557 30.2879 183.275C29.9098 183.015 29.4901 182.82 29.0469 182.701C28.5975 182.572 28.137 182.485 27.6715 182.442C27.201 182.395 26.7253 182.359 26.2392 182.349C24.7759 183.87 23.2351 185.323 21.6322 186.71C10.7841 196.063 17.5784 199.834 17.5784 199.834C26.0893 209.074 52.8837 177.869 52.8837 177.869C54.409 167.559 48.4938 164.869 48.4938 164.869ZM22.4595 198.546L21.3788 198.753C21.3633 198.758 21.3478 198.748 21.3426 198.727C21.3427 198.719 21.3452 198.711 21.3499 198.705C21.3545 198.699 21.361 198.694 21.3685 198.691L22.4337 198.448H22.4388C22.4518 198.445 22.4656 198.446 22.4772 198.453C22.4889 198.46 22.4973 198.471 22.5009 198.484C22.503 198.498 22.5 198.512 22.4923 198.523C22.4847 198.535 22.4729 198.543 22.4595 198.546ZM24.5743 197.92H24.5691L23.5247 198.262C23.5158 198.265 23.5065 198.266 23.4972 198.265C23.4879 198.264 23.4788 198.262 23.4706 198.257C23.4623 198.253 23.4551 198.247 23.4492 198.24C23.4434 198.232 23.4392 198.224 23.4368 198.215C23.4335 198.207 23.4319 198.197 23.4322 198.188C23.4326 198.179 23.4347 198.17 23.4386 198.162C23.4424 198.154 23.4479 198.147 23.4547 198.141C23.4615 198.135 23.4695 198.13 23.4781 198.127L24.5071 197.755L24.5122 197.749C24.5349 197.742 24.5595 197.744 24.5808 197.755C24.602 197.765 24.6183 197.784 24.626 197.806C24.6307 197.817 24.6331 197.829 24.633 197.841C24.6329 197.852 24.6303 197.864 24.6254 197.875C24.6206 197.885 24.6135 197.895 24.6047 197.903C24.5959 197.911 24.5855 197.917 24.5743 197.92V197.92ZM26.6115 197.092H26.6063L25.5981 197.527C25.5734 197.538 25.5455 197.538 25.5205 197.529C25.4954 197.519 25.4752 197.5 25.4643 197.475C25.4533 197.45 25.4526 197.422 25.4621 197.397C25.4717 197.372 25.4908 197.352 25.5153 197.341L25.5205 197.336L26.5133 196.886L26.5185 196.88C26.5459 196.868 26.5771 196.867 26.6052 196.878C26.6333 196.888 26.656 196.91 26.6684 196.937C26.6807 196.965 26.6817 196.997 26.6711 197.026C26.6605 197.055 26.6392 197.079 26.6115 197.092L26.6115 197.092ZM28.5868 196.115V196.12L27.6043 196.622C27.5741 196.636 27.5393 196.639 27.5074 196.628C27.4755 196.617 27.449 196.595 27.4337 196.565C27.4193 196.536 27.4166 196.502 27.4262 196.472C27.4358 196.441 27.457 196.415 27.4854 196.399L27.4905 196.394L28.4523 195.877H28.4575C28.4892 195.86 28.5262 195.856 28.5609 195.865C28.5955 195.875 28.6251 195.898 28.6436 195.928C28.6521 195.944 28.6574 195.962 28.6592 195.98C28.661 195.998 28.6592 196.016 28.6539 196.033C28.6486 196.051 28.64 196.067 28.6285 196.081C28.6169 196.095 28.6028 196.106 28.5868 196.115V196.115ZM27.9456 185.955C27.4795 185.708 26.982 185.525 26.4668 185.411C25.9444 185.301 25.4132 185.237 24.8794 185.22C24.3378 185.205 23.7957 185.22 23.2558 185.267C24.311 184.893 25.4485 184.816 26.5443 185.044C27.0985 185.167 27.6257 185.39 28.1007 185.701C28.5635 186.02 28.9487 186.439 29.2279 186.927C28.8485 186.544 28.4168 186.217 27.9456 185.955L27.9456 185.955ZM30.5051 195.034H30.4999L29.5485 195.587C29.5149 195.607 29.4748 195.613 29.4369 195.603C29.3991 195.593 29.3667 195.569 29.3468 195.535C29.327 195.502 29.3212 195.462 29.3309 195.424C29.3406 195.386 29.365 195.353 29.3986 195.334V195.328L30.3344 194.764L30.3396 194.759C30.3761 194.739 30.4192 194.733 30.4597 194.744C30.5003 194.754 30.5351 194.78 30.5568 194.816C30.5783 194.852 30.585 194.895 30.5753 194.935C30.5656 194.976 30.5404 195.011 30.5051 195.034L30.5051 195.034ZM32.3562 193.849L31.4358 194.449C31.418 194.461 31.3978 194.47 31.3766 194.474C31.3553 194.478 31.3334 194.478 31.3122 194.474C31.2909 194.47 31.2708 194.461 31.2529 194.449C31.2351 194.437 31.2199 194.421 31.2083 194.402C31.1859 194.366 31.1782 194.323 31.1869 194.282C31.1956 194.24 31.2199 194.204 31.2548 194.18H31.26L32.17 193.569H32.1752C32.1931 193.557 32.2132 193.549 32.2345 193.545C32.2557 193.54 32.2776 193.54 32.2988 193.545C32.32 193.549 32.3401 193.558 32.358 193.57C32.3758 193.582 32.391 193.598 32.4027 193.616C32.415 193.634 32.4236 193.655 32.4279 193.677C32.4323 193.698 32.4323 193.72 32.4279 193.742C32.4236 193.764 32.4151 193.784 32.4027 193.803C32.3904 193.821 32.3746 193.837 32.3562 193.849L32.3562 193.849ZM34.1608 192.587V192.592L33.2662 193.228C33.2291 193.254 33.1835 193.264 33.1391 193.256C33.0947 193.248 33.0551 193.224 33.0288 193.187C33.0024 193.151 32.9914 193.105 32.9981 193.061C33.0047 193.016 33.0286 192.976 33.0646 192.949H33.0697L33.9591 192.307C33.9878 192.287 34.0222 192.276 34.0573 192.276C34.0854 192.276 34.1131 192.283 34.1382 192.295C34.1634 192.308 34.1852 192.326 34.2021 192.349C34.2154 192.367 34.2249 192.388 34.23 192.409C34.2352 192.431 34.2359 192.454 34.232 192.476C34.2281 192.499 34.2198 192.52 34.2076 192.539C34.1954 192.558 34.1794 192.574 34.1608 192.587L34.1608 192.587ZM35.9239 191.267L35.0501 191.935C35.0131 191.964 34.9661 191.977 34.9196 191.971C34.873 191.965 34.8307 191.941 34.8019 191.904C34.7731 191.867 34.7602 191.82 34.766 191.773C34.7718 191.727 34.7959 191.684 34.8329 191.655L35.7016 190.983C35.7345 190.959 35.7745 190.946 35.8154 190.947C35.8423 190.946 35.8689 190.952 35.8931 190.964C35.9173 190.976 35.9385 190.993 35.955 191.014C35.9843 191.052 35.9975 191.1 35.9917 191.147C35.9859 191.195 35.9615 191.238 35.9239 191.267L35.9239 191.267ZM37.6406 189.891L36.7874 190.59C36.7684 190.605 36.7467 190.616 36.7234 190.623C36.7001 190.629 36.6757 190.631 36.6516 190.628C36.6275 190.626 36.6043 190.618 36.5832 190.606C36.5621 190.594 36.5436 190.578 36.5288 190.559C36.4988 190.521 36.4848 190.472 36.4896 190.424C36.4944 190.376 36.5178 190.331 36.5547 190.3L37.4027 189.607C37.4405 189.575 37.4894 189.559 37.5388 189.563C37.5883 189.567 37.6341 189.59 37.6664 189.628C37.6825 189.646 37.6947 189.668 37.7021 189.692C37.7096 189.715 37.7122 189.74 37.7098 189.765C37.7074 189.79 37.7 189.814 37.6881 189.835C37.6762 189.857 37.6601 189.876 37.6406 189.891L37.6406 189.891ZM39.3107 188.464L38.4834 189.183C38.4651 189.198 38.4439 189.211 38.421 189.218C38.398 189.226 38.3738 189.228 38.3498 189.227C38.3257 189.225 38.3022 189.218 38.2808 189.207C38.2593 189.196 38.2403 189.18 38.2248 189.162C38.2091 189.144 38.1971 189.123 38.1896 189.101C38.1821 189.078 38.1792 189.054 38.1811 189.031C38.1831 189.007 38.1898 188.984 38.2008 188.963C38.2119 188.942 38.2271 188.923 38.2455 188.908L39.0781 188.195C39.1138 188.163 39.1605 188.147 39.208 188.15C39.2555 188.153 39.2998 188.175 39.3314 188.21C39.3609 188.247 39.3752 188.294 39.3713 188.341C39.3675 188.388 39.3458 188.432 39.3107 188.464L39.3107 188.464ZM40.9498 186.989L40.1329 187.729C40.1165 187.745 40.0971 187.757 40.0759 187.765C40.0546 187.773 40.0319 187.777 40.0091 187.776C39.9864 187.775 39.964 187.77 39.9435 187.76C39.923 187.75 39.9047 187.736 39.8898 187.719C39.8745 187.702 39.8626 187.682 39.8548 187.661C39.8471 187.64 39.8436 187.617 39.8445 187.595C39.8455 187.572 39.8509 187.55 39.8605 187.53C39.87 187.509 39.8835 187.491 39.9002 187.475L39.9053 187.47L40.7223 186.741C40.7382 186.725 40.7571 186.713 40.778 186.705C40.7988 186.696 40.8212 186.693 40.8435 186.694C40.8659 186.695 40.8878 186.7 40.9079 186.71C40.928 186.72 40.9458 186.734 40.9602 186.751C40.9899 186.784 41.0054 186.828 41.0035 186.872C41.0015 186.917 40.9823 186.959 40.9498 186.989L40.9498 186.989ZM42.5528 185.484L41.7565 186.239C41.724 186.27 41.6809 186.286 41.6365 186.285C41.592 186.284 41.5497 186.266 41.5186 186.234C41.5039 186.218 41.4925 186.199 41.4851 186.179C41.4777 186.159 41.4743 186.137 41.4753 186.115C41.4762 186.094 41.4815 186.072 41.4907 186.053C41.4999 186.033 41.5129 186.016 41.529 186.001V185.996L42.3304 185.246C42.3621 185.218 42.4037 185.203 42.4462 185.205C42.4887 185.207 42.5288 185.225 42.5578 185.256C42.5869 185.287 42.6026 185.328 42.6017 185.371C42.6007 185.414 42.5832 185.454 42.5528 185.484L42.5528 185.484ZM44.1195 183.942L43.3439 184.718C43.3135 184.748 43.2727 184.765 43.2301 184.765C43.1876 184.765 43.1467 184.748 43.1163 184.718C43.1016 184.704 43.0899 184.686 43.0819 184.667C43.0739 184.648 43.0698 184.628 43.0698 184.607C43.0698 184.586 43.0739 184.566 43.0819 184.547C43.0899 184.528 43.1016 184.51 43.1163 184.496L43.1215 184.491L43.9126 183.73C43.9401 183.703 43.9773 183.687 44.016 183.687C44.0548 183.687 44.092 183.703 44.1195 183.73C44.1468 183.759 44.1621 183.797 44.1621 183.836C44.1621 183.876 44.1469 183.914 44.1195 183.942L44.1195 183.942ZM45.6552 182.364L44.8899 183.156C44.8775 183.169 44.8625 183.18 44.8458 183.188C44.8291 183.195 44.8111 183.199 44.7928 183.2C44.7745 183.2 44.7562 183.197 44.7392 183.191C44.7221 183.184 44.7066 183.174 44.6934 183.161C44.6803 183.148 44.6699 183.133 44.6628 183.116C44.6556 183.099 44.6519 183.081 44.6519 183.063C44.6519 183.044 44.6556 183.026 44.6627 183.009C44.6698 182.993 44.6802 182.977 44.6934 182.964L45.4741 182.188C45.4853 182.176 45.4989 182.167 45.514 182.16C45.5291 182.153 45.5455 182.15 45.5621 182.15C45.5786 182.15 45.595 182.153 45.6101 182.16C45.6252 182.167 45.6388 182.176 45.65 182.188C45.662 182.2 45.6717 182.213 45.6784 182.228C45.6852 182.243 45.689 182.259 45.6894 182.275C45.6899 182.292 45.6871 182.308 45.6812 182.323C45.6753 182.339 45.6665 182.353 45.6551 182.364L45.6552 182.364ZM47.1598 180.761L46.4101 181.568C46.3887 181.59 46.3594 181.603 46.3286 181.604C46.2977 181.605 46.2677 181.593 46.2452 181.572C46.2227 181.551 46.2095 181.522 46.2084 181.491C46.2073 181.46 46.2184 181.43 46.2394 181.407H46.2446L47.0098 180.616C47.0191 180.606 47.0304 180.598 47.0428 180.593C47.0553 180.588 47.0687 180.585 47.0822 180.585C47.0957 180.585 47.1091 180.588 47.1216 180.593C47.134 180.598 47.1453 180.606 47.1546 180.616C47.174 180.635 47.1854 180.66 47.1863 180.687C47.1873 180.714 47.1778 180.741 47.1598 180.761L47.1598 180.761ZM48.6335 179.131L47.8992 179.948C47.8916 179.958 47.8821 179.966 47.8714 179.971C47.8607 179.977 47.8489 179.98 47.8369 179.981C47.8248 179.982 47.8127 179.981 47.8013 179.977C47.7898 179.973 47.7792 179.967 47.7701 179.959C47.7611 179.951 47.7537 179.941 47.7485 179.93C47.7433 179.919 47.7404 179.907 47.7399 179.895C47.7394 179.883 47.7413 179.871 47.7456 179.86C47.7499 179.849 47.7564 179.838 47.7648 179.829V179.824L48.5248 179.033C48.5385 179.02 48.5566 179.012 48.5756 179.011C48.5946 179.01 48.6133 179.016 48.6283 179.028C48.6403 179.042 48.6473 179.06 48.6483 179.079C48.6492 179.097 48.644 179.116 48.6334 179.131L48.6335 179.131ZM49.3573 178.303C49.3479 178.313 49.3354 178.319 49.3221 178.32C49.3088 178.321 49.2956 178.317 49.285 178.309C49.2797 178.304 49.2755 178.299 49.2724 178.293C49.2692 178.287 49.2674 178.28 49.2669 178.273C49.2664 178.267 49.2673 178.26 49.2695 178.254C49.2718 178.247 49.2752 178.241 49.2798 178.236L50.0295 177.429C50.0353 177.424 50.0427 177.421 50.0503 177.421C50.058 177.421 50.0653 177.424 50.071 177.429C50.0768 177.434 50.0804 177.441 50.0813 177.449C50.0822 177.457 50.0804 177.464 50.076 177.471L49.3573 178.303Z" fill="#FD1A5A"/>
<path d="M19.7266 198.851L20.2839 198.841C20.2866 198.841 20.2893 198.841 20.2914 198.843C20.2935 198.845 20.2948 198.847 20.2952 198.85C20.2955 198.853 20.2948 198.855 20.2931 198.857C20.2915 198.86 20.2891 198.861 20.2864 198.861H20.285L19.7266 198.851Z" fill="white"/>
<path d="M34.5414 168.048C34.7093 168.481 34.8197 168.935 34.8698 169.397C34.927 169.857 34.9404 170.322 34.9098 170.785C34.8768 171.252 34.7896 171.714 34.6501 172.161C34.5119 172.612 34.2821 173.03 33.9751 173.388C34.1764 172.52 34.3023 171.636 34.3515 170.745C34.4195 169.861 34.439 168.974 34.5414 168.048ZM47.3437 163.01C47.6465 163.439 47.8809 163.912 48.0387 164.413C48.1163 164.654 48.1905 164.895 48.2532 165.137C48.3044 165.386 48.3847 165.627 48.4923 165.857C48.2187 165.766 47.9906 165.574 47.8557 165.319C47.7107 165.092 47.5941 164.849 47.5087 164.594C47.3276 164.087 47.271 163.543 47.3437 163.01ZM55.7061 12.3652C55.4642 13.1088 55.418 13.9023 55.5722 14.6689C55.695 15.4324 56.053 16.1391 56.2114 16.9276C56.2907 17.3153 56.3464 17.7074 56.3783 18.1018C56.4246 18.4871 56.4867 18.8713 56.5573 19.254C56.6707 20.0187 56.8608 20.7701 57.1245 21.4968C57.7182 22.9275 58.5365 24.2541 59.5487 25.4263C60.041 26.0178 60.6071 26.5437 61.2333 26.991C61.8328 27.4478 62.5603 27.705 63.3134 27.7266L63.3277 27.7262L63.3337 27.7267C64.448 27.8101 65.5677 27.791 66.6786 27.6697C67.2338 27.6138 67.7824 27.504 68.3164 27.3417C68.861 27.2014 69.3523 26.9039 69.729 26.4862C69.3786 26.9382 68.8973 27.2712 68.3508 27.4396C67.8173 27.6341 67.2657 27.7744 66.7041 27.8584C65.5812 28.0179 64.446 28.0736 63.3129 28.025L63.333 28.025C62.5081 28.0288 61.7046 27.7628 61.0447 27.2677C60.3893 26.8107 59.7954 26.2713 59.2774 25.6628C58.2278 24.467 57.3928 23.0985 56.8096 21.6178C56.5436 20.8687 56.3575 20.0935 56.2545 19.3051C56.1954 18.9152 56.1448 18.5236 56.1102 18.1297C56.0916 17.7421 56.0495 17.3559 55.984 16.9735C55.859 16.2176 55.5179 15.4883 55.4358 14.6895C55.3151 13.9045 55.4085 13.1015 55.7061 12.3652ZM78.8711 18.9998C79.258 19.7464 79.6081 20.4872 80.0312 21.1755C80.2358 21.5151 80.4811 21.8283 80.7618 22.1082C80.8987 22.2518 81.0645 22.3646 81.2482 22.4393C81.4319 22.5139 81.6294 22.5487 81.8275 22.5414C81.62 22.6201 81.3954 22.6426 81.1763 22.6066C80.9573 22.5705 80.7517 22.4773 80.5803 22.3362C80.2338 22.0723 79.9401 21.7455 79.7145 21.3729C79.2737 20.6481 78.9867 19.8403 78.8711 18.9998Z" fill="black"/>
<path d="M68.5208 13.8C68.5208 13.8 68.3921 12.1016 70.6729 12.3649C72.9536 12.6282 72.1777 18.0581 71.0299 18.0581C71.0299 18.0581 76.0224 23.9603 79.8305 18.5801C79.8305 18.5801 80.769 4.78504 70.8987 1.53781C61.0284 -1.70942 58.8354 4.96057 58.8354 4.96057C58.8354 4.96057 51.3134 8.65621 55.1332 12.2847C56.2244 13.2924 57.6607 13.8424 59.1456 13.821L68.5208 13.8Z" fill="#020202" stroke="black" stroke-width="0.699" stroke-miterlimit="10"/>
<path d="M55.6752 15.4691C55.9934 15.3008 56.356 15.2359 56.7128 15.2832C56.8965 15.3038 57.0744 15.3599 57.2367 15.4484C57.324 15.4896 57.4006 15.5504 57.4605 15.6261C57.5205 15.7017 57.5621 15.7902 57.5823 15.8847C57.4452 15.7981 57.2913 15.7419 57.1307 15.7199C56.9793 15.6946 56.8268 15.6686 56.6675 15.6538C56.3318 15.6227 55.9997 15.5608 55.6752 15.4691ZM59.5315 15.3131C59.6495 15.0166 59.8261 14.747 60.0507 14.5203C60.2753 14.2937 60.5432 14.1146 60.8385 13.9938C61.1309 13.8688 61.4405 13.7888 61.7569 13.7565C62.0691 13.724 62.3845 13.7434 62.6903 13.8138C62.3868 13.8938 62.0952 13.9614 61.8114 14.0429C61.5315 14.1227 61.2569 14.2204 60.9894 14.3353C60.4497 14.5729 59.9562 14.9039 59.5315 15.3131ZM56.6582 17.6553C56.8034 17.6503 56.941 17.5891 57.0419 17.4845C57.1428 17.38 57.1992 17.2403 57.1992 17.095C57.1992 16.9496 57.1428 16.81 57.0419 16.7054C56.941 16.6009 56.8034 16.5397 56.6582 16.5346C56.513 16.5397 56.3755 16.6009 56.2746 16.7054C56.1736 16.81 56.1172 16.9496 56.1172 17.095C56.1172 17.2403 56.1736 17.38 56.2746 17.4845C56.3755 17.5891 56.513 17.6503 56.6582 17.6553ZM61.1613 16.5795C61.3064 16.5744 61.444 16.5132 61.5449 16.4086C61.6459 16.3041 61.7023 16.1644 61.7023 16.0191C61.7023 15.8738 61.6459 15.7341 61.5449 15.6296C61.444 15.525 61.3064 15.4638 61.1613 15.4588C61.0161 15.4638 60.8785 15.525 60.7776 15.6296C60.6767 15.7341 60.6203 15.8738 60.6203 16.0191C60.6203 16.1644 60.6767 16.3041 60.7776 16.4086C60.8785 16.5132 61.0161 16.5744 61.1613 16.5795ZM57.4816 19.6334C57.5469 20.0711 57.6285 20.4989 57.8926 20.648C58.052 20.7247 58.2271 20.7632 58.4039 20.7603C58.604 20.7562 58.8148 20.7445 59.0441 20.7429C58.8656 20.8859 58.6595 20.9904 58.4386 21.0497C58.1902 21.1155 57.9262 21.0859 57.6985 20.9669C57.5875 20.894 57.4956 20.7954 57.4308 20.6795C57.3659 20.5635 57.33 20.4337 57.3259 20.3009C57.3108 20.0679 57.3649 19.8356 57.4816 19.6334ZM62.6903 23.0059C62.6502 23.3966 62.4663 23.7584 62.1744 24.0211C61.8825 24.2837 61.5034 24.4283 61.1108 24.4269C60.6982 24.4532 60.2886 24.3418 59.9461 24.1101C59.7617 23.9909 59.6101 23.8274 59.505 23.6345C59.4 23.4415 59.345 23.2254 59.3449 23.0057C59.3449 22.786 59.3998 22.5699 59.5047 22.3769C59.6097 22.1839 59.7612 22.0203 59.9456 21.9011C60.288 21.6688 60.698 21.5572 61.1108 21.584C61.5035 21.5828 61.8826 21.7276 62.1745 21.9904C62.4664 22.2532 62.6502 22.6151 62.6903 23.0059ZM62.6903 23.0059C62.6849 22.8158 62.6341 22.6298 62.5421 22.4634C62.4501 22.297 62.3197 22.155 62.1617 22.0493C61.8518 21.843 61.4822 21.7453 61.1108 21.7717C60.9362 21.7505 60.7591 21.7666 60.5912 21.819C60.4233 21.8713 60.2684 21.9588 60.1367 22.0755C60.0051 22.1921 59.8997 22.3355 59.8275 22.4959C59.7553 22.6564 59.718 22.8304 59.718 23.0063C59.718 23.1823 59.7553 23.3563 59.8275 23.5167C59.8997 23.6772 60.0051 23.8205 60.1367 23.9372C60.2684 24.0539 60.4233 24.1413 60.5912 24.1937C60.7591 24.2461 60.9362 24.2622 61.1108 24.241C61.4823 24.2673 61.852 24.1694 62.1618 23.9627C62.3198 23.8569 62.4501 23.7149 62.5421 23.5484C62.634 23.382 62.6849 23.196 62.6903 23.0059ZM38.6684 72.8389C39.6224 73.1364 40.6027 73.3416 41.5958 73.4516L41.032 77.6579C40.9849 78.0168 40.8089 78.3463 40.5368 78.5848C40.2647 78.8234 39.9152 78.9547 39.5534 78.9543C39.4871 78.9547 39.4209 78.9497 39.3555 78.9393C39.1611 78.9138 38.9737 78.8501 38.804 78.7519C38.6342 78.6537 38.4856 78.5229 38.3666 78.367C38.2476 78.2112 38.1605 78.0333 38.1104 77.8437C38.0603 77.654 38.0482 77.4563 38.0747 77.262L38.6684 72.8389ZM42.0886 69.7906L41.9655 70.6946C41.8165 70.6199 41.6616 70.5574 41.5025 70.5078C41.728 70.295 41.925 70.054 42.0886 69.7906ZM43.3358 60.4737L42.294 68.2589C42.1024 67.895 41.8022 67.5999 41.4352 67.4147C40.7685 67.117 40.1341 66.7515 39.5422 66.3239L40.5839 58.5387C41.3959 59.3218 42.3242 59.9745 43.3358 60.4737ZM44.6277 50.8469L43.8137 56.9287C43.5524 56.824 43.3843 56.768 43.3843 56.768C43.3843 56.768 41.2336 56.0283 41.1664 54.7507C41.1619 54.6804 41.1468 54.6111 41.1216 54.5452L41.6705 50.4509C41.6959 50.2562 41.7595 50.0685 41.8577 49.8984C41.9558 49.7283 42.0865 49.5793 42.2423 49.4598C42.3981 49.3404 42.5759 49.2529 42.7656 49.2023C42.9552 49.1518 43.153 49.1391 43.3475 49.1652C43.5421 49.1912 43.7296 49.2554 43.8992 49.3541C44.0689 49.4528 44.2175 49.584 44.3364 49.7402C44.4554 49.8964 44.5423 50.0746 44.5923 50.2645C44.6423 50.4544 44.6543 50.6523 44.6277 50.8469ZM117.136 66.8543C119.298 66.8543 119.302 63.4922 117.136 63.4922C114.973 63.4922 114.97 66.8543 117.136 66.8543Z" fill="black"/>
<path d="M111.513 62.792V65.9795" stroke="black" stroke-width="0.699" stroke-miterlimit="10"/>
<path d="M105.128 63.2461V65.9798" stroke="black" stroke-width="0.699" stroke-miterlimit="10"/>
<path d="M27.6013 56.1137L28.488 57.0137L28.4931 57.019L28.4959 57.0282C29.1804 59.2745 30.001 61.477 30.9533 63.6234C31.4237 64.6973 31.9134 65.7623 32.4474 66.8046C32.969 67.8532 33.5475 68.8711 34.1371 69.8803L34.1505 69.9032L34.1689 69.9659C34.3345 70.4227 34.6266 70.823 35.0112 71.12C35.412 71.4429 35.862 71.6994 36.344 71.8798C36.8383 72.0656 37.3462 72.2127 37.8633 72.3199C38.3965 72.4432 38.9337 72.5688 39.4603 72.7054C39.9874 72.8368 40.5141 72.9753 41.0265 73.0613C41.5321 73.1486 42.0638 73.1595 42.2233 72.8895C42.335 72.7052 42.4011 72.497 42.4161 72.282C42.4498 72.0615 42.4355 71.8363 42.3743 71.6218C42.3113 71.4281 42.1892 71.259 42.0251 71.1383C41.8275 71.0123 41.6147 70.9121 41.3918 70.8399L40.8756 70.6174L41.2686 70.2463C41.4042 70.116 41.5284 69.9743 41.6399 69.8229C41.7514 69.6748 41.8461 69.5146 41.922 69.3455C41.9972 69.2027 42.0402 69.0452 42.0479 68.884C42.0556 68.7228 42.0278 68.5619 41.9666 68.4126L41.9337 68.3442V68.2621L41.9337 68.2585L41.9677 68.4113C41.8033 68.1181 41.5545 67.8811 41.2536 67.7312L41.2949 67.7516C40.183 67.2651 39.163 66.5909 38.2795 65.7585C37.3444 64.9255 36.7026 63.8132 36.4492 62.5865C36.3441 61.9659 36.364 61.3305 36.5078 60.7177C36.6229 60.1003 36.8518 59.5098 37.1829 58.9763C37.3633 58.6902 37.6018 58.4452 37.8829 58.2573C38.1641 58.0694 38.4815 57.9427 38.8147 57.8854C39.4702 57.7981 40.1366 57.9189 40.7198 58.2307L40.7521 58.2467L40.792 58.2853C41.4322 58.9085 42.1453 59.452 42.9158 59.9039C43.6331 60.3845 44.4834 60.627 45.3461 60.5971C45.7496 60.5498 46.1259 60.37 46.4163 60.0859C46.5624 59.9827 46.6691 59.8329 46.7189 59.661C46.7687 59.4891 46.7586 59.3054 46.6903 59.1401C46.4818 58.7747 46.19 58.4639 45.8385 58.2329C45.472 57.9739 45.0856 57.7443 44.6829 57.5463C44.2786 57.3422 43.8636 57.1598 43.4399 56.9998C42.992 56.8395 42.565 56.6259 42.1681 56.3636C41.7484 56.1063 41.4036 55.7433 41.1681 55.3108C41.113 55.1952 41.0736 55.0728 41.0511 54.9467L41.0255 54.7559L40.9976 54.6186C40.9282 54.4191 40.8174 54.2366 40.6726 54.0829C40.0172 53.4481 39.2945 52.8868 38.5175 52.4088C38.1356 52.1508 37.7561 51.8874 37.3883 51.6076C37.0116 51.3387 36.6767 51.0155 36.3946 50.6484C37.0419 51.3024 37.7828 51.8565 38.593 52.2925C39.4049 52.7488 40.1638 53.2935 40.8561 53.9167C41.034 54.0928 41.172 54.3052 41.2606 54.5394L41.3064 54.7397L41.3338 54.8903C41.3557 54.9902 41.391 55.0866 41.4387 55.1771C41.6642 55.5477 41.982 55.8533 42.3611 56.064C42.743 56.2954 43.1492 56.484 43.5724 56.6263C44.0146 56.781 44.4481 56.9592 44.8713 57.1602C45.3005 57.3588 45.7133 57.5911 46.1057 57.855C46.5329 58.1236 46.888 58.4928 47.1397 58.9303C47.2677 59.1931 47.2962 59.4933 47.2199 59.7755C47.1875 59.9143 47.1271 60.045 47.0424 60.1596C46.973 60.2736 46.8867 60.3764 46.7863 60.4645C46.4202 60.8377 45.9417 61.0801 45.4243 61.1544C44.4341 61.2263 43.4468 60.9801 42.6061 60.4517C41.7809 59.9785 41.0169 59.4058 40.3312 58.7464L40.4033 58.8008C39.9472 58.5664 39.4306 58.4764 38.9222 58.5427C38.6799 58.5867 38.4499 58.6819 38.2473 58.8219C38.0447 58.9619 37.8743 59.1436 37.7475 59.3547C37.4697 59.818 37.2795 60.3286 37.1864 60.8608C37.0654 61.3867 37.0516 61.9316 37.1457 62.463C37.3815 63.5362 37.9568 64.5049 38.7861 65.2254C39.6126 65.9857 40.5541 66.6105 41.5756 67.0768L41.6055 67.0905L41.6171 67.0973C42.0466 67.3229 42.3968 67.6748 42.6205 68.1055L42.6545 68.1776V68.2621L42.6217 68.1119C42.7331 68.3597 42.7818 68.6311 42.7636 68.9022C42.7435 69.1559 42.6784 69.4039 42.5714 69.6347C42.4726 69.851 42.3501 70.0556 42.206 70.2447C42.0654 70.4329 41.9083 70.6081 41.7365 70.7683L41.6133 70.1748C41.9086 70.2721 42.1887 70.4103 42.4455 70.5855C42.7208 70.7942 42.9248 71.083 43.0295 71.4124C43.1196 71.7234 43.1408 72.0504 43.0916 72.3705C43.0616 72.7011 42.9488 73.0188 42.7635 73.2942C42.6497 73.4386 42.5058 73.5565 42.3419 73.6398C42.178 73.723 41.998 73.7697 41.8143 73.7764C41.5137 73.7931 41.2123 73.7723 40.9169 73.7144C40.3551 73.615 39.8278 73.4702 39.299 73.3344C38.7717 73.1932 38.2488 73.0667 37.7214 72.9403C37.1715 72.8235 36.6332 72.6573 36.1132 72.4438C35.5781 72.2278 35.0811 71.9273 34.6411 71.5538C34.1661 71.1692 33.8193 70.6491 33.6468 70.0627L33.6785 70.148C33.1064 69.1131 32.5472 68.0716 32.0467 67.0019C31.5365 65.9372 31.0597 64.8571 30.6256 63.7605C30.1898 62.6645 29.7881 61.5564 29.4207 60.4363C29.0544 59.3166 28.7063 58.1911 28.4317 57.0448L28.4396 57.0591L27.6013 56.1137ZM105.128 67.6607C107.29 67.6607 107.294 64.2986 105.128 64.2986C102.966 64.2986 102.962 67.6607 105.128 67.6607ZM111.513 67.6607C113.675 67.6607 113.678 64.2986 111.513 64.2986C109.35 64.2986 109.347 67.6607 111.513 67.6607Z" fill="black"/>
<path d="M65.6619 165.856V175.116" stroke="black" stroke-width="0.968" stroke-miterlimit="10"/>
<path d="M82.4897 168.936V176.492" stroke="black" stroke-width="0.968" stroke-miterlimit="10"/>
<path d="M85.4175 179.121C85.418 176.537 84.4977 174.037 82.8218 172.07L82.491 171.677V172.086C82.4918 173.405 82.1174 174.698 81.4115 175.813C80.7056 176.928 79.6973 177.818 78.5044 178.381L77.8219 178.702C76.8301 179.171 75.7417 179.398 74.6455 179.366C73.5492 179.333 72.4761 179.042 71.5137 178.516L69.2747 177.29C68.1807 176.69 67.268 175.807 66.6321 174.733C65.9963 173.659 65.6607 172.434 65.6605 171.186C64.2274 173.076 63.452 175.383 63.4526 177.755L62.4185 198.371C62.4195 200.412 62.9889 202.413 64.063 204.15C65.137 205.886 66.6731 207.288 68.4991 208.2C72.3071 209.738 76.563 209.738 80.371 208.2C82.1979 207.289 83.7349 205.887 84.8091 204.151C85.8833 202.414 86.4521 200.413 86.4517 198.371L85.4175 179.121ZM76.8394 189.98C76.0768 189.818 75.2946 189.769 74.5178 189.835C73.7312 189.901 72.9523 190.04 72.191 190.249C71.4162 190.457 70.6533 190.708 69.9055 190.999C71.2586 190.053 72.8333 189.474 74.4765 189.318C75.312 189.251 76.1525 189.344 76.9532 189.592C77.7342 189.879 78.4273 190.363 78.9645 190.999C78.3219 190.536 77.6024 190.191 76.8394 189.98ZM76.8394 186.746C76.0771 186.583 75.2948 186.532 74.5178 186.596C73.7307 186.662 72.9516 186.803 72.191 187.016C71.417 187.225 70.6542 187.473 69.9055 187.76C70.5737 187.289 71.3024 186.909 72.0721 186.633C72.8437 186.337 73.6531 186.15 74.4764 186.079C75.3123 186.012 76.1533 186.106 76.9532 186.358C77.7348 186.641 78.4284 187.125 78.9645 187.76C78.3228 187.297 77.603 186.954 76.8394 186.746ZM76.8394 183.311C76.0771 183.148 75.2948 183.097 74.5178 183.161C73.7307 183.227 72.9516 183.368 72.191 183.581C71.417 183.79 70.6542 184.038 69.9055 184.325C70.5737 183.854 71.3024 183.474 72.0721 183.198C72.8437 182.902 73.6531 182.715 74.4764 182.644C75.3123 182.579 76.1528 182.674 76.9532 182.924C77.7348 183.206 78.4284 183.69 78.9645 184.325C78.3228 183.862 77.6029 183.519 76.8394 183.311V183.311Z" fill="#FD1A5A"/>
</svg>
