<svg width="405" height="318" viewBox="0 0 405 318" fill="none" xmlns="http://www.w3.org/2000/svg">
<path d="M160.673 212.5C160.65 212.5 160.626 212.495 160.604 212.486C160.582 212.477 160.562 212.464 160.545 212.447C160.528 212.43 160.515 212.41 160.506 212.388C160.496 212.366 160.492 212.342 160.492 212.319V195.137C160.492 195.089 160.512 195.044 160.546 195.01C160.58 194.977 160.626 194.958 160.673 194.958C160.721 194.958 160.767 194.977 160.801 195.01C160.835 195.044 160.854 195.089 160.855 195.137V212.319C160.855 212.342 160.85 212.366 160.841 212.388C160.832 212.41 160.819 212.43 160.802 212.447C160.785 212.464 160.765 212.477 160.743 212.486C160.721 212.495 160.697 212.5 160.673 212.5Z" fill="black"/>
<path d="M178.777 181.511C178.386 182.175 177.926 182.796 177.404 183.363C176.903 183.947 176.354 184.484 175.814 185.032C174.701 186.09 173.558 187.12 172.356 188.077C169.958 190.005 167.417 191.748 164.754 193.291C162.095 194.855 159.284 196.147 156.364 197.146C154.899 197.645 153.399 198.035 151.877 198.314C151.106 198.407 150.338 198.557 149.564 198.6C148.789 198.622 148.013 198.658 147.238 198.668C144.149 198.564 141.079 198.129 138.082 197.372C135.09 196.648 132.145 195.744 129.263 194.664C126.378 193.604 123.546 192.413 120.727 191.21C120.022 190.913 119.316 190.61 118.606 190.351C118.258 190.229 117.884 190.102 117.512 189.948C117.34 189.848 117.159 189.76 116.995 189.648C116.834 189.531 116.679 189.405 116.533 189.27C115.973 188.711 115.553 188.027 115.306 187.275C115.055 186.535 114.916 185.761 114.894 184.979L114.896 185.002C113.05 174.885 110.678 164.872 107.793 155.001C106.388 150.057 104.819 145.161 103.208 140.283C101.593 135.404 99.8714 130.564 98.0434 125.761C97.121 123.363 96.1969 120.967 95.2282 118.589C94.7594 117.396 94.2096 116.236 93.804 114.974C93.4019 113.723 93.1392 112.431 93.0206 111.122C92.9542 110.459 92.9354 109.792 92.9644 109.126C93.0379 108.405 93.3357 107.725 93.8159 107.182C94.2961 106.639 94.9344 106.26 95.6412 106.099C96.283 105.938 96.9369 105.83 97.5963 105.777C98.9289 105.688 100.266 105.871 101.525 106.315L105.192 107.517L119.862 112.328C120.49 112.508 121.103 112.737 121.694 113.014C122.286 113.312 122.829 113.699 123.303 114.161C124.262 115.085 124.888 116.3 125.083 117.617L126.172 125.256C126.173 125.266 126.17 125.275 126.165 125.283C126.159 125.29 126.151 125.295 126.141 125.297C126.132 125.298 126.122 125.296 126.114 125.291C126.107 125.285 126.102 125.277 126.1 125.267L124.818 117.661C124.598 116.417 123.982 115.278 123.062 114.413C122.608 113.982 122.09 113.623 121.527 113.349C120.949 113.089 120.351 112.876 119.74 112.71L105.006 108.098L101.323 106.946C100.143 106.545 98.8927 106.39 97.6503 106.49C97.0277 106.551 96.4104 106.657 95.8035 106.809C95.2469 106.938 94.7445 107.237 94.367 107.666C93.9895 108.095 93.7557 108.631 93.6986 109.199C93.677 109.818 93.6974 110.437 93.7598 111.054C93.8763 112.308 94.131 113.546 94.5191 114.744C94.9016 115.932 95.4569 117.103 95.9319 118.302C96.9073 120.685 97.8469 123.083 98.7506 125.494C102.365 135.137 105.531 144.93 108.25 154.873C109.607 159.837 110.874 164.826 111.997 169.847C113.183 174.855 114.157 179.908 115.146 184.956L115.148 184.969L115.148 184.979C115.143 186.49 115.707 187.948 116.729 189.063C116.865 189.187 117.008 189.302 117.158 189.409C117.31 189.512 117.479 189.588 117.638 189.679C117.976 189.811 118.33 189.927 118.708 190.051C119.442 190.305 120.151 190.595 120.863 190.881C123.705 192.036 126.547 193.174 129.436 194.182C132.318 195.196 135.252 196.06 138.224 196.769C141.183 197.489 144.207 197.912 147.251 198.032C148.008 198.026 148.765 197.996 149.522 197.98C150.278 197.944 151.022 197.801 151.773 197.717C153.268 197.452 154.742 197.079 156.183 196.599C159.072 195.621 161.862 194.374 164.518 192.876C167.185 191.381 169.738 189.693 172.157 187.825C173.378 186.905 174.542 185.912 175.679 184.889C176.229 184.36 176.791 183.84 177.304 183.273C177.836 182.726 178.308 182.124 178.713 181.478L178.715 181.474C178.72 181.466 178.728 181.46 178.737 181.458C178.747 181.455 178.756 181.457 178.765 181.462C178.773 181.466 178.779 181.474 178.781 181.484C178.784 181.493 178.782 181.503 178.777 181.511L178.777 181.511Z" fill="black"/>
<path d="M95.9428 109.416L101.507 111.368L107.058 113.356L112.602 115.363L118.136 117.396C118.183 117.413 118.224 117.441 118.258 117.479C118.291 117.516 118.315 117.561 118.326 117.61L118.327 117.615C119.434 122.346 120.498 127.087 121.518 131.838C122.547 136.586 123.535 141.344 124.605 146.084C126.711 155.57 129.012 165.012 131.236 174.472C131.766 176.807 132.735 179.02 134.091 180.994C135.445 182.958 137.215 184.599 139.276 185.8C141.344 186.976 143.675 187.61 146.054 187.644C147.254 187.636 148.454 187.566 149.648 187.433C150.849 187.304 152.051 187.17 153.241 186.972C155.624 186.609 157.968 186.024 160.243 185.227C162.513 184.396 164.717 183.397 166.838 182.238C168.976 181.101 171.065 179.861 173.134 178.59C175.214 177.334 177.273 176.043 179.335 174.756C179.344 174.751 179.353 174.749 179.363 174.751C179.372 174.753 179.38 174.759 179.385 174.767C179.391 174.775 179.392 174.785 179.39 174.794C179.389 174.803 179.383 174.812 179.375 174.817C175.344 177.533 171.332 180.286 167.083 182.686C164.961 183.903 162.747 184.952 160.46 185.822C158.159 186.674 155.78 187.3 153.358 187.692C152.15 187.897 150.935 188.037 149.721 188.171C148.499 188.31 147.27 188.386 146.04 188.397C143.532 188.377 141.071 187.708 138.898 186.457C136.777 185.159 134.948 183.436 133.526 181.397C132.104 179.358 131.121 177.046 130.638 174.608C128.558 165.115 126.557 155.605 124.361 146.139C123.279 141.402 122.115 136.684 120.993 131.956C119.867 127.23 118.779 122.494 117.73 117.75L117.922 117.969L112.406 115.886L106.901 113.777L101.402 111.649L95.9173 109.484C95.9084 109.481 95.9013 109.474 95.8974 109.465C95.8936 109.456 95.8933 109.447 95.8966 109.438C95.8999 109.429 95.9066 109.422 95.9152 109.418C95.9239 109.413 95.9337 109.413 95.9427 109.416L95.9428 109.416ZM160.213 81.4005C158.689 80.4756 158.305 77.689 159.48 75.8238C160.962 73.4717 162.618 77.7403 162.618 77.7403C165.32 81.7476 170.812 71.0325 170.812 71.0325C170.812 71.0325 166.454 65.5442 156.516 69.203C146.578 72.8619 153.377 85.3193 153.377 85.3193C153.377 85.3193 143.004 90.1978 146.491 103.178C146.491 103.178 155.761 101.022 155.208 85.5616C155.208 85.5616 159.087 84.0344 160.213 81.4005" fill="black"/>
<path d="M161.3 81.6772C160.745 81.814 160.16 81.7301 159.666 81.4433C159.646 81.4308 159.628 81.4144 159.613 81.395C159.599 81.3756 159.589 81.3536 159.583 81.3303C159.578 81.3069 159.577 81.2827 159.58 81.2589C159.584 81.2352 159.592 81.2124 159.605 81.1919C159.617 81.1713 159.634 81.1535 159.653 81.1393C159.673 81.1251 159.695 81.1148 159.718 81.1091C159.741 81.1034 159.765 81.1024 159.789 81.1061C159.813 81.1098 159.836 81.1181 159.856 81.1306C159.87 81.139 159.882 81.1487 159.893 81.1597C160.278 81.5061 160.782 81.6914 161.3 81.6772ZM170.53 71.5932C171.122 72.5399 171.585 73.5613 171.907 74.6303C172.252 75.7134 172.382 76.8534 172.29 77.9864L172.22 77.7805C172.552 78.1287 172.875 78.4847 173.194 78.8446L174.151 79.9442C174.235 80.0552 174.295 80.1822 174.328 80.3174C174.361 80.4525 174.366 80.593 174.343 80.7301C174.319 80.8673 174.269 80.9983 174.193 81.1151C174.117 81.2319 174.019 81.3321 173.903 81.4095C173.707 81.5598 173.496 81.6916 173.276 81.8032C173.162 81.8744 173.033 81.9192 172.9 81.9344C172.766 81.9495 172.631 81.9346 172.504 81.8908L172.63 81.8146C172.616 83.3822 172.451 84.9448 172.138 86.481C171.975 87.2826 171.634 88.0378 171.142 88.6916C170.854 89.0492 170.447 89.2922 169.996 89.3767C169.769 89.4029 169.539 89.3936 169.314 89.3492L168.755 89.253C168.027 89.1224 167.281 89.1227 166.552 89.2537C165.836 89.4022 165.174 89.7414 164.635 90.2353C163.584 91.349 162.774 92.6662 162.253 94.1055C162.25 94.1127 162.245 94.1184 162.238 94.1216C162.231 94.1247 162.223 94.1249 162.216 94.1221C162.209 94.1194 162.204 94.1143 162.201 94.108C162.197 94.1016 162.197 94.0944 162.198 94.0875C162.386 93.3259 162.645 92.5837 162.972 91.8704C163.292 91.1342 163.739 90.46 164.292 89.8786C164.871 89.2792 165.61 88.8596 166.422 88.6704C167.223 88.5011 168.049 88.4931 168.853 88.6469L169.439 88.766C169.595 88.802 169.756 88.8146 169.916 88.8034C170.237 88.7483 170.527 88.581 170.735 88.3315C171.193 87.7491 171.527 87.0796 171.717 86.3639C172.164 84.8859 172.412 83.3553 172.456 81.812C172.457 81.7886 172.467 81.7665 172.485 81.7506C172.502 81.7347 172.525 81.7262 172.548 81.7271C172.56 81.7277 172.572 81.7306 172.583 81.7357C172.686 81.7636 172.793 81.769 172.898 81.7518C173.003 81.7346 173.103 81.6951 173.192 81.6359C173.397 81.5237 173.59 81.3899 173.766 81.2366C173.849 81.1762 173.918 81.0994 173.969 81.011C174.02 80.9226 174.052 80.8245 174.064 80.723C174.075 80.6215 174.065 80.5188 174.035 80.4213C174.004 80.3238 173.954 80.2337 173.887 80.1566L172.86 79.1617C172.517 78.8251 172.177 78.4847 171.846 78.1364C171.821 78.1104 171.802 78.0795 171.79 78.0458C171.778 78.012 171.773 77.9761 171.775 77.9404L171.776 77.9304C171.822 77.3992 171.821 76.8649 171.772 76.3339C171.716 75.7965 171.627 75.2629 171.506 74.7363C171.253 73.6708 170.909 72.6287 170.479 71.6211C170.477 71.6177 170.476 71.614 170.476 71.6102C170.476 71.6064 170.477 71.6026 170.478 71.599C170.479 71.5954 170.481 71.5921 170.484 71.5892C170.486 71.5864 170.489 71.5841 170.493 71.5825C170.499 71.5797 170.506 71.5793 170.513 71.5813C170.52 71.5833 170.526 71.5875 170.53 71.5932Z" fill="black"/>
<path d="M168.96 75.8682C169.288 75.5377 169.727 75.3405 170.192 75.3148C170.651 75.2704 171.112 75.3727 171.51 75.6069C171.051 75.6419 170.639 75.6389 170.223 75.6762C169.798 75.7136 169.377 75.7777 168.96 75.8682ZM170.071 78.1114C170.213 78.1065 170.346 78.047 170.445 77.9455C170.543 77.8439 170.598 77.7082 170.598 77.567C170.598 77.4257 170.543 77.29 170.445 77.1885C170.346 77.0869 170.213 77.0274 170.071 77.0225C169.93 77.0274 169.796 77.0869 169.698 77.1885C169.6 77.29 169.545 77.4257 169.545 77.567C169.545 77.7082 169.6 77.8439 169.698 77.9455C169.796 78.047 169.93 78.1065 170.071 78.1114ZM163.01 84.362C163.518 84.979 163.981 85.6031 164.475 86.2017C164.96 86.8107 165.499 87.3757 166.083 87.8901C165.337 87.5779 164.685 87.075 164.194 86.4319C163.683 85.8154 163.282 85.1151 163.01 84.362ZM125.715 122.9C126.075 121.226 126.514 119.6 126.987 117.967C127.466 116.34 127.966 114.717 128.545 113.12C129.671 109.908 131.017 106.776 132.573 103.749C133.366 102.234 134.243 100.765 135.199 99.3476C136.148 97.9117 137.223 96.5626 138.41 95.3162C139.598 94.0386 140.969 92.944 142.479 92.0685C144.019 91.1801 145.744 90.6595 147.518 90.5474L147.523 90.5472C147.553 90.5458 147.583 90.5472 147.613 90.5514C149.33 90.8015 151.031 91.0968 152.729 91.4315C154.427 91.7624 156.12 92.1205 157.804 92.5361C159.509 92.9152 161.176 93.4536 162.78 94.1442C163.576 94.5384 164.297 94.9553 165.08 95.3284L167.415 96.4447C168.203 96.8172 168.965 97.2408 169.698 97.7128C170.451 98.1849 171.102 98.8021 171.614 99.5284C172.618 100.901 173.798 102.177 174.928 103.472C177.212 106.051 179.54 108.591 181.913 111.093C181.953 111.135 181.978 111.189 181.986 111.247C181.993 111.305 181.981 111.363 181.952 111.414L181.95 111.418C181.07 112.967 180.121 114.459 179.123 115.928C178.124 117.394 177.064 118.822 175.926 120.193C174.785 121.574 173.533 122.86 172.184 124.038C170.818 125.275 169.213 126.22 167.469 126.814L167.701 126.676C166.441 127.957 165.151 129.187 163.791 130.367C163.11 130.954 162.412 131.527 161.666 132.06C161.288 132.335 160.894 132.587 160.486 132.814C160.014 133.109 159.474 133.274 158.918 133.294L159.529 132.585C159.818 133.852 160.118 135.122 160.433 136.382L160.919 138.265C161.001 138.577 161.088 138.887 161.178 139.19C161.257 139.471 161.353 139.747 161.463 140.017L161.476 140.047C161.509 140.119 161.527 140.197 161.529 140.277C161.531 140.356 161.517 140.435 161.489 140.51C161.461 140.584 161.418 140.652 161.363 140.709C161.308 140.767 161.243 140.813 161.17 140.846C161.11 140.872 161.046 140.889 160.98 140.896C156.93 141.276 152.887 141.535 148.827 141.676C144.76 141.842 140.686 141.749 136.63 141.397C135.614 141.291 134.598 141.163 133.586 140.968C132.557 140.793 131.551 140.507 130.584 140.116C130.076 139.908 129.602 139.627 129.178 139.281C128.953 139.089 128.761 138.861 128.61 138.607C128.465 138.351 128.385 138.127 128.269 137.886C127.861 136.941 127.527 135.965 127.271 134.968C126.766 132.996 126.4 130.992 126.176 128.968C125.94 126.95 125.784 124.941 125.715 122.9ZM125.83 122.911C126.13 126.929 126.817 130.909 127.88 134.796C128.158 135.749 128.51 136.68 128.933 137.579C129.042 137.791 129.147 138.041 129.259 138.22C129.374 138.397 129.516 138.554 129.681 138.685C130.053 138.965 130.463 139.188 130.9 139.35C132.783 139.967 134.739 140.333 136.718 140.438C140.736 140.69 144.765 140.714 148.785 140.511C152.813 140.354 156.85 140.077 160.856 139.684L160.373 140.562C160.228 140.231 160.106 139.891 160.008 139.543C159.91 139.221 159.82 138.903 159.734 138.584C159.558 137.947 159.407 137.308 159.253 136.67C158.95 135.394 158.663 134.119 158.385 132.836C158.369 132.761 158.367 132.683 158.381 132.608C158.395 132.532 158.424 132.46 158.465 132.395C158.507 132.33 158.561 132.274 158.624 132.23C158.688 132.186 158.759 132.155 158.835 132.139C158.888 132.128 158.942 132.124 158.996 132.127C159.33 132.086 159.651 131.973 159.937 131.797C160.308 131.596 160.665 131.372 161.009 131.128C161.714 130.635 162.398 130.087 163.068 129.522C164.406 128.388 165.704 127.177 166.949 125.94L166.953 125.936C167.017 125.872 167.096 125.826 167.182 125.801C168.795 125.268 170.286 124.418 171.568 123.303C172.9 122.182 174.14 120.956 175.278 119.638C176.433 118.326 177.522 116.948 178.552 115.527C179.582 114.107 180.567 112.642 181.468 111.143L181.505 111.468C179.214 108.888 176.915 106.318 174.642 103.723C173.513 102.413 172.378 101.127 171.314 99.7405C170.348 98.3554 168.756 97.5758 167.227 96.8337C165.679 96.1097 164.074 95.3987 162.544 94.641C160.957 94.0202 159.316 93.5484 157.642 93.2317C154.288 92.507 150.872 92.0194 147.477 91.5187L147.572 91.5226C145.952 91.6424 144.381 92.1352 142.983 92.9624C141.567 93.8014 140.27 94.8266 139.127 96.0106C137.963 97.2037 136.907 98.4977 135.972 99.8773C135.017 101.256 134.14 102.687 133.345 104.163C131.732 107.122 130.315 110.184 129.101 113.327C127.866 116.465 126.765 119.678 125.83 122.911L125.83 122.911Z" fill="black"/>
<path d="M167.325 126.307C166.913 125.368 166.525 124.42 166.132 123.476C165.738 122.531 165.367 121.579 164.959 120.642C164.579 119.693 164.172 118.757 163.749 117.829C163.544 117.362 163.321 116.904 163.08 116.456C162.968 116.228 162.841 116.007 162.701 115.795C162.635 115.687 162.563 115.582 162.485 115.482L162.226 115.2C162.976 115.911 163.579 116.763 164 117.707C164.479 118.618 164.886 119.561 165.294 120.503C165.676 121.455 166.053 122.409 166.392 123.376C166.731 124.344 167.054 125.317 167.325 126.307ZM161.572 144.392C161.538 144.392 161.504 144.382 161.475 144.363C161.446 144.345 161.422 144.318 161.408 144.287L159.61 140.475C159.6 140.453 159.594 140.43 159.593 140.406C159.592 140.382 159.595 140.358 159.603 140.336C159.611 140.313 159.624 140.292 159.64 140.275C159.656 140.257 159.675 140.243 159.697 140.232C159.719 140.222 159.742 140.216 159.766 140.215C159.79 140.214 159.814 140.218 159.836 140.226C159.859 140.234 159.88 140.247 159.897 140.263C159.915 140.279 159.929 140.298 159.939 140.32L161.737 144.132C161.75 144.16 161.755 144.191 161.753 144.221C161.751 144.252 161.742 144.281 161.725 144.307C161.709 144.333 161.686 144.354 161.66 144.369C161.633 144.384 161.603 144.392 161.572 144.392ZM128.951 138.591L131.145 146.66C129.997 142.612 129.183 139.487 128.951 138.591Z" fill="black"/>
<path d="M206.422 189.294C205.196 191.451 205.763 195.885 205.508 197.395C205.163 199.528 204.351 201.56 203.13 203.344C202.8 200.806 202.413 198.273 202.014 195.741C201.614 193.214 201.163 190.693 200.747 188.167C200.278 185.652 199.838 183.125 199.346 180.616L198.6 176.846C198.328 175.591 198.079 174.337 197.79 173.088C197.952 174.36 198.143 175.626 198.322 176.898L198.907 180.691C199.306 183.223 199.751 185.744 200.174 188.265C200.642 190.786 201.082 193.307 201.574 195.822C202.066 198.331 202.563 200.846 203.13 203.344C200.388 207.362 195.771 209.901 190.622 211.838C186.763 213.28 182.79 214.394 178.744 215.168C175.781 189.161 180.404 170.867 180.404 170.867C180.404 170.867 179.878 170.214 178.049 170.214C176.215 170.214 171.118 173.221 171.118 173.221C151.765 184.981 145.748 178.448 141.171 173.481C138.168 170.22 133.8 156.055 131.162 146.734C148.947 153.268 158.823 144.208 160.675 144.208C161.259 144.208 164.123 143.907 168.115 143.525C168.585 144.005 168.951 144.577 169.19 145.205C169.429 145.833 169.536 146.503 169.504 147.174C171.159 149.521 173.166 145.601 172.293 144.208C172.097 143.888 171.945 143.544 171.841 143.184C172.634 143.115 173.455 143.04 174.294 142.97C175.689 144.878 177.303 147.7 178.744 149.088C181.272 151.527 181.712 147.607 181.712 147.607C184.848 149.874 184.848 145.867 184.848 145.867C187.636 147.521 186.676 143.525 186.676 143.525C186.867 143.359 187.008 143.143 187.084 142.901C187.16 142.659 187.167 142.401 187.104 142.155C190.666 141.978 194.235 142.028 197.79 142.305C208.644 143.404 218.977 175.048 218.977 175.048C219.371 180.668 210.866 181.454 206.422 189.294ZM144.336 198.161C144.74 200.683 144.99 203.217 145.253 205.751C145.498 208.285 145.614 210.83 145.772 213.371L146.255 220.995L146.701 228.621C146.702 228.631 146.699 228.64 146.693 228.647C146.686 228.655 146.677 228.659 146.668 228.66C146.658 228.661 146.649 228.658 146.642 228.651C146.634 228.645 146.63 228.637 146.629 228.627L145.893 221.023L145.193 213.416C144.956 210.881 144.679 208.349 144.529 205.807C144.398 203.263 144.253 200.721 144.263 198.166C144.263 198.157 144.267 198.148 144.273 198.142C144.279 198.135 144.288 198.131 144.297 198.13C144.306 198.129 144.315 198.132 144.322 198.138C144.33 198.143 144.334 198.152 144.336 198.161H144.336ZM152.281 197.959C152.536 200.511 152.636 203.065 152.749 205.619C152.844 208.174 152.81 210.731 152.818 213.287L152.851 220.955L152.847 228.624C152.847 228.633 152.844 228.642 152.837 228.649C152.83 228.656 152.821 228.66 152.812 228.66C152.802 228.66 152.793 228.657 152.786 228.65C152.779 228.644 152.775 228.634 152.775 228.625L152.488 220.961L152.237 213.297C152.151 210.743 152.022 208.189 152.023 205.633C152.042 203.076 152.047 200.52 152.208 197.96C152.209 197.951 152.213 197.943 152.219 197.937C152.226 197.93 152.235 197.927 152.244 197.927C152.253 197.926 152.262 197.93 152.269 197.936C152.275 197.942 152.28 197.95 152.281 197.959Z" fill="#FD1A5A"/>
<path d="M149.647 234.74C159.541 234.74 167.561 231.493 167.561 227.487C167.561 223.482 159.541 220.235 149.647 220.235C139.753 220.235 131.733 223.482 131.733 227.487C131.733 231.493 139.753 234.74 149.647 234.74Z" fill="black"/>
<path d="M158.957 132.71C158.577 132.98 158.137 133.151 157.675 133.209C157.437 133.242 157.196 133.233 156.962 133.182C156.836 133.165 156.719 133.111 156.624 133.027C156.529 132.943 156.461 132.833 156.429 132.71C156.506 132.78 156.596 132.833 156.695 132.866C156.793 132.898 156.897 132.911 157.001 132.902C157.211 132.896 157.421 132.879 157.629 132.849C158.069 132.779 158.512 132.733 158.957 132.71ZM166.932 126.692C168.845 127.93 170.751 129.178 172.68 130.378C173.164 130.675 173.649 130.971 174.141 131.244C174.385 131.387 174.636 131.508 174.879 131.637C174.996 131.685 175.133 131.756 175.231 131.787C175.275 131.797 175.318 131.81 175.36 131.825C175.457 131.843 175.555 131.866 175.651 131.893C176.194 132.122 176.72 132.39 177.224 132.696C177.72 132.986 178.209 133.286 178.691 133.595C180.635 134.814 182.475 136.191 184.193 137.712C185.074 138.473 185.852 139.347 186.506 140.31L186.727 140.703L186.904 141.088C187.037 141.353 187.15 141.626 187.243 141.907C187.336 142.211 187.35 142.534 187.282 142.844C187.204 143.157 187.03 143.437 186.785 143.644L186.832 143.49C186.906 143.859 186.952 144.234 186.97 144.61C186.999 144.995 186.952 145.382 186.834 145.75C186.803 145.849 186.755 145.941 186.691 146.022L186.597 146.148L186.464 146.244C186.376 146.308 186.274 146.349 186.167 146.363C186.066 146.388 185.962 146.391 185.86 146.373C185.665 146.35 185.474 146.3 185.293 146.224L184.789 145.962L184.961 145.865C184.948 146.29 184.882 146.713 184.765 147.122C184.659 147.553 184.41 147.936 184.058 148.207C183.864 148.323 183.646 148.394 183.421 148.413C183.196 148.432 182.969 148.4 182.759 148.318C182.557 148.242 182.36 148.156 182.168 148.057L181.629 147.718L181.845 147.622C181.789 148.307 181.561 148.967 181.181 149.54C181.07 149.694 180.926 149.821 180.76 149.913C180.593 150.004 180.408 150.056 180.218 150.066L179.931 150.044C179.842 150.022 179.758 149.987 179.67 149.958C179.503 149.897 179.344 149.815 179.197 149.714C178.646 149.32 178.153 148.851 177.73 148.322C177.304 147.811 176.905 147.283 176.525 146.746C175.764 145.672 175.049 144.572 174.289 143.52C173.924 142.996 173.525 142.496 173.094 142.024C172.898 141.806 172.671 141.618 172.422 141.465C172.333 141.407 172.23 141.373 172.124 141.367C172.049 141.369 171.978 141.399 171.925 141.451L172.035 141.245C171.96 141.942 172.041 142.647 172.272 143.308C172.331 143.47 172.401 143.628 172.482 143.78C172.522 143.856 172.565 143.93 172.611 144.002C172.664 144.104 172.718 144.222 172.767 144.334C172.895 144.76 172.92 145.211 172.841 145.65C172.705 146.494 172.295 147.271 171.674 147.86C171.49 148.032 171.267 148.156 171.024 148.222C170.781 148.288 170.526 148.295 170.28 148.24C169.832 148.088 169.449 147.789 169.193 147.391C169.144 147.333 169.119 147.259 169.122 147.183L169.124 147.139C169.161 146.274 168.959 145.415 168.54 144.656C168.433 144.47 168.312 144.293 168.178 144.125C168.039 143.95 167.907 143.825 167.724 143.623C167.381 143.254 167.097 142.834 166.881 142.379C166.483 141.486 166.247 140.53 166.183 139.555C166.109 138.605 166.117 137.65 166.207 136.702L166.223 136.807C165.934 136.255 165.502 135.79 164.974 135.458C164.43 135.1 163.834 134.827 163.207 134.65C162.574 134.457 161.926 134.323 161.269 134.25C160.938 134.224 160.607 134.19 160.275 134.172L159.274 134.148C159.265 134.148 159.255 134.144 159.248 134.138C159.241 134.131 159.237 134.122 159.237 134.113C159.237 134.103 159.24 134.094 159.247 134.087C159.253 134.08 159.262 134.076 159.271 134.075L160.277 134.027C160.613 134.025 160.949 134.04 161.286 134.046C161.963 134.083 162.635 134.182 163.293 134.341C163.964 134.498 164.606 134.76 165.195 135.115C165.495 135.296 165.774 135.511 166.026 135.754C166.297 136.002 166.52 136.299 166.684 136.628C166.696 136.653 166.702 136.681 166.701 136.709L166.7 136.734C166.655 137.655 166.677 138.579 166.767 139.497C166.848 140.395 167.087 141.272 167.474 142.087C167.67 142.475 167.924 142.831 168.228 143.142C168.361 143.285 168.575 143.481 168.73 143.67C168.895 143.864 169.043 144.071 169.172 144.291C169.678 145.175 169.926 146.185 169.885 147.203L169.817 146.952C170.022 147.193 170.245 147.455 170.477 147.489C170.602 147.511 170.731 147.503 170.852 147.464C170.973 147.426 171.083 147.358 171.172 147.268C171.653 146.796 171.97 146.184 172.079 145.519C172.136 145.21 172.125 144.891 172.048 144.586L171.968 144.401C171.913 144.311 171.862 144.221 171.815 144.128C171.72 143.944 171.639 143.753 171.571 143.558C171.308 142.778 171.226 141.949 171.333 141.134C171.342 141.058 171.378 140.988 171.434 140.937L171.443 140.928C171.632 140.755 171.879 140.661 172.135 140.664C172.358 140.673 172.574 140.74 172.763 140.858C173.072 141.049 173.351 141.284 173.591 141.556C174.036 142.058 174.448 142.588 174.824 143.144C175.571 144.235 176.255 145.35 176.981 146.432C177.345 146.971 177.71 147.509 178.106 148.018C178.481 148.528 178.924 148.985 179.423 149.376C179.542 149.466 179.672 149.54 179.811 149.596C179.878 149.62 179.945 149.652 180.012 149.672L180.215 149.694C180.352 149.69 180.486 149.655 180.608 149.591C180.729 149.528 180.835 149.437 180.916 149.327C181.275 148.812 181.501 148.216 181.573 147.592C181.579 147.555 181.6 147.522 181.63 147.5C181.66 147.478 181.698 147.469 181.735 147.475C181.754 147.479 181.772 147.486 181.789 147.496L182.297 147.827C182.473 147.919 182.654 148.001 182.839 148.074C183.013 148.146 183.201 148.178 183.389 148.166C183.578 148.154 183.761 148.099 183.924 148.006C184.234 147.768 184.454 147.433 184.549 147.055C184.668 146.669 184.731 146.268 184.734 145.865C184.734 145.845 184.739 145.826 184.748 145.81C184.758 145.793 184.772 145.779 184.788 145.769C184.805 145.758 184.823 145.753 184.843 145.752C184.862 145.751 184.881 145.755 184.899 145.763L184.906 145.767L185.384 146.005C185.542 146.069 185.709 146.11 185.879 146.127C186.034 146.151 186.193 146.116 186.324 146.029C186.455 145.942 186.548 145.809 186.587 145.657C186.686 145.322 186.72 144.972 186.688 144.624C186.666 144.266 186.611 143.912 186.524 143.564C186.517 143.536 186.518 143.507 186.526 143.48C186.535 143.453 186.55 143.429 186.571 143.41C186.756 143.235 186.883 143.009 186.936 142.761C186.99 142.513 186.967 142.255 186.871 142.02C186.773 141.765 186.657 141.516 186.524 141.277L186.328 140.895L186.115 140.552C185.449 139.658 184.67 138.854 183.797 138.16C182.062 136.708 180.245 135.356 178.357 134.11C177.439 133.476 176.476 132.912 175.474 132.423C175.432 132.413 175.391 132.399 175.352 132.381C175.271 132.363 175.16 132.341 175.067 132.314C174.896 132.256 174.781 132.188 174.636 132.125C174.377 131.986 174.123 131.843 173.88 131.69C173.387 131.391 172.912 131.075 172.436 130.757C170.539 129.485 168.699 128.139 166.89 126.751C166.883 126.745 166.878 126.737 166.876 126.727C166.875 126.718 166.877 126.708 166.883 126.701C166.888 126.693 166.896 126.688 166.906 126.686C166.915 126.684 166.925 126.686 166.932 126.692L166.932 126.692Z" fill="black"/>
<path d="M175.084 139.68C176.35 140.855 177.55 142.1 178.68 143.407C179.819 144.711 180.881 146.08 181.861 147.508C181.887 147.547 181.897 147.596 181.888 147.643C181.879 147.689 181.852 147.731 181.812 147.758C181.773 147.785 181.725 147.795 181.678 147.787C181.631 147.779 181.589 147.752 181.561 147.713L181.557 147.706C180.634 146.255 179.626 144.858 178.541 143.523C177.46 142.18 176.306 140.897 175.084 139.68ZM178.745 138.896C180.941 141.075 183.026 143.364 184.991 145.754C185.021 145.791 185.035 145.839 185.029 145.886C185.024 145.934 185.001 145.978 184.963 146.008C184.926 146.038 184.879 146.052 184.831 146.048C184.783 146.043 184.739 146.02 184.709 145.983L184.704 145.976C182.838 143.517 180.849 141.154 178.745 138.896ZM181.36 138.329C182.294 139.146 183.219 139.972 184.138 140.807L185.503 142.075C185.952 142.507 186.4 142.932 186.82 143.414C186.852 143.451 186.868 143.498 186.864 143.546C186.861 143.594 186.839 143.639 186.802 143.67C186.766 143.702 186.719 143.718 186.67 143.715C186.622 143.711 186.578 143.689 186.546 143.653L186.541 143.646L186.536 143.64C186.164 143.168 185.733 142.715 185.31 142.267L184.012 140.938C183.137 140.06 182.253 139.19 181.36 138.329ZM170.58 124.676C171.048 125.257 171.569 125.795 172.135 126.281C172.692 126.786 173.257 127.282 173.829 127.771L177.292 130.671C179.605 132.599 181.97 134.47 184.308 136.365L184.34 136.395L184.348 136.402C185.367 137.466 186.524 138.388 187.789 139.144C189.054 139.882 190.427 140.416 191.858 140.727C194.739 141.355 197.741 141.102 200.476 140.002C201.815 139.455 203.169 138.674 204.548 138.049C205.919 137.387 207.323 136.794 208.733 136.221C210.152 135.668 211.588 135.16 213.046 134.718C214.506 134.253 216.008 133.93 217.53 133.752C217.548 133.75 217.567 133.752 217.584 133.758L217.591 133.76C218.922 134.202 220.314 134.437 221.717 134.457C223.109 134.485 224.488 134.182 225.74 133.573C226.359 133.24 226.955 132.865 227.522 132.449C228.215 132.114 228.995 132 229.755 132.123C230.478 132.2 231.193 132.341 231.892 132.546C232.043 132.598 232.199 132.637 232.358 132.662C232.494 132.679 232.633 132.67 232.766 132.636C233.021 132.565 233.243 132.407 233.395 132.191L233.54 132.056C233.512 132.069 233.487 132.086 233.465 132.107C233.41 132.158 233.373 132.225 233.36 132.298C233.351 132.353 233.354 132.409 233.37 132.463C233.387 132.516 233.415 132.564 233.454 132.604L233.402 132.179C233.493 132 233.528 131.799 233.504 131.6C233.493 131.489 233.472 131.379 233.441 131.271C233.411 131.166 233.372 131.063 233.324 130.964C233.301 130.919 233.288 130.87 233.284 130.819C233.281 130.769 233.288 130.719 233.305 130.671L233.313 130.648C233.412 130.195 233.382 129.725 233.226 129.289C233.083 128.794 232.894 128.314 232.664 127.853C232.638 127.8 232.622 127.743 232.619 127.684C232.616 127.625 232.624 127.566 232.644 127.51L232.654 127.483C232.723 127.302 232.755 127.108 232.747 126.915C232.726 126.707 232.672 126.504 232.587 126.314C232.493 126.107 232.376 125.912 232.238 125.732C232.101 125.549 231.948 125.379 231.78 125.224C231.708 125.159 231.657 125.073 231.635 124.978C231.613 124.883 231.62 124.784 231.656 124.693L231.668 124.666C231.817 124.31 231.825 123.91 231.69 123.549C231.504 123.201 231.192 122.937 230.818 122.812C229.91 122.527 228.946 122.465 228.009 122.631C225.993 122.912 224.007 123.379 222.077 124.025L222.072 124.027C222.007 124.047 221.94 124.056 221.872 124.053C220.071 123.978 218.25 124.774 216.371 125.36C215.421 125.656 214.525 125.988 213.479 126.207C212.476 126.417 211.491 126.523 210.502 126.637C206.552 127.005 202.618 127.132 198.679 127.178L197.202 127.192L196.464 127.197L196.095 127.198C195.967 127.199 195.817 127.194 195.679 127.182C194.831 127.102 194.035 126.739 193.418 126.152C193.211 125.947 193.07 125.788 192.893 125.603L188.867 121.299C186.184 118.427 183.522 115.537 180.879 112.627C180.869 112.616 180.864 112.601 180.864 112.586C180.865 112.571 180.871 112.557 180.882 112.547C180.893 112.536 180.907 112.53 180.922 112.53C180.937 112.53 180.952 112.536 180.962 112.547C183.79 115.278 186.594 118.032 189.375 120.808L193.549 124.97C193.716 125.136 193.908 125.337 194.054 125.474C194.525 125.901 195.125 126.158 195.76 126.202C195.955 126.217 196.196 126.201 196.448 126.196L197.183 126.174L198.653 126.125C202.571 125.963 206.498 125.809 210.373 125.405C211.335 125.296 212.307 125.191 213.229 124.999C214.109 124.821 215.066 124.479 215.991 124.191C216.924 123.892 217.854 123.58 218.829 123.31C219.83 123.006 220.874 122.867 221.92 122.899L221.716 122.927C222.731 122.611 223.737 122.342 224.765 122.107C225.797 121.863 226.842 121.683 227.896 121.566C228.437 121.508 228.982 121.488 229.526 121.506C230.108 121.526 230.681 121.65 231.219 121.873C231.828 122.11 232.322 122.573 232.597 123.166C232.721 123.475 232.774 123.808 232.751 124.141C232.733 124.463 232.656 124.78 232.523 125.074L232.41 124.516C232.624 124.72 232.818 124.943 232.988 125.184C233.162 125.424 233.309 125.683 233.425 125.956C233.546 126.247 233.618 126.555 233.638 126.87C233.647 127.2 233.584 127.529 233.455 127.833L233.445 127.463C233.69 127.983 233.883 128.526 234.02 129.084C234.094 129.372 234.139 129.667 234.156 129.964C234.183 130.296 234.135 130.629 234.016 130.94L234.005 130.624C234.136 130.917 234.214 131.231 234.235 131.551C234.259 131.895 234.18 132.239 234.007 132.538L233.955 132.112C233.995 132.153 234.024 132.203 234.041 132.257C234.058 132.312 234.061 132.369 234.051 132.425C234.038 132.501 234 132.571 233.942 132.623C233.916 132.647 233.887 132.667 233.855 132.683L234 132.547C233.88 132.744 233.714 132.908 233.515 133.023C233.33 133.139 233.13 133.226 232.919 133.282C232.706 133.328 232.487 133.334 232.271 133.301C232.08 133.265 231.893 133.214 231.711 133.146C231.054 132.931 230.379 132.775 229.694 132.68C229.049 132.552 228.381 132.619 227.776 132.873C227.185 133.276 226.568 133.639 225.929 133.96C224.613 134.583 223.168 134.884 221.713 134.839C220.275 134.794 218.852 134.545 217.484 134.1L217.545 134.108C216.055 134.29 214.589 134.629 213.172 135.12C211.737 135.582 210.335 136.145 208.953 136.748C207.578 137.369 206.213 138.01 204.88 138.717C203.522 139.392 202.274 140.188 200.832 140.845C197.94 142.119 194.716 142.432 191.633 141.737C190.101 141.389 188.634 140.802 187.284 139.998C185.954 139.182 184.744 138.185 183.691 137.033L183.731 137.07C181.41 135.138 179.146 133.144 176.888 131.14C175.757 130.141 174.647 129.118 173.558 128.069C173.011 127.549 172.473 127.018 171.943 126.478C171.684 126.201 171.417 125.935 171.172 125.644L170.803 125.209C170.688 125.055 170.586 124.888 170.478 124.73C170.47 124.718 170.466 124.703 170.469 124.688C170.472 124.673 170.481 124.66 170.493 124.651C170.505 124.643 170.521 124.639 170.536 124.642C170.55 124.645 170.564 124.653 170.572 124.665L170.58 124.676Z" fill="black"/>
<path d="M224.686 124.957C225.899 124.569 227.147 124.299 228.412 124.151C229.05 124.073 229.695 124.062 230.336 124.116C231.003 124.148 231.65 124.359 232.207 124.727C232.246 124.755 232.272 124.798 232.28 124.846C232.287 124.893 232.275 124.942 232.247 124.981C232.218 125.02 232.175 125.045 232.128 125.053C232.08 125.06 232.032 125.048 231.993 125.02L231.984 125.013C231.489 124.658 230.909 124.442 230.303 124.386C229.681 124.304 229.052 124.286 228.427 124.332C227.163 124.42 225.91 124.629 224.686 124.957ZM226.342 127.088C227.48 126.841 228.637 126.694 229.8 126.648C230.388 126.628 230.977 126.664 231.558 126.755C232.179 126.823 232.757 127.102 233.197 127.545C233.229 127.581 233.245 127.628 233.242 127.676C233.239 127.725 233.218 127.77 233.182 127.801C233.164 127.817 233.143 127.829 233.12 127.837C233.098 127.845 233.074 127.848 233.05 127.847C233.002 127.844 232.957 127.822 232.925 127.786L232.918 127.778L232.912 127.77C232.54 127.369 232.043 127.106 231.503 127.022C230.942 126.905 230.372 126.84 229.8 126.83C228.642 126.815 227.485 126.901 226.342 127.088ZM226.952 129.4C228.132 129.186 229.335 129.128 230.53 129.226C231.136 129.27 231.733 129.4 232.303 129.613C232.898 129.824 233.421 130.197 233.814 130.69C233.828 130.709 233.839 130.731 233.845 130.754C233.851 130.777 233.852 130.802 233.849 130.825C233.846 130.849 233.838 130.872 233.826 130.892C233.813 130.913 233.797 130.931 233.778 130.945C233.759 130.96 233.737 130.97 233.714 130.976C233.691 130.982 233.667 130.983 233.643 130.98C233.619 130.976 233.596 130.968 233.576 130.956C233.555 130.944 233.537 130.927 233.523 130.908L233.518 130.901L233.515 130.897C233.181 130.437 232.725 130.08 232.198 129.865C231.66 129.632 231.091 129.477 230.508 129.406C229.328 129.249 228.133 129.247 226.952 129.4ZM208.182 71.2744V106.295L256.825 110.607V71.2744H208.182ZM251.464 105.38L213.151 102.244V75.9786L251.464 75.5866V105.38Z" fill="black"/>
<path d="M216.04 78.8108C216.091 79.8826 216.136 80.9114 216.159 81.9233C216.185 82.9367 216.201 83.9332 216.163 84.9395L216.027 84.8044C216.892 84.8334 217.756 84.8764 218.621 84.8803C219.485 84.8889 220.35 84.869 221.214 84.8402L221.115 84.9395C221.077 83.9159 221.05 82.8923 221.04 81.8688C221.02 80.8452 221.019 79.8216 221.029 78.7981L221.214 78.9828C220.373 78.9865 219.528 78.9447 218.673 78.9239L216.04 78.8108ZM216.014 78.7851L218.569 78.672C219.443 78.6513 220.326 78.6096 221.214 78.6132C221.263 78.6137 221.31 78.6333 221.344 78.6679C221.379 78.7024 221.399 78.7492 221.399 78.798C221.409 79.8216 221.408 80.8452 221.388 81.8688C221.379 82.8923 221.351 83.9159 221.314 84.9395L221.313 84.9464C221.313 84.959 221.31 84.9714 221.305 84.9829C221.3 84.9943 221.292 85.0047 221.283 85.0132C221.274 85.0218 221.263 85.0285 221.251 85.0329C221.239 85.0373 221.227 85.0393 221.214 85.0389C220.35 85.0102 219.485 84.9902 218.621 84.9989C217.756 85.0027 216.892 85.0457 216.027 85.0747C216.01 85.0753 215.993 85.0725 215.977 85.0665C215.961 85.0604 215.946 85.0513 215.934 85.0396C215.921 85.0279 215.911 85.0138 215.904 84.9982C215.897 84.9825 215.893 84.9657 215.892 84.9485L215.892 84.9395C215.854 83.8985 215.87 82.8479 215.895 81.8141C215.919 80.7789 215.964 79.7606 216.014 78.7851H216.014ZM240.918 78.2691C241.007 80.3545 241.068 82.385 241.121 84.3995C241.184 86.4189 241.211 88.4029 241.234 90.3857C241.257 92.367 241.226 94.3263 241.161 96.296C241.107 98.2661 241.025 100.251 241.02 102.246L240.888 102.114C242.069 102.13 243.251 102.1 244.432 102.095C245.613 102.086 246.794 102.041 247.976 102.016L247.746 102.246C247.681 100.245 247.633 98.2444 247.602 96.244L247.534 90.2425C247.519 88.242 247.525 86.2415 247.55 84.241L247.661 78.2395L247.976 78.5539L244.509 78.4253L240.918 78.2691ZM240.858 78.2098L244.355 78.0537L247.976 77.925C248.015 77.9236 248.055 77.93 248.092 77.944C248.13 77.9579 248.164 77.9791 248.193 78.0062C248.222 78.0334 248.246 78.066 248.263 78.1023C248.279 78.1386 248.288 78.1777 248.29 78.2176L248.29 78.2211L248.29 78.2395L248.401 84.241C248.425 86.2415 248.43 88.242 248.417 90.2426L248.349 96.244C248.316 98.2445 248.268 100.245 248.205 102.246L248.205 102.258C248.203 102.317 248.178 102.373 248.135 102.414C248.092 102.454 248.035 102.476 247.976 102.475C246.794 102.45 245.613 102.405 244.432 102.396C243.251 102.391 242.069 102.361 240.888 102.377C240.871 102.377 240.854 102.374 240.838 102.368C240.822 102.362 240.808 102.352 240.796 102.34C240.784 102.328 240.774 102.314 240.767 102.299C240.76 102.283 240.757 102.266 240.757 102.249L240.757 102.246C240.751 100.239 240.67 98.2229 240.615 96.192C240.55 94.1606 240.519 92.1189 240.542 90.0993C240.565 88.0811 240.593 86.0641 240.655 84.0825C240.708 82.0959 240.769 80.1254 240.858 78.2098ZM235.764 112.167V108.74L230.403 108.265V111.629C227.147 111.717 224.722 112.609 224.594 113.926C224.434 115.578 227.95 117.271 232.448 117.707C236.946 118.143 240.722 117.158 240.883 115.506C241.009 114.208 238.867 112.886 235.764 112.167ZM185.607 117.417C188.267 115.723 190.959 114.079 193.659 112.451C193.691 112.433 193.728 112.426 193.764 112.431C196.263 112.815 198.752 113.255 201.24 113.701C203.728 114.154 206.224 114.554 208.724 114.929L216.223 116.059C218.72 116.454 221.22 116.829 223.713 117.247C223.762 117.255 223.807 117.282 223.836 117.323C223.865 117.363 223.877 117.414 223.869 117.463C223.861 117.511 223.835 117.554 223.796 117.583C221.945 118.972 220.081 120.344 218.203 121.698L215.397 123.742L212.574 125.762C212.57 125.765 212.565 125.766 212.56 125.766C212.556 125.765 212.551 125.762 212.549 125.759C212.546 125.755 212.544 125.75 212.545 125.745C212.546 125.741 212.548 125.736 212.552 125.733L215.288 123.596L218.042 121.483C219.875 120.07 221.718 118.67 223.57 117.282L223.653 117.618C221.155 117.229 218.665 116.795 216.171 116.382L208.698 115.089C206.207 114.656 203.713 114.248 201.209 113.892C198.707 113.531 196.206 113.163 193.714 112.739L193.819 112.719C191.104 114.322 188.38 115.911 185.625 117.448C185.621 117.451 185.616 117.451 185.612 117.45C185.607 117.449 185.603 117.446 185.601 117.442C185.598 117.438 185.598 117.433 185.599 117.428C185.6 117.424 185.603 117.42 185.607 117.417V117.417ZM188.832 120.754C190.362 121.145 191.88 121.574 193.397 122.009L197.933 123.357L202.445 124.785C203.945 125.276 205.443 125.772 206.929 126.307C205.398 125.917 203.88 125.487 202.363 125.052L197.827 123.704L193.315 122.275C191.815 121.784 190.318 121.288 188.832 120.754Z" fill="black"/>
<path d="M240.316 114.24C241.234 114.116 242.162 114.089 243.085 114.16C244.034 114.205 244.963 114.444 245.817 114.861C246.263 115.093 246.647 115.428 246.938 115.837C247.228 116.265 247.388 116.767 247.4 117.283C247.409 117.779 247.335 118.272 247.18 118.743C247.043 119.228 246.808 119.68 246.49 120.07C246.172 120.461 245.781 120.787 245.34 121.03C244.926 121.269 244.491 121.472 244.041 121.634C243.145 121.968 242.201 122.151 241.246 122.178C240.303 122.198 239.363 122.075 238.457 121.815C237.588 121.547 236.663 121.519 235.779 121.734C236.192 121.509 236.652 121.386 237.123 121.374C237.592 121.343 238.062 121.36 238.528 121.423C239.413 121.582 240.315 121.628 241.212 121.559C242.095 121.487 242.963 121.289 243.789 120.97C244.201 120.811 244.599 120.622 244.982 120.404C245.351 120.209 245.679 119.944 245.947 119.624C246.216 119.304 246.422 118.937 246.553 118.541C246.698 118.142 246.775 117.722 246.782 117.298C246.79 116.891 246.682 116.49 246.472 116.141C246.243 115.789 245.935 115.496 245.572 115.284C244.791 114.849 243.936 114.563 243.051 114.44C242.146 114.296 241.232 114.229 240.316 114.24Z" fill="black"/>
<path d="M236.574 124.195C236.574 124.195 236.418 129.295 233.705 132.359C233.813 132.111 233.866 131.842 233.859 131.572C233.852 131.301 233.786 131.036 233.665 130.794C234.1 129.749 233.054 127.658 233.054 127.658C233.665 126.264 232.095 124.87 232.095 124.87C232.095 124.87 233.054 122.867 230.526 122.17C230.526 122.17 237.435 118.947 236.574 124.195Z" fill="black"/>
<path d="M251.405 162.342C251.38 162.343 251.356 162.339 251.332 162.331L204.577 146.881C204.548 146.872 204.522 146.856 204.499 146.837C204.476 146.817 204.457 146.793 204.443 146.765C204.429 146.738 204.421 146.709 204.419 146.678C204.417 146.648 204.42 146.618 204.43 146.589C204.439 146.56 204.455 146.533 204.474 146.51C204.494 146.487 204.519 146.468 204.546 146.455C204.573 146.441 204.602 146.433 204.633 146.431C204.663 146.428 204.693 146.432 204.722 146.442L251.379 161.86L311.454 127.523V124.769L200.038 104.463L181.792 111.496C181.735 111.517 181.672 111.516 181.616 111.491C181.56 111.466 181.516 111.42 181.494 111.363C181.472 111.306 181.473 111.242 181.498 111.186C181.523 111.13 181.569 111.086 181.626 111.064L199.932 104.008C199.972 103.994 200.015 103.99 200.057 103.996L311.727 124.348C311.78 124.358 311.828 124.386 311.863 124.428C311.897 124.469 311.916 124.522 311.917 124.576V127.658C311.917 127.698 311.906 127.738 311.885 127.774C311.865 127.809 311.836 127.838 311.8 127.858L251.52 162.312C251.485 162.332 251.445 162.342 251.405 162.342Z" fill="black"/>
<path d="M251.274 159.418C251.255 159.418 251.237 159.415 251.219 159.41L201.53 143.7C201.507 143.693 201.486 143.681 201.468 143.666C201.45 143.651 201.435 143.632 201.424 143.611C201.402 143.568 201.397 143.518 201.412 143.473C201.426 143.427 201.458 143.389 201.501 143.366C201.544 143.344 201.594 143.34 201.639 143.355L251.253 159.04L311.595 124.419C311.615 124.407 311.638 124.399 311.662 124.396C311.686 124.393 311.71 124.395 311.733 124.401C311.756 124.407 311.777 124.418 311.796 124.432C311.815 124.447 311.831 124.465 311.843 124.486C311.855 124.506 311.862 124.529 311.865 124.553C311.868 124.577 311.867 124.601 311.86 124.624C311.854 124.647 311.843 124.668 311.829 124.687C311.814 124.706 311.796 124.722 311.775 124.734L251.364 159.395C251.337 159.41 251.305 159.418 251.274 159.418Z" fill="black"/>
<path d="M251.404 162.293C251.358 162.293 251.313 162.275 251.279 162.243C251.245 162.21 251.225 162.166 251.223 162.12L251.092 159.245C251.091 159.222 251.095 159.198 251.103 159.175C251.111 159.153 251.124 159.132 251.14 159.115C251.156 159.097 251.175 159.083 251.197 159.073C251.218 159.062 251.242 159.057 251.266 159.056C251.313 159.055 251.359 159.073 251.395 159.105C251.43 159.137 251.451 159.181 251.455 159.228L251.586 162.103C251.587 162.127 251.584 162.151 251.575 162.173C251.567 162.196 251.555 162.216 251.539 162.234C251.523 162.251 251.503 162.266 251.482 162.276C251.46 162.286 251.437 162.292 251.413 162.293H251.404Z" fill="black"/>
<path d="M251.421 161.266L251.784 183.463L252.057 205.66C252.155 213.059 252.357 220.458 252.238 227.857C252.173 231.557 252.107 235.256 251.963 238.956L251.745 244.505C251.635 246.354 251.56 248.204 251.421 250.054C251.419 250.077 251.409 250.098 251.392 250.114C251.375 250.13 251.353 250.138 251.33 250.138C251.307 250.138 251.285 250.13 251.268 250.114C251.251 250.098 251.241 250.077 251.239 250.054C251.1 248.204 251.025 246.354 250.916 244.505L250.697 238.956C250.553 235.256 250.488 231.557 250.422 227.857C250.303 220.458 250.506 213.059 250.604 205.66L250.876 183.463L251.239 161.266C251.24 161.243 251.25 161.22 251.267 161.203C251.284 161.187 251.306 161.177 251.33 161.177C251.354 161.177 251.377 161.187 251.394 161.203C251.411 161.22 251.421 161.243 251.421 161.266ZM307.068 130.794L307.432 152.99L307.704 175.187C307.802 182.586 308.005 189.985 307.886 197.384C307.82 201.084 307.755 204.783 307.611 208.483L307.392 214.032C307.283 215.882 307.208 217.731 307.068 219.581C307.067 219.604 307.056 219.625 307.039 219.641C307.023 219.657 307.001 219.665 306.978 219.665C306.955 219.665 306.933 219.657 306.916 219.641C306.899 219.625 306.889 219.604 306.887 219.581C306.747 217.731 306.672 215.882 306.563 214.032L306.345 208.483C306.201 204.783 306.135 201.084 306.07 197.384C305.951 189.985 306.153 182.586 306.251 175.187L306.524 152.99L306.887 130.794C306.887 130.77 306.897 130.747 306.914 130.73C306.931 130.713 306.954 130.704 306.978 130.704C307.001 130.704 307.024 130.713 307.041 130.73C307.058 130.747 307.068 130.77 307.068 130.794H307.068ZM214.53 191.774C214.53 191.774 218.684 192.12 232.954 201.912C235.289 203.544 238.146 204.255 240.974 203.907C241.728 203.823 242.466 203.634 243.166 203.345C243.166 203.345 254.02 206.148 244.343 207.977C244.343 207.977 230.483 208.369 220.153 200.79L220.283 204.972H215.053C215.053 204.972 212.699 194.126 214.53 191.774Z" fill="black"/>
<path d="M218.97 175.846C219.772 177.196 220.533 178.568 221.316 179.929L223.596 184.047C224.365 185.414 225.087 186.81 225.832 188.186C226.569 189.545 227.45 190.82 228.46 191.99C228.956 192.582 229.483 193.146 230.038 193.683C230.592 194.216 231.191 194.72 231.782 195.235C232.965 196.263 234.177 197.253 235.376 198.259C236.583 199.255 237.811 200.227 239.081 201.137C239.71 201.6 240.355 202.042 241.024 202.445L241.531 202.737L242.055 202.995C242.405 203.168 242.78 203.286 243.167 203.345C242.378 203.262 241.616 203.012 240.931 202.613C240.228 202.254 239.547 201.853 238.881 201.431C237.558 200.573 236.285 199.645 235.029 198.696C233.768 197.754 232.563 196.743 231.354 195.738C230.755 195.232 230.146 194.733 229.56 194.186C227.805 192.553 226.346 190.628 225.25 188.497C224.53 187.098 223.796 185.715 223.104 184.306L221.003 180.093C220.326 178.677 219.627 177.272 218.97 175.846ZM209.37 185.444C210.419 186.325 211.378 187.309 212.232 188.38C213.11 189.431 213.88 190.569 214.53 191.774C213.48 190.895 212.521 189.911 211.669 188.838C210.791 187.786 210.021 186.649 209.37 185.444ZM184.702 223.573C184.702 223.573 188.866 223.363 204.314 231.169C206.845 232.476 209.771 232.801 212.528 232.08C213.263 231.897 213.97 231.611 214.626 231.231C214.626 231.231 225.756 232.565 216.409 235.666C216.409 235.666 202.724 237.898 191.476 231.761L192.163 235.888L186.979 236.584C186.979 236.584 183.201 226.148 184.702 223.573Z" fill="black"/>
<path d="M193.467 210.672C193.81 211.95 194.108 213.237 194.429 214.519L194.874 216.449C194.997 217.081 195.194 217.695 195.46 218.281C195.728 218.855 196.07 219.391 196.477 219.876C196.895 220.363 197.352 220.837 197.819 221.286C198.752 222.192 199.763 223.013 200.84 223.742C203.029 225.191 205.261 226.61 207.51 227.975C208.636 228.656 209.778 229.314 210.949 229.91C211.527 230.221 212.121 230.502 212.729 230.752C213.326 231.029 213.969 231.191 214.626 231.231C213.958 231.27 213.29 231.168 212.664 230.933C212.03 230.732 211.406 230.498 210.796 230.232C209.581 229.694 208.4 229.087 207.232 228.46C204.897 227.197 202.657 225.796 200.432 224.341C199.324 223.582 198.288 222.723 197.337 221.774C196.865 221.295 196.416 220.805 195.987 220.279C195.555 219.741 195.205 219.142 194.95 218.502C194.7 217.87 194.524 217.212 194.426 216.54L194.082 214.589C193.878 213.283 193.65 211.982 193.467 210.672ZM184.35 213.863C184.665 215.459 184.845 217.079 184.889 218.705C184.965 220.33 184.903 221.959 184.702 223.573C184.386 221.978 184.205 220.358 184.163 218.731C184.089 217.106 184.151 215.478 184.35 213.863ZM172.32 84.6462C171.58 84.7186 170.833 84.5913 170.159 84.2775C169.807 84.1222 169.498 83.8831 169.26 83.5811C169.023 83.2776 168.915 82.893 168.96 82.5107C169.06 82.8387 169.234 83.1392 169.469 83.3889C169.704 83.6386 169.994 83.8308 170.316 83.9505C170.965 84.234 171.635 84.4666 172.32 84.6462ZM242.56 81.1886C242.785 81.1809 242.998 81.0861 243.155 80.9243C243.311 80.7625 243.399 80.5463 243.399 80.3214C243.399 80.0964 243.311 79.8803 243.155 79.7185C242.998 79.5567 242.785 79.4619 242.56 79.4541C242.335 79.4619 242.122 79.5567 241.966 79.7185C241.809 79.8803 241.722 80.0964 241.722 80.3214C241.722 80.5463 241.809 80.7625 241.966 80.9243C242.122 81.0861 242.335 81.1809 242.56 81.1886ZM242.699 85.976C242.924 85.9682 243.137 85.8734 243.294 85.7116C243.45 85.5498 243.537 85.3337 243.537 85.1087C243.537 84.8838 243.45 84.6676 243.294 84.5058C243.137 84.344 242.924 84.2492 242.699 84.2414C242.474 84.2492 242.261 84.344 242.105 84.5058C241.948 84.6676 241.861 84.8838 241.861 85.1087C241.861 85.3337 241.948 85.5498 242.105 85.7116C242.261 85.8734 242.474 85.9682 242.699 85.976ZM242.769 91.1102C242.994 91.1025 243.207 91.0077 243.363 90.8459C243.519 90.6841 243.607 90.4679 243.607 90.243C243.607 90.018 243.519 89.8019 243.363 89.6401C243.207 89.4783 242.994 89.3835 242.769 89.3757C242.544 89.3835 242.33 89.4783 242.174 89.6401C242.018 89.8019 241.93 90.018 241.93 90.243C241.93 90.4679 242.018 90.6841 242.174 90.8459C242.33 91.0077 242.544 91.1025 242.769 91.1102ZM242.769 96.7996C242.994 96.7918 243.207 96.697 243.363 96.5352C243.519 96.3734 243.607 96.1572 243.607 95.9323C243.607 95.7073 243.519 95.4912 243.363 95.3294C243.207 95.1676 242.994 95.0728 242.769 95.065C242.544 95.0728 242.33 95.1676 242.174 95.3294C242.018 95.4912 241.93 95.7073 241.93 95.9323C241.93 96.1572 242.018 96.3734 242.174 96.5352C242.33 96.697 242.544 96.7918 242.769 96.7996ZM242.907 101.379C243.132 101.371 243.346 101.276 243.502 101.114C243.658 100.953 243.746 100.736 243.746 100.511C243.746 100.287 243.658 100.07 243.502 99.9086C243.346 99.7468 243.132 99.652 242.907 99.6442C242.682 99.652 242.469 99.7468 242.313 99.9086C242.157 100.07 242.069 100.287 242.069 100.511C242.069 100.736 242.157 100.953 242.313 101.114C242.469 101.276 242.682 101.371 242.907 101.379ZM218.599 82.2233C218.725 82.2226 218.848 82.1865 218.954 82.1192C219.06 82.0519 219.145 81.956 219.2 81.8426C219.288 81.6448 219.348 81.4356 219.379 81.2211C219.406 81.1063 219.409 80.9872 219.388 80.8711C219.367 80.7551 219.323 80.6446 219.257 80.5467C219.177 80.4553 219.073 80.3874 218.957 80.35C218.842 80.3127 218.718 80.3073 218.599 80.3344C218.388 80.3772 218.197 80.4901 218.058 80.6549C217.941 80.8208 217.879 81.0189 217.88 81.2217C217.875 81.4337 217.917 81.6441 218.004 81.8376C218.057 81.9513 218.141 82.0479 218.246 82.1161C218.351 82.1843 218.474 82.2215 218.599 82.2233ZM218.599 82.2747C218.304 82.2929 218.01 82.2209 217.757 82.0681C217.624 81.9708 217.516 81.8433 217.442 81.6961C217.368 81.5489 217.33 81.3862 217.332 81.2215C217.329 81.0547 217.361 80.8892 217.425 80.7351C217.489 80.581 217.584 80.4417 217.704 80.3257C217.821 80.2128 217.963 80.1293 218.119 80.0819C218.274 80.0345 218.439 80.0247 218.599 80.0531C218.891 80.0984 219.163 80.2308 219.379 80.4331C219.61 80.637 219.762 80.9163 219.806 81.2213C219.825 81.3817 219.8 81.5441 219.735 81.6919C219.67 81.8397 219.567 81.9676 219.436 82.0623C219.185 82.2157 218.893 82.2897 218.599 82.2747Z" fill="black"/>
<path d="M220.262 84.9578C219.725 85.0478 219.184 85.1081 218.64 85.1385C218.349 85.1513 218.055 85.1664 217.757 85.1587C217.459 85.1519 217.161 85.1128 216.872 85.0858L216.842 85.083C216.825 85.0814 216.809 85.0765 216.794 85.0686C216.779 85.0606 216.765 85.0498 216.755 85.0367C216.744 85.0237 216.736 85.0086 216.731 84.9924C216.726 84.9761 216.724 84.9591 216.725 84.9422L216.726 84.9399C216.767 84.6268 216.79 84.3116 216.794 83.9959C216.774 83.6663 216.821 83.3361 216.932 83.0251C217.063 82.69 217.291 82.4016 217.586 82.1965C217.882 81.9915 218.232 81.8792 218.592 81.874C218.952 81.8687 219.305 81.9708 219.607 82.1671C219.908 82.3634 220.145 82.6451 220.285 82.9761C220.421 83.3046 220.461 83.6648 220.4 84.015C220.365 84.3607 220.307 84.6825 220.262 84.9578ZM220.226 84.9219L220.088 83.977C220.073 83.698 219.997 83.4258 219.864 83.1798C219.729 82.9495 219.539 82.7559 219.311 82.6158C219.083 82.4757 218.825 82.3935 218.558 82.3763C218.278 82.3692 218.001 82.435 217.754 82.5673C217.508 82.6996 217.299 82.8938 217.15 83.1308C216.994 83.391 216.924 83.6936 216.949 83.9959C216.953 84.3116 216.976 84.6268 217.018 84.9398L216.872 84.794C217.145 84.7669 217.409 84.7279 217.673 84.721C217.937 84.7134 218.205 84.7285 218.476 84.7412C219.019 84.7741 219.586 84.8397 220.226 84.9219ZM223.476 78.8111C223.527 79.8829 223.571 80.9117 223.595 81.9237C223.621 82.937 223.637 83.9335 223.598 84.9398L223.463 84.8047C224.327 84.8337 225.192 84.8767 226.056 84.8806C226.921 84.8892 227.785 84.8693 228.65 84.8405L228.55 84.9398C228.513 83.9162 228.485 82.8926 228.476 81.8691C228.456 80.8455 228.455 79.8219 228.465 78.7984L228.65 78.9831C227.808 78.9868 226.963 78.945 226.108 78.9242L223.476 78.8111ZM223.45 78.7854L226.004 78.6723C226.878 78.6516 227.762 78.6099 228.65 78.6135C228.699 78.614 228.745 78.6336 228.78 78.6682C228.815 78.7027 228.834 78.7495 228.835 78.7984C228.845 79.8219 228.843 80.8455 228.824 81.8691C228.814 82.8926 228.787 83.9162 228.749 84.9398L228.749 84.9467C228.749 84.9593 228.746 84.9717 228.74 84.9832C228.735 84.9946 228.728 85.005 228.719 85.0136C228.709 85.0221 228.698 85.0288 228.687 85.0332C228.675 85.0376 228.662 85.0397 228.65 85.0392C227.785 85.0105 226.921 84.9905 226.056 84.9992C225.192 85.0031 224.327 85.046 223.463 85.075C223.446 85.0756 223.429 85.0728 223.413 85.0668C223.397 85.0607 223.382 85.0516 223.369 85.0399C223.357 85.0282 223.347 85.0141 223.34 84.9985C223.333 84.9829 223.329 84.966 223.328 84.9489L223.328 84.9398C223.289 83.8989 223.305 82.8482 223.331 81.8144C223.354 80.7792 223.399 79.7609 223.45 78.7854Z" fill="black"/>
<path d="M226.035 82.2232C226.16 82.2225 226.283 82.1864 226.39 82.1191C226.496 82.0518 226.581 81.9559 226.635 81.8425C226.724 81.6447 226.784 81.4355 226.814 81.2209C226.841 81.1062 226.845 80.9871 226.824 80.871C226.803 80.755 226.758 80.6445 226.692 80.5466C226.612 80.4552 226.509 80.3873 226.393 80.3499C226.277 80.3125 226.153 80.3072 226.035 80.3343C225.823 80.3771 225.632 80.49 225.493 80.6548C225.377 80.8207 225.314 81.0188 225.316 81.2216C225.311 81.4336 225.353 81.644 225.44 81.8375C225.493 81.9512 225.576 82.0477 225.682 82.116C225.787 82.1842 225.909 82.2213 226.035 82.2232ZM226.035 82.2745C225.739 82.2928 225.445 82.2207 225.192 82.068C225.059 81.9707 224.951 81.8432 224.877 81.696C224.803 81.5488 224.766 81.3861 224.767 81.2214C224.765 81.0546 224.796 80.889 224.86 80.735C224.924 80.5809 225.019 80.4416 225.139 80.3256C225.256 80.2127 225.398 80.1292 225.554 80.0818C225.71 80.0344 225.874 80.0245 226.035 80.053C226.327 80.0983 226.599 80.2307 226.814 80.433C227.046 80.6368 227.197 80.9161 227.242 81.2212C227.26 81.3816 227.236 81.544 227.171 81.6918C227.105 81.8396 227.002 81.9674 226.871 82.0622C226.62 82.2156 226.329 82.2896 226.035 82.2745Z" fill="black"/>
<path d="M227.698 84.9578C227.161 85.0478 226.619 85.1081 226.076 85.1385C225.784 85.1513 225.49 85.1664 225.192 85.1587C224.894 85.1519 224.596 85.1128 224.307 85.0858L224.278 85.083C224.261 85.0814 224.244 85.0765 224.229 85.0686C224.214 85.0606 224.201 85.0498 224.19 85.0367C224.179 85.0237 224.171 85.0086 224.166 84.9924C224.161 84.9761 224.159 84.9591 224.161 84.9422L224.161 84.9399C224.202 84.6268 224.225 84.3116 224.23 83.9959C224.21 83.6663 224.256 83.3361 224.367 83.0251C224.498 82.69 224.726 82.4016 225.022 82.1965C225.318 81.9915 225.668 81.8792 226.028 81.8739C226.388 81.8687 226.741 81.9707 227.042 82.1671C227.344 82.3634 227.58 82.6451 227.721 82.9761C227.857 83.3046 227.897 83.6648 227.836 84.015C227.801 84.3607 227.743 84.6825 227.698 84.9578ZM227.662 84.9219L227.524 83.977C227.509 83.698 227.432 83.4258 227.3 83.1798C227.164 82.9495 226.974 82.7559 226.747 82.6158C226.519 82.4757 226.26 82.3935 225.994 82.3763C225.714 82.3692 225.437 82.435 225.19 82.5673C224.943 82.6996 224.735 82.8938 224.586 83.1308C224.43 83.391 224.359 83.6936 224.385 83.9959C224.389 84.3116 224.412 84.6268 224.453 84.9398L224.307 84.794C224.58 84.7669 224.844 84.7279 225.109 84.721C225.373 84.7134 225.641 84.7285 225.911 84.7412C226.455 84.7741 227.022 84.8397 227.662 84.9219ZM231.05 78.8111C231.1 79.8829 231.145 80.9117 231.169 81.9237C231.195 82.937 231.211 83.9335 231.172 84.9398L231.037 84.8047C231.901 84.8337 232.766 84.8767 233.63 84.8806C234.495 84.8892 235.359 84.8693 236.224 84.8405L236.124 84.9398C236.086 83.9162 236.059 82.8926 236.05 81.8691C236.03 80.8455 236.029 79.8219 236.039 78.7984L236.224 78.9831C235.382 78.9868 234.537 78.945 233.682 78.9242L231.05 78.8111ZM231.024 78.7854L233.578 78.6723C234.452 78.6516 235.336 78.6099 236.224 78.6135C236.272 78.614 236.319 78.6336 236.354 78.6682C236.388 78.7027 236.408 78.7495 236.409 78.7984C236.419 79.8219 236.417 80.8455 236.398 81.8691C236.388 82.8926 236.361 83.9162 236.323 84.9398L236.323 84.9467C236.322 84.9593 236.319 84.9717 236.314 84.9832C236.309 84.9946 236.302 85.005 236.292 85.0136C236.283 85.0221 236.272 85.0288 236.261 85.0332C236.249 85.0376 236.236 85.0397 236.224 85.0392C235.359 85.0105 234.495 84.9905 233.63 84.9992C232.766 85.0031 231.901 85.046 231.037 85.075C231.02 85.0756 231.003 85.0728 230.987 85.0668C230.97 85.0607 230.956 85.0516 230.943 85.0399C230.931 85.0282 230.921 85.0141 230.913 84.9985C230.906 84.9829 230.902 84.966 230.902 84.9489L230.902 84.9398C230.863 83.8989 230.879 82.8482 230.905 81.8144C230.928 80.7792 230.973 79.7609 231.024 78.7854Z" fill="black"/>
<path d="M233.609 82.2232C233.734 82.2225 233.857 82.1864 233.964 82.1191C234.07 82.0518 234.155 81.9559 234.209 81.8425C234.298 81.6447 234.358 81.4355 234.388 81.2209C234.415 81.1062 234.419 80.9871 234.398 80.871C234.377 80.755 234.332 80.6445 234.266 80.5466C234.186 80.4552 234.083 80.3873 233.967 80.3499C233.851 80.3125 233.727 80.3072 233.609 80.3343C233.397 80.3771 233.206 80.49 233.067 80.6548C232.951 80.8207 232.888 81.0188 232.89 81.2216C232.885 81.4336 232.927 81.644 233.014 81.8375C233.067 81.9512 233.15 82.0477 233.256 82.1159C233.361 82.1842 233.483 82.2213 233.609 82.2232ZM233.609 82.2745C233.313 82.2928 233.019 82.2207 232.766 82.068C232.633 81.9707 232.525 81.8432 232.451 81.696C232.377 81.5488 232.34 81.3861 232.341 81.2214C232.339 81.0546 232.37 80.8891 232.434 80.735C232.498 80.5809 232.593 80.4416 232.713 80.3256C232.83 80.2127 232.972 80.1292 233.128 80.0818C233.284 80.0344 233.448 80.0245 233.609 80.053C233.901 80.0983 234.173 80.2307 234.388 80.433C234.62 80.6368 234.771 80.9161 234.816 81.2212C234.834 81.3816 234.81 81.544 234.745 81.6918C234.679 81.8396 234.576 81.9674 234.445 82.0622C234.194 82.2156 233.903 82.2896 233.609 82.2745Z" fill="black"/>
<path d="M235.272 84.9581C234.735 85.0481 234.193 85.1084 233.65 85.1388C233.358 85.1516 233.064 85.1667 232.766 85.159C232.468 85.1521 232.17 85.1131 231.881 85.0861L231.852 85.0833C231.835 85.0817 231.818 85.0768 231.803 85.0688C231.788 85.0609 231.775 85.0501 231.764 85.037C231.753 85.0239 231.745 85.0089 231.74 84.9926C231.735 84.9764 231.733 84.9594 231.735 84.9425L231.735 84.9401C231.776 84.6271 231.799 84.3119 231.804 83.9962C231.783 83.6666 231.83 83.3363 231.941 83.0253C232.072 82.6903 232.3 82.4018 232.596 82.1968C232.892 81.9918 233.242 81.8795 233.602 81.8742C233.962 81.869 234.315 81.971 234.616 82.1673C234.918 82.3637 235.154 82.6453 235.295 82.9764C235.431 83.3049 235.471 83.6651 235.41 84.0153C235.375 84.3609 235.317 84.6828 235.272 84.9581ZM235.236 84.9222L235.098 83.9773C235.083 83.6983 235.006 83.4261 234.874 83.1801C234.738 82.9498 234.548 82.7562 234.321 82.6161C234.093 82.476 233.834 82.3938 233.567 82.3766C233.288 82.3695 233.011 82.4353 232.764 82.5676C232.517 82.6999 232.309 82.8941 232.16 83.131C232.004 83.3913 231.933 83.6939 231.958 83.9962C231.963 84.3119 231.986 84.6271 232.027 84.9401L231.881 84.7943C232.154 84.7672 232.418 84.7282 232.683 84.7213C232.947 84.7136 233.215 84.7287 233.485 84.7415C234.029 84.7743 234.596 84.84 235.236 84.9222ZM227.693 86.438C227.744 87.5098 227.789 88.5386 227.812 89.5505C227.838 90.5639 227.854 91.5604 227.815 92.5667L227.68 92.4316C228.545 92.4606 229.409 92.5036 230.273 92.5075C231.138 92.5161 232.002 92.4961 232.867 92.4674L232.767 92.5667C232.73 91.5431 232.702 90.5195 232.693 89.496C232.673 88.4724 232.672 87.4488 232.682 86.4253L232.867 86.61C232.026 86.6137 231.18 86.5719 230.326 86.5512L227.693 86.438ZM227.667 86.4123L230.221 86.2992C231.095 86.2785 231.979 86.2367 232.867 86.2404C232.916 86.2409 232.962 86.2605 232.997 86.2951C233.032 86.3296 233.051 86.3764 233.052 86.4252C233.062 87.4488 233.061 88.4724 233.041 89.496C233.031 90.5195 233.004 91.5431 232.966 92.5667L232.966 92.5737C232.966 92.5863 232.963 92.5986 232.957 92.6101C232.952 92.6215 232.945 92.6319 232.936 92.6404C232.926 92.649 232.916 92.6557 232.904 92.6601C232.892 92.6645 232.879 92.6665 232.867 92.6661C232.002 92.6373 231.138 92.6174 230.273 92.626C229.409 92.6299 228.545 92.6729 227.68 92.7019C227.645 92.7031 227.612 92.6904 227.586 92.6668C227.561 92.6431 227.546 92.6104 227.545 92.5758L227.545 92.5667C227.506 91.5258 227.522 90.4751 227.548 89.4413C227.571 88.4061 227.616 87.3878 227.667 86.4123Z" fill="black"/>
<path d="M230.252 89.8491C230.377 89.8484 230.5 89.8124 230.607 89.7451C230.713 89.6777 230.798 89.5819 230.852 89.4685C230.941 89.2707 231.001 89.0615 231.031 88.8469C231.058 88.7322 231.062 88.6131 231.041 88.497C231.02 88.3809 230.975 88.2705 230.909 88.1725C230.829 88.0812 230.726 88.0132 230.61 87.9759C230.494 87.9385 230.37 87.9331 230.252 87.9603C230.04 88.003 229.849 88.116 229.71 88.2807C229.594 88.4467 229.532 88.6448 229.533 88.8476C229.528 89.0596 229.57 89.27 229.657 89.4635C229.71 89.5772 229.793 89.6737 229.899 89.7419C230.004 89.8102 230.126 89.8473 230.252 89.8491ZM230.252 89.9005C229.956 89.9188 229.663 89.8467 229.409 89.6939C229.276 89.5967 229.168 89.4692 229.094 89.322C229.02 89.1747 228.983 89.012 228.984 88.8473C228.982 88.6806 229.013 88.515 229.077 88.361C229.141 88.2069 229.236 88.0676 229.356 87.9515C229.473 87.8387 229.616 87.7551 229.771 87.7078C229.927 87.6604 230.092 87.6505 230.252 87.679C230.544 87.7242 230.816 87.8567 231.031 88.059C231.263 88.2628 231.414 88.5421 231.459 88.8471C231.477 89.0076 231.453 89.17 231.388 89.3178C231.323 89.4656 231.219 89.5934 231.088 89.6881C230.837 89.8415 230.546 89.9156 230.252 89.9005V89.9005Z" fill="black"/>
<path d="M231.915 92.5838C231.378 92.6738 230.837 92.7341 230.293 92.7645C230.001 92.7774 229.707 92.7924 229.409 92.7847C229.111 92.7778 228.813 92.7388 228.524 92.7118L228.495 92.709C228.478 92.7074 228.461 92.7025 228.446 92.6946C228.431 92.6866 228.418 92.6758 228.407 92.6627C228.396 92.6497 228.388 92.6346 228.383 92.6184C228.378 92.6021 228.376 92.5851 228.378 92.5682L228.378 92.5658C228.42 92.2528 228.442 91.9376 228.447 91.6219C228.427 91.2923 228.473 90.9621 228.585 90.6511C228.715 90.3161 228.943 90.0276 229.239 89.8226C229.535 89.6175 229.885 89.5052 230.245 89.4999C230.605 89.4947 230.958 89.5967 231.26 89.793C231.561 89.9894 231.797 90.2711 231.938 90.6021C232.074 90.9306 232.114 91.2908 232.053 91.641C232.018 91.9866 231.96 92.3085 231.915 92.5838ZM231.879 92.5479L231.741 91.603C231.726 91.324 231.65 91.0518 231.517 90.8058C231.381 90.5755 231.191 90.3819 230.964 90.2418C230.736 90.1017 230.477 90.0195 230.211 90.0022C229.931 89.9952 229.654 90.061 229.407 90.1933C229.16 90.3256 228.952 90.5197 228.803 90.7567C228.647 91.017 228.576 91.3195 228.602 91.6219C228.606 91.9376 228.629 92.2528 228.67 92.5658L228.524 92.42C228.797 92.3929 229.062 92.3539 229.326 92.347C229.59 92.3393 229.858 92.3544 230.128 92.3672C230.672 92.4 231.239 92.4657 231.879 92.5479ZM219.605 86.4371C219.656 87.5089 219.701 88.5377 219.724 89.5496C219.75 90.563 219.766 91.5595 219.728 92.5658L219.593 92.4307C220.457 92.4597 221.321 92.5027 222.186 92.5066C223.05 92.5152 223.915 92.4952 224.779 92.4665L224.68 92.5658C224.642 91.5422 224.615 90.5186 224.605 89.4951C224.586 88.4715 224.584 87.4479 224.594 86.4244L224.779 86.6091C223.938 86.6128 223.093 86.571 222.238 86.5503L219.605 86.4371ZM219.58 86.4114L222.134 86.2983C223.008 86.2776 223.892 86.2358 224.779 86.2395C224.828 86.24 224.875 86.2596 224.91 86.2942C224.944 86.3287 224.964 86.3755 224.964 86.4243C224.974 87.4479 224.973 88.4715 224.953 89.4951C224.944 90.5186 224.917 91.5422 224.879 92.5658L224.878 92.5728C224.878 92.5853 224.875 92.5977 224.87 92.6092C224.865 92.6206 224.857 92.631 224.848 92.6395C224.839 92.6481 224.828 92.6548 224.816 92.6592C224.804 92.6636 224.792 92.6656 224.779 92.6652C223.915 92.6364 223.05 92.6164 222.186 92.6251C221.321 92.629 220.457 92.672 219.593 92.701C219.575 92.7016 219.558 92.6988 219.542 92.6928C219.526 92.6867 219.511 92.6776 219.499 92.6659C219.486 92.6542 219.476 92.6401 219.469 92.6245C219.462 92.6089 219.458 92.592 219.458 92.5749L219.457 92.5658C219.419 91.5249 219.435 90.4742 219.461 89.4404C219.484 88.4052 219.529 87.3869 219.58 86.4114ZM216.04 94.382C216.091 95.4537 216.136 96.4825 216.159 97.4945C216.185 98.5079 216.201 99.5044 216.163 100.511L216.027 100.376C216.892 100.405 217.756 100.448 218.621 100.451C219.485 100.46 220.35 100.44 221.214 100.411L221.115 100.511C221.077 99.4871 221.05 98.4635 221.04 97.44C221.02 96.4164 221.019 95.3928 221.029 94.3692L221.214 94.5539C220.373 94.5576 219.528 94.5158 218.673 94.4951L216.04 94.382ZM216.015 94.3563L218.569 94.2431C219.443 94.2224 220.327 94.1807 221.214 94.1843C221.263 94.1848 221.31 94.2045 221.344 94.239C221.379 94.2736 221.399 94.3203 221.399 94.3692C221.409 95.3927 221.408 96.4163 221.388 97.4399C221.379 98.4635 221.351 99.4871 221.314 100.511L221.313 100.518C221.313 100.53 221.31 100.543 221.305 100.554C221.3 100.565 221.292 100.576 221.283 100.584C221.274 100.593 221.263 100.6 221.251 100.604C221.239 100.608 221.227 100.61 221.214 100.61C220.35 100.581 219.485 100.561 218.621 100.57C217.756 100.574 216.892 100.617 216.027 100.646C216.01 100.646 215.993 100.644 215.977 100.638C215.961 100.632 215.946 100.622 215.934 100.611C215.921 100.599 215.911 100.585 215.904 100.569C215.897 100.554 215.893 100.537 215.893 100.52L215.892 100.511C215.854 99.4697 215.87 98.4191 215.896 97.3853C215.919 96.35 215.964 95.3317 216.015 94.3563L216.015 94.3563Z" fill="black"/>
<path d="M218.599 97.7944C218.725 97.7938 218.848 97.7577 218.954 97.6903C219.06 97.623 219.145 97.5272 219.2 97.4137C219.288 97.216 219.348 97.0067 219.378 96.7922C219.406 96.6775 219.409 96.5584 219.388 96.4423C219.367 96.3262 219.323 96.2157 219.257 96.1178C219.177 96.0265 219.073 95.9585 218.957 95.9212C218.841 95.8838 218.718 95.8784 218.599 95.9056C218.388 95.9483 218.197 96.0612 218.058 96.226C217.941 96.392 217.879 96.5901 217.88 96.7928C217.875 97.0048 217.917 97.2153 218.004 97.4088C218.057 97.5225 218.141 97.619 218.246 97.6872C218.351 97.7555 218.474 97.7926 218.599 97.7944ZM218.599 97.8458C218.304 97.8641 218.01 97.792 217.757 97.6392C217.624 97.542 217.516 97.4145 217.442 97.2673C217.368 97.12 217.33 96.9574 217.332 96.7927C217.329 96.6259 217.361 96.4603 217.425 96.3063C217.489 96.1522 217.584 96.0129 217.704 95.8969C217.821 95.784 217.963 95.7004 218.119 95.6531C218.274 95.6057 218.439 95.5958 218.599 95.6243C218.891 95.6695 219.163 95.802 219.379 96.0043C219.61 96.2081 219.762 96.4874 219.806 96.7923C219.825 96.9528 219.8 97.1152 219.735 97.2631C219.67 97.4109 219.567 97.5387 219.436 97.6334C219.185 97.7868 218.893 97.8609 218.599 97.8458Z" fill="black"/>
<path d="M220.262 100.529C219.725 100.619 219.184 100.679 218.64 100.71C218.349 100.723 218.055 100.738 217.757 100.73C217.459 100.723 217.161 100.684 216.872 100.657L216.842 100.654C216.825 100.653 216.809 100.648 216.794 100.64C216.779 100.632 216.765 100.621 216.755 100.608C216.744 100.595 216.736 100.58 216.731 100.564C216.726 100.547 216.724 100.53 216.725 100.513L216.726 100.511C216.767 100.198 216.79 99.8829 216.794 99.5672C216.774 99.2376 216.821 98.9073 216.932 98.5963C217.063 98.2613 217.291 97.9728 217.586 97.7678C217.882 97.5628 218.232 97.4505 218.592 97.4452C218.952 97.44 219.305 97.542 219.607 97.7383C219.908 97.9347 220.145 98.2163 220.285 98.5474C220.421 98.8759 220.461 99.2361 220.4 99.5863C220.365 99.9319 220.307 100.254 220.262 100.529ZM220.226 100.493L220.088 99.5482C220.073 99.2693 219.997 98.997 219.864 98.7511C219.729 98.5208 219.539 98.3271 219.311 98.1871C219.083 98.047 218.825 97.9648 218.558 97.9476C218.278 97.9405 218.001 98.0063 217.754 98.1386C217.508 98.2709 217.299 98.4651 217.15 98.702C216.994 98.9623 216.924 99.2648 216.949 99.5672C216.953 99.8829 216.976 100.198 217.018 100.511L216.872 100.365C217.145 100.338 217.409 100.299 217.673 100.292C217.937 100.285 218.205 100.3 218.476 100.313C219.019 100.345 219.586 100.411 220.226 100.493ZM223.476 94.3824C223.527 95.4542 223.571 96.483 223.595 97.4949C223.621 98.5083 223.637 99.5048 223.598 100.511L223.463 100.376C224.327 100.405 225.192 100.448 226.056 100.452C226.921 100.461 227.785 100.441 228.65 100.412L228.55 100.511C228.513 99.4875 228.485 98.4639 228.476 97.4404C228.456 96.4168 228.455 95.3932 228.465 94.3697L228.65 94.5544C227.808 94.5581 226.963 94.5163 226.108 94.4955L223.476 94.3824ZM223.45 94.3567L226.004 94.2436C226.878 94.2228 227.762 94.1811 228.65 94.1848C228.699 94.1853 228.745 94.2049 228.78 94.2395C228.814 94.274 228.834 94.3208 228.835 94.3696C228.845 95.3932 228.843 96.4168 228.824 97.4404C228.814 98.4639 228.787 99.4875 228.749 100.511L228.749 100.518C228.748 100.531 228.746 100.543 228.74 100.554C228.735 100.566 228.728 100.576 228.718 100.585C228.709 100.593 228.698 100.6 228.687 100.605C228.675 100.609 228.662 100.611 228.65 100.61C227.785 100.582 226.921 100.562 226.056 100.57C225.192 100.574 224.327 100.617 223.463 100.646C223.446 100.647 223.429 100.644 223.413 100.638C223.397 100.632 223.382 100.623 223.369 100.611C223.357 100.599 223.347 100.585 223.34 100.57C223.332 100.554 223.329 100.537 223.328 100.52L223.328 100.511C223.289 99.4701 223.305 98.4195 223.331 97.3857C223.354 96.3505 223.399 95.3321 223.45 94.3567V94.3567ZM230.987 94.3824C231.038 95.4542 231.083 96.483 231.106 97.4949C231.132 98.5083 231.148 99.5048 231.109 100.511L230.974 100.376C231.838 100.405 232.703 100.448 233.567 100.452C234.432 100.461 235.296 100.441 236.161 100.412L236.061 100.511C236.024 99.4875 235.996 98.4639 235.987 97.4404C235.967 96.4168 235.966 95.3932 235.976 94.3697L236.161 94.5544C235.319 94.5581 234.474 94.5163 233.62 94.4955L230.987 94.3824ZM230.961 94.3567L233.515 94.2436C234.389 94.2228 235.273 94.1811 236.161 94.1848C236.21 94.1853 236.256 94.2049 236.291 94.2395C236.326 94.274 236.345 94.3208 236.346 94.3696C236.356 95.3932 236.355 96.4168 236.335 97.4404C236.325 98.4639 236.298 99.4875 236.26 100.511L236.26 100.518C236.26 100.531 236.257 100.543 236.251 100.554C236.246 100.566 236.239 100.576 236.23 100.585C236.22 100.593 236.209 100.6 236.198 100.605C236.186 100.609 236.173 100.611 236.161 100.61C235.296 100.582 234.432 100.562 233.567 100.57C232.703 100.574 231.838 100.617 230.974 100.646C230.957 100.647 230.94 100.644 230.924 100.638C230.908 100.632 230.893 100.623 230.88 100.611C230.868 100.599 230.858 100.585 230.851 100.57C230.844 100.554 230.84 100.537 230.839 100.52L230.839 100.511C230.8 99.4701 230.816 98.4195 230.842 97.3857C230.865 96.3505 230.91 95.3321 230.961 94.3567V94.3567Z" fill="black"/>
<path d="M233.546 97.7944C233.672 97.7938 233.795 97.7577 233.901 97.6904C234.007 97.623 234.092 97.5272 234.146 97.4137C234.235 97.216 234.295 97.0067 234.325 96.7922C234.353 96.6775 234.356 96.5583 234.335 96.4423C234.314 96.3262 234.269 96.2157 234.204 96.1178C234.123 96.0265 234.02 95.9585 233.904 95.9211C233.788 95.8838 233.664 95.8784 233.546 95.9056C233.334 95.9483 233.144 96.0612 233.004 96.226C232.888 96.3919 232.826 96.59 232.827 96.7928C232.822 97.0048 232.864 97.2153 232.951 97.4088C233.004 97.5225 233.088 97.619 233.193 97.6872C233.298 97.7554 233.42 97.7926 233.546 97.7944ZM233.546 97.8458C233.251 97.8641 232.957 97.792 232.703 97.6392C232.57 97.542 232.462 97.4145 232.389 97.2673C232.315 97.12 232.277 96.9573 232.278 96.7926C232.276 96.6259 232.308 96.4603 232.372 96.3063C232.436 96.1522 232.53 96.0129 232.65 95.8969C232.767 95.784 232.91 95.7004 233.065 95.6531C233.221 95.6057 233.386 95.5958 233.546 95.6243C233.838 95.6695 234.11 95.802 234.326 96.0043C234.557 96.2081 234.708 96.4874 234.753 96.7923C234.772 96.9528 234.747 97.1152 234.682 97.263C234.617 97.4108 234.513 97.5387 234.383 97.6334C234.131 97.7868 233.84 97.8609 233.546 97.8458Z" fill="black"/>
<path d="M235.209 100.529C234.672 100.619 234.131 100.68 233.587 100.71C233.296 100.723 233.001 100.738 232.703 100.73C232.405 100.723 232.107 100.684 231.819 100.657L231.789 100.655C231.772 100.653 231.756 100.648 231.741 100.64C231.726 100.632 231.712 100.621 231.701 100.608C231.691 100.595 231.682 100.58 231.677 100.564C231.672 100.548 231.671 100.531 231.672 100.514L231.672 100.511C231.714 100.198 231.737 99.8832 231.741 99.5675C231.721 99.2379 231.768 98.9076 231.879 98.5966C232.01 98.2616 232.238 97.9731 232.533 97.7681C232.829 97.5631 233.179 97.4508 233.539 97.4455C233.899 97.4403 234.252 97.5423 234.554 97.7386C234.855 97.9349 235.092 98.2166 235.232 98.5477C235.368 98.8761 235.408 99.2363 235.347 99.5865C235.312 99.9322 235.254 100.254 235.209 100.529ZM235.173 100.493L235.035 99.5485C235.02 99.2695 234.944 98.9973 234.811 98.7514C234.676 98.5211 234.486 98.3274 234.258 98.1874C234.03 98.0473 233.772 97.9651 233.505 97.9478C233.225 97.9408 232.948 98.0066 232.701 98.1389C232.454 98.2712 232.246 98.4653 232.097 98.7023C231.941 98.9625 231.871 99.2651 231.896 99.5675C231.9 99.8832 231.923 100.198 231.964 100.511L231.818 100.366C232.092 100.338 232.356 100.299 232.62 100.293C232.884 100.285 233.152 100.3 233.423 100.313C233.966 100.346 234.533 100.411 235.173 100.493Z" fill="black"/>
<path d="M193.976 114.914L193.876 115.483L194.446 115.583L194.546 115.014L193.976 114.914Z" fill="black"/>
<path d="M214.868 119.153L213.734 118.955L213.833 118.386L214.968 118.584L214.868 119.153ZM212.599 118.757L211.464 118.559L211.564 117.99L212.698 118.188L212.599 118.757ZM210.33 118.361L209.195 118.162L209.295 117.593L210.429 117.791L210.33 118.361ZM208.06 117.964L206.926 117.765L207.026 117.196L208.16 117.395L208.06 117.964ZM205.791 117.567L204.657 117.369L204.756 116.8L205.891 116.998L205.791 117.567ZM203.522 117.171L202.388 116.973L202.487 116.404L203.622 116.602L203.522 117.171ZM201.253 116.775L200.118 116.576L200.218 116.007L201.352 116.205L201.253 116.775ZM198.984 116.378L197.849 116.179L197.949 115.61L199.083 115.808L198.984 116.378ZM196.715 115.981L195.58 115.783L195.68 115.214L196.814 115.412L196.715 115.981Z" fill="black"/>
<path d="M216.103 118.781L216.003 119.35L216.573 119.45L216.673 118.881L216.103 118.781Z" fill="black"/>
<path d="M192.112 116.9L191.99 117.466L192.556 117.587L192.677 117.021L192.112 116.9Z" fill="black"/>
<path d="M212.401 121.812L211.298 121.577L211.419 121.011L212.521 121.246L212.401 121.812ZM210.196 121.343L209.094 121.108L209.214 120.542L210.316 120.777L210.196 121.343ZM207.991 120.873L206.889 120.639L207.009 120.073L208.112 120.307L207.991 120.873ZM205.786 120.404L204.684 120.169L204.805 119.603L205.907 119.838L205.786 120.404ZM203.581 119.934L202.479 119.7L202.599 119.134L203.702 119.368L203.581 119.934ZM201.377 119.465L200.274 119.23L200.394 118.664L201.497 118.899L201.377 119.465ZM199.171 118.995L198.069 118.761L198.19 118.195L199.292 118.43L199.171 118.995ZM196.966 118.526L195.864 118.291L195.985 117.725L197.087 117.96L196.966 118.526ZM194.762 118.057L193.659 117.822L193.78 117.256L194.882 117.491L194.762 118.057Z" fill="black"/>
<path d="M213.625 121.479L213.504 122.045L214.07 122.166L214.191 121.6L213.625 121.479Z" fill="black"/>
<path d="M193.894 120.232C194.882 120.289 195.861 120.454 196.813 120.724C197.772 120.97 198.701 121.322 199.581 121.774C198.593 121.719 197.614 121.554 196.662 121.282C195.703 121.035 194.775 120.683 193.894 120.232Z" fill="black"/>
</svg>
