<svg width="439" height="347" viewBox="0 0 439 347" fill="none" xmlns="http://www.w3.org/2000/svg">
<path d="M203.972 279.323C203.088 276.402 202.197 273.487 201.351 270.56C200.504 267.633 199.676 264.699 198.88 261.759C198.077 258.813 197.318 255.86 196.584 252.901L196.233 251.494C195.964 251.75 195.677 251.986 195.374 252.201L195.669 253.16C196.572 256.074 197.456 258.989 198.296 261.923C199.143 264.85 199.96 267.786 200.749 270.73C201.495 273.462 202.191 276.213 202.893 278.957C199.018 278.875 195.142 278.749 191.266 278.699L185.139 278.598L179.018 278.541L166.77 278.446L160.649 278.44L155.337 278.478C154.942 275.885 154.497 273.298 154.07 270.692L152.596 262.03L149.442 244.289L154.961 244.649L157.67 244.8L160.442 244.92C164.13 245.071 167.821 245.185 171.517 245.261C175.211 245.349 178.905 245.362 182.599 245.368C183.276 245.362 183.954 245.355 184.625 245.349C184.647 244.762 184.776 244.185 185.007 243.646L182.586 243.664L171.524 243.746L160.455 243.866L157.683 243.91L154.86 243.98L149.304 244.163L151.298 261.645L152.402 270.592C152.785 273.588 153.148 276.592 153.575 279.588L153.694 280.409L154.522 280.415L160.649 280.465L166.77 280.459L179.018 280.358L185.139 280.301L191.266 280.2C195.349 280.15 199.431 280.011 203.514 279.929L204.154 279.916L203.972 279.323Z" fill="black"/>
<path d="M186.136 262.371C184.443 261.532 182.856 263.217 181.156 262.201C180.059 261.538 179.701 260.226 179.444 259.261C178.629 256.258 180.147 254.592 179.187 253.564C178.272 252.592 175.782 252.895 174.296 254.081C172.489 255.519 173.016 257.551 171.461 258.226C170.708 258.554 170.069 258.308 167.667 257.444C162.16 255.469 161.696 255.381 161.42 255.639C160.248 256.712 161.96 261.337 164.336 264.245C165.666 265.873 160.291 267.318 160.385 268.592C160.492 269.999 163.107 271.538 165.365 271.179C168.764 270.642 170.439 265.98 171.204 266.346C171.894 266.668 169.88 270.15 171.373 272.907C172.389 274.775 174.829 275.986 176.008 275.324C176.835 274.863 176.917 273.557 177.042 271.008C177.205 267.646 176.691 265.671 177.212 265.482C177.67 265.311 178.159 266.832 179.614 267.898C182.078 269.702 186.682 269.746 187.854 267.551C188.701 265.967 187.785 263.191 186.136 262.371ZM173.436 264.094C171.009 264.094 171.016 260.308 173.436 260.308C175.857 260.308 175.857 264.094 173.436 264.094V264.094Z" fill="#FD1A5A"/>
<path d="M170.85 258.604C170.429 257.751 170.099 256.855 169.865 255.932C169.625 255.024 169.496 254.089 169.482 253.149C169.48 252.212 169.647 251.282 169.975 250.404C170.328 249.557 170.856 248.796 171.523 248.17C170.96 248.857 170.548 249.657 170.315 250.516C170.121 251.364 170.08 252.24 170.195 253.102C170.323 253.958 170.555 254.795 170.885 255.595C171.201 256.386 171.599 257.142 172.07 257.851L170.85 258.604ZM236.966 185.489C228.437 198.492 220.51 212.441 219.055 215.015C217.868 211.735 217.015 208.343 216.509 204.889C216.509 204.889 216.458 204.978 216.364 205.142C216.278 204.653 216.219 204.16 216.189 203.665C216.12 202.921 216.095 202.17 216.095 201.426C216.103 199.931 216.187 198.438 216.346 196.953C216.514 195.44 216.56 193.917 216.483 192.397C216.446 190.875 216.158 189.37 215.631 187.943C215.799 188.675 215.902 189.42 215.938 190.17C215.998 190.915 216.021 191.663 216.007 192.41C215.982 193.905 215.888 195.396 215.725 196.883C215.559 198.396 215.521 199.919 215.612 201.438C215.674 202.738 215.9 204.025 216.283 205.268C214.124 208.725 211.621 211.953 208.814 214.902C206.323 217.523 203.441 219.736 200.272 221.463C194.628 224.567 184.819 229.962 182.674 231.148C182.855 230.392 182.943 229.616 182.938 228.839C182.938 226.012 184.581 222.643 185.327 219.955V219.949L189.272 220.694C191.787 220.706 194.308 220.725 196.841 220.517C194.483 219.583 192.131 218.732 189.786 217.861L185.628 217.078C185.577 216.787 185.464 216.51 185.298 216.266C185.131 216.023 184.914 215.818 184.662 215.665C182.718 214.46 181.301 214.46 180.335 216.075L178.805 215.779C177.782 210.687 175.625 208.984 174.132 208.422C173.632 208.217 173.092 208.127 172.552 208.157C172.552 208.157 172.571 208.145 172.602 208.12C173.518 207.4 187.484 196.353 195.104 184.486C202.987 172.202 210.996 164.656 219.513 164.461C219.513 164.461 228.343 164.398 232.664 164.776C233.912 166.871 235.68 180.032 236.966 185.489ZM238.471 234.529C238.649 234.581 238.829 234.623 239.01 234.656H227.578L238.471 234.529ZM248.668 169.193C248.982 167.344 249.283 165.331 249.565 163.136C249.565 163.136 251.992 162.719 255.705 162.341C253.773 163.502 251.346 165.95 248.668 169.193ZM299.241 234.656H241.293C249.427 233.11 259.261 216.309 267.238 199.426C267.282 200.805 267.408 202.181 267.614 203.546C267.803 204.927 268.148 206.284 268.405 207.621C268.639 208.968 268.804 210.327 268.9 211.691C268.986 213.055 268.971 214.423 268.856 215.785C268.759 217.14 268.502 218.479 268.091 219.772L268.085 219.791L268.079 219.823C267.919 220.987 267.862 222.163 267.909 223.337C267.953 224.505 268.091 225.668 268.323 226.813C268.554 227.959 268.914 229.074 269.396 230.138C269.872 231.198 270.483 232.19 271.214 233.091C270.549 232.151 269.998 231.134 269.571 230.063C269.155 228.993 268.848 227.883 268.655 226.75C268.271 224.497 268.254 222.195 268.605 219.937C268.599 219.949 268.599 219.955 268.593 219.968L268.605 219.918C269.038 218.596 269.315 217.228 269.433 215.842C269.561 214.449 269.588 213.049 269.515 211.653C269.427 210.261 269.251 208.877 268.988 207.508C268.712 206.132 268.367 204.807 268.166 203.457C267.911 201.804 267.75 200.138 267.683 198.467C275.924 180.864 282.064 163.47 282.064 163.47C286.372 164.688 289.953 166.681 291.866 169.83C292.231 170.436 292.627 171.024 293.051 171.59C295.892 175.293 304.635 186.315 299.241 234.656Z" fill="#FD1A5A"/>
<path d="M236.852 185.612C236.278 183.553 235.853 181.461 235.399 179.378L234.134 173.115L233.467 170C233.241 168.967 233.008 167.931 232.72 166.935C232.648 166.685 232.579 166.433 232.491 166.202C232.422 165.975 232.334 165.755 232.228 165.543C232.01 165.119 231.733 164.727 231.407 164.38C231.09 164.032 230.725 163.732 230.323 163.489C230.126 163.373 229.92 163.275 229.706 163.195C229.517 163.123 229.319 163.073 229.118 163.044L229.433 162.982C228.676 163.33 227.877 163.578 227.056 163.719C226.221 163.867 225.368 163.87 224.532 163.728C223.658 163.582 222.841 163.197 222.17 162.615C221.564 162.045 221.038 161.394 220.609 160.679C219.793 159.328 219.08 157.916 218.475 156.457C217.857 155.017 217.299 153.564 216.791 152.081L217.156 152.323C216.531 152.367 215.906 152.254 215.336 151.993C215.03 151.838 214.774 151.598 214.6 151.302C214.439 151.012 214.347 150.69 214.331 150.359C214.313 149.753 214.411 149.15 214.62 148.582C214.809 148.027 215.053 147.493 215.349 146.987C215.968 146.084 216.263 144.996 216.186 143.902C216.137 143.362 215.985 142.837 215.739 142.354C215.481 141.876 215.188 141.359 214.953 140.839C214.706 140.316 214.505 139.772 214.352 139.213C214.184 138.663 214.047 138.104 213.94 137.539C213.807 136.977 213.762 136.402 213.671 135.832C213.63 135.257 213.57 134.681 213.58 134.103C213.569 132.943 213.678 131.786 213.906 130.649C214.126 129.492 214.49 128.367 214.989 127.302C215.026 127.227 215.082 127.164 215.153 127.12C215.223 127.076 215.304 127.053 215.387 127.053C215.47 127.053 215.551 127.077 215.621 127.121C215.691 127.165 215.748 127.229 215.784 127.304L215.806 127.35C216.765 129.323 217.946 131.178 219.326 132.88C220.685 134.579 222.282 136.072 224.067 137.311C224.949 137.92 225.892 138.437 226.879 138.853C227.856 139.277 228.878 139.586 229.924 139.775C232.025 140.144 234.178 140.093 236.258 139.622L236.299 139.614C236.426 139.588 236.558 139.598 236.679 139.642C236.801 139.686 236.909 139.762 236.99 139.863C237.249 140.184 237.475 140.532 237.663 140.9C237.844 141.236 238.004 141.584 238.142 141.94C238.416 142.638 238.634 143.357 238.793 144.09C239.085 145.534 239.216 147.007 239.182 148.481C239.157 149.933 239.014 151.382 238.755 152.811C238.624 153.542 238.543 154.185 238.439 154.866C238.399 155.202 238.377 155.539 238.373 155.877C238.345 156.213 238.343 156.551 238.366 156.887C238.388 158.218 238.712 159.527 239.313 160.713C239.913 161.882 240.851 162.841 242.003 163.463C243.195 164.08 244.528 164.368 245.867 164.297C247.236 164.211 248.585 163.917 249.867 163.425L249.892 163.416C249.933 163.401 249.976 163.398 250.019 163.405C250.061 163.413 250.101 163.431 250.134 163.459C250.167 163.487 250.192 163.523 250.206 163.564C250.221 163.605 250.224 163.649 250.217 163.692C249.925 165.311 249.638 166.929 249.328 168.541C249.325 168.56 249.314 168.576 249.298 168.587C249.283 168.598 249.263 168.602 249.245 168.598C249.227 168.594 249.211 168.583 249.201 168.569C249.19 168.554 249.186 168.535 249.187 168.517C249.35 166.882 249.536 165.254 249.716 163.626L250.066 163.892C248.755 164.509 247.351 164.902 245.911 165.053C244.427 165.202 242.931 164.953 241.575 164.331C240.194 163.68 239.054 162.606 238.318 161.262C237.595 159.939 237.18 158.468 237.105 156.96C237.069 156.591 237.06 156.219 237.078 155.849C237.073 155.479 237.085 155.11 237.117 154.741C237.202 154.02 237.283 153.255 237.381 152.589C237.588 151.226 237.698 149.849 237.71 148.469C237.723 147.109 237.585 145.751 237.298 144.421C237.156 143.771 236.963 143.133 236.723 142.513C236.606 142.209 236.471 141.913 236.318 141.627C236.184 141.365 236.028 141.115 235.85 140.881L236.582 141.121C234.301 141.631 231.94 141.658 229.648 141.201C228.504 140.974 227.39 140.616 226.328 140.134C225.267 139.665 224.256 139.089 223.312 138.413C221.443 137.073 219.791 135.452 218.413 133.606C217.018 131.795 215.86 129.811 214.966 127.703L215.782 127.751C214.791 129.726 214.253 131.899 214.207 134.111C214.16 135.226 214.241 136.344 214.45 137.441C214.546 137.992 214.672 138.537 214.828 139.073C214.966 139.612 215.152 140.137 215.382 140.643C215.607 141.159 215.867 141.632 216.139 142.155C216.397 142.691 216.559 143.268 216.618 143.861C216.715 145.05 216.409 146.238 215.75 147.231C215.199 148.163 214.904 149.226 214.898 150.311C214.906 150.544 214.979 150.77 215.107 150.964C215.236 151.158 215.416 151.312 215.627 151.409C216.102 151.589 216.612 151.65 217.115 151.587C217.19 151.581 217.266 151.6 217.33 151.64C217.394 151.68 217.444 151.739 217.472 151.81L217.48 151.83C218.047 153.257 218.673 154.673 219.343 156.055C219.992 157.433 220.742 158.761 221.589 160.027C221.973 160.633 222.437 161.184 222.968 161.665C223.486 162.085 224.103 162.361 224.76 162.468C226.166 162.647 227.593 162.428 228.882 161.837L228.937 161.813C229.019 161.778 229.109 161.765 229.198 161.774C229.523 161.811 229.841 161.891 230.146 162.012C230.427 162.121 230.699 162.255 230.958 162.411C231.462 162.722 231.919 163.105 232.313 163.548C232.711 163.98 233.044 164.468 233.301 164.997C233.427 165.264 233.531 165.541 233.612 165.825C233.705 166.095 233.77 166.358 233.838 166.623C234.38 168.733 234.718 170.833 235.059 172.944L236.024 179.266C236.318 181.376 236.635 183.48 236.992 185.579C236.993 185.588 236.993 185.598 236.991 185.607C236.989 185.616 236.985 185.625 236.98 185.633C236.975 185.641 236.968 185.647 236.96 185.653C236.952 185.658 236.943 185.661 236.934 185.663C236.917 185.666 236.899 185.662 236.884 185.653C236.868 185.643 236.857 185.629 236.852 185.612Z" fill="black"/>
<path d="M215.671 152.507C215.518 153.651 215.384 154.789 215.257 155.925C215.138 157.061 215.035 158.196 214.999 159.331C214.942 160.459 214.989 161.589 215.141 162.708C215.219 163.261 215.366 163.803 215.578 164.319C215.783 164.847 216.125 165.31 216.568 165.66C216.043 165.389 215.611 164.967 215.325 164.449C215.035 163.933 214.823 163.376 214.698 162.796C214.456 161.651 214.363 160.479 214.42 159.31C214.518 156.995 214.939 154.705 215.671 152.507ZM215.327 128.286C215.18 128.027 215.087 127.741 215.052 127.445C215.018 127.149 215.044 126.849 215.128 126.564L215.244 126.134L215.427 125.736C215.49 125.603 215.549 125.467 215.62 125.339L215.864 124.98C216.189 124.501 216.557 124.052 216.961 123.639C217.371 123.239 217.807 122.871 218.234 122.488C220.038 121.115 221.97 119.922 224.003 118.925C225.018 118.441 226.043 117.978 227.068 117.517C228.105 117.089 229.148 116.676 230.194 116.269C231.242 115.883 232.305 115.55 233.364 115.196C233.899 115.034 234.415 114.851 234.987 114.691C235.542 114.542 236.104 114.421 236.672 114.331C238.925 113.958 241.23 114.052 243.445 114.608C245.652 115.168 247.692 116.255 249.391 117.778C251.068 119.323 252.45 121.165 253.468 123.211C254.492 125.248 255.276 127.398 255.801 129.619L255.812 129.679C256.359 132.728 257.329 135.684 258.695 138.46C259.368 139.846 260.147 141.177 261.025 142.441C261.445 143.086 261.929 143.678 262.402 144.282C262.883 144.878 263.421 145.424 263.94 145.985L265.641 147.57L266.533 148.405C266.837 148.676 267.085 149.007 267.363 149.304C268.457 150.52 269.359 151.898 270.039 153.388C271.447 156.334 271.8 159.679 271.036 162.856C271.031 162.873 271.02 162.888 271.005 162.898C270.989 162.908 270.971 162.911 270.953 162.908C270.935 162.904 270.919 162.894 270.909 162.879C270.898 162.864 270.894 162.846 270.896 162.828L270.897 162.819C271.098 161.268 271.036 159.694 270.714 158.164C270.421 156.648 269.891 155.189 269.143 153.841C268.969 153.5 268.774 153.17 268.557 152.855C268.342 152.539 268.148 152.21 267.918 151.906C267.459 151.296 266.96 150.716 266.426 150.172C266.155 149.903 265.917 149.604 265.619 149.362L264.753 148.612L262.936 147.029C260.601 144.761 258.706 142.076 257.347 139.111C256.67 137.643 256.097 136.129 255.633 134.58C255.154 133.029 254.802 131.441 254.581 129.832L254.591 129.892C254.165 127.731 253.528 125.618 252.69 123.583C251.849 121.546 250.615 119.696 249.059 118.142C248.258 117.39 247.367 116.743 246.407 116.214C245.439 115.697 244.404 115.319 243.333 115.089C241.187 114.659 238.973 114.712 236.85 115.244C236.324 115.367 235.805 115.517 235.295 115.694C234.804 115.868 234.283 116.094 233.765 116.293L230.641 117.468C229.615 117.884 228.587 118.293 227.553 118.687L224.512 120.002C222.509 120.905 220.578 121.962 218.736 123.163C218.306 123.493 217.861 123.812 217.443 124.16C217.034 124.511 216.654 124.895 216.306 125.308L216.046 125.618C215.97 125.727 215.908 125.844 215.836 125.956L215.625 126.298L215.479 126.666C215.27 127.154 215.257 127.705 215.444 128.203L215.45 128.218C215.458 128.234 215.459 128.253 215.453 128.27C215.448 128.287 215.436 128.301 215.42 128.31C215.404 128.318 215.386 128.321 215.369 128.316C215.351 128.312 215.336 128.301 215.327 128.286L215.327 128.286ZM217.096 142.189C218.086 141.473 219.165 140.893 220.307 140.463C220.877 140.243 221.463 140.066 222.06 139.934C222.661 139.779 223.286 139.75 223.898 139.849C223.314 139.977 222.741 140.152 222.184 140.371L220.513 141.007C219.394 141.429 218.279 141.866 217.096 142.189ZM220.226 146.211C220.451 146.203 220.664 146.108 220.821 145.945C220.977 145.782 221.065 145.564 221.065 145.337C221.065 145.111 220.977 144.893 220.821 144.73C220.664 144.567 220.451 144.472 220.226 144.464C220.001 144.472 219.788 144.567 219.631 144.73C219.475 144.893 219.387 145.111 219.387 145.337C219.387 145.564 219.475 145.782 219.631 145.945C219.788 146.108 220.001 146.203 220.226 146.211ZM218.826 156.794C219.684 156.816 220.541 156.747 221.385 156.588C221.799 156.507 222.211 156.414 222.625 156.3C223.042 156.191 223.453 156.056 223.898 155.952C223.226 156.577 222.391 156.996 221.491 157.16C221.039 157.241 220.578 157.258 220.122 157.21C219.664 157.171 219.221 157.029 218.826 156.794Z" fill="black"/>
<path d="M268.605 219.917V219.936C268.599 219.949 268.599 219.955 268.593 219.968L268.605 219.917Z" fill="white"/>
<path d="M235.479 187.775C236.301 185.856 237.259 183.998 238.345 182.216C239.399 180.426 240.545 178.699 241.747 177.012C242.954 175.328 244.218 173.685 245.577 172.114C246.914 170.51 248.381 169.022 249.965 167.664C248.956 169.51 247.875 171.268 246.751 173.001C245.638 174.742 244.473 176.441 243.274 178.117C242.072 179.792 240.841 181.445 239.547 183.056C238.262 184.674 236.937 186.263 235.479 187.775Z" fill="black"/>
<path d="M282.064 163.47C273.666 161.085 262.522 161.647 255.705 162.341C256.114 162.088 256.552 161.887 257.01 161.741C257.01 161.741 276.476 158.284 282.064 163.47Z" fill="white"/>
<path d="M282.146 163.516C281.882 163.484 281.616 163.467 281.35 163.466C281.027 163.455 280.704 163.425 280.384 163.377C279.834 163.323 279.285 163.277 278.743 163.208C278.195 163.164 277.649 163.123 277.107 163.063C276.562 163.018 276.014 162.996 275.472 162.941L272.202 162.747C271.111 162.705 270.021 162.639 268.927 162.562C266.743 162.406 264.538 162.136 262.331 162.165C260.124 162.205 257.925 162.429 255.755 162.834L253.547 163.23L255.453 161.914C255.882 161.607 256.348 161.354 256.838 161.162L256.905 161.146C259.009 160.629 261.143 160.25 263.296 160.011C264.37 159.878 265.449 159.78 266.53 159.696C267.613 159.644 268.7 159.584 269.789 159.618C271.982 159.633 274.168 159.883 276.309 160.364C277.392 160.608 278.447 160.967 279.455 161.434C279.959 161.675 280.442 161.959 280.899 162.281C281.129 162.438 281.338 162.629 281.554 162.799C281.682 162.908 281.797 163.032 281.896 163.169C281.997 163.31 282.066 163.428 282.146 163.516ZM281.982 163.424C281.866 163.352 281.741 163.297 281.609 163.262C281.508 163.231 281.41 163.189 281.319 163.135C281.079 163.023 280.855 162.895 280.611 162.801C280.128 162.612 279.634 162.451 279.133 162.319C278.125 162.066 277.099 161.892 276.064 161.799C273.979 161.611 271.884 161.548 269.791 161.61C267.689 161.659 265.577 161.727 263.461 161.847C261.348 161.977 259.224 162.171 257.114 162.337L257.18 162.321C256.756 162.417 256.345 162.567 255.957 162.767L255.655 161.847C257.881 161.795 260.093 161.718 262.303 161.541C264.512 161.369 266.729 161.029 268.963 160.974C269.522 160.965 270.08 160.944 270.638 160.979C271.197 161.001 271.755 161.014 272.312 161.079C272.869 161.135 273.426 161.175 273.982 161.244C274.537 161.326 275.092 161.398 275.644 161.491C276.75 161.679 277.846 161.924 278.927 162.224C279.467 162.382 280 162.563 280.532 162.736C280.75 162.833 280.964 162.941 281.172 163.06C281.431 163.205 281.702 163.327 281.982 163.424ZM219.292 217.51C220.384 217.779 221.424 218.027 222.464 218.243C223.505 218.446 224.536 218.611 225.57 218.717C226.086 218.787 226.604 218.797 227.124 218.841C227.641 218.839 228.166 218.882 228.689 218.857C229.746 218.866 230.789 218.718 231.924 218.653C230.989 219.3 229.933 219.749 228.82 219.972C227.705 220.221 226.556 220.281 225.422 220.148C224.292 220.033 223.185 219.751 222.136 219.312C221.084 218.897 220.119 218.285 219.292 217.51ZM245.829 219.525C246.921 219.793 247.961 220.042 249 220.258C250.042 220.46 251.073 220.626 252.107 220.732C252.623 220.802 253.141 220.812 253.661 220.856C254.178 220.854 254.702 220.897 255.225 220.872C256.283 220.88 257.326 220.733 258.461 220.667C257.526 221.315 256.47 221.764 255.357 221.987C254.242 222.236 253.093 222.295 251.958 222.162C250.829 222.047 249.722 221.766 248.673 221.327C247.621 220.911 246.656 220.3 245.829 219.525ZM157.306 233.406C157.934 234.221 158.432 235.13 158.78 236.1H158.473C148.3 236.094 138.13 235.995 127.962 235.804C117.79 235.596 107.618 235.343 97.4455 234.908C97.4288 234.907 97.4125 234.904 97.3973 234.897C97.3822 234.89 97.3687 234.88 97.3575 234.867C97.3463 234.855 97.3378 234.84 97.3325 234.825C97.3271 234.809 97.325 234.792 97.3263 234.775C97.3284 234.744 97.3416 234.715 97.3635 234.693C97.3854 234.671 97.4145 234.658 97.4455 234.655C107.618 234.207 117.784 233.949 127.956 233.734C137.739 233.539 147.523 233.429 157.306 233.406ZM189.523 233.564C189.064 234.292 188.682 235.066 188.381 235.873C185.101 235.911 181.823 235.945 178.548 235.974C179.818 235.506 180.904 234.639 181.646 233.501C184.273 233.52 186.899 233.541 189.523 233.564ZM341.674 234.536C341.674 234.552 341.672 234.567 341.666 234.582C341.66 234.597 341.651 234.61 341.64 234.622C341.629 234.633 341.615 234.642 341.601 234.647C341.586 234.653 341.57 234.656 341.555 234.655C331.389 235.11 321.216 235.381 311.044 235.539L303.418 235.64L299.335 235.671L295.786 235.696C293.246 235.715 290.7 235.734 288.16 235.722C285.613 235.728 283.069 235.713 280.527 235.677C275.579 235.608 270.631 235.495 265.683 235.381C260.465 235.261 255.241 235.148 250.017 235.078C239.845 234.971 229.672 235.065 219.5 235.305C214.941 235.425 210.381 235.526 205.822 235.608C204.486 235.021 202.975 234.365 201.47 233.709C207.478 233.791 213.488 233.905 219.5 234.05C229.672 234.27 239.845 234.323 250.017 234.207C260.183 234.05 270.355 233.703 280.527 233.532C283.067 233.494 285.609 233.473 288.153 233.469C290.7 233.45 293.24 233.463 295.786 233.475L303.412 233.513L311.044 233.602C321.21 233.734 331.382 233.974 341.555 234.403C341.571 234.404 341.587 234.408 341.602 234.415C341.617 234.422 341.63 234.432 341.641 234.444C341.653 234.457 341.661 234.471 341.667 234.487C341.672 234.502 341.675 234.519 341.674 234.536Z" fill="black"/>
<path d="M271.224 234.853C267.094 235.444 262.946 235.918 258.799 236.346C254.649 236.754 250.498 237.141 246.344 237.506C242.192 237.88 238.034 238.182 233.878 238.51C229.721 238.82 225.566 239.162 221.405 239.425L221.4 239.425C221.364 239.427 221.327 239.426 221.291 239.422L210.116 238.102L210.106 238.101C210.051 238.094 209.998 238.079 209.947 238.057C205.528 236.049 201.113 234.032 196.678 232.071C195.57 231.587 194.453 231.086 193.348 230.65C193.001 230.425 192.467 230.799 192.013 231.125C191.551 231.488 191.128 231.898 190.749 232.348C189.199 234.176 188.222 236.425 187.941 238.812C187.937 238.851 187.924 238.889 187.903 238.922C187.388 239.712 186.884 240.508 186.412 241.32C185.93 242.121 185.515 242.959 185.169 243.827C184.977 244.229 184.87 244.667 184.856 245.113C184.842 245.558 184.921 246.002 185.087 246.416C185.585 247.223 186.041 248.057 186.451 248.913C186.47 248.962 186.473 249.015 186.46 249.065L186.459 249.068C186.321 249.637 186.262 250.222 186.286 250.807C186.299 251.382 186.436 251.947 186.686 252.464C186.935 252.969 187.341 253.378 187.842 253.629C188.091 253.764 188.354 253.868 188.628 253.94C188.903 254.013 189.195 254.038 189.478 254.088L189.425 254.089C190.218 253.972 191.002 253.794 191.768 253.555C192.534 253.321 193.277 253.019 193.989 252.651C194.341 252.47 194.681 252.265 195.006 252.038C195.333 251.817 195.612 251.54 195.918 251.296C196.488 250.777 196.934 250.135 197.224 249.418C197.253 249.346 197.303 249.284 197.368 249.241C197.433 249.198 197.51 249.177 197.587 249.18C197.665 249.182 197.74 249.209 197.802 249.256C197.864 249.303 197.91 249.368 197.934 249.442L197.944 249.471C198.603 251.542 200.049 253.267 201.967 254.27C203.943 255.159 206.147 255.397 208.266 254.951C210.386 254.508 212.597 253.845 214.748 253.243C216.892 252.612 219.101 251.989 221.107 251.198L221.121 251.193C221.221 251.154 221.33 251.139 221.437 251.15C229.201 251.989 236.988 252.693 244.772 253.334C252.555 254.002 260.348 254.561 268.145 254.906C272.041 255.095 275.941 255.227 279.836 255.222C281.783 255.218 283.729 255.179 285.667 255.072C287.595 254.987 289.516 254.774 291.416 254.434C292.333 254.282 293.221 253.99 294.05 253.569C294.231 253.467 294.4 253.345 294.555 253.206L295.024 252.676C295.344 252.326 295.635 251.951 295.894 251.554C296.955 249.946 297.738 248.169 298.211 246.299C299.17 242.501 299.494 238.569 299.17 234.664C299.168 234.645 299.174 234.626 299.185 234.611C299.197 234.596 299.214 234.586 299.233 234.584C299.252 234.583 299.27 234.588 299.285 234.6C299.3 234.612 299.309 234.628 299.312 234.647C299.548 236.608 299.627 238.585 299.551 240.558C299.491 242.542 299.245 244.516 298.816 246.454C298.384 248.419 297.621 250.294 296.558 251.999C296.292 252.431 295.992 252.842 295.661 253.226L295.17 253.81C294.969 254.008 294.745 254.182 294.504 254.328C293.603 254.827 292.63 255.183 291.62 255.382C289.682 255.795 287.716 256.063 285.738 256.184C283.774 256.326 281.811 256.4 279.848 256.439C275.924 256.513 272.004 256.448 268.088 256.327C260.258 256.037 252.447 255.486 244.646 254.852C236.847 254.175 229.061 253.376 221.288 252.457L221.618 252.409C220.509 252.853 219.434 253.173 218.341 253.497C217.252 253.817 216.161 254.119 215.07 254.413L211.79 255.273C210.708 255.561 209.582 255.81 208.44 256.035C206.099 256.474 203.681 256.147 201.539 255.101C200.496 254.525 199.577 253.747 198.834 252.813C198.09 251.879 197.537 250.806 197.207 249.657L197.926 249.709C197.579 250.517 197.057 251.237 196.398 251.815C196.059 252.077 195.742 252.372 195.384 252.603C195.031 252.838 194.663 253.049 194.282 253.233C193.529 253.603 192.744 253.902 191.936 254.128C191.133 254.36 190.312 254.527 189.483 254.629L189.466 254.63C189.454 254.632 189.441 254.631 189.429 254.629C189.116 254.568 188.799 254.54 188.491 254.454C188.178 254.369 187.876 254.247 187.592 254.09C187.003 253.784 186.527 253.296 186.235 252.697C185.956 252.112 185.806 251.474 185.794 250.826C185.773 250.189 185.843 249.553 186.001 248.937L186.009 249.091C185.837 248.664 185.63 248.252 185.391 247.859C185.13 247.454 184.89 247.035 184.674 246.604C184.46 246.138 184.37 245.623 184.413 245.111C184.464 244.619 184.582 244.136 184.766 243.676C185.113 242.782 185.531 241.917 186.015 241.09C186.484 240.261 186.983 239.454 187.492 238.654L187.454 238.764C187.719 236.268 188.713 233.906 190.313 231.979C190.706 231.488 191.148 231.037 191.631 230.635C191.884 230.426 192.159 230.244 192.451 230.095C192.618 230.011 192.797 229.953 192.982 229.926C193.097 229.91 193.213 229.914 193.327 229.938C193.415 229.963 193.502 229.99 193.572 230.016C194.737 230.438 195.847 230.9 196.977 231.357C201.474 233.194 205.941 235.096 210.414 236.983L210.246 236.937L221.434 238.153L221.321 238.151L246.268 236.493C250.427 236.231 254.585 235.953 258.741 235.658L264.977 235.227L271.205 234.71C271.224 234.708 271.243 234.713 271.258 234.725C271.273 234.737 271.282 234.754 271.285 234.773C271.286 234.792 271.281 234.81 271.269 234.825C271.258 234.84 271.242 234.85 271.224 234.853Z" fill="black"/>
<path d="M192.673 248.016C193.077 247.592 193.544 247.233 194.057 246.952C194.582 246.637 195.204 246.528 195.805 246.644C196.407 246.834 196.912 247.254 197.209 247.815C197.35 248.083 197.478 248.362 197.593 248.642L197.861 249.505C197.873 249.542 197.877 249.581 197.873 249.619C197.87 249.658 197.859 249.695 197.841 249.729C197.823 249.763 197.799 249.794 197.769 249.819C197.74 249.843 197.706 249.862 197.669 249.873C197.632 249.885 197.594 249.889 197.556 249.886C197.517 249.882 197.48 249.871 197.446 249.853C197.412 249.835 197.382 249.811 197.358 249.781C197.333 249.751 197.314 249.717 197.303 249.68C197.301 249.673 197.298 249.665 197.297 249.657L197.29 249.626L197.108 248.803C197.024 248.54 196.929 248.278 196.823 248.024C196.614 247.527 196.219 247.133 195.724 246.926C195.188 246.78 194.617 246.837 194.12 247.085C193.593 247.319 193.105 247.632 192.673 248.016ZM185.996 248.826C186.908 247.665 187.756 246.454 188.537 245.2C188.929 244.574 189.286 243.926 189.608 243.26C189.951 242.602 190.182 241.891 190.292 241.156C190.23 241.903 190.044 242.634 189.742 243.318C189.462 244.011 189.144 244.689 188.79 245.347C188.084 246.665 187.307 247.945 186.463 249.178C186.419 249.242 186.352 249.287 186.276 249.301C186.2 249.315 186.121 249.298 186.057 249.254C185.993 249.21 185.949 249.143 185.935 249.066C185.921 248.989 185.937 248.91 185.981 248.846L185.992 248.831L185.996 248.826ZM184.725 246.561L190.292 237.16L185.234 246.848C185.216 246.882 185.192 246.913 185.162 246.937C185.133 246.962 185.099 246.981 185.062 246.992C185.026 247.004 184.987 247.008 184.949 247.004C184.911 247.001 184.874 246.99 184.84 246.972C184.806 246.954 184.776 246.929 184.751 246.9C184.727 246.87 184.708 246.836 184.697 246.799C184.686 246.762 184.681 246.723 184.685 246.685C184.688 246.647 184.699 246.609 184.717 246.575L184.725 246.561ZM187.451 238.625L191.132 233.501L187.939 238.946C187.9 239.013 187.836 239.062 187.761 239.082C187.686 239.101 187.606 239.09 187.539 239.05C187.473 239.01 187.424 238.946 187.405 238.87C187.385 238.795 187.397 238.715 187.436 238.648C187.441 238.64 187.446 238.632 187.451 238.625ZM174.102 208.487C173.752 208.328 173.37 208.257 172.987 208.279C172.603 208.28 172.22 208.31 171.841 208.368C171.105 208.509 170.419 208.842 169.851 209.333C169.305 209.836 168.873 210.451 168.584 211.137C168.289 211.821 168.105 212.548 168.038 213.291C168.029 213.396 167.984 213.495 167.909 213.569C167.835 213.643 167.737 213.688 167.632 213.697C167.528 213.705 167.424 213.675 167.339 213.614C167.254 213.552 167.193 213.462 167.168 213.36L167.165 213.345C166.854 212.012 166.379 210.723 165.751 209.508C165.168 208.331 164.281 207.334 163.183 206.619C162.923 206.458 162.644 206.326 162.354 206.228C162.224 206.181 162.089 206.148 161.952 206.128L161.456 206.065C160.828 205.98 160.189 206.011 159.573 206.156C158.989 206.286 158.444 206.553 157.983 206.936C157.522 207.318 157.157 207.805 156.919 208.357L156.894 208.414C156.829 208.565 156.707 208.683 156.555 208.744C156.403 208.804 156.233 208.801 156.084 208.736C156.041 208.717 156 208.693 155.962 208.665C155.638 208.419 155.246 208.28 154.84 208.268C154.393 208.267 153.95 208.356 153.538 208.529C152.65 208.841 151.913 209.479 151.471 210.313L151.445 210.363L151.399 210.469L151.332 210.631C151.293 210.737 151.259 210.845 151.232 210.954C151.177 211.165 151.153 211.382 151.161 211.6C151.185 212.036 151.355 212.451 151.643 212.778C152.321 213.478 153.183 213.969 154.128 214.195L154.153 214.202C154.215 214.219 154.268 214.257 154.304 214.309C154.702 214.908 155.049 215.539 155.344 216.196C155.496 216.514 155.642 216.828 155.814 217.122C155.991 217.432 156.168 217.742 156.322 218.07C156.493 218.404 156.617 218.759 156.692 219.127C156.732 219.245 156.739 219.372 156.712 219.493C156.685 219.614 156.624 219.726 156.537 219.814C156.449 219.903 156.339 219.965 156.219 219.993C156.098 220.022 155.972 220.016 155.855 219.976C155.145 219.802 154.467 219.514 153.85 219.12C153.233 218.763 152.644 218.383 152.054 217.976C151.474 217.546 150.939 217.057 150.459 216.515C150.217 216.255 149.983 215.961 149.764 215.751C149.535 215.535 149.27 215.362 148.98 215.24C148.388 215.006 147.74 214.954 147.118 215.091C146.506 215.212 145.939 215.503 145.483 215.932C145.286 216.134 145.141 216.382 145.06 216.653C144.979 216.925 144.965 217.212 145.018 217.49C145.135 218.115 145.371 218.712 145.712 219.248C146.056 219.822 146.453 220.361 146.898 220.86C147.119 221.112 147.352 221.356 147.589 221.581L148.368 222.265C148.902 222.742 149.421 223.228 149.925 223.725C150.936 224.72 151.919 225.729 152.894 226.761C152.984 226.856 153.044 226.976 153.065 227.106L153.074 227.158C153.158 227.577 153.296 227.983 153.485 228.366C153.683 228.771 153.924 229.154 154.204 229.506C154.485 229.863 154.802 230.19 155.151 230.48C155.501 230.792 155.855 230.991 156.331 231.349C157.195 232.026 157.932 232.853 158.506 233.791C159.086 234.721 159.52 235.735 159.793 236.798L159.752 236.667C160.08 237.526 160.679 238.253 161.457 238.739C162.289 239.19 163.223 239.419 164.168 239.402C165.179 239.398 166.185 239.261 167.161 238.995C168.156 238.736 169.126 238.387 170.06 237.954L170.096 237.937C170.111 237.93 170.126 237.924 170.142 237.919C171.355 237.538 172.566 237.164 173.79 236.825C175.015 236.483 176.234 236.141 177.492 235.861C178.697 235.679 179.817 235.13 180.702 234.288C181.598 233.42 182.254 232.331 182.605 231.13C182.61 231.112 182.623 231.097 182.639 231.088C182.656 231.078 182.676 231.077 182.694 231.082C182.711 231.087 182.725 231.099 182.734 231.114C182.744 231.129 182.747 231.147 182.744 231.165C182.505 232.454 181.919 233.653 181.048 234.629C180.605 235.124 180.089 235.549 179.52 235.889C179.231 236.061 178.928 236.205 178.613 236.321C178.285 236.428 177.953 236.533 177.671 236.601C176.475 236.944 175.277 237.359 174.085 237.771L170.51 239.025L170.591 238.991C169.602 239.498 168.568 239.914 167.504 240.234C166.425 240.57 165.307 240.763 164.178 240.807C162.976 240.864 161.781 240.591 160.72 240.018C160.182 239.704 159.7 239.3 159.296 238.824C158.91 238.349 158.591 237.824 158.348 237.262L158.333 237.224L158.306 237.13C158.06 236.242 157.692 235.392 157.212 234.606C156.734 233.822 156.123 233.128 155.407 232.556C155.089 232.3 154.577 231.978 154.183 231.611C153.767 231.249 153.389 230.843 153.057 230.402C152.72 229.96 152.432 229.481 152.199 228.975C151.951 228.449 151.78 227.889 151.692 227.313L151.872 227.71C150.937 226.678 149.978 225.652 149.005 224.655C148.516 224.159 148.028 223.662 147.53 223.184C147.279 222.937 147.039 222.736 146.751 222.448C146.488 222.179 146.245 221.904 146.012 221.619C145.54 221.05 145.123 220.437 144.765 219.789C144.377 219.115 144.131 218.369 144.041 217.596C144 217.176 144.049 216.752 144.184 216.353C144.327 215.949 144.567 215.588 144.884 215.301C145.482 214.788 146.213 214.455 146.992 214.342C147.757 214.213 148.543 214.317 149.249 214.639C149.6 214.807 149.918 215.036 150.189 215.317C150.462 215.61 150.65 215.881 150.876 216.146C151.31 216.675 151.805 217.151 152.351 217.563C152.91 217.964 153.495 218.356 154.087 218.713C154.649 219.085 155.266 219.366 155.915 219.545C156.564 219.744 156.183 218.832 155.915 218.269C155.766 217.961 155.589 217.661 155.414 217.362C155.227 217.05 155.059 216.733 154.898 216.42C154.594 215.801 154.239 215.208 153.836 214.648L154.012 214.763C153.477 214.654 152.956 214.482 152.461 214.25C151.946 214.019 151.478 213.694 151.079 213.292C150.651 212.853 150.38 212.282 150.311 211.67C150.281 211.367 150.295 211.062 150.354 210.763C150.382 210.618 150.417 210.474 150.461 210.333L150.53 210.129L150.568 210.025L150.637 209.875L150.611 209.925C150.847 209.371 151.195 208.874 151.633 208.463C152.064 208.062 152.557 207.734 153.092 207.491C153.642 207.22 154.244 207.074 154.857 207.063C155.514 207.064 156.156 207.268 156.694 207.649L155.737 207.957C155.879 207.564 156.078 207.193 156.326 206.857C156.561 206.528 156.835 206.23 157.143 205.969C157.76 205.446 158.492 205.08 159.279 204.901C160.036 204.733 160.817 204.703 161.584 204.813L162.133 204.891C162.344 204.924 162.55 204.978 162.751 205.051C163.125 205.184 163.484 205.358 163.819 205.572C165.081 206.425 166.086 207.61 166.724 208.999C167.346 210.321 167.785 211.722 168.031 213.164L167.157 213.218C167.273 212.381 167.525 211.569 167.902 210.814C168.266 210.048 168.808 209.381 169.481 208.869C170.159 208.376 170.954 208.07 171.786 207.983C172.191 207.952 172.598 207.958 173.002 208C173.412 208.026 173.809 208.148 174.163 208.357C174.179 208.366 174.191 208.381 174.197 208.398C174.202 208.415 174.201 208.434 174.193 208.451C174.185 208.468 174.172 208.481 174.155 208.487C174.138 208.494 174.119 208.494 174.102 208.487L174.102 208.487Z" fill="black"/>
<path d="M175.96 215.191C176.241 215.84 176.4 216.536 176.428 217.244C176.447 217.591 176.446 217.94 176.425 218.287C176.395 218.636 176.358 218.985 176.298 219.33L176.292 219.362C176.284 219.406 176.269 219.449 176.247 219.487C176.091 219.768 175.911 220.035 175.71 220.285C175.497 220.533 175.261 220.761 175.006 220.966C174.517 221.397 173.945 221.723 173.326 221.922C172.665 222.089 171.968 222.029 171.345 221.752C171.016 221.611 170.716 221.41 170.461 221.158C170.391 221.085 170.325 221.008 170.264 220.927C170.197 220.823 170.139 220.713 170.092 220.597L169.941 220.158L169.66 219.315C169.575 219.085 169.469 218.863 169.343 218.652C169.219 218.44 169.082 218.235 168.934 218.039C168.871 217.962 168.759 217.806 168.667 217.666C168.574 217.524 168.477 217.385 168.389 217.242C168.065 216.68 167.835 216.069 167.708 215.433C167.572 214.819 167.528 214.188 167.578 213.561C167.58 213.541 167.589 213.522 167.605 213.509C167.62 213.497 167.64 213.49 167.66 213.492C167.672 213.493 167.683 213.497 167.693 213.504C167.703 213.51 167.712 213.519 167.718 213.529C168.251 214.55 168.866 215.524 169.558 216.443C169.649 216.537 169.731 216.636 169.816 216.732C169.904 216.83 169.965 216.915 170.101 217.06C170.333 217.322 170.53 217.613 170.687 217.926C170.843 218.241 170.961 218.574 171.04 218.917C171.083 219.099 171.104 219.247 171.13 219.381L171.206 219.805L171.277 220.233C171.292 220.28 171.276 220.262 171.292 220.307C171.315 220.348 171.324 220.393 171.352 220.441C171.473 220.654 171.624 220.849 171.8 221.019C171.981 221.208 172.206 221.349 172.453 221.431C172.701 221.512 172.965 221.532 173.222 221.488C173.488 221.421 173.735 221.295 173.945 221.119C174.155 220.942 174.323 220.72 174.435 220.469C174.564 220.222 174.679 219.968 174.78 219.709C174.867 219.444 174.971 219.185 175.091 218.934L175.04 219.091C175.114 218.453 175.274 217.827 175.382 217.178C175.512 216.531 175.64 215.889 175.817 215.205C175.82 215.195 175.824 215.186 175.83 215.178C175.836 215.17 175.843 215.163 175.852 215.158C175.86 215.153 175.87 215.149 175.88 215.148C175.889 215.146 175.899 215.147 175.909 215.149C175.92 215.152 175.93 215.157 175.939 215.164C175.948 215.172 175.955 215.181 175.96 215.191ZM152.382 227.237C152.267 226.844 152.216 226.435 152.232 226.025C152.24 225.613 152.306 225.204 152.426 224.809C152.544 224.398 152.754 224.019 153.04 223.702C153.18 223.539 153.353 223.407 153.547 223.316C153.741 223.225 153.952 223.177 154.166 223.175C153.849 223.376 153.586 223.652 153.399 223.979C153.218 224.295 153.076 224.634 152.977 224.985C152.748 225.697 152.609 226.451 152.382 227.237ZM154.072 214.48C154.564 214.358 154.966 214.274 155.392 214.19C155.604 214.15 155.816 214.108 156.037 214.075C156.272 214.034 156.51 214.013 156.748 214.012C156.438 214.407 155.995 214.674 155.502 214.761C155.258 214.807 155.008 214.811 154.763 214.774C154.51 214.744 154.27 214.642 154.072 214.48ZM156.683 208.153C156.675 208.778 156.757 209.401 156.926 210.003C157.076 210.603 157.394 211.147 157.843 211.571C158.08 211.772 158.356 211.922 158.653 212.013C158.951 212.103 159.263 212.131 159.571 212.096C159.892 212.07 160.211 212.017 160.523 211.938L161.443 211.604L160.551 212.023C160.238 212.134 159.916 212.218 159.589 212.275C159.25 212.343 158.901 212.34 158.564 212.268C158.226 212.196 157.906 212.055 157.624 211.855C157.07 211.424 156.652 210.842 156.419 210.178C156.171 209.531 156.019 208.851 155.968 208.159C155.961 208.064 155.991 207.969 156.053 207.897C156.115 207.824 156.203 207.779 156.298 207.772C156.392 207.764 156.486 207.795 156.558 207.857C156.631 207.919 156.675 208.008 156.683 208.103C156.683 208.114 156.684 208.125 156.684 208.136L156.683 208.153Z" fill="black"/>
<path d="M159.565 212.219C160.063 212.979 160.502 213.775 160.88 214.602C161.298 215.437 161.586 216.331 161.732 217.254C161.772 217.426 161.854 217.585 161.969 217.718C162.084 217.851 162.23 217.954 162.393 218.019C162.767 218.209 163.168 218.337 163.583 218.399C164.006 218.471 164.438 218.476 164.862 218.413C165.3 218.375 165.706 218.17 165.997 217.838C165.887 218.047 165.736 218.23 165.552 218.377C165.369 218.524 165.157 218.63 164.93 218.69C164.479 218.832 164.006 218.886 163.535 218.85C163.055 218.825 162.584 218.71 162.145 218.511C161.89 218.41 161.665 218.245 161.492 218.032C161.318 217.819 161.202 217.564 161.155 217.292C161.108 216.867 161.015 216.448 160.879 216.042C160.756 215.617 160.607 215.197 160.463 214.772L159.565 212.219Z" fill="black"/>
<path d="M168.89 216.731C168.394 216.636 167.905 216.535 167.41 216.434L152.872 213.444L151.474 213.153L145.604 211.936C143.271 211.002 140.938 210.075 138.643 208.977C141.189 208.901 143.691 208.996 146.2 209.09C147.805 209.45 149.423 209.784 151.041 210.119C151.844 210.289 152.647 210.453 153.449 210.623L167.648 213.545C167.884 214.668 168.304 215.745 168.89 216.731Z" fill="black"/>
<path d="M167.591 213.255C167.975 214.388 168.513 215.462 169.189 216.446L169.735 217.084C169.97 217.323 170.183 217.584 170.37 217.863C170.558 218.15 170.712 218.458 170.828 218.782C170.949 219.128 171.016 219.41 171.104 219.686C171.194 219.956 171.261 220.316 171.332 220.351C171.47 220.532 171.638 220.688 171.828 220.812C172.193 221.066 172.639 221.173 173.079 221.113C173.543 220.997 173.958 220.732 174.26 220.36C174.447 220.161 174.617 219.948 174.769 219.722L175.212 218.992L175.172 219.117C175.343 218.294 175.52 217.453 175.611 216.599C175.665 216.173 175.703 215.745 175.715 215.314C175.739 214.88 175.724 214.444 175.669 214.012C176.023 214.836 176.221 215.719 176.252 216.615C176.277 217.062 176.282 217.51 176.273 217.957C176.252 218.405 176.202 218.854 176.166 219.305C176.164 219.331 176.158 219.356 176.148 219.379L176.126 219.43C175.877 220.042 175.542 220.615 175.132 221.131C174.688 221.731 174.048 222.154 173.325 222.326C172.946 222.401 172.555 222.396 172.178 222.312C171.801 222.228 171.445 222.067 171.133 221.838C170.82 221.623 170.548 221.352 170.33 221.04C170.26 220.943 170.203 220.838 170.159 220.728C170.12 220.64 170.092 220.548 170.074 220.453L169.969 219.992C169.896 219.681 169.84 219.367 169.774 219.133C169.7 218.878 169.601 218.631 169.479 218.395C169.355 218.151 169.208 217.92 169.041 217.704C168.858 217.428 168.661 217.16 168.504 216.876C167.939 215.752 167.627 214.515 167.591 213.255ZM264.727 141.68C264.732 141.995 264.814 142.305 264.968 142.58C265.122 142.856 265.341 143.088 265.607 143.257C266.137 143.593 266.723 143.832 267.337 143.961L269.186 144.396L270.115 144.636C270.271 144.678 270.426 144.72 270.58 144.769L271.016 144.882C271.593 145.049 272.192 145.128 272.792 145.116C273.403 145.099 273.997 144.913 274.51 144.579C275.022 144.23 275.423 143.739 275.664 143.166C275.781 142.884 275.855 142.585 275.886 142.281C275.923 141.999 275.905 141.713 275.834 141.438C275.752 141.22 275.603 141.033 275.407 140.907C275.171 140.764 274.92 140.647 274.658 140.559C274.096 140.359 273.467 140.185 272.831 139.972C272.172 139.763 271.531 139.496 270.918 139.176C270.6 139.007 270.296 138.815 270.008 138.601C269.761 138.454 269.536 138.272 269.295 138.16C268.854 137.895 268.34 137.778 267.828 137.826C267.317 137.875 266.834 138.086 266.449 138.429C265.952 138.819 265.542 139.31 265.245 139.87C264.949 140.43 264.772 141.047 264.727 141.68ZM264.582 141.68C264.604 141.007 264.708 140.34 264.892 139.694C265.063 139.009 265.352 138.359 265.745 137.775C266.183 137.106 266.855 136.627 267.627 136.433C268.428 136.261 269.264 136.377 269.989 136.76C270.319 136.934 270.636 137.132 270.939 137.351C271.177 137.52 271.416 137.689 271.67 137.846C272.198 138.162 272.748 138.44 273.315 138.676C273.899 138.93 274.517 139.151 275.145 139.49C275.483 139.664 275.793 139.889 276.064 140.156C276.364 140.463 276.558 140.859 276.616 141.285C276.614 144.353 273.677 146.429 270.81 146.083C270.139 146.002 269.478 145.856 268.837 145.645C268.19 145.438 267.568 145.162 266.98 144.822C266.378 144.477 265.831 144.043 265.356 143.535C264.878 143.035 264.602 142.374 264.582 141.68ZM273.887 120.962C273.898 121.507 274.034 122.042 274.287 122.525C274.55 122.998 274.909 123.41 275.342 123.733C276.221 124.363 277.201 124.836 278.24 125.131C279.268 125.468 280.326 125.72 281.378 126.007L282.966 126.422C283.232 126.489 283.498 126.555 283.762 126.633L284.533 126.81C285.555 127.066 286.613 127.151 287.663 127.062C288.724 126.972 289.745 126.61 290.627 126.009C291.507 125.388 292.203 124.539 292.642 123.553C292.735 123.302 292.837 123.054 292.913 122.798C292.982 122.542 293.034 122.28 293.068 122.017C293.149 121.512 293.141 120.997 293.044 120.494C292.912 120.051 292.642 119.663 292.274 119.386C291.861 119.098 291.414 118.863 290.943 118.687C289.966 118.299 288.902 117.988 287.844 117.609C286.759 117.24 285.705 116.784 284.692 116.247C284.176 115.966 283.681 115.65 283.209 115.301C282.803 114.997 282.372 114.726 281.923 114.49C281.094 114.013 280.137 113.811 279.188 113.913C278.219 114.082 277.321 114.536 276.608 115.217C275.819 115.947 275.175 116.822 274.711 117.795C274.216 118.779 273.935 119.859 273.887 120.962ZM273.741 120.962C273.775 119.832 273.978 118.714 274.343 117.645C274.682 116.535 275.21 115.492 275.903 114.564C276.641 113.544 277.716 112.821 278.935 112.526C280.191 112.294 281.489 112.494 282.619 113.094C283.154 113.365 283.664 113.686 284.141 114.052C284.566 114.352 284.99 114.652 285.443 114.921C286.366 115.463 287.33 115.931 288.326 116.32C289.335 116.732 290.387 117.091 291.429 117.618C291.977 117.88 292.482 118.223 292.93 118.635C293.403 119.091 293.717 119.689 293.826 120.339C293.898 121.528 293.643 122.714 293.088 123.766C292.565 124.794 291.819 125.691 290.906 126.392C289.971 127.088 288.908 127.59 287.778 127.868C286.649 128.146 285.475 128.194 284.327 128.011L283.468 127.873C283.194 127.819 282.923 127.753 282.652 127.688C282.109 127.554 281.566 127.422 281.031 127.247C279.946 126.926 278.892 126.506 277.883 125.992C276.856 125.481 275.914 124.813 275.092 124.012C274.677 123.619 274.344 123.147 274.112 122.623C273.88 122.099 273.754 121.535 273.741 120.962H273.741ZM278.368 93.0722C278.06 93.8478 277.911 94.6781 277.93 95.5131C277.967 96.3472 278.235 97.1542 278.704 97.8435C279.692 99.1931 280.988 100.283 282.483 101.023C285.474 102.526 288.595 103.753 291.807 104.688C295.004 105.701 298.228 106.661 301.408 107.788C303.003 108.337 304.584 108.933 306.151 109.578C307.707 110.196 309.237 110.83 310.823 111.328C313.946 112.44 317.222 113.057 320.533 113.157C322.18 113.184 323.822 112.963 325.404 112.5C326.986 112.032 328.443 111.214 329.671 110.107C330.888 108.981 331.859 107.612 332.524 106.089C333.182 104.555 333.624 102.937 333.838 101.281C334.063 99.622 334.137 97.9458 334.059 96.2732C334.015 95.4362 333.966 94.6005 333.869 93.7673C333.798 92.9416 333.668 92.122 333.481 91.3147C332.618 88.0992 331.249 85.0435 329.425 82.2635C327.64 79.4632 325.511 76.9006 323.088 74.6365C320.691 72.3774 317.932 70.5411 314.928 69.2047C313.436 68.5551 311.883 68.0596 310.292 67.7257C308.702 67.4041 307.079 67.2808 305.46 67.3587C302.198 67.3982 298.987 68.1742 296.064 69.6294C293.143 71.1466 290.53 73.1999 288.359 75.6834C286.156 78.2053 284.24 80.9657 282.644 83.9139C281.032 86.875 279.604 89.9336 278.368 93.0722ZM278.233 93.0176C279.475 89.8766 280.797 86.7653 282.286 83.7244C283.753 80.6515 285.544 77.7462 287.629 75.0587C289.742 72.3139 292.396 70.0383 295.424 68.3747C298.511 66.753 301.929 65.8709 305.411 65.7973C308.897 65.6482 312.369 66.3372 315.538 67.8071C318.671 69.2542 321.54 71.2226 324.023 73.6294C326.498 76.0035 328.645 78.7013 330.406 81.6506C332.211 84.5752 333.514 87.7845 334.26 91.144C334.801 94.5247 334.829 97.9683 334.344 101.357C333.847 104.71 332.528 108.091 329.989 110.458C328.727 111.637 327.227 112.529 325.59 113.072C323.963 113.624 322.263 113.928 320.546 113.972C317.128 114.019 313.725 113.519 310.462 112.492C308.831 112.014 307.23 111.415 305.665 110.787C304.118 110.161 302.55 109.582 300.98 109.001C297.831 107.862 294.658 106.755 291.507 105.557C289.932 104.958 288.362 104.338 286.813 103.662C285.253 103.002 283.742 102.23 282.291 101.353C281.568 100.907 280.876 100.411 280.22 99.8694C279.566 99.3188 278.998 98.6718 278.535 97.9505C278.066 97.2251 277.799 96.3861 277.763 95.5213C277.75 94.6634 277.91 93.8117 278.233 93.0176Z" fill="black"/>
<path d="M302.191 92.1636H302.441C301.258 93.248 300.304 94.561 299.636 96.0244C298.968 97.4877 298.6 99.0714 298.553 100.681C298.541 101.55 298.625 102.418 298.803 103.269C298.819 103.352 298.852 103.431 298.899 103.501C298.946 103.572 299.006 103.632 299.076 103.679C299.146 103.725 299.225 103.757 299.308 103.773C299.391 103.789 299.475 103.788 299.558 103.771C301.561 103.369 303.425 102.447 304.965 101.097C306.505 99.7471 307.668 98.0158 308.338 96.0746C309.12 97.9707 310.383 99.6272 312 100.878C313.618 102.13 315.534 102.932 317.556 103.205C317.733 103.223 317.911 103.179 318.059 103.079C318.177 102.955 318.262 102.803 318.308 102.638C318.578 100.607 318.321 98.5407 317.563 96.639C316.805 94.7374 315.572 93.0649 313.982 91.7838C316.009 91.6475 317.967 90.9902 319.669 89.8748C321.371 88.7595 322.76 87.2234 323.703 85.4135C323.74 85.343 323.763 85.2658 323.771 85.1862C323.779 85.1067 323.77 85.0264 323.747 84.9501C323.723 84.8737 323.685 84.8028 323.634 84.7415C323.583 84.6801 323.521 84.6296 323.45 84.5927C321.638 83.6602 319.616 83.2166 317.583 83.3051C315.549 83.3937 313.573 84.0115 311.848 85.0981C312.39 83.1209 312.414 81.0365 311.92 79.0469C311.425 77.0573 310.429 75.2299 309.026 73.7417C308.969 73.6817 308.902 73.6339 308.826 73.6013C308.751 73.5686 308.67 73.5518 308.588 73.5518C308.505 73.5518 308.424 73.5686 308.349 73.6013C308.273 73.6339 308.206 73.6817 308.149 73.7417C306.559 75.2539 305.427 77.1876 304.883 79.3195C304.339 81.4514 304.405 83.6946 305.074 85.7902C303.253 84.5721 301.118 83.9144 298.931 83.8974C296.747 83.8345 294.591 84.4043 292.72 85.5391C292.648 85.5829 292.586 85.641 292.538 85.7098C292.489 85.7786 292.455 85.8567 292.437 85.9392C292.42 86.0218 292.419 86.1071 292.435 86.1899C292.451 86.2728 292.484 86.3514 292.531 86.4211C293.49 88.1546 294.89 89.6003 296.588 90.6095C298.285 91.6187 300.219 92.1551 302.191 92.1636ZM308.21 85.6646C309.247 85.6809 310.237 86.1069 310.965 86.8507C311.692 87.5944 312.1 88.5963 312.1 89.64C312.1 90.6837 311.692 91.6855 310.965 92.4293C310.237 93.173 309.247 93.599 308.21 93.6153C307.691 93.6174 307.176 93.516 306.696 93.3169C306.216 93.1178 305.779 92.825 305.412 92.4554C305.045 92.0858 304.754 91.6467 304.557 91.1635C304.359 90.6803 304.259 90.1625 304.261 89.64C304.267 88.588 304.685 87.5808 305.424 86.8366C306.163 86.0925 307.164 85.6714 308.21 85.6646Z" fill="#FD1A5A"/>
<path d="M308.21 92.2892C308.925 92.2892 309.611 92.0035 310.116 91.4949C310.622 90.9863 310.906 90.2965 310.906 89.5773C310.906 88.858 310.622 88.1682 310.116 87.6596C309.611 87.151 308.925 86.8653 308.21 86.8653C307.855 86.8626 307.504 86.9309 307.176 87.0661C306.848 87.2014 306.55 87.4009 306.299 87.6531C306.048 87.9054 305.85 88.2052 305.715 88.5353C305.581 88.8653 305.513 89.219 305.516 89.5757C305.531 90.2901 305.819 90.9711 306.321 91.4767C306.823 91.9822 307.5 92.2733 308.21 92.2892ZM325.275 181.286C326.251 182.897 327.417 184.384 328.748 185.713C327.4 185.76 326.061 185.468 324.854 184.864C323.981 184.412 323.245 183.734 322.72 182.899C322.208 182.053 321.925 181.087 321.9 180.098C321.875 178.743 322.19 177.404 322.816 176.204C323.424 177.994 324.25 179.701 325.275 181.286Z" fill="black"/>
<path d="M329.676 181.819C329.7 183.175 329.381 184.515 328.748 185.713C328.14 183.923 327.313 182.216 326.288 180.631C325.31 179.021 324.144 177.535 322.816 176.203C324.162 176.155 325.498 176.451 326.698 177.064C327.571 177.516 328.311 178.189 328.844 179.017C329.367 179.859 329.654 180.827 329.676 181.819ZM322.057 192.856C323.033 194.471 324.203 195.958 325.541 197.284C324.193 197.332 322.854 197.04 321.647 196.434C320.771 195.982 320.03 195.304 319.501 194.47C318.989 193.624 318.706 192.658 318.681 191.668C318.656 190.313 318.971 188.974 319.597 187.774C320.21 189.562 321.036 191.268 322.057 192.856Z" fill="black"/>
<path d="M326.457 193.39C326.481 194.745 326.166 196.084 325.541 197.284C324.922 195.499 324.097 193.793 323.082 192.202C322.099 190.593 320.929 189.106 319.597 187.775C320.943 187.725 322.279 188.021 323.479 188.636C324.36 189.079 325.104 189.756 325.629 190.594C326.154 191.433 326.44 192.4 326.457 193.39H326.457ZM318.428 205.592C319.407 207.204 320.577 208.691 321.912 210.019C320.562 210.07 319.222 209.774 318.018 209.158C317.14 208.714 316.399 208.039 315.872 207.205C315.36 206.36 315.077 205.394 315.052 204.404C315.026 203.049 315.341 201.71 315.968 200.51C316.582 202.298 317.407 204.004 318.428 205.592Z" fill="black"/>
<path d="M322.828 206.114C322.853 207.472 322.538 208.815 321.912 210.019C321.294 208.231 320.465 206.525 319.44 204.937C318.462 203.328 317.296 201.842 315.968 200.51C317.314 200.46 318.65 200.757 319.85 201.371C320.723 201.822 321.463 202.496 321.996 203.324C322.517 204.162 322.805 205.126 322.828 206.114ZM316.655 219.152C317.635 220.768 318.805 222.258 320.139 223.592C318.79 223.643 317.449 223.346 316.245 222.73C315.37 222.281 314.633 221.602 314.111 220.765C313.589 219.927 313.301 218.964 313.279 217.976C313.26 216.622 313.574 215.284 314.196 214.082C314.814 215.864 315.64 217.566 316.655 219.152Z" fill="black"/>
<path d="M321.056 219.686C321.087 221.045 320.771 222.39 320.14 223.592C318.867 220.026 316.839 216.781 314.196 214.082C315.542 214.033 316.878 214.329 318.078 214.944C318.956 215.388 319.697 216.062 320.224 216.896C320.752 217.731 321.04 218.697 321.056 219.686ZM316.126 227.44C317.472 227.394 318.808 227.69 320.011 228.3C320.886 228.75 321.627 229.425 322.158 230.258C322.679 231.096 322.966 232.06 322.989 233.048C323.014 234.405 322.697 235.747 322.066 236.947C320.717 236.999 319.378 236.705 318.173 236.093C317.297 235.644 316.559 234.966 316.034 234.129C315.519 233.287 315.235 232.323 315.212 231.334C315.187 229.979 315.501 228.64 316.126 227.44ZM333.341 184.852C331.728 185.618 330.173 186.502 328.688 187.496C328.894 186.207 329.367 184.976 330.074 183.882C330.561 183.141 331.23 182.54 332.015 182.135C332.778 181.759 333.629 181.6 334.475 181.674C335.72 181.799 336.943 182.084 338.116 182.523L333.341 184.852ZM337.441 186.55C336.934 187.449 336.173 188.176 335.254 188.639C334.335 189.101 333.3 189.277 332.281 189.145C330.949 188.958 329.701 188.385 328.688 187.496C329.597 187.414 330.495 187.231 331.364 186.95C332.226 186.673 333.068 186.337 333.884 185.943C334.701 185.538 335.48 185.059 336.211 184.512C336.96 183.97 337.606 183.296 338.116 182.523C338.404 183.903 338.163 185.341 337.441 186.55ZM331.461 195.768C329.471 196.496 327.446 197.138 325.408 198C325.993 196.698 326.82 195.52 327.844 194.531C328.594 193.82 329.48 193.271 330.448 192.918C331.366 192.583 332.344 192.451 333.317 192.529C334.66 192.665 335.99 192.904 337.296 193.245C335.43 194.261 333.477 195.105 331.461 195.768Z" fill="black"/>
<path d="M335.934 197.612C335.145 198.579 334.112 199.316 332.943 199.744C331.775 200.173 330.513 200.278 329.291 200.049C327.822 199.771 326.47 199.058 325.408 198C326.508 198.043 327.608 197.957 328.688 197.745C329.766 197.556 330.827 197.276 331.859 196.908C332.904 196.547 333.907 196.071 334.849 195.489C335.811 194.92 336.644 194.156 337.296 193.245C337.381 194.028 337.303 194.82 337.069 195.572C336.834 196.323 336.448 197.018 335.934 197.612ZM329.194 205.204C327.205 205.932 325.179 206.575 323.142 207.436C323.726 206.131 324.557 204.952 325.589 203.967C326.333 203.254 327.216 202.705 328.181 202.354C329.099 202.02 330.078 201.887 331.051 201.966C332.393 202.101 333.723 202.341 335.03 202.681C333.164 203.697 331.211 204.541 329.194 205.204Z" fill="black"/>
<path d="M333.667 207.048C332.878 208.015 331.845 208.752 330.677 209.181C329.508 209.61 328.247 209.715 327.024 209.486C325.555 209.208 324.203 208.494 323.141 207.436C324.241 207.479 325.341 207.394 326.421 207.181C327.499 206.993 328.56 206.712 329.592 206.344C330.637 205.983 331.64 205.508 332.582 204.925C333.544 204.357 334.377 203.593 335.029 202.682C335.114 203.465 335.036 204.257 334.802 205.008C334.567 205.76 334.181 206.454 333.667 207.048ZM327.289 216.763C325.275 217.685 323.166 218.437 321.056 219.383C321.646 218.045 322.475 216.828 323.503 215.793C324.244 215.04 325.114 214.428 326.071 213.986C326.951 213.595 327.896 213.373 328.857 213.331C329.893 213.234 330.954 213.44 332.823 213.185C332.08 214.02 331.204 214.725 330.231 215.271C329.284 215.833 328.301 216.332 327.289 216.763Z" fill="black"/>
<path d="M333.173 214.507C333.187 214.937 333.158 215.368 333.088 215.793C332.919 216.577 332.604 217.321 332.16 217.988C331.382 219.16 330.286 220.082 329.001 220.644C327.809 221.175 326.499 221.38 325.203 221.239C323.665 221.06 322.218 220.412 321.056 219.383C322.214 219.382 323.368 219.24 324.492 218.958C325.621 218.701 326.723 218.335 327.783 217.867C328.865 217.402 329.876 216.786 330.786 216.035C331.734 215.313 332.444 214.32 332.823 213.185C332.914 213.398 332.99 213.617 333.052 213.84C333.105 214.06 333.145 214.283 333.173 214.507ZM321.008 233.198C321.073 231.863 321.364 230.549 321.867 229.312C322.197 228.496 322.692 227.759 323.321 227.146C323.886 226.627 324.567 226.252 325.306 226.052C326.107 225.775 327.088 225.789 328.655 224.89C328.83 225.02 328.997 225.162 329.154 225.314C329.295 225.475 329.427 225.644 329.548 225.821C329.753 226.173 329.912 226.55 330.023 226.943C330.201 227.678 330.216 228.444 330.066 229.186C329.824 230.463 329.176 231.626 328.219 232.5C327.356 233.302 326.271 233.822 325.108 233.99C323.692 234.186 322.251 233.907 321.008 233.198ZM332.666 173.827C331.965 175.767 331.488 177.781 331.244 179.831C330.369 178.717 329.788 177.398 329.556 175.998C329.386 174.938 329.473 173.852 329.809 172.832C330.159 171.815 330.755 170.902 331.545 170.176C332.589 169.223 333.853 168.547 335.222 168.211C334.162 169.979 333.304 171.863 332.666 173.827ZM336.657 175.209C336.301 176.223 335.7 177.131 334.909 177.854C333.872 178.813 332.612 179.493 331.244 179.831C332.295 178.057 333.152 176.174 333.8 174.215C334.5 172.275 334.977 170.26 335.222 168.211C336.1 169.325 336.685 170.643 336.922 172.044C337.094 173.105 337.003 174.192 336.657 175.209Z" fill="black"/>
<path d="M314.63 242.197C314.823 242.573 315.003 242.962 315.184 243.337C315.389 243.774 315.594 244.199 315.799 244.635C316.161 245.399 316.523 246.151 316.872 246.916C317.186 246.079 317.511 245.254 317.825 244.429C318.018 243.956 318.211 243.471 318.403 242.998C318.476 242.792 318.56 242.598 318.644 242.392C317.306 242.355 315.968 242.294 314.63 242.197ZM319.826 244.223L319.513 243.459C319.404 243.738 319.296 244.017 319.187 244.296C318.717 245.497 318.247 246.697 317.752 247.886C318.934 247.837 320.116 247.801 321.297 247.789L319.826 244.223ZM323.648 242.428C323.069 242.428 322.49 242.44 321.9 242.452C321.393 242.44 320.887 242.44 320.369 242.428L320.501 242.768L320.996 244.114L322.069 246.988L323.226 243.895L323.768 242.428H323.648ZM324.673 243.75L324.42 243.034L324.154 243.798L322.792 247.801C323.913 247.813 325.035 247.837 326.168 247.886L324.673 243.75ZM325.022 242.404L325.444 243.677L326.71 247.522L328.483 243.386L328.977 242.222C327.663 242.306 326.337 242.367 325.022 242.404V242.404ZM329.713 243.265L329.339 242.343L328.953 243.337L327.181 247.934C328.7 248.019 330.231 248.153 331.762 248.371L329.713 243.265ZM314.63 242.197C314.823 242.573 315.003 242.962 315.184 243.337C315.389 243.774 315.594 244.199 315.799 244.635C316.161 245.399 316.523 246.151 316.872 246.916C317.186 246.079 317.511 245.254 317.825 244.429C318.018 243.956 318.211 243.471 318.403 242.998C318.476 242.792 318.56 242.598 318.644 242.392C317.306 242.355 315.968 242.294 314.63 242.197ZM319.826 244.223L319.513 243.459C319.404 243.738 319.296 244.017 319.187 244.296C318.717 245.497 318.247 246.697 317.752 247.886C318.934 247.837 320.116 247.801 321.297 247.789L319.826 244.223ZM323.648 242.428C323.069 242.428 322.49 242.44 321.9 242.452C321.393 242.44 320.887 242.44 320.369 242.428L320.501 242.768L320.996 244.114L322.069 246.988L323.226 243.895L323.768 242.428H323.648ZM324.673 243.75L324.42 243.034L324.154 243.798L322.792 247.801C323.913 247.813 325.035 247.837 326.168 247.886L324.673 243.75ZM325.022 242.404L325.444 243.677L326.71 247.522L328.483 243.386L328.977 242.222C327.663 242.307 326.337 242.367 325.022 242.404V242.404ZM329.713 243.265L329.339 242.343L328.953 243.337L327.181 247.934C328.7 248.019 330.231 248.153 331.762 248.371L329.713 243.265ZM313.991 242.731C313.858 242.986 313.714 243.253 313.581 243.507L314.268 243.434C314.172 243.204 314.087 242.962 313.991 242.731ZM314.63 242.197C314.823 242.573 315.003 242.962 315.184 243.337C315.389 243.774 315.594 244.199 315.799 244.635C316.475 244.563 317.15 244.49 317.825 244.429C318.018 243.956 318.211 243.471 318.403 242.998C318.476 242.792 318.56 242.598 318.644 242.392C317.306 242.355 315.968 242.294 314.63 242.197ZM319.513 243.459C319.404 243.738 319.296 244.017 319.187 244.296C319.392 244.271 319.609 244.247 319.826 244.223L319.513 243.459ZM321.9 242.452C321.393 242.44 320.887 242.44 320.369 242.428L320.501 242.768C321.55 242.658 322.599 242.537 323.648 242.428C323.069 242.428 322.49 242.44 321.9 242.452ZM308.143 224.574L310.82 241.845C311.833 241.712 312.845 241.615 313.846 241.53C313.892 241.497 313.946 241.474 314.003 241.466C314.06 241.458 314.117 241.463 314.172 241.482L314.196 241.506C315.908 241.385 317.608 241.3 319.308 241.263C319.434 241.227 319.567 241.227 319.694 241.263C320.429 241.251 321.164 241.239 321.9 241.239C324.938 241.251 327.964 241.324 330.99 241.615C331.654 241.688 332.329 241.761 332.992 241.845L333.064 241.385L335.656 224.574L308.143 224.574ZM312.399 240.839C310.072 240.839 310.072 237.2 312.399 237.2C314.738 237.2 314.726 240.839 312.399 240.839ZM318.91 240.839C316.583 240.839 316.583 237.2 318.91 237.2C321.249 237.2 321.237 240.839 318.91 240.839ZM325.203 240.621C322.876 240.621 322.876 236.982 325.203 236.982C327.542 236.982 327.53 240.621 325.203 240.621V240.621ZM331.388 240.839C329.061 240.839 329.061 237.2 331.388 237.2C333.727 237.2 333.715 240.839 331.388 240.839ZM329.713 243.265L329.339 242.343L328.953 243.337L327.181 247.934C328.7 248.019 330.231 248.153 331.762 248.371L329.713 243.265ZM325.022 242.404L325.445 243.677L326.71 247.522L328.483 243.386L328.977 242.222C327.663 242.306 326.337 242.367 325.022 242.404ZM324.673 243.75L324.42 243.034L324.154 243.798L322.792 247.801C323.913 247.813 325.035 247.837 326.168 247.886L324.673 243.75ZM323.648 242.428C323.069 242.428 322.49 242.44 321.9 242.452C321.393 242.44 320.887 242.44 320.369 242.428L320.501 242.768L320.996 244.114L322.069 246.988L323.226 243.895L323.769 242.428H323.648ZM319.826 244.223L319.513 243.459C319.404 243.738 319.296 244.017 319.187 244.296C318.717 245.497 318.247 246.697 317.752 247.886C318.934 247.837 320.116 247.801 321.297 247.789L319.826 244.223ZM314.63 242.197C314.823 242.573 315.003 242.962 315.184 243.337C315.389 243.774 315.594 244.199 315.799 244.635C316.161 245.399 316.523 246.151 316.872 246.916C317.186 246.079 317.511 245.254 317.825 244.429C318.018 243.956 318.211 243.471 318.403 242.998C318.476 242.792 318.56 242.598 318.645 242.392C317.306 242.355 315.968 242.294 314.63 242.197L314.63 242.197ZM329.713 243.265L329.339 242.343L328.953 243.337L327.181 247.934C328.7 248.019 330.231 248.153 331.762 248.371L329.713 243.265ZM325.022 242.404L325.445 243.677L326.71 247.522L328.483 243.386L328.977 242.222C327.663 242.306 326.337 242.367 325.022 242.404ZM324.673 243.75L324.42 243.034L324.154 243.798L322.792 247.801C323.913 247.813 325.035 247.837 326.168 247.886L324.673 243.75ZM323.648 242.428C323.069 242.428 322.49 242.44 321.9 242.452C321.393 242.44 320.887 242.44 320.369 242.428L320.501 242.768L320.996 244.114L322.069 246.988L323.226 243.895L323.769 242.428H323.648ZM319.826 244.223L319.513 243.459C319.404 243.738 319.296 244.017 319.187 244.296C318.717 245.497 318.247 246.697 317.752 247.886C318.934 247.837 320.116 247.801 321.297 247.789L319.826 244.223ZM314.63 242.197C314.823 242.573 315.003 242.962 315.184 243.337C315.389 243.774 315.594 244.199 315.799 244.635C316.161 245.399 316.523 246.151 316.872 246.916C317.186 246.079 317.511 245.254 317.825 244.429C318.018 243.956 318.211 243.471 318.403 242.998C318.476 242.792 318.56 242.598 318.645 242.392C317.306 242.355 315.968 242.294 314.63 242.197L314.63 242.197ZM323.648 242.428C322.599 242.537 321.55 242.658 320.501 242.768L320.996 244.114C321.731 244.041 322.479 243.968 323.226 243.895L323.769 242.428H323.648ZM324.42 243.034L324.154 243.798C324.323 243.786 324.504 243.774 324.673 243.75L324.42 243.034ZM325.022 242.404L325.445 243.677C326.457 243.58 327.47 243.483 328.483 243.386L328.977 242.222C327.663 242.307 326.337 242.367 325.022 242.404ZM329.339 242.343L328.953 243.337C329.206 243.313 329.459 243.289 329.713 243.265L329.339 242.343ZM329.652 242.173L330.038 243.24L331.883 248.371V248.383C331.915 248.381 331.948 248.385 331.979 248.395L332.823 242.974L332.992 241.845C331.871 241.991 330.761 242.088 329.652 242.173V242.173ZM331.871 248.407C331.871 248.42 331.871 248.444 331.847 248.444C331.834 248.449 331.819 248.45 331.806 248.445C331.793 248.441 331.781 248.432 331.774 248.42C328.498 248.825 325.2 249.019 321.9 249.002C320.345 248.99 318.789 248.953 317.234 248.88C317.157 248.938 317.066 248.973 316.971 248.984C316.876 248.995 316.779 248.98 316.692 248.941C316.641 248.913 316.592 248.88 316.547 248.844C314.979 248.747 313.4 248.613 311.833 248.395L312.64 253.611H331.171L331.979 248.395C331.943 248.393 331.906 248.397 331.871 248.407V248.407ZM316.51 253.15C314.172 253.15 314.184 249.511 316.51 249.511C318.838 249.511 318.838 253.15 316.51 253.15L316.51 253.15ZM322.587 253.15C320.248 253.15 320.26 249.511 322.587 249.511C324.914 249.511 324.914 253.15 322.587 253.15V253.15ZM328.664 252.931C326.325 252.931 326.337 249.293 328.664 249.293C330.99 249.293 330.99 252.931 328.664 252.931V252.931ZM329.713 243.265L329.339 242.343L328.953 243.337L327.181 247.934C328.7 248.019 330.231 248.153 331.762 248.371L329.713 243.265ZM325.022 242.404L325.445 243.677L326.71 247.522L328.483 243.386L328.977 242.222C327.663 242.306 326.337 242.367 325.022 242.404ZM324.673 243.75L324.42 243.034L324.154 243.798L322.792 247.801C323.913 247.813 325.035 247.837 326.168 247.886L324.673 243.75ZM323.648 242.428C323.069 242.428 322.49 242.44 321.9 242.452C321.393 242.44 320.887 242.44 320.369 242.428L320.501 242.768L320.996 244.114L322.069 246.988L323.226 243.895L323.769 242.428H323.648ZM319.826 244.223L319.513 243.459C319.404 243.738 319.296 244.017 319.187 244.296C318.717 245.497 318.247 246.697 317.752 247.886C318.934 247.837 320.116 247.801 321.297 247.789L319.826 244.223ZM314.63 242.197C314.823 242.573 315.003 242.962 315.184 243.337C315.389 243.774 315.594 244.199 315.799 244.635C316.161 245.399 316.523 246.151 316.872 246.916C317.186 246.079 317.511 245.254 317.825 244.429C318.018 243.956 318.211 243.471 318.403 242.998C318.476 242.792 318.56 242.598 318.645 242.392C317.306 242.355 315.968 242.294 314.63 242.197L314.63 242.197ZM314.786 244.732C314.618 244.308 314.437 243.871 314.268 243.434C314.172 243.204 314.087 242.962 313.991 242.731C313.858 242.986 313.714 243.253 313.581 243.507C313.34 243.98 313.087 244.453 312.833 244.926C312.46 245.642 312.074 246.358 311.676 247.073C311.671 247.078 311.666 247.081 311.659 247.083C311.653 247.085 311.646 247.086 311.64 247.085L311.833 248.395C313.255 248.189 314.69 248.068 316.113 247.971C315.679 246.891 315.232 245.812 314.786 244.732L314.786 244.732ZM315.799 244.635C316.161 245.399 316.523 246.151 316.872 246.916C317.186 246.079 317.511 245.254 317.825 244.429C317.149 244.49 316.475 244.563 315.799 244.635V244.635ZM319.826 244.223C319.609 244.247 319.392 244.271 319.187 244.296C318.717 245.497 318.247 246.697 317.752 247.886C318.934 247.837 320.116 247.801 321.297 247.789L319.826 244.223ZM320.996 244.114L322.069 246.988L323.226 243.895C322.479 243.968 321.731 244.041 320.996 244.114L320.996 244.114ZM324.673 243.75C324.504 243.774 324.323 243.786 324.154 243.798L322.792 247.801C323.913 247.813 325.035 247.837 326.168 247.886L324.673 243.75ZM325.445 243.677L326.71 247.522L328.483 243.386C327.47 243.483 326.457 243.58 325.445 243.677V243.677ZM329.713 243.265C329.459 243.289 329.206 243.313 328.953 243.337L327.181 247.934C328.7 248.019 330.231 248.153 331.762 248.371L329.713 243.265ZM310.82 241.845L311.121 243.774L311.314 245.084L311.604 246.916C311.857 246.261 312.11 245.618 312.363 244.975C312.544 244.502 312.737 244.041 312.93 243.58C313.123 243.095 313.316 242.61 313.52 242.124C312.616 242.052 311.724 241.955 310.82 241.845V241.845Z" fill="black"/>
<path d="M323.573 239.087C322.493 238.261 321.914 236.958 321.415 235.713C321.226 235.065 320.98 234.424 320.835 233.762L320.427 231.766C320.094 229.079 319.993 226.368 320.124 223.663C320.171 220.953 320.574 218.283 320.886 215.602C321.374 212.956 321.75 210.279 322.389 207.666C322.988 205.043 323.587 202.42 324.345 199.842C325.074 197.256 325.775 194.663 326.675 192.132C327.544 189.592 328.324 187.025 329.291 184.522C330.27 182.023 331.198 179.51 332.218 177.031C330.8 182.209 329.157 187.3 327.777 192.467L326.703 196.328L325.714 200.209C325.394 201.505 325.009 202.784 324.722 204.087L323.849 207.99C323.186 210.577 322.813 213.214 322.281 215.826C321.89 218.455 321.479 221.086 321.267 223.733C321.007 226.374 320.969 229.032 321.151 231.679L321.386 233.65C321.473 234.306 321.658 234.94 321.79 235.591C322.188 236.832 322.609 238.144 323.573 239.087ZM137.743 191.371C137.147 193.069 136.469 194.732 135.792 196.395L133.094 200.969L127.917 209.769H125.919L126.229 209.249L131.613 200.091L134.311 195.506C135.436 194.12 136.55 192.723 137.743 191.371ZM125.139 197.123L124.496 202.782L123.704 209.769H121.97L122.785 202.585L123.416 196.927C123.887 195.067 124.346 193.208 124.92 191.371C125.058 193.3 125.104 195.206 125.139 197.123ZM118.032 209.769H119.123L118.514 205.484L118.021 202.043L117.263 196.638C116.747 194.882 116.241 193.115 115.633 191.372C115.553 192.885 115.53 194.386 115.541 195.887V196.892L115.759 198.382L116.322 202.285L117.389 209.769H118.032ZM114.393 209.769H112.66L111.581 202.285L110.812 196.892C110.8 195.056 110.8 193.219 110.903 191.371C111.512 193.116 112.017 194.882 112.534 196.638L113.291 202.043L114.026 207.194L114.393 209.769Z" fill="black"/>
<path d="M115.759 197.365V198.382L115.748 202.678V209.769H114.026V197.365C114.278 195.598 114.531 193.831 114.887 192.053C115.139 193.335 115.358 194.617 115.541 195.887C115.622 196.384 115.691 196.869 115.759 197.365ZM121.063 198.254L120.466 203.532L119.766 209.769H118.032L118.515 205.484L118.756 203.336L119.341 198.058C119.789 196.326 120.237 194.593 120.788 192.884C120.948 194.674 121.006 196.464 121.063 198.254ZM109.078 216.837V223.073C109.377 223.038 109.675 223.015 109.973 222.981L112.556 217.148C111.397 217.067 110.238 216.975 109.078 216.837ZM112.878 217.252L110.111 222.969C111.776 222.796 113.452 222.68 115.117 222.611L112.878 217.252ZM113.245 217.195L115.61 222.322L117.493 217.368C116.081 217.345 114.657 217.276 113.245 217.195ZM118.09 217.865L116.15 222.576C117.378 222.53 118.595 222.507 119.823 222.496L118.09 217.865ZM120.535 217.414C119.938 217.402 119.33 217.391 118.733 217.391L120.489 221.745L121.982 217.391C121.499 217.402 121.017 217.402 120.535 217.414ZM122.751 218.511L121.247 222.496C122.211 222.507 123.175 222.519 124.14 222.553C123.658 221.202 123.198 219.863 122.751 218.511ZM123.554 217.368C124.048 218.742 124.519 220.117 124.978 221.491C125.598 220.07 126.206 218.661 126.838 217.252C125.747 217.31 124.656 217.345 123.554 217.368ZM127.48 217.899C126.906 219.47 126.31 221.029 125.713 222.599C127.033 222.646 128.353 222.727 129.662 222.842C128.904 221.202 128.192 219.562 127.48 217.899ZM109.078 209.769V216.837C112.882 216.419 116.708 216.227 120.535 216.259C121.235 216.259 121.936 216.271 122.636 216.282C122.737 216.253 122.844 216.253 122.946 216.282C124.415 216.305 125.873 216.363 127.331 216.444C127.368 216.431 127.407 216.423 127.446 216.421C127.505 216.421 127.563 216.433 127.618 216.456C129.076 216.548 130.534 216.664 131.992 216.837V209.769H109.078ZM111.753 214.931C109.526 214.931 109.537 211.466 111.753 211.466C113.969 211.466 113.969 214.931 111.753 214.931ZM117.952 214.931C115.725 214.931 115.736 211.466 117.952 211.466C120.168 211.466 120.168 214.931 117.952 214.931ZM123.945 214.723C121.718 214.723 121.729 211.259 123.945 211.259C126.16 211.259 126.16 214.723 123.945 214.723ZM129.834 214.931C127.607 214.931 127.618 211.466 129.834 211.466C132.05 211.466 132.05 214.931 129.834 214.931ZM127.986 217.183C128.628 219.065 129.248 220.948 129.822 222.854C130.546 222.923 131.269 222.981 131.992 223.073L131.992 216.837C130.66 216.987 129.329 217.102 127.986 217.183ZM112.878 217.252L110.111 222.969C111.776 222.796 113.452 222.68 115.117 222.611L112.878 217.252ZM113.245 217.195L115.61 222.322L117.493 217.368C116.081 217.345 114.657 217.276 113.245 217.195ZM118.09 217.865L116.15 222.576C117.378 222.53 118.595 222.507 119.823 222.496L118.09 217.865ZM120.535 217.414C119.938 217.402 119.33 217.391 118.733 217.391L120.489 221.745L121.982 217.391C121.499 217.402 121.017 217.402 120.535 217.414ZM122.751 218.511L121.247 222.496C122.211 222.507 123.175 222.519 124.14 222.553C123.658 221.202 123.198 219.863 122.751 218.511ZM123.554 217.368C124.048 218.742 124.519 220.117 124.978 221.491C125.598 220.07 126.206 218.661 126.838 217.252C125.747 217.31 124.656 217.345 123.554 217.368ZM127.48 217.899C126.906 219.47 126.31 221.029 125.713 222.599C127.033 222.646 128.353 222.727 129.662 222.842C128.904 221.202 128.192 219.562 127.48 217.899ZM112.878 217.252L110.111 222.969C111.776 222.796 113.452 222.68 115.117 222.611L112.878 217.252ZM113.245 217.195L115.61 222.322L117.493 217.368C116.081 217.345 114.657 217.276 113.245 217.195ZM118.09 217.865L116.15 222.576C117.378 222.53 118.595 222.507 119.823 222.496L118.09 217.865ZM120.535 217.414C119.938 217.402 119.33 217.391 118.733 217.391L120.489 221.745L121.982 217.391C121.499 217.402 121.017 217.402 120.535 217.414ZM122.751 218.511L121.247 222.496C122.211 222.507 123.175 222.519 124.14 222.553C123.658 221.202 123.198 219.863 122.751 218.511ZM123.554 217.368C124.048 218.742 124.519 220.117 124.978 221.491C125.598 220.07 126.206 218.661 126.838 217.252C125.747 217.31 124.656 217.345 123.554 217.368ZM127.48 217.899C126.906 219.47 126.31 221.029 125.713 222.599C127.033 222.646 128.353 222.727 129.662 222.842C128.904 221.202 128.192 219.562 127.48 217.899ZM109.078 229.829V231.261C109.078 234.318 110.285 237.25 112.434 239.411C114.582 241.573 117.496 242.787 120.535 242.787C123.573 242.787 126.488 241.573 128.636 239.411C130.785 237.25 131.992 234.318 131.992 231.261V229.829C124.373 230.599 116.697 230.599 109.078 229.829ZM125.219 223.558C125.145 223.608 125.061 223.639 124.973 223.649C124.885 223.659 124.796 223.648 124.714 223.616C124.69 223.602 124.667 223.586 124.645 223.57C123.279 223.616 121.901 223.639 120.535 223.651C116.708 223.672 112.883 223.479 109.078 223.073V229.829C112.882 229.412 116.708 229.219 120.535 229.252C124.362 229.22 128.187 229.413 131.992 229.829V223.073C129.731 223.339 127.48 223.477 125.219 223.558ZM112.269 228.236C110.042 228.236 110.054 224.771 112.269 224.771C114.485 224.771 114.485 228.236 112.269 228.236ZM117.539 228.131C115.312 228.131 115.323 224.667 117.539 224.667C119.754 224.667 119.754 228.131 117.539 228.131ZM123.325 228.131C121.098 228.131 121.109 224.667 123.325 224.667C125.54 224.667 125.54 228.131 123.325 228.131ZM129.111 227.924C126.884 227.924 126.895 224.459 129.111 224.459C131.326 224.459 131.326 227.924 129.111 227.924ZM129.662 222.842C128.904 221.202 128.192 219.562 127.48 217.899C126.906 219.47 126.31 221.029 125.713 222.599C127.033 222.646 128.353 222.727 129.662 222.842ZM126.838 217.252C125.747 217.31 124.656 217.345 123.554 217.368C124.048 218.742 124.519 220.117 124.978 221.491C125.598 220.07 126.206 218.661 126.838 217.252ZM124.14 222.553C123.658 221.202 123.198 219.863 122.751 218.511L121.247 222.496C122.211 222.507 123.175 222.519 124.14 222.553ZM121.982 217.391C121.499 217.402 121.017 217.402 120.535 217.414C119.938 217.402 119.33 217.391 118.733 217.391L120.489 221.745L121.982 217.391ZM119.823 222.496L118.09 217.865L116.15 222.576C117.378 222.53 118.595 222.507 119.823 222.496ZM117.493 217.368C116.081 217.345 114.657 217.276 113.245 217.195L115.61 222.322L117.493 217.368ZM112.878 217.252L110.111 222.969C111.776 222.796 113.452 222.68 115.117 222.611L112.878 217.252ZM127.48 217.899C126.906 219.47 126.31 221.029 125.713 222.599C127.033 222.646 128.353 222.727 129.662 222.842C128.904 221.202 128.192 219.562 127.48 217.899ZM123.554 217.368C124.048 218.742 124.519 220.117 124.978 221.491C125.598 220.07 126.206 218.661 126.838 217.252C125.747 217.31 124.656 217.345 123.554 217.368ZM122.751 218.511L121.247 222.496C122.211 222.507 123.175 222.519 124.14 222.553C123.658 221.202 123.198 219.863 122.751 218.511ZM120.535 217.414C119.938 217.402 119.33 217.391 118.733 217.391L120.489 221.745L121.982 217.391C121.499 217.402 121.017 217.402 120.535 217.414ZM118.09 217.865L116.15 222.576C117.378 222.53 118.595 222.507 119.823 222.496L118.09 217.865ZM113.245 217.195L115.61 222.322L117.493 217.368C116.081 217.345 114.657 217.276 113.245 217.195ZM112.878 217.252L110.111 222.969C111.776 222.796 113.452 222.68 115.117 222.611L112.878 217.252ZM127.48 217.899C126.906 219.47 126.31 221.029 125.713 222.599C127.033 222.646 128.353 222.727 129.662 222.842C128.904 221.202 128.192 219.562 127.48 217.899ZM123.554 217.368C124.048 218.742 124.519 220.117 124.978 221.491C125.598 220.07 126.206 218.661 126.838 217.252C125.747 217.31 124.656 217.345 123.554 217.368ZM122.751 218.511L121.247 222.496C122.211 222.507 123.175 222.519 124.14 222.553C123.658 221.202 123.198 219.863 122.751 218.511ZM120.535 217.414C119.938 217.402 119.33 217.391 118.733 217.391L120.489 221.745L121.982 217.391C121.499 217.402 121.017 217.402 120.535 217.414ZM118.09 217.865L116.15 222.576C117.378 222.53 118.595 222.507 119.823 222.496L118.09 217.865ZM113.245 217.195L115.61 222.322L117.493 217.368C116.081 217.345 114.657 217.276 113.245 217.195ZM112.878 217.252L110.111 222.969C111.776 222.796 113.452 222.68 115.117 222.611L112.878 217.252ZM219.055 215.015C219.497 216.679 219.99 218.3 220.475 219.926C220.975 221.545 221.477 223.161 222.003 224.771C222.251 225.581 222.516 226.386 222.784 227.19C223.022 228.005 223.322 228.799 223.56 229.616C223.821 230.425 224.081 231.236 224.325 232.056C224.572 232.874 224.829 233.69 225.031 234.532C224.573 233.801 224.163 233.047 223.755 232.291C223.376 231.522 222.988 230.755 222.646 229.969C221.95 228.399 221.337 226.793 220.81 225.158C220.284 223.519 219.856 221.851 219.528 220.161C219.178 218.469 219.02 216.743 219.055 215.015Z" fill="black"/>
<path d="M185.691 217.779C185.691 217.543 185.668 217.309 185.622 217.078H185.628V217.084C185.672 217.313 185.693 217.546 185.691 217.779Z" fill="white"/>
<path d="M180.335 216.075C181.062 216.22 181.784 216.359 182.511 216.498L185.628 217.085C185.652 218.049 185.551 219.012 185.327 219.949V219.955L181.972 219.324C181.106 219.16 180.247 218.99 179.382 218.813C179.237 218.794 179.099 218.763 178.955 218.731C177.914 218.529 176.867 218.328 175.826 218.119C175.943 217.15 175.964 216.172 175.888 215.198C176.785 215.381 177.688 215.558 178.585 215.735L178.805 215.779" fill="black"/>
</svg>
