<svg width="235" height="157" viewBox="0 0 235 157" fill="none" xmlns="http://www.w3.org/2000/svg">
<path d="M59.3114 31.9582L59.3058 31.9584C59.297 31.9588 59.2883 31.9568 59.2805 31.9528L59.2763 31.9505C58.5524 31.5833 57.809 31.2561 57.0494 30.9703C56.2961 30.6837 55.5153 30.4062 54.7562 30.1837L54.8178 30.1926L54.8068 30.1929C54.7879 30.1935 54.769 30.191 54.7509 30.1856L54.7357 30.181C50.7248 28.9221 46.5601 28.2202 42.3583 28.095C40.2641 28.0329 38.1682 28.0997 36.0823 28.2952L29.7599 28.8297C25.5436 29.1701 21.3193 29.4134 17.0971 29.6823C12.8739 29.9384 8.6525 30.2161 4.43712 30.5674L4.52733 30.2443C5.27325 30.7866 5.95563 31.4115 6.56151 32.107C7.16099 32.8108 7.67191 33.5855 8.08284 34.4137C8.48044 35.2475 8.79556 36.1181 9.02372 37.0133C9.23986 37.9103 9.37853 38.8243 9.43819 39.7451C9.54071 41.5854 9.41702 43.4313 9.06991 45.2414C8.74159 47.0594 8.22636 48.8387 7.53241 50.5507L7.03035 49.9041C9.9964 49.3434 12.9616 48.7778 15.9314 48.2389L24.8376 46.6027L24.351 47.0416L24.4155 46.8503L24.3959 46.9024C24.8268 45.5382 25.7143 44.3642 26.9089 43.578C28.0962 42.7939 29.5044 42.4136 30.9248 42.4935C32.3512 42.5852 33.7045 43.1576 34.7642 44.1175C34.9026 44.2285 35.0275 44.3553 35.1364 44.4953L35.4805 44.9001C35.6869 45.1852 35.8772 45.4817 36.0504 45.7881C36.2151 46.092 36.3275 46.4046 36.4675 46.7127C36.5327 46.8677 36.6037 47.021 36.6636 47.1774L36.8105 47.655C37.5193 50.1813 37.7918 52.8101 37.6162 55.4281C37.4996 58.0107 37.1374 60.5763 36.5344 63.0902L36.0892 62.6432L42.0763 61.3904L48.0756 60.1901C48.0907 60.1871 48.1064 60.1901 48.1194 60.1984C48.1323 60.2068 48.1415 60.2199 48.1449 60.2349C48.1483 60.25 48.1458 60.2657 48.1377 60.2789C48.1297 60.2921 48.1169 60.3016 48.102 60.3054L42.1849 61.8584L36.2573 63.3666C36.1977 63.3818 36.1352 63.3816 36.0756 63.3662C36.0161 63.3508 35.9613 63.3207 35.9165 63.2785C35.8716 63.2364 35.8381 63.1836 35.819 63.1251C35.8 63.0665 35.7959 63.0042 35.8073 62.9436L35.812 62.9195C36.2904 60.4386 36.5637 57.9225 36.6289 55.3967C36.7365 52.9038 36.4197 50.4107 35.6921 48.0241L35.5518 47.5881C35.4957 47.4475 35.4297 47.3119 35.3695 47.1734C35.2417 46.9028 35.1345 46.6114 34.9921 46.3572C34.8306 46.1213 34.7041 45.8588 34.5209 45.6414L34.2403 45.3205C34.1539 45.2077 34.0528 45.1072 33.9395 45.0215C33.0813 44.2648 31.9932 43.8197 30.851 43.7582C29.7035 43.6922 28.5652 43.9975 27.6045 44.6288C26.6477 45.2604 25.9318 46.1965 25.5724 47.2857L25.5528 47.338C25.5498 47.3529 25.5452 47.3674 25.5391 47.3813L25.4994 47.4716C25.4591 47.5619 25.3973 47.641 25.3193 47.7018C25.2414 47.7626 25.1497 47.8033 25.0523 47.8203L16.1243 49.3328C13.1495 49.8434 10.1699 50.3273 7.19118 50.8161C7.1085 50.8297 7.0237 50.8207 6.9457 50.7901C6.8677 50.7595 6.79941 50.7084 6.748 50.6422C6.69659 50.576 6.66399 50.4971 6.65361 50.4139C6.64324 50.3307 6.65548 50.2463 6.68905 50.1695C7.39689 48.5328 7.94887 46.833 8.33762 45.0926C8.742 43.3496 8.92385 41.5623 8.87884 39.7735C8.8496 38.8819 8.74392 37.9944 8.56297 37.1208C8.37125 36.2506 8.08309 35.4044 7.70382 34.5981C7.31722 33.7957 6.83382 33.0438 6.26442 32.3591C5.68599 31.6796 5.03295 31.0674 4.31764 30.534L4.31266 30.5302C4.28424 30.5081 4.26316 30.4779 4.25218 30.4436C4.24119 30.4093 4.24081 30.3724 4.2511 30.3379C4.26139 30.3034 4.28186 30.2728 4.30983 30.2501C4.33779 30.2275 4.37195 30.2138 4.40783 30.2108C8.62389 29.8681 12.8342 29.4543 17.0422 29.0142C21.2513 28.5876 25.4584 28.1355 29.6734 27.7804L35.9979 27.2717C38.1267 27.09 40.2656 27.0572 42.399 27.1736C44.5314 27.2918 46.6519 27.5706 48.7425 28.0076C50.8312 28.4305 52.8827 29.0197 54.8776 29.7695L54.8068 29.7576L54.8178 29.7579L54.8346 29.7584C54.8499 29.7589 54.8652 29.7618 54.8797 29.7669C55.6703 30.0494 56.4101 30.3635 57.1627 30.7C57.9113 31.0344 58.637 31.4178 59.3353 31.8476L59.306 31.8398L59.3115 31.84C59.3268 31.8406 59.3412 31.8471 59.3518 31.8581C59.3624 31.8691 59.3683 31.8838 59.3683 31.8991C59.3683 31.9144 59.3624 31.9291 59.3518 31.9401C59.3412 31.9512 59.3268 31.9576 59.3115 31.9582L59.3114 31.9582ZM85.1658 47.726C84.8289 46.037 84.1526 44.4341 83.178 43.0145C82.6917 42.3339 82.1323 41.7087 81.5098 41.1501C80.8795 40.599 80.2039 40.1019 79.4902 39.6643C78.0241 38.8066 76.4599 38.1291 74.8315 37.6466C73.1802 37.1462 71.4917 36.7782 69.782 36.5461L69.749 36.5429C69.1647 36.3799 68.5824 36.2059 68.0021 36.0208C68.6106 36.0508 69.2166 36.0941 69.8209 36.1475L69.7881 36.1442C71.5734 36.0662 73.3609 36.2365 75.0994 36.6501C76.8651 37.0481 78.5541 37.7313 80.1001 38.673C81.6764 39.6234 82.9888 40.955 83.9166 42.5454C84.8088 44.1215 85.2416 45.9163 85.1658 47.726Z" fill="black"/>
<path d="M29.2036 42.8556C30.2332 42.4567 31.2744 42.1095 32.3227 41.7946C33.3702 41.4754 34.423 41.1806 35.4813 40.9103C36.5365 40.6257 37.6032 40.3936 38.6659 40.1427C39.7343 39.9184 40.8008 39.6839 41.8775 39.4955L42.1263 39.4519L42.2826 39.5714C42.724 39.9126 43.1313 40.2959 43.4987 40.7158C43.8634 41.1153 44.1984 41.5409 44.5011 41.9893C44.8045 42.4321 45.0768 42.8955 45.3159 43.3762C45.5569 43.8517 45.7608 44.3451 45.9256 44.8521C45.6172 44.4203 45.2997 44.0023 44.9729 43.5981C44.6416 43.1945 44.3072 42.7918 43.9584 42.4264C43.6023 42.0559 43.2381 41.6975 42.8596 41.36C42.4898 41.0346 42.1026 40.7297 41.6996 40.4466L42.1045 40.5225C41.0493 40.8056 39.984 41.0431 38.9215 41.2947C37.853 41.5187 36.7886 41.7614 35.7127 41.9517C34.6402 42.1579 33.5619 42.338 32.4778 42.492C31.395 42.6519 30.3051 42.7796 29.2036 42.8556ZM14.2139 29.584C15.476 30.752 16.4692 32.1808 17.1245 33.7712C17.8098 35.3612 18.2421 37.0489 18.4058 38.7727C18.5427 40.4924 18.4373 42.2228 18.0926 43.913C18.051 44.1231 18.0191 44.3347 17.9694 44.5426L17.7931 45.1598L17.4229 46.3837C17.1239 47.1814 16.774 47.9592 16.4073 48.7182C16.5267 47.8715 16.7238 47.0599 16.8611 46.2387L17.0343 45.0047L17.1298 44.3929C17.1554 44.1884 17.1632 43.9814 17.1808 43.7763C17.2094 43.365 17.2421 42.9558 17.2853 42.5484C17.3158 42.14 17.2998 41.7293 17.3097 41.3212C17.328 40.5063 17.3014 39.691 17.2298 38.879C17.0798 37.2554 16.7567 35.6525 16.266 34.0977C15.7716 32.5138 15.0823 30.9976 14.2139 29.584Z" fill="black"/>
<path d="M46.2442 41.8875C47.1273 41.5576 48.0159 41.2332 48.9101 40.9256C48.8606 41.2908 48.8345 41.6588 48.8319 42.0274C48.0662 42.2678 47.2949 42.4972 46.5181 42.7208C45.9927 42.8718 45.4673 43.0228 44.9364 43.1738C44.8638 43.062 44.7911 42.9557 44.7184 42.855C44.6458 42.7488 44.5675 42.6481 44.5005 42.5531C45.0817 42.3238 45.663 42.1057 46.2442 41.8875ZM55.0524 39.9973C54.3705 40.2321 53.6999 40.4671 53.018 40.6963H53.0124C52.8001 40.3599 52.5528 40.0468 52.2747 39.7624L52.5262 39.6785C53.2807 39.4324 54.0352 39.1863 54.7897 38.9459C54.8791 39.3261 54.9741 39.6785 55.0524 39.9973ZM51.2128 36.3118C52.3362 35.9482 53.4596 35.5847 54.5885 35.2324C54.4665 35.6078 54.4079 36.001 54.4152 36.3956C53.4707 36.7312 52.515 37.05 51.5649 37.3743C49.4579 38.0622 47.3397 38.7389 45.2047 39.3485C44.2154 39.6393 43.2206 39.9171 42.2202 40.1818C41.0688 40.4894 39.9175 40.7802 38.7495 41.0319C39.2133 40.8249 39.6772 40.618 40.1467 40.4167C40.1523 40.4167 40.1523 40.4167 40.1578 40.4111C41.7339 39.74 43.3324 39.1192 44.9308 38.5208C47.0099 37.7379 49.1113 37.022 51.2128 36.3118ZM60.0042 34.332C59.9091 34.3711 59.8142 34.4103 59.7191 34.4439C59.4748 34.2393 59.1993 34.075 58.9032 33.9573C59.205 33.8734 59.5068 33.7895 59.8086 33.7056C59.8812 33.9405 59.9483 34.153 60.0042 34.332ZM7.11161 50.3581C-5.50614 38.8342 4.42438 30.3916 4.42438 30.3916C13.2433 36.7816 7.11161 50.3581 7.11161 50.3581ZM36.1721 63.003C25.7601 66.1107 24.9453 47.2108 24.9453 47.2108C24.9575 47.1721 24.9698 47.1335 24.9823 47.0953C26.5478 42.2833 33.2581 41.6609 35.5731 46.1602C38.7101 52.2572 36.1721 63.003 36.1721 63.003ZM44.0259 60.7458C42.3014 64.9977 40.5371 69.2058 38.9137 73.4526C37.2545 77.6473 35.8563 81.9406 34.7272 86.3081C34.4608 87.3799 34.2562 88.4661 34.1145 89.5614C33.9604 90.6217 33.9652 91.6992 34.1287 92.7581C34.2145 93.2562 34.3834 93.7363 34.6283 94.1783C34.878 94.5983 35.2242 94.9527 35.6381 95.2121C36.583 95.6914 37.6574 95.8523 38.7011 95.6708C40.9179 95.2858 43.0507 94.5171 45.0038 93.3994C45.4998 93.1244 45.9966 92.8528 46.4864 92.566L47.9345 91.6642C48.9117 91.0844 49.8274 90.4056 50.7649 89.7679C51.699 89.1242 52.5873 88.4144 53.4981 87.7432L54.8209 86.6767C55.2611 86.3212 55.7141 85.9834 56.1388 85.6087C56.9926 84.8659 57.8813 84.1695 58.7118 83.4021L59.9777 82.2774L61.2109 81.1169C62.8488 79.564 64.4245 77.9498 65.9379 76.2741C67.4618 74.6111 68.9241 72.8927 70.3521 71.1458C73.2152 67.6435 75.881 63.9843 78.3372 60.1852C79.5695 58.282 80.752 56.3433 81.8846 54.3691C83.0189 52.3968 84.1044 50.3876 85.093 48.3281L85.3157 48.4073C83.9782 52.8285 82.1754 57.0952 79.9376 61.1356C77.7288 65.2073 75.1793 69.0846 72.3166 72.7258C69.4231 76.3531 66.2105 79.7135 62.7175 82.7669L61.4065 83.9075L60.0586 85.0043C59.1659 85.7417 58.2317 86.4281 57.2977 87.111C56.3621 87.7919 55.3906 88.4237 54.4278 89.0617C53.4366 89.6596 52.4714 90.2929 51.4638 90.8574C50.4574 91.4236 49.4643 92.0071 48.4379 92.5317C47.4206 93.0699 46.4061 93.6124 45.3665 94.1157C43.296 95.186 41.0877 95.965 38.8041 96.4305C37.5863 96.6876 36.3187 96.5598 35.1767 96.0648C34.5871 95.7688 34.0769 95.3357 33.689 94.8019C33.3243 94.2737 33.0458 93.691 32.8639 93.0753C32.5417 91.8951 32.4003 90.6728 32.4444 89.4502C32.4767 88.2644 32.5956 87.0826 32.8001 85.9143C33.2174 83.6183 33.8295 81.3622 34.6296 79.1702C35.3963 76.9827 36.2725 74.8454 37.2238 72.746C37.6896 71.6923 38.1961 70.6576 38.706 69.6262C39.2117 68.5929 39.7449 67.5735 40.2939 66.5631C41.3878 64.5407 42.5409 62.5516 43.8177 60.6339L44.0259 60.7458ZM16.2474 32.8409C19.4661 32.3562 22.6935 31.9879 25.9238 31.6605C29.1537 31.3257 32.3886 31.0599 35.6246 30.8074C38.8621 30.577 42.1008 30.3614 45.3446 30.2144C48.5879 30.06 51.8342 29.9476 55.0892 29.9523C51.8707 30.4384 48.6433 30.8074 45.413 31.1345C42.1831 31.4689 38.9481 31.7347 35.7121 31.9858C32.4744 32.2147 29.2357 32.4304 25.9919 32.577C22.7486 32.731 19.5023 32.8441 16.2474 32.8409Z" fill="black"/>
<path d="M55.7792 87.0974C55.3163 82.99 54.8712 78.8761 54.4726 74.7576L54.3199 73.2133L54.2435 72.4411C54.2359 72.3809 54.2336 72.3031 54.2216 72.2572C54.2076 72.2206 54.1963 72.1831 54.1876 72.1449C54.1489 72.0417 54.1049 71.9407 54.0557 71.8421C53.5997 70.9773 53.0012 70.1122 52.4459 69.2488C51.3126 67.5204 50.2196 65.7484 49.2426 63.9036C48.7592 62.978 48.3038 62.0345 47.9058 61.0607C47.512 60.0745 47.1819 59.0925 46.8399 58.1229C46.1532 56.176 45.4725 54.2273 44.8172 52.2696L43.8228 49.3371L43.5742 48.6039C43.4773 48.3264 43.4123 48.0388 43.3806 47.7466C43.3113 47.1524 43.395 46.5502 43.6238 45.9974C43.8515 45.409 44.2845 44.9231 44.8427 44.6295C45.4197 44.376 46.0711 44.3498 46.6665 44.5564C47.6906 44.9408 48.625 45.5311 49.4123 46.2908L48.7979 46.6362C48.6558 45.6389 48.5646 44.635 48.5246 43.6284C48.5052 43.1261 48.5021 42.6181 48.5223 42.1153C48.5649 41.6084 48.5852 41.0932 48.6706 40.5902C48.7441 40.0544 48.9353 39.5415 49.2303 39.0884C49.4063 38.8339 49.6661 38.6494 49.9642 38.5671C50.2505 38.5083 50.5472 38.5247 50.8253 38.6146C51.8292 38.9561 52.6716 39.6566 53.1909 40.5815L53.0126 40.4843H53.0181L53.1337 40.485L53.1951 40.5796C53.5385 41.1302 53.8492 41.7005 54.1259 42.2875C54.2543 42.5667 54.405 42.835 54.5765 43.0899C54.6822 43.2153 54.6806 43.2136 54.8311 43.2223C54.8783 43.2271 54.9259 43.2173 54.9674 43.1943C55.0089 43.1712 55.0423 43.136 55.0633 43.0934C55.1675 42.8256 55.2093 42.5375 55.1855 42.2511C55.1773 41.9371 55.1527 41.6237 55.1116 41.3122C55.0315 40.6826 54.9076 40.0593 54.7409 39.4469C54.5709 38.8234 54.4339 38.1914 54.3304 37.5534C54.2129 36.9009 54.2039 36.2335 54.3036 35.5781C54.3661 35.2383 54.4922 34.9134 54.6752 34.6205C54.8677 34.3243 55.1302 34.0803 55.4396 33.9102C56.0504 33.6111 56.7297 33.4801 57.4078 33.5306L57.3729 33.5322C57.6621 33.5043 57.9537 33.5139 58.2404 33.5608C58.5242 33.6066 58.8018 33.6852 59.0675 33.7949C59.6049 34.0202 60.0707 34.388 60.4146 34.8587L60.393 34.8336C60.4377 34.8809 60.4638 34.943 60.4663 35.0081L60.4621 35.9617L60.0251 35.1131L60.0194 35.102L60.0139 35.0914L60.0045 35.0647C59.2219 32.9885 58.6946 30.8247 58.4342 28.6211C58.3791 28.0502 58.3869 27.4749 58.4575 26.9057C58.5104 26.271 58.7852 25.6753 59.2337 25.2233C59.4955 24.9966 59.8155 24.8478 60.1575 24.7938C60.4888 24.755 60.8246 24.7893 61.1413 24.8941C61.7073 25.1065 62.2245 25.4311 62.6619 25.8486C63.4834 26.6297 64.2053 27.5094 64.8114 28.4675C65.4222 29.3985 65.9836 30.361 66.493 31.3512C67.5541 33.3146 68.3913 35.3912 68.989 37.5417C69.5584 39.671 70.0962 41.7808 70.8265 43.8168C71.5633 45.8277 72.4524 47.851 73.8669 49.3175C74.5231 50.037 75.4026 50.514 76.3633 50.6713C76.8565 50.7227 77.3547 50.7025 77.8422 50.6112C78.3617 50.5395 78.876 50.4339 79.3817 50.2951C80.3962 50.0201 81.3745 49.6255 82.2959 49.1195C83.2073 48.6213 84.0492 48.0053 84.8001 47.2874L85.4036 46.6879L85.725 47.4215C86.0734 48.2455 86.2851 49.121 86.3517 50.0133C86.4241 50.8785 86.3931 51.7492 86.2593 52.607C85.9751 54.3043 85.3613 55.9293 84.4526 57.3904C84.0015 58.1325 83.4526 58.8104 82.8209 59.4061C82.1781 59.9775 81.476 60.4783 80.7266 60.9001C79.9893 61.3148 79.2338 61.659 78.5413 62.0454C77.8652 62.3729 77.2867 62.8723 76.8639 63.4937C76.5113 64.1669 76.3248 64.9149 76.32 65.675C76.2661 66.4838 76.2354 67.2995 76.2258 68.1177C76.2054 69.7541 76.2369 71.3959 76.2952 73.0367C76.3582 74.6773 76.4219 76.3195 76.5281 77.9593C76.6442 79.596 76.7349 81.2447 77.01 82.8575L76.9011 82.8826C76.5501 81.2638 76.3874 79.6242 76.1974 77.9877C76.0241 76.3495 75.8661 74.7089 75.7581 73.0641C75.6491 71.4194 75.5664 69.7723 75.5362 68.1188C75.5205 67.2921 75.5271 66.4621 75.5558 65.6289C75.5415 64.7396 75.7423 63.86 76.1412 63.0651C76.626 62.3071 77.3015 61.69 78.1001 61.2759C78.836 60.848 79.5729 60.496 80.2612 60.0907C80.9384 59.6927 81.5713 59.2238 82.1495 58.6921C82.7048 58.1472 83.1845 57.5302 83.5755 56.8574C84.3832 55.5016 84.9193 54.0012 85.1537 52.4402C85.2707 51.671 85.2957 50.8905 85.2282 50.1153C85.1683 49.3646 84.9925 48.6277 84.7071 47.9307L85.6319 48.0648C83.9651 49.667 81.9203 50.8211 79.6878 51.4197C79.1364 51.5733 78.5756 51.6908 78.009 51.7715C77.7195 51.8028 77.4544 51.8571 77.1446 51.8685L76.6799 51.8825C76.5245 51.8732 76.3687 51.8553 76.2132 51.8406C74.9872 51.6589 73.8614 51.0591 73.0263 50.1426C71.3994 48.404 70.5321 46.2742 69.7816 44.186C69.0514 42.0802 68.5275 39.9245 67.9853 37.8094C67.8471 37.2824 67.7092 36.7578 67.5426 36.2606C67.3728 35.7536 67.1808 35.2484 66.9808 34.7461C66.5794 33.7414 66.1366 32.7489 65.6536 31.7786C65.1767 30.808 64.6491 29.8632 64.0727 28.9482C63.519 28.0408 62.8609 27.2015 62.1119 26.4474C61.7647 26.094 61.3509 25.8129 60.8945 25.6205C60.6912 25.5465 60.4746 25.516 60.2587 25.5311C60.0557 25.5583 59.864 25.6407 59.7045 25.7693C59.3742 26.1037 59.1692 26.5418 59.124 27.0097C59.0459 27.5288 59.0249 28.0548 59.0612 28.5784C59.2645 30.7445 59.7312 32.8777 60.451 34.9306L60.4363 34.8935L60.4417 34.9046L60.0005 35.0096C59.9998 35.0379 60.005 35.0661 60.0158 35.0923C60.0265 35.1185 60.0425 35.1422 60.0628 35.1619L60.041 35.1367C59.7548 34.721 59.3597 34.3923 58.8991 34.1865C58.4364 33.9831 57.9308 33.8969 57.4269 33.9354L57.4048 33.9375L57.3917 33.9371C56.7865 33.8847 56.1782 33.993 55.6282 34.251C55.3731 34.3967 55.1542 34.5983 54.988 34.8406C54.8218 35.083 54.7127 35.3599 54.6687 35.6505C54.5719 36.2643 54.5763 36.8898 54.6817 37.5021C54.778 38.1304 54.9074 38.7533 55.0693 39.3679C55.2402 39.9922 55.372 40.6266 55.4639 41.2673C55.5103 41.5907 55.5398 41.9164 55.552 42.243C55.585 42.5971 55.5298 42.9539 55.3914 43.2816C55.3342 43.3768 55.2544 43.4564 55.1591 43.5133C55.0637 43.5702 54.9558 43.6025 54.8449 43.6076C54.734 43.6126 54.6235 43.59 54.5234 43.542C54.4234 43.494 54.3367 43.4219 54.2712 43.3322C54.0793 43.0592 53.911 42.7703 53.768 42.4688C53.4915 41.8995 53.182 41.3468 52.8412 40.8136L53.0181 40.9088L53.0126 40.9089L52.8975 40.9095L52.8342 40.8115C52.3699 39.9845 51.6084 39.3654 50.7043 39.0803C50.5202 39.0008 50.314 38.989 50.1221 39.0471C49.9303 39.1052 49.7651 39.2293 49.656 39.3975C49.4247 39.7907 49.2808 40.2291 49.2341 40.6829C49.168 41.1619 49.1655 41.644 49.1383 42.127C49.1334 42.6176 49.1513 43.1039 49.1849 43.5937C49.2534 44.5719 49.3708 45.546 49.5367 46.5124L49.708 47.5085L48.9222 46.8578C48.2008 46.1982 47.3546 45.69 46.4335 45.3635C46.0411 45.2317 45.6134 45.2528 45.2359 45.4226C44.8831 45.6356 44.6147 45.9641 44.4761 46.3525C44.3125 46.7609 44.2561 47.2045 44.3122 47.6409C44.3383 47.8625 44.3897 48.0803 44.4655 48.2902L44.7212 49.0219L45.744 51.9488C46.4335 53.8976 47.0976 55.8552 47.7557 57.8146C48.0889 58.797 48.4075 59.7775 48.7693 60.7137C49.1422 61.6567 49.5746 62.5804 50.0368 63.4909C50.9662 65.3122 52.0446 67.06 53.1271 68.8167C53.6622 69.7058 54.2241 70.5566 54.7054 71.5334C54.7681 71.6672 54.8221 71.8049 54.8673 71.9455C54.8886 72.0332 54.9072 72.122 54.9229 72.21C54.935 72.2907 54.9341 72.3432 54.9403 72.4111L54.9948 73.1827L55.1038 74.726C55.403 78.8413 55.6557 82.9611 55.8906 87.0875L55.7792 87.0974Z" fill="black"/>
<path d="M62.5135 41.0316L59.9736 35.1091L60.4963 34.9111L62.5135 41.0316Z" fill="black"/>
<path d="M145.268 20.7994C143.208 21.6729 141.061 22.4074 138.91 23.0812C136.749 23.7482 134.552 24.2948 132.33 24.7186C130.096 25.1762 127.821 25.403 125.541 25.3954C124.384 25.3849 123.23 25.2665 122.095 25.0417C120.926 24.8187 119.806 24.3852 118.792 23.7622L118.841 23.7906C117.135 22.9388 115.42 22.105 113.723 21.2343L113.157 20.9438L113.498 20.4532C113.539 20.3873 113.59 20.3285 113.65 20.2789C113.678 20.2519 113.709 20.2273 113.742 20.2051C113.793 20.1697 113.854 20.1235 113.899 20.0995C113.993 20.0478 114.094 19.9838 114.183 19.9455C114.368 19.8543 114.55 19.7761 114.73 19.7079C115.091 19.5673 115.448 19.4426 115.808 19.3359C116.524 19.1084 117.246 18.9364 117.967 18.7676C119.409 18.4348 120.856 18.1533 122.308 17.923C123.759 17.679 125.212 17.4648 126.667 17.2673C128.121 17.0611 129.578 16.8895 131.033 16.707L130.836 16.8156L133.813 13.4066C134.807 12.2687 135.765 11.1136 136.792 9.98839C138.868 7.76205 141.272 5.86756 143.922 4.37108C145.251 3.63128 146.633 2.9891 148.055 2.44963C149.484 1.92487 150.946 1.49569 152.431 1.16492C155.408 0.407459 158.491 0.162869 161.55 0.44165C164.646 0.824503 167.597 1.97555 170.135 3.79016C172.66 5.63152 174.716 8.04107 176.139 10.8243C176.844 12.2149 177.393 13.6788 177.777 15.1897L178.026 16.3318C178.095 16.71 178.162 17.0855 178.22 17.4647C178.34 18.2211 178.438 18.9817 178.514 19.7465C178.677 21.2819 178.715 22.8281 178.626 24.3696C178.542 25.9347 178.257 27.4824 177.777 28.9742L177.584 29.5543L177.001 29.3788L169.116 27.007L161.21 24.7039C158.574 23.9363 155.932 23.1914 153.279 22.496C151.954 22.1381 150.625 21.8006 149.292 21.4836C148.623 21.3447 147.957 21.1655 147.283 21.0593L146.273 20.8782L145.268 20.7994ZM145.241 20.6785L146.293 20.6894L147.322 20.807C148.01 20.8796 148.682 21.0239 149.364 21.1291C150.718 21.3778 152.07 21.6439 153.413 21.9408C156.099 22.5373 158.772 23.1832 161.439 23.8517C164.107 24.5185 166.76 25.2401 169.414 25.9568C172.066 26.6825 174.718 27.3994 177.359 28.1714L176.583 28.5759C177.469 25.8261 177.463 22.8114 177.196 19.8763C177.125 19.1392 177.031 18.4035 176.915 17.6692C176.86 17.3024 176.795 16.9348 176.729 16.571L176.497 15.5017C176.153 14.082 175.656 12.7041 175.014 11.3923C173.711 8.7618 171.809 6.47439 169.461 4.7144C167.092 2.96823 164.332 1.82802 161.422 1.39303C158.468 1.04379 155.477 1.18734 152.57 1.81783C149.621 2.34397 146.773 3.3356 144.134 4.75567C141.496 6.18678 139.113 8.04552 137.082 10.2564C135.107 12.5122 133.224 14.8893 131.316 17.2213L131.244 17.3096L131.119 17.33C129.674 17.5654 128.229 17.7919 126.789 18.0489C125.348 18.2974 123.91 18.5624 122.481 18.8559C121.05 19.1461 119.626 19.4565 118.218 19.805C117.516 19.981 116.817 20.1729 116.136 20.3865C115.794 20.4893 115.46 20.6083 115.139 20.7345C114.976 20.797 114.822 20.8642 114.678 20.9362C114.599 20.9701 114.547 21.0087 114.48 21.0436C114.455 21.058 114.432 21.0738 114.409 21.0908C114.396 21.0989 114.386 21.1063 114.393 21.1018C114.401 21.0885 114.373 21.1342 114.449 21.0246L114.223 20.2436C115.931 21.0926 117.619 21.9785 119.317 22.8463L119.345 22.8601L119.367 22.8747C121.129 24.0237 123.382 24.3547 125.563 24.433C126.669 24.4601 127.777 24.4273 128.88 24.3349C129.988 24.255 131.095 24.121 132.198 23.9489C134.408 23.6182 136.593 23.1165 138.769 22.5771C140.948 22.0295 143.091 21.3929 145.241 20.6785Z" fill="black"/>
<path d="M158.887 3.77344C157.829 5.0176 156.745 6.22691 155.655 7.4297L152.39 11.0324C151.302 12.2311 150.223 13.4373 149.153 14.651C148.09 15.8722 147.038 17.1005 145.994 18.3576C146.769 16.9178 147.658 15.5421 148.652 14.2439C149.63 12.9345 150.693 11.6947 151.779 10.4776C152.878 9.27331 154.013 8.10235 155.195 6.98094C156.37 5.84845 157.602 4.77783 158.887 3.77344ZM164.538 4.36871C165.414 5.95796 166.188 7.60101 166.856 9.288C167.535 10.9704 168.128 12.6856 168.636 14.4336C169.139 16.1827 169.531 17.9618 169.81 19.7603C170.088 21.5605 170.165 23.386 170.041 25.2033C169.845 23.4136 169.557 21.6353 169.176 19.8757C168.79 18.1237 168.336 16.3879 167.842 14.6619C167.355 12.9335 166.803 11.2225 166.252 9.50804C165.686 7.7991 165.127 6.08341 164.538 4.36871ZM131.076 17.0183C132.052 17.0318 133.027 17.1001 133.996 17.223C134.962 17.3317 135.92 17.488 136.876 17.6535C137.829 17.8342 138.78 18.0252 139.722 18.2635C140.672 18.4896 141.609 18.7694 142.527 19.1017C141.551 19.0892 140.576 19.0213 139.607 18.8982C138.641 18.7893 137.683 18.633 136.728 18.4665C135.775 18.2847 134.824 18.0938 133.881 17.8553C132.931 17.629 131.995 17.3496 131.076 17.0183ZM131.076 24.5241C131.091 25.354 131.048 26.1825 130.989 27.0122C130.935 27.8497 130.816 28.6817 130.632 29.5003C130.54 29.9426 130.374 30.3659 130.139 30.7515C129.928 31.0672 129.722 31.4361 129.517 31.7874C129.104 32.497 128.706 33.219 128.308 33.9404C127.503 35.379 126.712 36.8246 125.934 38.2774C125.553 39.0065 125.158 39.7288 124.792 40.4622C124.608 40.8282 124.434 41.1975 124.264 41.5642C124.18 41.748 124.101 41.9324 124.032 42.1142C124.002 42.2032 123.965 42.2969 123.947 42.3765C123.935 42.41 123.928 42.4448 123.924 42.48C123.923 42.4867 123.917 42.52 123.917 42.5053C123.917 42.4914 123.914 42.4777 123.907 42.4656C123.9 42.4535 123.89 42.4432 123.879 42.4359L123.727 42.3294C124.009 42.3964 124.299 42.4237 124.588 42.4106C124.898 42.3983 125.205 42.3568 125.507 42.2868C125.814 42.2148 126.116 42.1238 126.412 42.0143C126.711 41.9003 127.003 41.7701 127.287 41.6242L127.329 41.6031L127.357 41.6086C127.647 41.6636 127.919 41.7896 128.149 41.9755C128.368 42.1604 128.525 42.4088 128.597 42.6865C128.489 42.4352 128.305 42.2237 128.072 42.0809C127.849 41.9405 127.597 41.8563 127.335 41.8356L127.404 41.8201C126.856 42.2005 126.257 42.5019 125.625 42.7156C125.3 42.8204 124.967 42.8943 124.628 42.9363C124.27 42.9858 123.907 42.9738 123.553 42.9007L123.451 42.8781L123.401 42.794C123.361 42.7266 123.334 42.6526 123.32 42.5757C123.315 42.5329 123.315 42.4899 123.319 42.4471C123.32 42.3791 123.329 42.3116 123.345 42.2455C123.368 42.1331 123.396 42.0219 123.431 41.9124C123.495 41.703 123.568 41.5029 123.643 41.3052C123.793 40.9103 123.963 40.5281 124.136 40.1483C124.483 39.3903 124.842 38.6412 125.226 37.9057C125.981 36.4281 126.788 34.9812 127.62 33.5475C128.042 32.8341 128.472 32.1258 128.916 31.4218C129.142 31.0684 129.363 30.7286 129.632 30.3716C129.84 30.0572 129.997 29.7119 130.097 29.3485C130.539 27.7661 130.866 26.1537 131.076 24.5241Z" fill="black"/>
<path d="M133.158 44.7481C130.779 41.0772 127.346 42.6864 127.346 42.6864C127.346 42.6864 126.02 60.9196 134.15 61.4157C140.337 61.7932 145.661 58.0336 149.404 53.9849C151.343 51.8776 152.57 49.2131 152.911 46.369C153.419 42.2161 154.182 35.9423 154.376 34.1324C154.673 31.3544 155.798 24.0808 159.829 24.5241C159.829 24.5241 168.257 24.608 163.894 39.1922C163.894 39.1922 162.704 48.3197 170.438 47.2284C170.438 47.2284 168.852 42.6646 170.934 39.1922C173.016 35.7198 175.753 31.3298 175.624 28.3161C175.624 28.3161 148.328 20.2427 145.254 20.7388C147.146 21.738 148.668 23.318 149.596 25.2466C150.524 27.1752 150.809 29.3507 150.41 31.4537C149.503 37.3512 145.141 45.2656 143.117 48.6974C142.797 49.2448 142.333 49.695 141.777 50C141.221 50.305 140.593 50.4536 139.959 50.4298C138.787 50.3826 137.442 50.2109 136.802 49.7087C135.538 48.7166 133.158 44.7481 133.158 44.7481Z" fill="black"/>
<path d="M132.866 27.2571C133.446 26.8106 134.109 26.4851 134.817 26.3C135.537 26.0973 136.289 26.0345 137.032 26.115C137.793 26.206 138.516 26.4943 139.13 26.9514C139.727 27.3976 140.185 28.0041 140.452 28.7005C139.95 28.2293 139.39 27.8247 138.785 27.4968C138.205 27.2005 137.577 27.0102 136.93 26.9349C136.267 26.8614 135.599 26.8602 134.937 26.9313C134.259 27.0022 133.575 27.1134 132.866 27.2571ZM156.259 37.4061C157.589 37.9277 159.127 37.8688 160.111 36.9957C160.608 36.5554 161.004 36.0138 161.273 35.4073C161.564 34.7838 161.796 34.135 161.968 33.469C162.351 32.126 162.578 30.7432 162.643 29.3481C162.674 28.6479 162.656 27.9464 162.591 27.2485C162.558 26.8977 162.507 26.5488 162.438 26.2031C162.407 26.0284 162.363 25.8582 162.317 25.6868C162.281 25.5133 162.21 25.3489 162.109 25.2031C162.358 25.4705 162.546 25.7894 162.658 26.1372C162.791 26.477 162.902 26.8249 162.99 27.1789C163.159 27.8905 163.259 28.6167 163.288 29.3475C163.341 30.8139 163.164 32.2796 162.763 33.6911C162.366 35.0623 161.788 36.58 160.499 37.5077C159.866 37.9618 159.094 38.1812 158.316 38.1285C157.578 38.0796 156.867 37.8298 156.259 37.4061ZM146.641 56.6324C147.127 56.9294 147.577 57.2828 147.98 57.6852C148.386 58.0764 148.76 58.4992 149.098 58.9497C149.442 59.4045 149.738 59.8933 149.981 60.4085C150.266 60.9275 150.381 61.5224 150.311 62.11C150.072 61.6194 149.776 61.1592 149.428 60.7394C149.101 60.3084 148.758 59.885 148.437 59.4445C148.109 59.0071 147.791 58.5593 147.486 58.0963C147.169 57.6297 146.887 57.1404 146.641 56.6324ZM170.438 47.2281C170.963 48.0413 171.441 48.8838 171.871 49.7514C172.088 50.1663 172.303 50.5758 172.544 50.966C172.783 51.3769 173.075 51.7547 173.412 52.0896C172.887 52.0164 172.404 51.7636 172.045 51.3742C171.678 51.0136 171.372 50.5954 171.14 50.136C170.907 49.6898 170.727 49.2176 170.605 48.7292C170.471 48.2406 170.415 47.7341 170.438 47.2281Z" fill="black"/>
<path d="M182.536 45.1426C182.536 45.1426 172.974 45.8417 171.358 49.6614L171.649 50.2095L172.717 49.6614C177.847 47.1056 180.748 50.5003 177.182 51.0987C173.611 51.6915 152.345 61.4394 152.345 61.4394C143.123 64.0511 137.719 78.0828 137.719 78.0828C139.205 77.4453 140.72 76.8748 142.223 76.2653C143.766 75.7675 145.297 75.2306 146.857 74.7888C149.987 73.9042 153.18 73.2555 156.408 72.8482C159.641 72.4317 162.908 72.3306 166.161 72.5462C166.971 72.6357 167.781 72.686 168.592 72.8035C169.391 72.9433 170.201 73.0384 170.995 73.2285C172.591 73.5424 174.146 74.0397 175.628 74.7105C174.087 74.2493 172.506 73.9329 170.906 73.7654C170.112 73.6423 169.307 73.6032 168.514 73.5305C167.714 73.4801 166.915 73.4522 166.116 73.413C162.916 73.3644 159.716 73.5457 156.542 73.9555L154.161 74.2631L151.792 74.6826L150.607 74.8783L149.433 75.1356C148.645 75.309 147.863 75.4767 147.075 75.6389C145.51 76.0024 143.956 76.4163 142.385 76.791C140.832 77.216 139.289 77.6858 137.719 78.0829C113.53 82.0536 89.9276 96.9354 88.3459 96.5383C86.7587 96.1412 85.367 83.6419 85.367 80.4262C85.367 77.216 84.7746 71.1369 80.0128 71.1369C75.2567 71.1369 75.8491 75.3034 75.8491 75.3034C84.7746 77.6858 64.1514 79.4754 58.0036 80.264C51.8558 81.0581 55.2259 78.6812 55.2259 78.6812C55.2259 78.6812 53.443 76.7742 51.5316 79.1454C50.9351 79.9103 50.5329 80.8086 50.3597 81.7632C50.1864 82.7178 50.2472 83.7002 50.5368 84.6261C51.146 86.6618 52.0458 89.749 52.6494 92.1705C53.6442 96.1413 57.21 124.714 58.4004 127.493C59.5908 130.267 84.1766 137.61 136.528 133.841C140.77 133.175 144.995 132.471 149.221 131.766C153.44 131.044 157.66 130.306 161.846 129.451C163.942 129.031 166.038 128.595 168.111 128.097C170.196 127.622 172.264 127.094 174.315 126.514C176.367 125.938 178.389 125.258 180.373 124.479C182.383 123.755 184.254 122.694 185.906 121.341C185.178 122.139 184.343 122.831 183.425 123.399C182.517 123.986 181.572 124.515 180.597 124.982C178.639 125.894 176.627 126.684 174.572 127.348C170.469 128.652 166.295 129.72 162.07 130.547C157.85 131.386 153.61 132.079 149.349 132.627C145.09 133.192 140.815 133.606 136.528 133.841C136.528 133.841 134.622 145.434 133.628 155.864H208.195C208.117 145.68 208.1 132.185 208.413 120.049C209.006 96.639 208.413 85.6217 208.413 85.6217C207.341 85.5031 206.282 85.2859 205.25 84.9729C204.216 84.6765 203.204 84.3242 202.193 83.9607C200.175 83.2336 198.208 82.3836 196.252 81.5111C194.307 80.6219 192.384 79.6935 190.489 78.6925C188.595 77.7026 186.722 76.6568 184.912 75.5047C186.929 76.2429 188.902 77.0651 190.864 77.9095C192.826 78.7428 194.765 79.6264 196.715 80.4933L202.522 83.1553C204.473 84.0166 206.379 84.945 208.413 85.6217C208.413 85.6217 218.227 90.0901 219.121 78.7764C220.01 67.4681 209.302 43.0622 182.536 45.1426ZM186.655 81.8858C187.642 82.8175 188.502 83.8741 189.215 85.0288C189.567 85.6048 189.869 86.2144 190.188 86.8184C190.461 87.4392 190.685 88.0768 190.942 88.7087C191.063 89.0253 191.161 89.3506 191.233 89.6818L191.49 90.6661C191.663 91.32 191.79 91.9853 191.87 92.6571L192.004 93.6637L192.071 94.167L192.093 94.6704L192.16 96.6893L192.177 97.1926L192.144 97.6959L192.071 98.7026C192.026 99.3737 191.982 100.039 191.909 100.705C191.685 102.025 191.473 103.344 191.188 104.648C190.825 105.934 190.473 107.214 190.07 108.478C190.232 107.153 190.439 105.85 190.646 104.547C190.802 103.238 190.892 101.924 191.043 100.621L191.093 98.6579L191.121 97.6792L191.138 97.1926L191.104 96.7061L191.004 94.7543L190.981 94.2677L190.909 93.7867L190.763 92.8248C190.435 90.2539 189.658 87.7607 188.466 85.4594C187.849 84.3188 187.111 83.2482 186.264 82.2661C185.419 81.2609 184.431 80.3864 183.33 79.6711C184.564 80.1998 185.691 80.9504 186.655 81.8858ZM200.745 59.2359C200.345 60.0783 199.66 60.7518 198.811 61.1374C198.391 61.3291 197.951 61.4717 197.498 61.5624C197.046 61.6265 196.591 61.6657 196.134 61.6799C195.681 61.6575 195.223 61.6575 194.776 61.6016L193.446 61.3834C193.004 61.294 192.58 61.1654 192.144 61.0535L190.886 60.7124C190.066 60.4982 189.231 60.3486 188.388 60.2649C186.68 60.1055 184.961 60.0999 183.252 60.2482C179.798 60.5601 176.375 61.1549 173.018 62.0266C171.33 62.4516 169.643 62.9102 167.971 63.4079C166.289 63.8833 164.635 64.4314 162.969 64.985C166.136 63.4584 169.42 62.1885 172.789 61.1877C176.166 60.145 179.643 59.4571 183.162 59.1352C184.944 58.9936 186.734 59.0199 188.511 59.2135C189.405 59.3286 190.289 59.5137 191.154 59.7672L193.642 60.5334L194.888 60.8018C195.307 60.8745 195.726 60.8912 196.145 60.9472C196.565 60.9751 196.984 60.9416 197.397 60.9304C197.807 60.8753 198.21 60.776 198.599 60.634C199.39 60.3619 200.057 59.8166 200.482 59.0961C200.702 58.7303 200.868 58.3347 200.974 57.9216C201.1 57.5041 201.168 57.0713 201.175 56.6353C201.273 57.5253 201.124 58.4248 200.745 59.2359H200.745Z" fill="#FD1A5A"/>
<path d="M102.224 155.866C113.23 155.546 124.235 155.332 135.24 155.223C140.743 155.147 146.246 155.13 151.749 155.085L168.257 155.039L184.765 155.083C190.267 155.129 195.77 155.144 201.273 155.22C212.278 155.328 223.284 155.543 234.289 155.866C223.284 156.187 212.278 156.402 201.273 156.511C195.77 156.588 190.267 156.602 184.765 156.648L168.257 156.692L151.749 156.646C146.246 156.601 140.743 156.584 135.24 156.508C124.235 156.399 113.23 156.185 102.224 155.866ZM134.72 33.2462C136.878 33.2462 136.881 29.8906 134.72 29.8906C132.562 29.8906 132.559 33.2462 134.72 33.2462Z" fill="black"/>
</svg>
