<svg width="242" height="150" viewBox="0 0 242 150" fill="none" xmlns="http://www.w3.org/2000/svg">
<g clip-path="url(#clip0_34_1740)">
<path d="M169.471 73.207V86.965H235.713C236.195 86.965 236.6 86.5611 236.6 86.0815C236.6 85.5766 236.195 85.1979 235.713 85.1979H171.449V74.9994H235.713C236.195 74.9994 236.6 74.5955 236.6 74.1158C236.6 73.6109 236.195 73.2323 235.713 73.2323H169.471V73.207Z" fill="#3588CC"/>
<path d="M235.155 74.999H171.448V85.1976H235.155V74.999Z" fill="white"/>
<path d="M233.305 77.1956H173.223C173.096 77.1956 172.995 77.0946 172.995 76.9684C172.995 76.8422 173.096 76.7412 173.223 76.7412H233.305C233.431 76.7412 233.533 76.8422 233.533 76.9684C233.533 77.0946 233.431 77.1956 233.305 77.1956Z" fill="#B3B3B3"/>
<path d="M233.305 79.2913H173.223C173.096 79.2913 172.995 79.1903 172.995 79.0641C172.995 78.9379 173.096 78.8369 173.223 78.8369H233.305C233.431 78.8369 233.533 78.9379 233.533 79.0641C233.533 79.1903 233.431 79.2913 233.305 79.2913Z" fill="#B3B3B3"/>
<path d="M233.305 81.4114H173.223C173.096 81.4114 172.995 81.3104 172.995 81.1842C172.995 81.058 173.096 80.957 173.223 80.957H233.305C233.431 80.957 233.533 81.058 233.533 81.1842C233.533 81.3104 233.431 81.4114 233.305 81.4114Z" fill="#B3B3B3"/>
<path d="M233.305 83.5061H173.223C173.096 83.5061 172.995 83.4052 172.995 83.279C172.995 83.1527 173.096 83.0518 173.223 83.0518H233.305C233.431 83.0518 233.533 83.1527 233.533 83.279C233.533 83.4052 233.431 83.5061 233.305 83.5061Z" fill="#B3B3B3"/>
<path d="M236.246 45.6914H169.471V59.4494H236.246V45.6914Z" fill="#FFCC22"/>
<path d="M226.84 45.6914H223.671V59.4494H226.84V45.6914Z" fill="#E26438"/>
<path d="M230.719 59.4492H163.945V73.2072H230.719V59.4492Z" fill="#61B579"/>
<path d="M182.577 19.6902C182.577 18.9329 181.944 18.3018 181.183 18.3018H65.9124C65.1518 18.3018 64.5181 18.9329 64.5181 19.6902V86.6878H182.603V19.6902H182.577Z" fill="#3588CC"/>
<path d="M177.507 82.4469H69.5881C68.8276 82.4469 68.1938 81.8158 68.1938 81.0585V23.7292C68.1938 22.9719 68.8276 22.3408 69.5881 22.3408H177.482C178.242 22.3408 178.876 22.9719 178.876 23.7292V81.0585C178.901 81.8158 178.268 82.4469 177.507 82.4469Z" fill="#EFECEF"/>
<path d="M173.248 28.0967H108.375V71.5416H173.248V28.0967Z" fill="white"/>
<path d="M173.248 72.2483H108.375C107.995 72.2483 107.666 71.9454 107.666 71.5414V28.0965C107.666 27.7178 107.97 27.3896 108.375 27.3896H173.248C173.629 27.3896 173.958 27.6926 173.958 28.0965V71.5414C173.933 71.9201 173.629 72.2483 173.248 72.2483ZM109.06 70.8599H172.539V28.8033H109.06V70.8599Z" fill="#A97F54"/>
<path d="M131.369 45.8177C130.988 46.2469 130.608 46.6508 130.228 47.0799C130.025 46.7265 129.822 46.3983 129.645 46.0449C129.391 45.6158 128.707 46.0197 128.986 46.4741C129.214 46.878 129.467 47.2819 129.695 47.6858L128.428 49.0742C128.073 49.4529 128.656 49.983 129.011 49.6043C129.366 49.2004 129.746 48.7965 130.101 48.3926C130.405 48.9227 130.709 49.4529 131.014 49.983C131.267 50.4121 131.952 50.0082 131.673 49.5538C131.318 48.948 130.988 48.3674 130.633 47.7615C131.064 47.2819 131.495 46.8022 131.952 46.3226C132.281 45.9944 131.698 45.4391 131.369 45.8177Z" fill="#3588CC"/>
<path d="M135.197 46.7773L133.954 46.8278C133.752 46.8278 133.549 47.0298 133.574 47.2317C133.6 47.4337 133.752 47.6104 133.98 47.6104L135.222 47.5599C135.425 47.5599 135.628 47.358 135.602 47.156C135.577 46.9541 135.425 46.7773 135.197 46.7773Z" fill="#3588CC"/>
<path d="M158.367 47.3584L157.125 47.4089C156.922 47.4089 156.719 47.6108 156.745 47.8128C156.77 48.0147 156.922 48.1914 157.15 48.1914L158.393 48.141C158.595 48.141 158.798 47.939 158.773 47.7371C158.773 47.5351 158.595 47.3584 158.367 47.3584Z" fill="#3588CC"/>
<path d="M135.146 48.1151C134.816 48.1151 134.487 48.1151 134.132 48.0898C134.056 48.0898 133.98 48.0646 133.929 48.0646C133.828 48.0393 133.726 48.0646 133.625 48.1151C133.549 48.1656 133.473 48.2665 133.447 48.3675C133.422 48.5695 133.523 48.8219 133.752 48.8471C134.233 48.8976 134.69 48.9481 135.171 48.9229C135.374 48.9229 135.577 48.7209 135.552 48.519C135.552 48.2665 135.374 48.0898 135.146 48.1151Z" fill="#3588CC"/>
<path d="M145.819 43.9248C144.145 43.95 142.498 44.0005 140.824 44.0258C140.444 44.0258 140.039 44.0005 139.633 44.051C139.253 44.1015 139.025 44.354 138.949 44.7326C138.822 45.4142 138.771 46.0958 138.619 46.7774C138.518 47.3075 138.391 47.8124 138.163 48.292C138.112 48.191 138.087 48.0648 138.036 47.9386C137.884 47.459 137.123 47.6862 137.275 48.1658C137.402 48.5697 137.58 48.9736 137.808 49.3523C137.985 49.63 138.34 49.5795 138.492 49.327C138.949 48.6202 139.202 47.7871 139.379 46.9541C139.456 46.5502 139.532 46.1463 139.582 45.7424C139.608 45.5404 139.633 45.3637 139.658 45.1618C139.684 45.0608 139.709 44.9346 139.709 44.8588C139.734 44.8588 139.76 44.8588 139.785 44.8588C141.788 44.7831 143.791 44.7831 145.819 44.7326C146.351 44.7074 146.326 43.9248 145.819 43.9248Z" fill="#3588CC"/>
<path d="M141.56 49.8069C142.016 49.8322 142.498 49.8322 142.878 49.5797C143.233 49.3778 143.486 48.9486 143.461 48.5195C143.385 47.7117 142.548 47.535 141.864 47.5855C141.838 47.1058 141.813 46.6262 141.813 46.1466C141.788 45.6417 141.002 45.6669 141.027 46.1718L141.154 49.403C141.154 49.6555 141.331 49.7817 141.56 49.8069ZM142.117 48.368C142.143 48.368 142.168 48.368 142.193 48.368H142.244C142.269 48.368 142.345 48.3933 142.371 48.3933C142.396 48.3933 142.422 48.3933 142.447 48.4185C142.472 48.4185 142.498 48.4185 142.498 48.4438C142.523 48.469 142.574 48.4942 142.574 48.469C142.599 48.4942 142.624 48.5195 142.624 48.5195C142.624 48.5447 142.624 48.5447 142.65 48.57V48.6205C142.65 48.6457 142.65 48.671 142.65 48.671C142.65 48.6962 142.624 48.7214 142.599 48.7467C142.548 48.8224 142.472 48.8729 142.396 48.9234C142.244 48.9991 142.067 49.0244 141.914 49.0244C141.914 48.8224 141.889 48.5952 141.889 48.3933C141.965 48.368 142.041 48.368 142.117 48.368Z" fill="#3588CC"/>
<path d="M144.373 50.5133C142.928 50.589 141.483 50.6648 140.038 50.7405C139.531 50.7657 139.557 51.5483 140.064 51.5231C141.509 51.4473 142.954 51.3716 144.399 51.2959C144.906 51.2706 144.88 50.488 144.373 50.5133Z" fill="#3588CC"/>
<path d="M141.915 53.2147C141.94 53.2147 141.94 53.1895 141.94 53.1895C141.915 53.1895 141.915 53.1895 141.915 53.2147C141.915 53.1895 141.915 53.2147 141.915 53.2147Z" fill="#3588CC"/>
<path d="M142.599 54.149C142.472 54.25 142.346 54.351 142.194 54.4267C142.168 54.4267 142.168 54.452 142.143 54.452C142.117 54.4772 142.067 54.4772 142.041 54.5025C142.041 54.5025 141.991 54.5277 141.965 54.5277C141.94 54.5277 141.94 54.5277 141.915 54.5277C141.915 54.5277 141.864 54.5277 141.839 54.5277C141.813 54.5277 141.788 54.5277 141.788 54.5277C141.763 54.5277 141.763 54.5025 141.737 54.5025L141.712 54.4772C141.712 54.452 141.687 54.4267 141.687 54.4267V54.4015C141.687 54.4015 141.661 54.3257 141.661 54.3005C141.661 54.2753 141.661 54.2753 141.661 54.25C141.661 54.2248 141.661 54.1743 141.661 54.149C141.661 54.1238 141.661 53.9471 141.661 53.9471C141.661 53.9471 141.661 54.0481 141.661 53.9723C141.661 53.9471 141.661 53.9471 141.661 53.9218C141.661 53.8966 141.661 53.8461 141.687 53.8209C141.712 53.7451 141.712 53.6694 141.737 53.6189V53.5937C141.763 53.5684 141.763 53.5179 141.788 53.4927C141.813 53.4674 141.813 53.4422 141.839 53.417C141.839 53.417 141.839 53.3917 141.864 53.3917C141.889 53.3665 141.915 53.3412 141.94 53.316L141.965 53.2907C141.965 53.2907 141.965 53.2907 141.991 53.2907C141.991 53.2655 142.016 53.2655 142.016 53.2655L142.041 53.2402C142.067 53.2402 142.067 53.215 142.092 53.215C142.117 53.1898 142.117 53.1898 142.092 53.215C142.143 53.1898 142.194 53.1898 142.244 53.1898C142.27 53.1898 142.27 53.1898 142.295 53.1898H142.32C142.32 53.1898 142.32 53.1898 142.346 53.1898C142.371 53.1898 142.371 53.1898 142.371 53.1898C142.396 53.1898 142.422 53.1898 142.422 53.1898C142.422 53.1898 142.422 53.1898 142.447 53.1898C142.447 53.1898 142.472 53.1898 142.472 53.215C142.498 53.2403 142.498 53.2403 142.523 53.2655C142.675 53.417 142.954 53.3917 143.081 53.2402C143.233 53.0635 143.208 52.8363 143.055 52.6849C142.777 52.382 142.32 52.3062 141.915 52.4324C141.534 52.5334 141.205 52.8363 141.053 53.215C140.749 53.9218 140.698 55.2093 141.687 55.3608C142.219 55.4617 142.65 55.184 143.055 54.8811C143.208 54.7549 143.309 54.5277 143.182 54.3257C143.03 54.0985 142.777 53.9976 142.599 54.149Z" fill="#3588CC"/>
<path d="M150.179 47.2827L149.723 47.3079C149.697 47.0555 149.697 46.7778 149.672 46.5253C149.646 46.3234 149.469 46.1214 149.266 46.1467C149.063 46.1719 148.861 46.3234 148.886 46.5506C148.911 46.803 148.911 47.0807 148.937 47.3331L148.328 47.3584C148.125 47.3584 147.923 47.5603 147.948 47.7623C147.973 47.9642 148.125 48.141 148.354 48.141L148.987 48.1157L149.063 49.0245C149.089 49.2265 149.266 49.4284 149.469 49.4032C149.672 49.3779 149.875 49.2265 149.849 48.9993L149.773 48.0905L150.204 48.0652C150.407 48.0652 150.61 47.8633 150.584 47.6613C150.584 47.4341 150.407 47.2827 150.179 47.2827Z" fill="#3588CC"/>
<path d="M153.931 46.1461C153.525 46.2471 153.17 46.55 152.968 46.9287C152.562 47.6608 152.739 48.721 153.525 49.1502C153.956 49.3774 154.539 49.3774 154.92 49.0997C155.097 48.9735 155.173 48.7463 155.046 48.5443C154.92 48.3676 154.666 48.2919 154.489 48.4181C154.463 48.4434 154.438 48.4434 154.413 48.4686C154.413 48.4686 154.387 48.4686 154.387 48.4938C154.362 48.4938 154.337 48.5191 154.311 48.5191C154.311 48.5191 154.311 48.5191 154.286 48.5191H154.261C154.235 48.5191 154.21 48.5191 154.159 48.5191H154.134C154.108 48.5191 154.083 48.5191 154.032 48.4938C154.007 48.4938 154.007 48.4938 153.982 48.4686H153.956C153.931 48.4686 153.906 48.4434 153.906 48.4434C153.88 48.4434 153.88 48.4181 153.855 48.4181C153.855 48.4181 153.804 48.3929 153.804 48.3676C153.779 48.3424 153.754 48.3171 153.754 48.3171C153.754 48.3171 153.728 48.2919 153.728 48.2666C153.703 48.2414 153.677 48.2162 153.677 48.1657C153.677 48.1657 153.677 48.1404 153.652 48.1404C153.627 48.0899 153.627 48.0647 153.601 48.0142C153.601 47.989 153.576 47.9637 153.576 47.9132V47.888C153.576 47.8123 153.576 47.7618 153.576 47.686V47.6608C153.576 47.6355 153.576 47.5851 153.601 47.5598C153.601 47.5346 153.627 47.5093 153.627 47.4588C153.627 47.4336 153.627 47.4336 153.652 47.4083C153.677 47.3326 153.703 47.2821 153.754 47.2316C153.754 47.2316 153.754 47.2064 153.779 47.2064C153.804 47.1812 153.83 47.1307 153.855 47.1054C153.88 47.0802 153.906 47.0549 153.906 47.0549L153.931 47.0297C153.956 47.0044 153.982 46.9792 154.032 46.9792C154.032 46.9792 154.058 46.9792 154.058 46.954C154.108 46.954 154.134 46.9287 154.184 46.9035H154.21C154.261 46.9035 154.286 46.9035 154.337 46.9035C154.362 46.9035 154.362 46.9035 154.387 46.9035H154.413C154.438 46.9035 154.463 46.9035 154.489 46.9287C154.514 46.9287 154.539 46.954 154.565 46.954C154.59 46.954 154.615 46.9792 154.641 47.0044L154.666 47.0297C154.818 47.1559 155.072 47.1812 155.224 47.0044C155.351 46.853 155.376 46.5753 155.199 46.4491C154.844 46.1209 154.387 46.0452 153.931 46.1461Z" fill="#3588CC"/>
<path d="M160.674 48.5446C160.852 48.8223 161.181 48.797 161.486 48.7465C161.764 48.696 162.043 48.6455 162.271 48.4688C162.728 48.1659 162.956 47.6105 162.702 47.1057C162.449 46.5755 161.916 46.3736 161.359 46.3483C161.384 45.9444 161.384 45.5658 161.435 45.1619C161.46 44.9599 161.207 44.7832 161.029 44.7832C160.801 44.7832 160.674 44.9852 160.649 45.1871C160.598 45.7425 160.573 46.3231 160.573 46.8785C160.573 47.1561 160.573 47.4591 160.573 47.7368C160.548 47.9892 160.522 48.3174 160.674 48.5446ZM161.359 47.1309C161.511 47.1309 161.663 47.1561 161.79 47.2319C161.84 47.2571 161.891 47.3076 161.942 47.3581C161.993 47.4086 162.018 47.4843 162.018 47.5348C162.018 47.6358 161.942 47.7368 161.815 47.8125C161.739 47.863 161.638 47.8882 161.536 47.9135C161.486 47.9387 161.409 47.9387 161.359 47.9387C161.359 47.8125 161.359 47.6863 161.359 47.5601C161.333 47.4338 161.359 47.2824 161.359 47.1309Z" fill="#3588CC"/>
<path d="M162.474 50.1602L160.294 50.2359C160.091 50.2359 159.888 50.4378 159.914 50.6398C159.939 50.8417 160.091 51.0184 160.319 51.0184L162.5 50.9427C162.702 50.9427 162.905 50.7408 162.88 50.5388C162.88 50.3369 162.702 50.1602 162.474 50.1602Z" fill="#3588CC"/>
<path d="M162.043 54.3004C161.866 54.3256 161.688 54.3256 161.511 54.3004L161.815 53.947C162.018 53.7198 162.246 53.4673 162.322 53.1391C162.398 52.811 162.246 52.4576 161.942 52.3061C161.688 52.1799 161.359 52.1799 161.08 52.2808C160.75 52.3818 160.471 52.6595 160.471 53.0129C160.471 53.1896 160.624 53.3159 160.801 53.3159C160.978 53.3159 161.105 53.1644 161.105 53.0129C161.105 53.0129 161.131 52.9877 161.131 52.9624L161.156 52.9372L161.207 52.912C161.232 52.912 161.257 52.8867 161.283 52.8867C161.308 52.8867 161.333 52.8867 161.333 52.8615H161.384C161.409 52.8615 161.435 52.8615 161.46 52.8615H161.511C161.536 52.8615 161.562 52.8615 161.587 52.8615L161.638 52.8867C161.663 52.8867 161.663 52.912 161.688 52.912C161.688 52.912 161.714 52.912 161.714 52.9372C161.714 52.9372 161.714 52.9624 161.739 52.9624V52.9877V53.0129C161.739 53.0382 161.714 53.0887 161.714 53.0887C161.688 53.1391 161.663 53.2149 161.612 53.2654C161.562 53.3663 161.435 53.4673 161.359 53.5683C161.131 53.8207 160.902 54.0732 160.674 54.3509C160.522 54.5276 160.598 54.8053 160.826 54.8558C161.232 54.9315 161.638 54.9567 162.069 54.9315C162.221 54.9315 162.373 54.78 162.373 54.6033C162.347 54.4518 162.195 54.3004 162.043 54.3004Z" fill="#3588CC"/>
<path d="M144.804 46.8779C144.652 46.8779 144.526 46.8779 144.399 46.8779L144.627 46.6255C144.779 46.4487 144.957 46.2468 145.007 45.9944C145.058 45.7419 144.957 45.4642 144.703 45.338C144.5 45.237 144.247 45.237 144.044 45.3128C143.79 45.3885 143.562 45.5905 143.562 45.8934C143.562 46.0196 143.689 46.1206 143.816 46.1206C143.943 46.1206 144.044 45.9944 144.044 45.8681L144.069 45.8429C144.069 45.8429 144.095 45.8429 144.095 45.8176L144.145 45.7924C144.171 45.7924 144.171 45.7672 144.196 45.7672C144.221 45.7672 144.221 45.7672 144.247 45.7419C144.247 45.7419 144.272 45.7419 144.297 45.7419C144.323 45.7419 144.348 45.7419 144.373 45.7419C144.373 45.7419 144.399 45.7419 144.424 45.7419C144.45 45.7419 144.45 45.7419 144.475 45.7419C144.475 45.7419 144.5 45.7419 144.526 45.7419C144.526 45.7419 144.551 45.7419 144.551 45.7672C144.551 45.7672 144.551 45.7672 144.576 45.7924V45.8176V45.8429V45.8681L144.551 45.9186C144.551 45.9439 144.5 46.0196 144.475 46.0448C144.424 46.1206 144.348 46.1963 144.272 46.272C144.095 46.474 143.917 46.6759 143.74 46.8779C143.638 47.0041 143.689 47.2313 143.866 47.2566C144.171 47.3323 144.5 47.3323 144.83 47.3323C144.957 47.3323 145.058 47.2313 145.058 47.0798C145.058 46.9789 144.931 46.8526 144.804 46.8779Z" fill="#3588CC"/>
<path d="M106.93 36.6789C106.93 36.6789 109.693 38.5217 111.95 44.4036C114.155 50.134 118.541 55.8139 120.189 58.8936C120.696 59.8529 123.205 61.0394 122.673 61.9734L121.177 65.6338C120.62 66.6941 119.504 67.3504 118.287 67.3504H116.994C115.828 67.3504 114.764 66.7445 114.181 65.76L104.42 49.1495L104.902 35.8711L106.93 36.6789Z" fill="#FFBEAC"/>
<path d="M126.577 41.3745C126.577 41.3745 126.095 39.5065 126.983 38.4462C127.87 37.386 129.34 35.8966 129.34 35.8966L132.306 33.5741C132.306 33.5741 132.889 33.2964 133.042 34.18C133.194 35.0635 131.191 36.9568 131.191 36.9568C131.191 36.9568 135.501 34.281 135.906 34.0285C136.312 33.7761 137.858 32.8673 138.568 32.6653C139.278 32.4634 139.709 33.2207 139.227 33.7003C139.227 33.7003 140.698 33.044 141.027 33.6751C141.357 34.3062 141.128 34.7353 140.875 35.0383L136.286 38.6734L141.179 35.5684C141.179 35.5684 141.712 35.2402 142.117 35.8966C142.523 36.5529 139.988 38.4715 139.988 38.4715C139.988 38.4715 140.824 38.0423 141.281 38.6734C141.712 39.3045 136.971 42.9649 136.971 42.9649C136.971 42.9649 133.625 45.2369 131.774 45.4388C131.774 45.4388 130.811 45.6155 130.557 46.0952C130.304 46.5496 121.203 64.9777 121.203 64.9777L116.538 55.4859L126.577 41.3745Z" fill="#FFBEAC"/>
<path d="M105.13 35.871L100.466 34.0029H92.7084H84.2412L72.7065 38.875L81.1738 73.0555L77.9795 82.4462H92.7084H107.437L105.866 73.0555L106.499 59.146L108.629 54.6526C109.44 52.9612 109.516 50.9922 108.908 49.2251L107.184 44.4035L105.13 35.871Z" fill="#FF9C2A"/>
<path d="M72.7066 38.875C72.7066 38.875 69.4616 40.5411 71.2616 48.7959C73.0615 57.0507 72.0221 65.7599 72.0221 65.7599L76.1036 70.6067V47.5337L72.7066 38.875Z" fill="#FFBEAC"/>
<path d="M99.325 65.5587H80.2357C79.9061 65.5587 79.5766 65.4073 79.3738 65.1548L63.2759 45.3887C62.9717 45.0101 63.1999 44.4547 63.6815 44.4042L82.5173 42.7129C83.2018 42.6624 83.8609 42.9401 84.2411 43.4954L99.908 64.448C100.238 64.9024 99.908 65.5587 99.325 65.5587Z" fill="#345454"/>
<path d="M65.6082 46.045C65.6082 46.3227 65.8363 46.5247 66.0898 46.5247C66.3687 46.5247 66.5715 46.2975 66.5715 46.045C66.5715 45.7673 66.3433 45.5654 66.0898 45.5654C65.8363 45.5402 65.6082 45.7673 65.6082 46.045Z" fill="white"/>
<path d="M105.029 21.4316C105.029 21.4316 103.711 27.263 105.156 29.0301C107.082 31.3778 98.0066 30.3428 98.0066 30.3428L103.482 21.6336L105.029 21.4316Z" fill="#345454"/>
<path d="M73.0359 61.2673C72.9599 61.545 73.0106 61.8479 73.188 62.0751L79.6018 72.4251L79.3737 65.1801L73.6697 58.1875C73.619 58.8691 73.4669 59.8788 73.0359 61.2673Z" fill="#FFBEAC"/>
<path d="M63.1745 51.3206C63.352 51.0429 64.7716 49.301 65.1773 48.7962C65.2533 48.7204 65.3294 48.6447 65.4308 48.5942L69.4616 46.3475C69.8165 46.1455 70.2474 46.2213 70.5263 46.499C70.9066 46.9029 70.8305 47.534 70.3995 47.8369L67.6363 49.7302C67.5349 49.7807 67.4588 49.8817 67.4081 49.9574L66.1406 51.8002L73.5177 48.3418C73.9233 48.1398 74.405 48.2913 74.6585 48.6699L74.6838 48.6952C74.9373 49.1243 74.8106 49.6797 74.3796 49.9321L68.1433 53.643L76.1542 50.1593C76.5598 49.9826 77.0668 50.1341 77.295 50.538L77.3203 50.5632C77.5485 50.9672 77.4217 51.472 77.0415 51.7245L74.7852 53.2139L77.5992 52.1789C77.8781 52.0779 78.1823 52.1789 78.3344 52.4061C78.5372 52.6837 78.4611 53.0877 78.1823 53.2896L73.974 56.1674C73.6698 56.3694 73.543 56.7228 73.5937 57.0762C73.6952 57.7073 73.6952 58.9695 73.0107 61.2415C72.9346 61.5192 72.9853 61.8221 73.1628 62.0493L78.233 68.5875C78.6893 69.1933 79.2216 70.7837 79.5766 72.3993C80.1089 74.7723 78.8667 76.3879 76.7373 77.5239C75.6979 78.0792 73.5431 77.2714 73.5431 77.2714C71.8699 76.8423 70.2728 73.2324 69.7658 71.5915C69.7658 71.5915 68.4222 64.397 68.194 61.3929C68.2194 61.1657 68.1687 60.9385 68.0166 60.7366L64.0111 55.5363C63.9351 55.4353 63.8844 55.3344 63.859 55.2081C63.6562 54.4761 62.9971 51.5983 63.1745 51.3206Z" fill="#FFBEAC"/>
<path d="M106.018 15.6257C106.018 15.6257 106.018 15.6005 106.018 15.6257C106.018 15.5752 106.043 15.449 106.043 15.2723C106.144 13.7829 106.119 12.8236 106.119 12.8236C106.119 11.41 105.84 10.072 105.333 8.83508C104.218 4.92226 101.404 0.832728 94.5843 1.00944C81.6807 1.36285 81.8328 10.8799 81.8328 10.8799C81.706 11.511 81.63 12.1673 81.63 12.8236C81.63 12.8236 81.63 13.9091 81.7821 15.5752C81.6553 15.5752 81.5539 15.5752 81.4272 15.5752C80.2357 15.7772 79.5512 17.4433 79.8807 19.2861C80.2103 21.1289 81.4271 22.4669 82.5933 22.2649C82.7707 22.2397 82.9482 22.1639 83.1003 22.063C83.8101 24.2592 85.8889 28.0458 87.4607 29.7624C87.1565 32.514 84.2158 33.9781 84.2158 33.9781L96.9419 47.5342L100.44 33.9781C100.44 33.9781 98.6911 32.2363 98.0067 30.3178C101.353 29.8634 103.761 25.5466 104.775 22.2649C105.942 22.3911 107.108 21.0784 107.412 19.2861C107.767 17.519 107.133 15.9287 106.018 15.6257Z" fill="#FFBEAC"/>
<path d="M99.0461 16.5854C99.0461 17.267 99.4771 17.8224 100.035 17.8224C100.567 17.8224 101.024 17.267 101.024 16.5854C101.024 15.9038 100.593 15.3484 100.035 15.3484C99.4771 15.3232 99.0461 15.9038 99.0461 16.5854Z" fill="#345454"/>
<path d="M89.3875 16.5854C89.3875 17.267 89.8184 17.8224 90.3761 17.8224C90.9085 17.8224 91.3648 17.267 91.3648 16.5854C91.3648 15.9038 90.9339 15.3484 90.3761 15.3484C89.8184 15.3232 89.3875 15.9038 89.3875 16.5854Z" fill="#345454"/>
<path d="M94.9138 20.9523H94.9392C95.649 20.8766 96.1053 20.6241 96.2828 20.195C96.5363 19.5639 96.0039 18.9075 95.9532 18.8318C95.8518 18.6803 95.6237 18.6803 95.4969 18.7813C95.3448 18.8823 95.3448 19.1095 95.4462 19.2357C95.5476 19.3872 95.7758 19.7406 95.6744 19.9425C95.5983 20.1192 95.3195 20.2455 94.8631 20.296C94.6857 20.3212 94.5589 20.4727 94.5843 20.6494C94.6096 20.8261 94.7617 20.9523 94.9138 20.9523Z" fill="#345454"/>
<path d="M90.0464 23.5527C90.0464 23.5527 91.4914 26.9102 95.5982 26.582C98.2854 26.3548 99.3248 23.5527 99.3248 23.5527H90.0464Z" fill="white"/>
<path d="M100.314 1.66565C100.314 1.66565 93.3422 -2.75206 84.9764 2.77639C84.0638 3.38224 83.3032 4.11432 82.6948 4.92213C82.6948 4.92213 81.5794 5.8814 79.8302 9.71849C78.588 12.4196 76.6106 17.8218 76.6106 26.6067C76.6106 28.0709 77.726 29.3079 79.171 29.838C80.7428 30.4186 85.0017 30.7468 87.0298 30.6963C87.5115 30.6963 87.8157 30.2166 87.6382 29.7622C86.5228 27.0864 86.0665 23.9561 85.889 21.6337C85.5848 17.7966 86.3707 15.3984 89.7677 13.5808C89.7931 13.5556 97.5758 10.2234 99.0715 4.41725L106.043 15.6004C106.043 15.6004 107.285 16.0547 107.412 17.3169C107.412 17.3422 108.908 3.05407 100.314 1.66565Z" fill="#345454"/>
<path d="M101.277 13.7823C101.226 13.7823 101.175 13.7571 101.15 13.7066C101.15 13.6813 100.897 13.3532 100.288 13.2522C99.6798 13.1512 99.3502 13.3784 99.3249 13.4036C99.2488 13.4541 99.1221 13.4541 99.046 13.3532C98.9953 13.2774 98.9953 13.1512 99.0967 13.1007C99.122 13.0755 99.5784 12.7473 100.339 12.8735C101.099 12.9997 101.429 13.4794 101.454 13.4794C101.505 13.5551 101.48 13.6813 101.404 13.7318C101.378 13.7823 101.328 13.7823 101.277 13.7823Z" fill="#345454"/>
<path d="M91.7198 13.5557C91.6691 13.5557 91.6184 13.5305 91.593 13.5052C91.593 13.5052 91.2634 13.2023 90.655 13.2275C90.0466 13.2528 89.7677 13.5557 89.7424 13.5809C89.6663 13.6567 89.5396 13.6567 89.4635 13.5809C89.3875 13.5052 89.3875 13.4042 89.4382 13.3033C89.4635 13.278 89.8438 12.8741 90.6043 12.8489C91.3902 12.8236 91.7958 13.2023 91.8212 13.2275C91.8972 13.3033 91.8972 13.4295 91.8212 13.5052C91.8212 13.5305 91.7705 13.5557 91.7198 13.5557Z" fill="#345454"/>
<path d="M182.577 86.6871L123.535 86.2832L64.518 86.6871L45.1499 118.596H123.535H201.945L182.577 86.6871Z" fill="#3588CC"/>
<path d="M196.748 124.68H50.3468C47.4822 124.68 45.1499 122.357 45.1499 119.504V118.596H201.971V119.504C201.945 122.357 199.613 124.68 196.748 124.68Z" fill="#345454"/>
<path d="M140.419 107.085C140.216 106.757 139.836 106.53 139.455 106.53L123.56 106.429L107.665 106.53C107.26 106.53 106.905 106.732 106.702 107.085L102.164 114.507C101.911 114.936 102.215 115.466 102.722 115.466H123.56H144.399C144.906 115.466 145.21 114.911 144.957 114.507L140.419 107.085Z" fill="#00C0EA"/>
<path d="M179.434 90.2473C178.952 89.4647 178.09 88.9599 177.177 88.9599L123.535 88.6064L69.9177 88.9851C68.9797 88.9851 68.1431 89.4647 67.6614 90.2726L61.0955 101.052C60.4871 102.036 61.2223 103.298 62.3631 103.298H184.707C185.873 103.298 186.583 102.036 185.974 101.052L179.434 90.2473Z" fill="#00C0EA"/>
<g opacity="0.3">
<g opacity="0.3">
<g opacity="0.3">
<g opacity="0.3">
<g opacity="0.3">
<path opacity="0.3" d="M177.862 91.4085H69.2079C69.0811 91.4085 68.9797 91.3075 68.9797 91.1813C68.9797 91.0551 69.0811 90.9541 69.2079 90.9541H177.862C177.989 90.9541 178.09 91.0551 178.09 91.1813C178.09 91.3075 177.989 91.4085 177.862 91.4085Z" fill="#FEF6E5"/>
</g>
</g>
</g>
</g>
</g>
<g opacity="0.3">
<g opacity="0.3">
<g opacity="0.3">
<g opacity="0.3">
<g opacity="0.3">
<path opacity="0.3" d="M180.093 95.22H67.0023C66.8756 95.22 66.7742 95.119 66.7742 94.9928C66.7742 94.8666 66.8756 94.7656 67.0023 94.7656H180.093C180.22 94.7656 180.321 94.8666 180.321 94.9928C180.321 95.119 180.22 95.22 180.093 95.22Z" fill="#FEF6E5"/>
</g>
</g>
</g>
</g>
</g>
<g opacity="0.3">
<g opacity="0.3">
<g opacity="0.3">
<g opacity="0.3">
<g opacity="0.3">
<path opacity="0.3" d="M182.324 99.0315H64.7716C64.6449 99.0315 64.5435 98.9305 64.5435 98.8043C64.5435 98.6781 64.6449 98.5771 64.7716 98.5771H182.324C182.451 98.5771 182.552 98.6781 182.552 98.8043C182.552 98.9305 182.451 99.0315 182.324 99.0315Z" fill="#FEF6E5"/>
</g>
</g>
</g>
</g>
</g>
<path d="M22.3342 110.543L13.7909 127.734L10.5967 126.194L15.7936 108.7L22.3342 110.543Z" fill="#FFBEAC"/>
<path d="M25.5283 110.466L32.2463 128.794L36.1757 127.733L31.283 108.396L25.5283 110.466Z" fill="#FFBEAC"/>
<path d="M0.912634 115.971L1.64781 116.703C2.86466 117.914 4.81668 117.914 6.03352 116.703L52.3243 70.6071L47.2034 65.5078L0.912634 111.603C-0.304211 112.815 -0.304211 114.759 0.912634 115.971Z" fill="#D35440"/>
<path d="M52.3243 70.6066L57.8001 60.509C57.9522 60.2061 57.6226 59.8779 57.3438 60.0546L47.2034 65.5073C47.2034 65.5073 46.8738 66.6685 49.0286 68.789C51.1581 70.9348 52.3243 70.6066 52.3243 70.6066Z" fill="#FFBEAC"/>
<path d="M52.4258 62.6801L57.3692 60.0295C57.6734 59.878 58.003 60.2062 57.8255 60.4839L55.2144 65.3055C54.7581 65.2045 54.1243 64.9521 53.5159 64.321C52.8567 63.7151 52.5525 63.1093 52.4258 62.6801Z" fill="#345454"/>
<path d="M35.0097 75.3525L29.686 78.6848L31.4606 81.0829L36.2519 77.2206L35.0097 75.3525Z" fill="#FFBEAC"/>
<path d="M33.5902 90.6504C33.5902 90.6504 32.3987 90.4232 32.0184 89.9184C31.6381 89.4135 31.9677 89.1358 31.9677 89.1358C31.9677 89.1358 30.903 88.1765 31.0044 87.4949C31.1058 86.8134 30.8523 86.7881 31.2579 86.6366C31.5874 86.5104 31.3593 86.2327 32.0945 85.9298C32.8296 85.6269 32.6522 85.4249 32.6522 85.4249C32.6522 85.4249 32.931 85.0463 33.3113 84.9201C33.7169 84.7938 34.0465 84.9958 34.0465 84.9958C34.0465 84.9958 33.793 84.5666 34.2746 84.4657C34.7563 84.3647 36.5055 86.3337 36.5055 86.7881C36.4802 88.5552 33.5902 90.6504 33.5902 90.6504Z" fill="#FFBEAC"/>
<path d="M26.5677 61.645C26.5677 61.645 28.2663 62.7557 28.7479 64.649C29.255 66.5676 29.2296 67.0472 29.4324 67.2996C29.6352 67.5521 29.9141 67.855 30.1676 67.9812C30.4211 68.1075 31.0042 68.5618 30.7 68.89C30.4211 69.2182 29.4831 69.6726 29.4831 69.6726C29.4831 69.6726 31.0042 73.4339 26.2128 74.5699V75.5292C26.2128 75.5292 23.6777 75.9079 22.9933 76.1098C22.3088 76.2865 21.5229 76.6399 21.5229 76.6399L21.0666 75.0496C21.0666 75.0496 16.8837 74.1408 15.9457 69.4959C14.881 64.4218 19.9512 57.6312 26.5677 61.645Z" fill="#FFBEAC"/>
<path d="M26.3903 61.9732C26.3903 61.9732 27.1255 66.4918 23.7285 68.9405C23.7285 68.9405 24.0834 72.4999 22.03 74.6457C21.168 75.5545 20.6357 75.1001 20.0779 74.9738C18.785 74.7214 16.5288 73.7116 15.6162 70.0765C14.2979 64.8257 16.6809 62.3013 19.2921 60.9382C21.9032 59.575 25.1228 59.7264 26.6438 60.9634C26.6438 60.9634 29.6099 62.5033 28.824 65.0024L26.3903 61.9732Z" fill="#345454"/>
<path d="M25.1227 69.4455C25.427 70.2786 25.1734 71.1621 24.5397 71.3893C23.9059 71.6418 23.12 71.1369 22.8158 70.3038C22.5116 69.4708 22.7651 68.5872 23.3989 68.36C24.0327 68.1328 24.7932 68.6125 25.1227 69.4455Z" fill="#FFBEAC"/>
<path d="M27.4296 67.4009C27.4803 67.7291 27.7338 67.9815 27.962 67.9311C28.2155 67.8806 28.3676 67.6029 28.3169 67.2495C28.2662 66.9213 28.0127 66.6689 27.7845 66.7193C27.531 66.7698 27.3789 67.0728 27.4296 67.4009Z" fill="#345454"/>
<path d="M27.8099 65.1286C27.7846 65.1538 27.7592 65.1538 27.7339 65.1286C27.7339 65.1286 27.4804 65.0528 27.1762 65.2295C26.8719 65.4063 26.7959 65.6335 26.7705 65.6335C26.7452 65.6839 26.6945 65.7344 26.6184 65.7092C26.5677 65.6839 26.517 65.6334 26.5424 65.583C26.5424 65.5577 26.6438 65.2548 27.0494 65.0276C27.455 64.8256 27.7846 64.9266 27.7846 64.9266C27.8353 64.9519 27.886 65.0023 27.8606 65.0781C27.8353 65.1033 27.8353 65.1033 27.8099 65.1286Z" fill="#345454"/>
<path d="M28.4185 71.5656C28.0129 71.5656 27.5566 71.4141 27.0749 70.9849C27.0242 70.9345 27.0242 70.8587 27.0749 70.783C27.1256 70.7325 27.2016 70.7325 27.2777 70.783C28.4438 71.818 29.4579 70.9344 29.5086 70.9092C29.5593 70.8587 29.6607 70.8587 29.7114 70.9092C29.7621 70.9597 29.7621 71.0607 29.7114 71.1112C29.6607 71.1112 29.1537 71.5656 28.4185 71.5656Z" fill="#C7836C"/>
<path d="M28.3676 95.8252C28.3676 95.8252 30.3197 102.868 32.1196 109.205C32.1956 109.432 32.0435 109.684 31.8154 109.735L25.6044 111.502C25.4016 111.552 25.1734 111.451 25.072 111.249C22.0046 104.332 18.8357 97.0117 18.8357 97.0117L28.3676 95.8252Z" fill="#BF743C"/>
<path d="M17.0357 96.7592L28.9507 96.3301C28.9507 96.3301 25.4523 104.408 22.3341 111.628C22.2327 111.83 22.0045 111.931 21.8017 111.88L15.464 109.911C15.2358 109.836 15.1091 109.608 15.1598 109.356L17.0357 96.7592Z" fill="#BF743C"/>
<path d="M30.4211 78.2052L32.9562 82.3452C32.9562 82.3452 22.8919 93.503 19.2414 92.1651C15.5908 90.8272 17.5935 79.5431 21.168 75.5798L26.1622 75.5293L28.2409 79.2402L30.4211 78.2052Z" fill="white"/>
<path d="M17.4921 89.2875L16.3513 97.1889H29.6859L29.0014 83.6328L17.4921 89.2875Z" fill="white"/>
<path d="M31.9675 128.088C31.9675 128.088 31.9168 130.637 32.4745 131.521C32.9308 132.228 37.8743 130.536 39.9277 129.855C41.0685 129.476 41.1192 128.441 40.6122 127.961C39.7249 127.103 36.1758 127.759 36.1758 127.759L31.9675 128.088Z" fill="#61B579"/>
<path d="M10.6221 125.942C10.6221 125.942 9.25317 128.088 9.25317 129.123C9.25317 129.956 14.3741 131.067 16.4782 131.572C17.6443 131.849 18.2274 130.991 18.0499 130.31C17.7457 129.123 14.3741 127.836 14.3741 127.836L10.6221 125.942Z" fill="#61B579"/>
<path d="M35.1618 75.7569C34.7562 75.2268 35.2632 74.1665 35.7702 73.7121C36.2012 73.3335 36.7082 72.9296 37.1138 72.7276C37.9758 72.2985 39.0151 72.3742 39.4968 72.5256C39.9785 72.6519 40.0799 73.1315 39.725 73.2072C39.725 73.2072 40.5109 73.5354 40.4601 73.8383C40.4094 74.116 39.4461 73.4597 38.9644 73.8383C38.5081 74.217 40.2066 74.1413 40.308 74.6462C40.4094 75.151 38.1532 74.6966 37.9758 75.4035C37.9758 75.4035 39.6236 74.7724 39.7757 75.2773C39.9278 75.8074 38.1025 75.6812 37.849 75.9588C37.5955 76.2618 36.2265 77.1958 36.2265 77.1958L35.1618 75.7569Z" fill="#FFBEAC"/>
<path d="M54.175 148.106L58.4847 137.832H187.065L191.324 148.081L130.557 145.153L122.749 146.945L115.22 145.203L54.175 148.106Z" fill="#345454"/>
<path d="M58.4846 137.832L73.7712 124.453C73.7712 124.453 112.457 116.299 122.775 124.453V139.019L58.4846 137.832Z" fill="white"/>
<path d="M58.4845 137.832L54.2256 148.081C54.2256 148.081 102.164 138.438 116.057 143.891C116.057 143.891 116.057 141.114 122.775 139.018C122.775 139.018 113.445 130.663 96.4095 133.162C79.3991 135.711 83.3792 136.671 58.4845 137.832Z" fill="#E3D6B6"/>
<path d="M187.065 137.832L171.778 124.453C171.778 124.453 133.092 116.299 122.775 124.453V139.019L187.065 137.832Z" fill="white"/>
<path d="M187.065 137.832L191.324 148.081C191.324 148.081 143.385 138.438 129.493 143.891C129.493 143.891 129.493 141.114 122.775 139.018C122.775 139.018 132.104 130.663 149.14 133.162C166.175 135.711 162.17 136.671 187.065 137.832Z" fill="#E3D6B6"/>
<path d="M191.831 148.107L130 143.916C129.619 143.891 129.264 144.093 129.087 144.446C129.087 144.446 128.022 146.011 123.206 146.011C123.028 146.011 122.42 146.011 122.268 146.011C117.451 146.011 116.386 144.446 116.386 144.446C116.209 144.093 115.854 143.891 115.474 143.916L53.6426 148.107C53.1103 148.132 52.73 148.586 52.7553 149.116C52.7807 149.621 53.2117 150 53.6933 150C53.7187 150 53.744 150 53.7694 150L115.093 145.835C115.828 146.617 117.755 147.905 122.268 147.905C122.445 147.905 123.053 147.905 123.206 147.905C127.718 147.905 129.619 146.617 130.38 145.835L191.704 150C191.729 150 191.755 150 191.78 150C192.287 150 192.693 149.621 192.718 149.116C192.743 148.586 192.363 148.132 191.831 148.107Z" fill="#61B579"/>
<path d="M58.4846 140.66C58.3072 140.66 58.1804 140.534 58.1804 140.357C58.1804 140.18 58.3072 140.029 58.4846 140.029C75.3683 139.246 78.9175 138.539 84.8242 137.378C87.6889 136.823 90.9085 136.192 96.3843 135.384C105.916 133.97 113.04 135.99 117.324 137.908C117.476 137.984 117.552 138.161 117.476 138.337C117.4 138.489 117.223 138.565 117.045 138.489C112.812 136.596 105.815 134.627 96.4603 136.015C91.0099 136.823 87.765 137.454 84.9256 138.009C79.0189 139.17 75.4444 139.877 58.4846 140.66C58.51 140.66 58.4846 140.66 58.4846 140.66Z" fill="#BAA985"/>
<path d="M58.4846 142.654C58.3072 142.654 58.1804 142.527 58.1804 142.351C58.1804 142.174 58.3072 142.023 58.4846 142.023C73.7205 141.316 80.0329 140.23 85.6101 139.271C89.1086 138.665 92.4042 138.11 97.4237 137.731C105.815 137.1 111.874 137.681 116.513 139.523C116.665 139.599 116.766 139.776 116.69 139.927C116.614 140.079 116.437 140.18 116.285 140.104C111.747 138.286 105.764 137.731 97.4744 138.337C92.4802 138.716 89.1846 139.271 85.7115 139.877C80.109 140.861 73.7712 141.947 58.4846 142.654C58.51 142.654 58.4846 142.654 58.4846 142.654Z" fill="#BAA985"/>
<path d="M57.5214 145.229C57.3692 145.229 57.2171 145.103 57.2171 144.951C57.1918 144.774 57.3439 144.623 57.496 144.623C66.0393 143.941 71.3883 143.134 77.0669 142.301C82.416 141.518 87.9425 140.685 96.3843 139.978C108.223 138.943 111.747 140.003 115.144 141.518C115.296 141.594 115.372 141.77 115.296 141.922C115.22 142.073 115.043 142.149 114.891 142.073C111.595 140.609 108.147 139.574 96.4604 140.584C88.0439 141.316 82.5174 142.124 77.1937 142.906C71.4897 143.739 66.1153 144.547 57.5721 145.229C57.5467 145.229 57.5214 145.229 57.5214 145.229Z" fill="#BAA985"/>
<path d="M185.924 140.659C168.989 139.877 165.415 139.17 159.483 138.009C156.643 137.453 153.399 136.822 147.948 136.014C138.568 134.626 131.571 136.595 127.363 138.488C127.211 138.564 127.008 138.488 126.932 138.337C126.856 138.185 126.932 137.983 127.084 137.908C131.394 135.989 138.518 133.995 148.024 135.383C153.5 136.191 156.745 136.822 159.584 137.378C165.491 138.539 169.04 139.246 185.924 140.028C186.101 140.028 186.228 140.18 186.228 140.356C186.228 140.533 186.101 140.659 185.924 140.659Z" fill="#BAA985"/>
<path d="M185.924 142.654C170.637 141.947 164.299 140.861 158.697 139.902C155.224 139.321 151.928 138.741 146.934 138.362C138.644 137.731 132.661 138.286 128.124 140.129C127.972 140.205 127.769 140.104 127.718 139.953C127.642 139.801 127.743 139.599 127.895 139.549C132.535 137.681 138.594 137.125 146.985 137.756C152.004 138.135 155.3 138.69 158.798 139.296C164.375 140.255 170.688 141.316 185.924 142.048C186.101 142.048 186.228 142.199 186.228 142.376C186.228 142.527 186.101 142.654 185.924 142.654Z" fill="#BAA985"/>
<path d="M186.887 145.228H186.862C178.293 144.547 172.919 143.739 167.24 142.906C161.891 142.123 156.39 141.316 147.974 140.583C136.287 139.574 132.839 140.609 129.543 142.073C129.391 142.149 129.188 142.073 129.138 141.921C129.062 141.77 129.138 141.568 129.29 141.518C132.662 140.028 136.185 138.968 148.05 139.978C156.491 140.71 162.018 141.518 167.367 142.3C173.046 143.133 178.42 143.941 186.938 144.623C187.115 144.648 187.242 144.799 187.217 144.951C187.191 145.102 187.039 145.228 186.887 145.228Z" fill="#BAA985"/>
<path d="M122.775 137.656C122.597 137.656 122.47 137.504 122.445 137.353L122.42 125.64C122.42 125.463 122.572 125.312 122.724 125.312C122.901 125.312 123.028 125.463 123.053 125.614L123.079 137.328C123.104 137.504 122.952 137.656 122.775 137.656Z" fill="#BAA985"/>
<path d="M209.044 20.5733C209.044 21.3054 208.587 21.9112 208.004 21.9112C207.421 21.9112 206.965 21.3054 206.965 20.5733C206.965 19.8412 207.421 19.2354 208.004 19.2354C208.587 19.2354 209.044 19.8412 209.044 20.5733Z" fill="#BF743C"/>
<path d="M196.977 44.2014C196.977 44.2014 192.211 45.8676 192.211 48.9726C192.211 52.0776 192.211 53.8952 192.211 53.8952H207.624L208.106 49.4017C208.258 47.9123 209.348 46.7006 210.818 46.3724C214.494 45.5646 212.618 42.5858 211.3 40.2129H198.929L196.977 44.2014Z" fill="#345454"/>
<path d="M216.928 37.1836C216.928 37.1836 214.215 25.3694 211.427 24.2081L207.447 22.9459L201.971 22.7188L198.498 24.5363C197.332 25.2936 196.597 26.5558 196.495 27.9443L196.647 32.1095V40.2381L209.652 41.2479C211.047 43.0402 214.849 39.9099 216.015 39.3293C216.852 38.9507 217.232 38.0166 216.928 37.1836Z" fill="#C9DB57"/>
<path d="M201.971 23.981V19.8662H206.255V21.0779C206.255 21.9867 207.447 22.946 207.447 22.946C207.548 23.1479 203.137 27.2627 203.137 27.2627L201.971 23.981Z" fill="#FFBEAC"/>
<path d="M207.548 16.9884C207.548 16.9884 207.447 19.1089 206.838 20.8003C206.838 20.8003 204.506 24.6121 200.805 23.9053C198.472 23.4762 197.611 20.0177 197.408 17.3671C197.23 14.9942 197.534 13.4795 198.701 11.9144C201.16 8.63267 205.571 10.526 206.585 12.2173C207.193 13.2776 207.827 14.6912 207.548 16.9884Z" fill="#FFBEAC"/>
<path d="M199.436 17.7459C199.563 18.0993 199.436 18.4528 199.157 18.5537C198.878 18.6547 198.549 18.4275 198.447 18.0741C198.32 17.7207 198.447 17.3673 198.726 17.2663C199.005 17.1653 199.309 17.3925 199.436 17.7459Z" fill="#345454"/>
<path d="M203.467 18.1498C203.593 18.5032 203.467 18.8566 203.188 18.9576C202.909 19.0585 202.579 18.8313 202.478 18.4779C202.351 18.1245 202.478 17.7711 202.757 17.6701C203.01 17.5944 203.34 17.7963 203.467 18.1498Z" fill="#345454"/>
<path d="M200.881 19.8412C200.551 19.7907 200.374 19.6897 200.298 19.4878C200.196 19.2101 200.425 18.9324 200.45 18.9072C200.501 18.8567 200.577 18.8314 200.653 18.9072C200.703 18.9577 200.729 19.0334 200.678 19.1091C200.627 19.1596 200.526 19.3111 200.577 19.4121C200.602 19.4878 200.729 19.5383 200.906 19.5635C200.982 19.5635 201.033 19.6392 201.033 19.715C201.033 19.7907 200.957 19.8412 200.881 19.8412Z" fill="#345454"/>
<path d="M203.771 16.6098C203.745 16.6098 203.72 16.6098 203.695 16.5845C203.669 16.5593 203.112 16.0292 202.554 16.4078C202.503 16.4331 202.427 16.4078 202.402 16.3573C202.376 16.2816 202.402 16.2059 202.452 16.1806C203.112 15.7262 203.796 16.3573 203.821 16.3826C203.872 16.4331 203.872 16.5088 203.847 16.5593C203.821 16.5845 203.796 16.6098 203.771 16.6098Z" fill="#345454"/>
<path d="M199.41 16.181C199.385 16.181 199.36 16.181 199.36 16.1558C199.334 16.1305 198.827 15.6509 198.447 16.0801C198.422 16.1305 198.346 16.1053 198.32 16.0296C198.295 15.9791 198.295 15.8781 198.32 15.8529C198.777 15.348 199.41 15.9033 199.436 15.9286C199.486 15.9791 199.486 16.0548 199.486 16.1053C199.461 16.1558 199.436 16.181 199.41 16.181Z" fill="#345454"/>
<path d="M201.058 21.5577C200.196 21.5577 199.715 20.8761 199.715 20.8761C199.664 20.8256 199.689 20.7246 199.74 20.6994C199.791 20.6489 199.892 20.6742 199.917 20.7246C199.943 20.7751 200.703 21.8606 202.123 20.9266C202.174 20.8761 202.275 20.9013 202.3 20.9518C202.351 21.0023 202.326 21.1033 202.275 21.1285C201.819 21.4567 201.413 21.5577 201.058 21.5577Z" fill="#345454"/>
<path d="M200.678 53.8955L197.357 77.019H200.678L206.331 53.8955H200.678Z" fill="#FFBEAC"/>
<path d="M197.357 77.0186C197.357 77.0186 197.002 77.4982 196.546 78.205C195.456 79.9469 193.909 83.0519 196.52 83.3548C198.929 83.6325 200.577 80.0731 201.007 78.104C201.236 77.0943 200.653 77.0186 200.653 77.0186H197.357Z" fill="#345454"/>
<path d="M194.416 53.8955L204.709 68.7138L207.624 66.467L200.678 53.8955H194.416Z" fill="#FFBEAC"/>
<path d="M204.709 68.7135C204.709 68.7135 203.543 73.2574 202.579 74.141C201.616 75.0245 203.543 76.3625 205.621 74.141C207.7 71.9195 209.678 69.6476 209.956 68.7135C210.235 67.7542 208.816 67.4513 207.624 66.4668L204.709 68.7135Z" fill="#345454"/>
<path d="M194.112 33.6996L194.898 33.2199C194.898 33.2199 201.413 32.6141 201.692 34.3307C201.667 34.3307 194.898 34.5074 194.112 33.6996Z" fill="white"/>
<path d="M209.221 33.9523L209.018 33.2203C209.018 33.2203 201.388 32.5134 201.692 34.331L209.272 34.3815L209.221 33.9523Z" fill="white"/>
<path d="M193.326 33.7753C193.326 33.7753 198.447 33.1947 201.667 34.3307L203.238 44.2011C203.238 44.2011 198.371 43.8729 195.684 44.1254L193.326 33.7753Z" fill="#FF9C2A"/>
<path d="M210.59 44.4286L209.221 33.9775C209.221 33.9775 204.683 33.1697 201.692 34.3562L203.264 44.2266C203.238 44.2014 208.892 43.8984 210.59 44.4286Z" fill="#FF9C2A"/>
<path d="M202.959 43.4947C202.858 43.4947 202.782 43.419 202.757 43.318L201.591 35.0885C201.565 34.9875 201.641 34.8865 201.768 34.8613C201.869 34.836 201.971 34.9118 201.996 35.038L203.162 43.2675C203.188 43.3685 203.112 43.4695 202.985 43.4947C202.959 43.4947 202.959 43.4947 202.959 43.4947Z" fill="#A97F54"/>
<path d="M210.793 42.0553C210.793 42.0553 209.855 42.4592 209.323 42.3078C208.816 42.131 208.917 41.7776 208.917 41.7776C208.917 41.7776 207.7 41.6009 207.447 41.0708C207.193 40.5407 206.99 40.6416 207.218 40.3387C207.396 40.0863 207.092 40.0105 207.472 39.4299C207.852 38.8493 207.624 38.8241 207.624 38.8241C207.624 38.8241 207.624 38.4202 207.852 38.1425C208.08 37.8648 208.41 37.8396 208.41 37.8396C208.41 37.8396 208.03 37.6628 208.309 37.3599C208.587 37.057 210.768 37.6124 210.996 37.9405C211.832 39.228 210.793 42.0553 210.793 42.0553Z" fill="#FFBEAC"/>
<path d="M193.681 42.0553C193.681 42.0553 194.619 42.4592 195.151 42.3078C195.658 42.131 195.557 41.7776 195.557 41.7776C195.557 41.7776 196.774 41.6009 197.027 41.0708C197.281 40.5407 197.484 40.6416 197.256 40.3387C197.078 40.0863 197.382 40.0105 197.002 39.4299C196.622 38.8493 196.85 38.8241 196.85 38.8241C196.85 38.8241 196.85 38.4202 196.622 38.1425C196.394 37.8648 196.064 37.8396 196.064 37.8396C196.064 37.8396 196.444 37.6628 196.165 37.3599C195.887 37.057 193.706 37.6124 193.478 37.9405C192.642 39.228 193.681 42.0553 193.681 42.0553Z" fill="#FFBEAC"/>
<path d="M208.866 26.9346C208.866 27.6667 208.41 28.2725 207.827 28.2725C207.244 28.2725 206.787 27.6667 206.787 26.9346C206.787 26.2025 207.244 25.5967 207.827 25.5967C208.384 25.5967 208.866 26.2025 208.866 26.9346Z" fill="#BF743C"/>
<path d="M209.044 24.6121C209.044 25.3442 208.587 25.9501 208.004 25.9501C207.421 25.9501 206.965 25.3442 206.965 24.6121C206.965 23.8801 207.421 23.2742 208.004 23.2742C208.587 23.249 209.044 23.8548 209.044 24.6121Z" fill="#BF743C"/>
<path d="M209.044 22.4668C209.044 23.1989 208.587 23.8048 208.004 23.8048C207.421 23.8048 206.965 23.1989 206.965 22.4668C206.965 21.7348 207.421 21.1289 208.004 21.1289C208.587 21.1289 209.044 21.7095 209.044 22.4668Z" fill="#BF743C"/>
<path d="M207.776 27.6924C207.776 27.6924 207.193 28.2982 207.32 29.8381C207.37 30.444 207.269 31.0751 207.041 31.6305L206.99 31.7314H208.765L209.018 30.7217L209.094 31.7314H209.424C209.424 31.7314 209.83 28.5254 208.156 27.7176L207.776 27.6924Z" fill="#BF743C"/>
<path d="M209.956 15.4487C209.931 15.171 209.906 14.9186 209.855 14.6661H209.88C208.993 10.9805 205.545 7.39584 201.717 9.56682C201.717 9.56682 200.069 9.6678 199.512 9.99597C198.041 10.8543 197.712 12.3437 197.636 13.0757C196.977 15.3729 197.433 17.6702 197.433 17.6702C197.433 15.7516 198.295 14.237 198.295 14.237C199.689 14.8933 202.224 14.8176 204.075 14.9943C204.278 15.0195 204.43 14.8176 204.354 14.6409C204.05 13.7321 204.379 13.202 204.379 13.202C204.404 13.6059 204.455 13.934 204.506 14.1865C204.633 14.6156 204.962 14.9438 205.368 15.0953C205.849 15.272 206.179 15.5497 206.331 16.004C206.559 16.7614 206.711 17.5439 206.711 17.5439L206.331 21.482C206.331 21.482 210.21 19.6139 209.956 15.4487Z" fill="#BF743C"/>
<path d="M206.128 17.9987C205.647 18.7812 205.697 19.69 206.23 20.0182C206.762 20.3464 207.599 19.9425 208.055 19.1599C208.537 18.3773 208.486 17.4686 207.954 17.1404C207.447 16.8375 206.61 17.2161 206.128 17.9987Z" fill="#FFBEAC"/>
<path d="M235.612 122.61C235.612 124.478 231.226 126.018 225.826 126.018C220.426 126.018 216.041 124.503 216.041 122.61C216.041 120.742 220.426 119.202 225.826 119.202C231.226 119.202 235.612 120.742 235.612 122.61Z" fill="#D35440"/>
<path d="M232.113 122.156H219.514L220.528 121.626C223.57 120.035 224.609 117.991 223.393 116.047H228.235C227.018 117.991 228.057 120.035 231.099 121.626L232.113 122.156Z" fill="#D35440"/>
<path d="M225.294 116.703C222.683 116.703 220.072 116.173 217.587 115.113C212.796 113.068 209.12 109.281 207.193 104.46C205.267 99.6381 205.343 94.3621 207.396 89.6163C209.449 84.8451 213.252 81.1848 218.094 79.2662L219.108 78.8623L219.919 80.8566L218.905 81.2605C214.596 82.9771 211.224 86.2336 209.399 90.4746C207.574 94.7156 207.497 99.3857 209.221 103.677C210.945 107.969 214.215 111.326 218.474 113.144C222.733 114.961 227.423 115.037 231.733 113.32L232.747 112.917L233.558 114.911L232.544 115.315C230.161 116.223 227.727 116.703 225.294 116.703Z" fill="#F69400"/>
<path d="M225.801 113.32C234.747 113.32 242 106.098 242 97.1895C242 88.2807 234.747 81.0586 225.801 81.0586C216.854 81.0586 209.602 88.2807 209.602 97.1895C209.602 106.098 216.854 113.32 225.801 113.32Z" fill="#00C0EA"/>
<path d="M236.474 87.4954C236.474 87.4954 237.082 88.6314 236.474 89.1867C235.865 89.7421 235.713 90.4489 235.105 90.146C234.496 89.8178 234.851 89.2877 234.395 88.8586C233.938 88.4547 233.507 88.0255 233.685 87.4954C233.862 86.9653 234.369 86.4856 235.181 86.6623C236.043 86.839 236.474 87.4954 236.474 87.4954Z" fill="#C9DB57"/>
<path d="M235.713 95.7256C235.713 95.7256 236.55 95.9023 236.321 96.5081C236.068 97.114 235.764 97.215 235.485 97.215C235.206 97.215 234.826 96.7606 235.003 96.3314C235.155 95.9023 235.713 95.7256 235.713 95.7256Z" fill="#C9DB57"/>
<path d="M217.688 102.138C217.688 102.138 218.449 102.163 218.449 102.945C218.424 103.728 218.652 104.561 217.688 104.182C216.725 103.804 216.624 103.652 216.142 103.577C215.66 103.501 215.965 102.39 216.776 102.138C217.283 101.986 217.688 102.138 217.688 102.138Z" fill="#C9DB57"/>
<path d="M236.879 106.605C235.535 107.034 235.333 105.192 235.89 104.207C236.448 103.223 235.966 102.869 233.71 102.743C231.454 102.591 232.645 100.774 233 99.4865C233.355 98.199 234.775 98.2495 235.535 98.0476C236.321 97.8456 237.31 98.2495 238.071 97.2145C238.856 96.1543 238.147 96.028 237.285 95.8766C236.448 95.7251 236.727 95.5232 236.448 94.6901C236.195 93.8571 237.057 93.1502 238.476 92.1405C239.11 91.6861 239.769 90.853 240.301 90.0957C241.366 92.2414 241.975 94.6649 241.975 97.2145C241.975 100.244 241.138 103.046 239.693 105.469C239.617 105.444 239.566 105.444 239.516 105.419C238.704 105.267 238.223 106.176 236.879 106.605Z" fill="#C9DB57"/>
<path d="M217.055 83.6339C217.765 83.1795 218.576 85.0476 218.398 85.6787C218.119 86.6632 216.7 87.572 216.776 88.3546C216.852 89.1371 217.055 89.1876 217.967 89.6925C218.88 90.1721 218.398 93.0752 217.131 93.883C215.863 94.6908 215.787 95.0442 214.089 95.0947C212.39 95.1705 211.478 95.3724 211.478 96.7103C211.478 98.0483 211.756 99.1085 213.886 100.093C215.99 101.078 215.762 101.784 214.976 102.617C214.165 103.45 214.114 103.526 214.165 104.082C214.241 104.637 213.1 104.359 212.466 104.082C211.832 103.804 211.275 102.113 211.478 101.229C211.63 100.547 211.047 99.4367 209.779 99.5124C209.678 98.7551 209.602 97.9725 209.602 97.19C209.627 91.5101 212.593 86.5117 217.055 83.6339Z" fill="#C9DB57"/>
<path d="M234.902 86.1579C234.116 86.0064 234.547 84.5423 233.482 84.6937C232.417 84.8452 231.378 85.8802 230.085 85.4258C228.818 84.9714 228.184 84.5423 227.677 83.8354C227.195 83.1286 226.688 83.9112 224.914 83.8354C223.139 83.7597 223.215 81.3868 223.215 81.3868L225.776 81.0586C230.136 81.0586 234.116 82.8004 237.031 85.6025C236.322 85.9307 235.358 86.2589 234.902 86.1579Z" fill="#C9DB57"/>
<path d="M235.612 122.61C235.612 124.478 231.226 126.018 225.826 126.018C220.426 126.018 216.041 124.504 216.041 122.61V124.1C216.041 125.968 220.426 127.508 225.826 127.508C231.226 127.508 235.612 125.993 235.612 124.1V122.61Z" fill="#A95131"/>
</g>
<defs>
<clipPath id="clip0_34_1740">
<rect width="242" height="150" fill="white"/>
</clipPath>
</defs>
</svg>
