<svg width="168" height="150" viewBox="0 0 168 150" fill="none" xmlns="http://www.w3.org/2000/svg">
<path d="M93.1111 32.5335C92.202 32.5335 91.3795 31.9679 91.0765 31.0542C90.7302 29.9229 91.3362 28.7047 92.4618 28.3566L103.068 24.9193C104.366 24.4842 105.752 25.2239 106.141 26.4857C106.574 27.791 105.838 29.1833 104.583 29.5749L98.0029 31.7068C97.8297 31.7504 97.6998 31.6633 97.6565 31.5328C97.6132 31.3588 97.6998 31.2282 97.8297 31.1847L104.41 29.0527C105.405 28.7482 105.925 27.6604 105.622 26.7032C105.449 26.2246 105.146 25.833 104.713 25.6155C104.28 25.3979 103.76 25.3544 103.284 25.4849L92.6782 28.9222C91.8557 29.1833 91.4228 30.097 91.6825 30.8802C91.9423 31.7068 92.8514 32.1419 93.6306 31.8809L101.423 29.3573C102.072 29.1398 102.462 28.4436 102.245 27.7474C102.029 27.0948 101.336 26.7032 100.644 26.9208L95.7951 28.4871C95.6219 28.5306 95.492 28.4436 95.4488 28.3131C95.4055 28.139 95.492 28.0085 95.6219 27.965L100.47 26.3986C101.423 26.0941 102.462 26.6162 102.808 27.6169C103.111 28.5741 102.592 29.6184 101.596 29.9665L93.8037 32.49C93.544 32.49 93.3276 32.5335 93.1111 32.5335Z" fill="#C2C3C8"/>
<path d="M24.3665 131.345C24.3665 131.345 20.5137 126.689 18.8687 124.427C14.7995 118.944 10.7302 113.158 9.21509 106.457C14.3666 110.025 19.1718 114.506 21.5094 120.337C22.8947 123.861 24.3665 131.345 24.3665 131.345Z" fill="#70A63B"/>
<path d="M41.4228 142.831C33.2843 140.83 27.2237 134.913 22.5051 128.256C22.2887 127.995 21.8558 128.256 22.029 128.517C26.8774 135.304 32.9813 141.309 41.2929 143.354C41.596 143.441 41.7691 142.918 41.4228 142.831Z" fill="#70A63B"/>
<path d="M25.7952 132.999C24.6697 131.171 22.5052 129.822 20.4706 129.126C18.4359 128.474 16.2714 128.212 14.1935 127.69C11.6827 127.081 9.30178 126.255 7.09399 124.949C10.9035 131.128 18.739 134.521 25.7952 132.999Z" fill="#70A63B"/>
<path d="M35.7086 141.048C35.7086 141.048 30.6437 140.699 27.9598 140.09C25.9251 139.655 23.8905 139.09 22.029 138.219C20.1243 137.349 18.3927 136.131 17.094 134.478C19.7347 135.348 22.5485 135.174 25.2325 135.826C28.6091 136.61 35.7086 141.048 35.7086 141.048Z" fill="#70A63B"/>
<path d="M37.267 141.874C37.267 141.874 35.4488 137.132 34.0635 134.739C33.0246 132.911 31.9423 131.127 30.557 129.604C29.1718 128.038 27.4834 126.733 25.5354 125.993C27.1371 128.256 27.7865 131.04 29.215 133.433C30.9466 136.392 37.267 141.874 37.267 141.874Z" fill="#70A63B"/>
<path d="M48.306 72.7802C48.9553 69.4734 47.8298 65.6446 46.1415 62.7294C44.4965 59.8142 42.2454 57.2472 40.3839 54.5061C38.1329 51.1993 36.2281 47.7185 35.016 43.8896C32.9814 55.0282 38.5658 67.1239 48.306 72.7802Z" fill="#70A63B"/>
<path d="M111.985 46.1957C111.985 46.1957 114.02 36.9716 114.713 32.6641C116.444 22.1347 118.003 11.2137 115.319 0.858398C110.687 9.47335 107.224 19.176 108.176 28.9222C108.695 34.7961 111.985 46.1957 111.985 46.1957Z" fill="#70A63B"/>
<path d="M98.2193 80.0027C98.8254 76.1739 99.9509 72.606 102.289 69.5168C104.063 67.1238 106.098 65.0353 107.483 62.3812C109.475 58.5959 110.384 54.3754 111.076 50.1985C111.726 46.1086 112.332 41.9316 112.548 37.7982C112.548 37.4501 112.029 37.4501 112.029 37.7982C111.812 42.1492 111.163 46.5436 110.47 50.8076C109.734 55.1151 108.695 59.5096 106.401 63.2514C104.973 65.601 103.025 67.5589 101.423 69.8214C99.3016 72.8236 98.3059 76.2609 97.7431 79.8722C97.6133 80.2203 98.1327 80.3508 98.2193 80.0027Z" fill="#70A63B"/>
<path d="M111.509 46.848C111.423 43.4977 113.154 39.8864 115.232 37.2758C117.353 34.6652 119.951 32.4897 122.245 30.0532C125.016 27.138 127.44 24.0053 129.258 20.4375C129.431 31.7501 122.029 42.8451 111.509 46.848Z" fill="#70A63B"/>
<path d="M105.276 65.7752C105.276 65.7752 111.596 61.0327 114.626 57.9435C116.921 55.6374 119.085 53.2009 120.86 50.4598C122.592 47.7186 123.847 44.6294 124.15 41.3662C121.423 44.7165 117.57 46.892 114.583 50.0247C110.817 53.9841 105.276 65.7752 105.276 65.7752Z" fill="#70A63B"/>
<path d="M106.358 64.1652C106.358 64.1652 108.652 56.2899 108.739 51.9824C108.825 48.7192 107.224 42.4538 102.115 36.2754C102.419 40.5829 102.332 42.0622 102.289 46.3697C102.289 51.8084 106.358 64.1652 106.358 64.1652Z" fill="#70A63B"/>
<path d="M56.4012 44.4553C56.4012 44.4553 52.9813 39.7563 51.5094 37.4938C47.9164 31.968 44.3666 26.1812 43.3276 19.6982C48.0895 23.4401 52.4185 28.0086 54.3233 33.7519C55.4488 37.1892 56.4012 44.4553 56.4012 44.4553Z" fill="#A1BC31"/>
<path d="M114.453 120.685C115.016 117.378 117.397 114.158 119.951 112.026C122.505 109.894 125.492 108.285 128.219 106.327C131.466 104.021 134.496 101.41 136.964 98.2773C134.972 109.372 125.535 118.77 114.453 120.685Z" fill="#70A63B"/>
<path d="M105.795 147.443C106.228 144.876 108.046 142.44 110.037 140.786C112.029 139.133 114.28 137.915 116.401 136.392C118.912 134.608 121.206 132.606 123.111 130.17C121.552 138.785 114.323 146.007 105.795 147.443Z" fill="#A1BC31"/>
<path d="M41.9425 126.776C41.9425 126.776 39.6048 121.468 38.6524 118.901C36.3581 112.722 34.107 106.326 34.4966 99.7129C38.3061 104.368 41.5529 109.807 42.1589 115.855C42.5485 119.51 41.9425 126.776 41.9425 126.776Z" fill="#A1BC31"/>
<path d="M130.081 73.3896C130.081 73.3896 136.141 61.3809 139.258 55.9422C146.877 42.7152 154.972 29.2706 167.267 20.3076C164.583 34.0567 159.691 47.8929 149.864 57.8131C143.977 63.8175 130.081 73.3896 130.081 73.3896Z" fill="#A1BC31"/>
<path d="M113.977 115.203C114.02 96.4498 123.977 79.9595 135.968 66.341C136.185 66.0799 135.838 65.6883 135.579 65.9494C123.501 79.6985 113.501 96.3192 113.414 115.203C113.457 115.551 113.977 115.594 113.977 115.203Z" fill="#A1BC31"/>
<path d="M127.613 76.218C131.033 72.8678 132.851 67.429 133.241 62.643C133.63 57.8569 133.154 53.0708 133.197 48.2412C133.241 42.4979 133.847 36.8416 135.535 31.3594C124.106 42.8025 120.816 61.5987 127.613 76.218Z" fill="#A1BC31"/>
<path d="M115.275 101.888C115.275 101.888 113.501 90.7062 113.414 84.5278C113.371 79.8722 113.501 75.2167 114.41 70.6481C115.362 66.0796 117.094 61.6416 119.994 58.0303C119.475 64.1652 121.249 70.3001 121.249 76.4784C121.293 84.2232 115.275 101.888 115.275 101.888Z" fill="#A1BC31"/>
<path d="M110.167 95.1012C110.167 95.1012 121.076 92.273 126.747 89.9235C131.033 88.1396 135.232 86.1381 138.998 83.484C142.765 80.8299 146.141 77.4362 148.306 73.3027C142.894 76.2179 136.617 77.0011 130.99 79.4811C123.89 82.5703 110.167 95.1012 110.167 95.1012Z" fill="#A1BC31"/>
<path d="M22.6351 97.7988C22.6351 97.7988 18.8689 89.1838 17.3538 85.0504C13.6308 75.0431 9.99449 64.6443 10.6438 53.9844C16.8343 61.5551 22.1157 70.3876 23.068 80.1338C23.6308 85.9641 22.6351 97.7988 22.6351 97.7988Z" fill="#A1BC31"/>
<path d="M43.5875 129.257C42.3321 125.863 40.6871 122.643 38.133 120.032C36.0118 117.813 33.501 116.03 31.4663 113.68C28.3495 110.112 26.4014 105.761 24.7564 101.367C23.3278 97.4944 21.9426 93.5785 20.9469 89.5321C20.8603 89.184 20.3408 89.358 20.4274 89.6626C21.4231 93.6655 22.8084 97.6249 24.2369 101.497C25.7088 105.5 27.4837 109.46 30.0811 112.853C31.9858 115.29 34.3235 117.204 36.5745 119.293C39.6048 122.121 41.5962 125.515 43.0247 129.431C43.1979 129.735 43.7174 129.605 43.5875 129.257Z" fill="#A1BC31"/>
<path d="M23.2412 98.3646C22.6784 95.0579 20.2975 91.8381 17.7434 89.7061C15.1893 87.5742 12.2023 85.9643 9.47502 84.0064C6.22828 81.7003 3.19799 79.0897 0.730469 75.957C2.7218 87.052 12.1157 96.4502 23.2412 98.3646Z" fill="#A1BC31"/>
<path d="M32.9814 115.725C32.9814 115.725 25.8819 112.288 22.2888 109.895C19.6049 108.068 16.9642 106.153 14.7564 103.76C12.5053 101.411 10.6872 98.6259 9.77808 95.4932C13.1114 98.2343 17.3105 99.6266 20.817 102.107C25.2759 105.196 32.9814 115.725 32.9814 115.725Z" fill="#A1BC31"/>
<path d="M31.6393 114.332C31.6393 114.332 27.8731 107.066 26.964 102.845C26.2714 99.6693 26.6177 93.1863 30.3839 86.1377C30.9034 90.4452 31.293 91.8375 32.1588 96.0579C33.241 101.41 31.6393 114.332 31.6393 114.332Z" fill="#A1BC31"/>
<path d="M110.73 79.089H108.739V62.5117H110.73C110.73 62.5117 114.02 68.7336 114.02 70.8221C114.02 72.9106 110.73 79.089 110.73 79.089Z" fill="#332F2E"/>
<path d="M110.47 80.6121C110.081 80.6121 109.691 80.4381 109.388 80.1335C108.825 79.5243 108.825 78.5671 109.431 78.0015C113.457 74.0856 113.544 67.6026 109.648 63.5997C109.085 62.9906 109.085 62.0334 109.691 61.4678C110.297 60.9021 111.249 60.9021 111.812 61.5113C116.877 66.7325 116.747 75.1734 111.509 80.2205C111.249 80.4816 110.86 80.6121 110.47 80.6121Z" fill="#9BCBEE"/>
<path d="M109.778 62.5117H37.5269V79.1325H109.778V62.5117Z" fill="#F1E3B4"/>
<path d="M110.73 64.0349H35.0593C34.2368 64.0349 33.5442 63.3388 33.5442 62.5121C33.5442 61.6854 34.2368 60.9893 35.0593 60.9893H110.73C111.553 60.9893 112.245 61.6854 112.245 62.5121C112.245 63.3388 111.553 64.0349 110.73 64.0349Z" fill="#9BCBEE"/>
<path d="M110.47 80.656H35.0593C34.2368 80.656 33.5442 79.9599 33.5442 79.1332C33.5442 78.3065 34.2368 77.6104 35.0593 77.6104H110.47C111.293 77.6104 111.985 78.3065 111.985 79.1332C111.985 79.9599 111.293 80.656 110.47 80.656Z" fill="#9BCBEE"/>
<path d="M97.9596 66.6451H39.778C39.6481 66.6451 39.5615 66.558 39.5615 66.4275C39.5615 66.297 39.6481 66.21 39.778 66.21H97.9596C98.0894 66.21 98.176 66.297 98.176 66.4275C98.176 66.558 98.0894 66.6451 97.9596 66.6451Z" fill="#D9A957"/>
<path d="M99.1283 69.3433H40.9467C40.8168 69.3433 40.7302 69.2563 40.7302 69.1258C40.7302 68.9952 40.8168 68.9082 40.9467 68.9082H99.1283C99.2581 68.9082 99.3447 68.9952 99.3447 69.1258C99.3447 69.2563 99.2148 69.3433 99.1283 69.3433Z" fill="#D9A957"/>
<path d="M107.31 72.1714H49.1286C48.9987 72.1714 48.9121 72.0844 48.9121 71.9539C48.9121 71.8234 48.9987 71.7363 49.1286 71.7363H107.31C107.44 71.7363 107.527 71.8234 107.527 71.9539C107.527 72.0844 107.44 72.1714 107.31 72.1714Z" fill="#D9A957"/>
<path d="M38.3494 130.213H40.3407V146.79H38.3494C38.3494 146.79 35.0593 140.568 35.0593 138.48C35.0593 136.391 38.3494 130.213 38.3494 130.213Z" fill="#332F2E"/>
<path d="M111.553 130.17H39.3018V146.791H111.553V130.17Z" fill="#F1E3B4"/>
<path d="M38.3493 148.314C37.9597 148.314 37.5701 148.14 37.267 147.835C32.2021 142.614 32.332 134.173 37.5701 129.126C38.1761 128.56 39.1285 128.56 39.6913 129.169C40.254 129.779 40.254 130.736 39.648 131.301C35.622 135.217 35.5354 141.7 39.4315 145.703C39.9943 146.312 39.9943 147.27 39.3882 147.835C39.1285 148.14 38.7389 148.314 38.3493 148.314Z" fill="#9BCBEE"/>
<path d="M114.02 148.27H38.3494C37.5269 148.27 36.8342 147.574 36.8342 146.747C36.8342 145.921 37.5269 145.225 38.3494 145.225H114.02C114.843 145.225 115.535 145.921 115.535 146.747C115.535 147.574 114.843 148.27 114.02 148.27Z" fill="#9BCBEE"/>
<path d="M114.02 131.649H38.6089C37.7864 131.649 37.0938 130.953 37.0938 130.126C37.0938 129.3 37.7864 128.604 38.6089 128.604H114.02C114.842 128.604 115.535 129.3 115.535 130.126C115.535 130.997 114.842 131.649 114.02 131.649Z" fill="#9BCBEE"/>
<path d="M109.301 143.092H51.163C51.0331 143.092 50.9465 143.005 50.9465 142.875C50.9465 142.744 51.0331 142.657 51.163 142.657H109.345C109.474 142.657 109.561 142.744 109.561 142.875C109.561 143.005 109.431 143.092 109.301 143.092Z" fill="#D9A957"/>
<path d="M104.626 137.915H46.4445C46.3146 137.915 46.228 137.828 46.228 137.697C46.228 137.567 46.3146 137.479 46.4445 137.479H104.626C104.756 137.479 104.842 137.567 104.842 137.697C104.842 137.828 104.756 137.915 104.626 137.915Z" fill="#D9A957"/>
<path d="M99.9508 135.391H41.7692C41.6393 135.391 41.5527 135.304 41.5527 135.174C41.5527 135.043 41.6393 134.956 41.7692 134.956H99.9508C100.081 134.956 100.167 135.043 100.167 135.174C100.167 135.304 100.081 135.391 99.9508 135.391Z" fill="#D9A957"/>
<path d="M121.033 128.733H44.5399C43.2412 128.733 42.1589 127.646 42.1589 126.34C42.1589 125.035 43.2412 123.947 44.5399 123.947H121.033C122.332 123.947 123.414 125.035 123.414 126.34C123.414 127.646 122.332 128.733 121.033 128.733Z" fill="#BE2D86"/>
<path d="M127.483 102.845H124.972V82.0908H127.483C127.483 82.0908 131.596 89.8791 131.596 92.4897C131.596 95.1003 127.483 102.845 127.483 102.845Z" fill="#332F2E"/>
<path d="M127.137 104.368C126.747 104.368 126.358 104.194 126.055 103.89C125.492 103.28 125.492 102.323 126.098 101.758C128.609 99.321 130.037 96.0143 130.081 92.5335C130.124 89.0092 128.825 85.7024 126.401 83.1788C125.838 82.5697 125.838 81.6125 126.444 81.0469C127.05 80.4812 128.003 80.4812 128.566 81.0904C131.553 84.1796 133.198 88.2695 133.111 92.6205C133.024 96.9715 131.293 100.974 128.219 104.02C127.916 104.238 127.527 104.368 127.137 104.368Z" fill="#BE2D86"/>
<path d="M126.401 82.0908H35.7952V102.889H126.401V82.0908Z" fill="#F1E3B4"/>
<path d="M127.483 83.6141H32.7217C31.8992 83.6141 31.2065 82.9179 31.2065 82.0912C31.2065 81.2645 31.8992 80.5684 32.7217 80.5684H127.483C128.306 80.5684 128.998 81.2645 128.998 82.0912C128.998 82.9179 128.306 83.6141 127.483 83.6141Z" fill="#BE2D86"/>
<path d="M127.137 104.412H32.7217C31.8992 104.412 31.2065 103.716 31.2065 102.889C31.2065 102.062 31.8992 101.366 32.7217 101.366H127.137C127.959 101.366 128.652 102.062 128.652 102.889C128.652 103.716 128.003 104.412 127.137 104.412Z" fill="#BE2D86"/>
<path d="M111.466 87.2251H38.609C38.4792 87.2251 38.3926 87.1381 38.3926 87.0076C38.3926 86.8771 38.4792 86.79 38.609 86.79H111.466C111.596 86.79 111.682 86.8771 111.682 87.0076C111.682 87.1381 111.596 87.2251 111.466 87.2251Z" fill="#D9A957"/>
<path d="M115.232 95.8404H42.3754C42.2455 95.8404 42.1589 95.7534 42.1589 95.6228C42.1589 95.4923 42.2455 95.4053 42.3754 95.4053H115.232C115.362 95.4053 115.449 95.4923 115.449 95.6228C115.449 95.7534 115.319 95.8404 115.232 95.8404Z" fill="#D9A957"/>
<path d="M114.15 98.6245H41.3363C41.2065 98.6245 41.1199 98.5375 41.1199 98.407C41.1199 98.2765 41.2065 98.1895 41.3363 98.1895H114.15C114.28 98.1895 114.366 98.2765 114.366 98.407C114.366 98.5375 114.28 98.6245 114.15 98.6245Z" fill="#D9A957"/>
<path d="M117.743 122.425H115.752V105.848H117.743C117.743 105.848 121.033 112.07 121.033 114.158C121.033 116.246 117.743 122.425 117.743 122.425Z" fill="#332F2E"/>
<path d="M117.483 123.947C117.094 123.947 116.704 123.773 116.401 123.468C115.838 122.859 115.838 121.902 116.444 121.336C120.47 117.421 120.557 110.938 116.661 106.935C116.098 106.326 116.098 105.368 116.704 104.803C117.31 104.237 118.262 104.237 118.825 104.846C123.89 110.067 123.76 118.508 118.522 123.555C118.262 123.817 117.873 123.947 117.483 123.947Z" fill="#E8BB37"/>
<path d="M116.791 105.848H44.5398V122.468H116.791V105.848Z" fill="#F1E3B4"/>
<path d="M117.743 107.37H42.0723C41.2498 107.37 40.5571 106.674 40.5571 105.847C40.5571 105.02 41.2498 104.324 42.0723 104.324H117.743C118.565 104.324 119.258 105.02 119.258 105.847C119.258 106.674 118.565 107.37 117.743 107.37Z" fill="#E8BB37"/>
<path d="M117.483 123.991H42.0723C41.2498 123.991 40.5571 123.295 40.5571 122.468C40.5571 121.641 41.2498 120.945 42.0723 120.945H117.483C118.306 120.945 118.998 121.641 118.998 122.468C118.998 123.295 118.349 123.991 117.483 123.991Z" fill="#E8BB37"/>
<path d="M104.973 109.981H46.7909C46.661 109.981 46.5745 109.894 46.5745 109.763C46.5745 109.633 46.661 109.546 46.7909 109.546H104.973C105.102 109.546 105.189 109.633 105.189 109.763C105.189 109.894 105.102 109.981 104.973 109.981Z" fill="#D9A957"/>
<path d="M106.141 112.678H47.9596C47.8297 112.678 47.7432 112.591 47.7432 112.461C47.7432 112.33 47.8297 112.243 47.9596 112.243H106.141C106.271 112.243 106.358 112.33 106.358 112.461C106.358 112.591 106.228 112.678 106.141 112.678Z" fill="#D9A957"/>
<path d="M114.323 115.506H56.1415C56.0116 115.506 55.925 115.419 55.925 115.289C55.925 115.158 56.0116 115.071 56.1415 115.071H114.323C114.453 115.071 114.54 115.158 114.54 115.289C114.54 115.419 114.453 115.506 114.323 115.506Z" fill="#D9A957"/>
<path d="M74.5396 115.942L71.163 111.591L67.7864 115.942V104.411C67.7864 104.368 67.8297 104.324 67.873 104.324C68.176 104.281 69.3881 104.15 71.163 104.15C73.1543 104.15 74.1933 104.281 74.453 104.324C74.4963 104.324 74.5396 104.368 74.5396 104.411V115.942Z" fill="#70A63B"/>
<path d="M29.9078 73.4766L26.4446 83.8754L31.4662 84.354L29.9078 73.4766Z" fill="#BB9D6C"/>
<path d="M29.9076 73.4766L28.9985 76.1307L30.2972 76.2612L29.9076 73.4766Z" fill="#211915"/>
<path d="M31.4662 84.4411C31.5095 83.9625 31.1631 83.5709 30.6869 83.5274C30.2108 83.4839 29.8211 83.832 29.7779 84.3106C29.8211 83.832 29.4748 83.4404 28.9986 83.3969C28.5225 83.3534 28.1328 83.7015 28.0896 84.1801C28.1328 83.7015 27.7865 83.3099 27.3103 83.2664C26.8341 83.2229 26.4445 83.5709 26.4012 84.0495L21.1632 144.572L20.9467 146.791C20.8601 147.617 21.5095 148.401 22.332 148.444L24.28 148.618C25.1026 148.705 25.8818 148.052 25.9251 147.226L26.0116 146.399L31.4662 84.4411Z" fill="#9BCBEE"/>
<path d="M31.4661 84.4408C31.5094 83.9622 31.1631 83.5706 30.6869 83.5271C30.2107 83.4836 29.8211 83.8317 29.7778 84.3103C29.8211 83.8752 24.6263 141.787 24.0203 148.618L24.28 148.661C25.1025 148.748 25.8817 148.096 25.925 147.269L26.0116 146.442L31.4661 84.4408Z" fill="#7BBBE8"/>
<path d="M22.1155 133.694L21.2064 144.572L20.9899 146.791C20.9034 147.617 21.5527 148.401 22.3752 148.444L24.3233 148.618C25.1458 148.705 25.925 148.053 25.9683 147.226L26.0549 146.399L27.0938 134.086L22.1155 133.694Z" fill="#332F2E"/>
<path d="M22.1155 133.694L21.9856 135.043L27.0072 135.478L27.0938 134.086L22.1155 133.694Z" fill="#ECEDEF"/>
<path d="M25.7087 125.34L25.0594 125.297L24.6265 130.344L25.3191 130.388L25.7087 125.34Z" fill="#332F2E"/>
<path d="M24.713 137.131L24.0636 137.088L23.8472 139.611L24.5398 139.655L24.713 137.131Z" fill="#ECEDEF"/>
<path d="M41.2064 123.252C38.7822 124.383 35.5355 124.252 32.9814 123.513C30.4273 122.773 27.9597 121.511 25.4489 120.597C22.4186 119.466 19.3451 118.639 16.1416 118.422C24.41 114.68 34.9294 116.725 41.2064 123.252Z" fill="#A1BC31"/>
<path d="M26.3147 74.1285C26.0116 74.1285 25.7086 74.0415 25.4056 73.911C24.8861 73.6499 24.4965 73.2583 24.28 72.6927L20.384 62.2068C19.9078 60.945 20.5571 59.5092 21.8125 59.0306C22.4186 58.8131 23.0679 58.8131 23.674 59.1176C24.28 59.3787 24.7129 59.9008 24.9294 60.5099L27.3536 67.0364C27.3969 67.167 27.3536 67.341 27.1805 67.428C27.0506 67.4715 26.8774 67.428 26.7909 67.254L24.3666 60.7275C24.1935 60.2489 23.8471 59.9008 23.4142 59.6833C22.9813 59.4657 22.4619 59.4657 21.9857 59.6397C21.0333 59.9878 20.5138 61.0756 20.9034 62.0328L24.7995 72.5187C25.1025 73.3453 26.0116 73.7369 26.7909 73.4324C27.6134 73.1278 28.003 72.2141 27.6999 71.4309L24.8428 63.6862C24.5831 63.0335 23.8904 62.6854 23.1978 62.9465C22.5484 63.2076 22.2021 63.9037 22.4619 64.5999L24.2368 69.4295C24.28 69.56 24.2368 69.734 24.0636 69.8211C23.9337 69.8646 23.7606 69.8211 23.674 69.647L21.8991 64.8174C21.5528 63.8602 22.029 62.7725 22.9813 62.4244C23.9337 62.0763 25.016 62.5549 25.3623 63.5121L28.2194 71.2569C28.6523 72.3881 28.0463 73.6064 26.964 74.0415C26.8341 74.085 26.5744 74.1285 26.3147 74.1285Z" fill="#C2C3C8"/>
<path d="M129.648 135.695C129.171 135.695 128.695 135.565 128.306 135.26C127.743 134.912 127.397 134.347 127.267 133.694L125.925 126.863C125.881 126.689 126.011 126.558 126.141 126.515C126.314 126.471 126.444 126.602 126.487 126.732L127.829 133.563C127.916 134.042 128.219 134.477 128.609 134.738C129.042 134.999 129.518 135.13 129.994 134.999C130.99 134.782 131.639 133.824 131.466 132.78L129.258 121.772C129.085 120.902 128.262 120.38 127.397 120.554C126.531 120.728 126.011 121.555 126.184 122.425L127.786 130.518C127.873 130.866 128.046 131.127 128.306 131.344C128.609 131.518 128.912 131.605 129.258 131.518C129.604 131.431 129.864 131.257 130.081 130.996C130.254 130.692 130.34 130.387 130.254 130.039L129.258 124.992C129.215 124.818 129.345 124.687 129.474 124.644C129.648 124.6 129.777 124.731 129.821 124.861L130.816 129.909C130.903 130.387 130.816 130.909 130.557 131.301C130.297 131.736 129.864 131.997 129.388 132.084C128.912 132.171 128.392 132.084 128.003 131.823C127.57 131.562 127.31 131.127 127.223 130.648L125.622 122.555C125.405 121.381 126.141 120.249 127.31 120.032C127.873 119.901 128.436 120.032 128.912 120.336C129.388 120.641 129.734 121.163 129.821 121.685L132.029 132.693C132.288 134.042 131.422 135.304 130.124 135.608C129.994 135.652 129.821 135.695 129.648 135.695Z" fill="#C2C3C8"/>
<path d="M113.457 39.3213L101.812 41.6708L52.3753 44.7165L38.2195 39.2778L77.1804 26.4424L113.457 39.3213Z" fill="#273A53"/>
<path d="M113.76 37.4066L77.7865 25.5284C77.7432 25.5284 77.7432 25.5284 77.6999 25.4849C77.6567 25.4849 77.6134 25.4414 77.6134 25.4414C77.5701 25.4414 77.5701 25.4414 77.5268 25.4414C77.4835 25.4414 77.4402 25.4414 77.4402 25.4414C77.3969 25.4414 77.3536 25.4414 77.3536 25.4414C77.3103 25.4414 77.3103 25.4414 77.267 25.4414C77.2238 25.4414 77.1805 25.4414 77.1372 25.4414C77.0939 25.4414 77.0939 25.4414 77.0506 25.4414L37.9598 37.2761C37.4404 37.4066 37.0941 37.9722 37.2672 38.5379C37.3971 38.973 37.7867 39.2775 38.2629 39.2775C38.3495 39.2775 38.436 39.2775 38.5226 39.234L77.2238 27.5299L112.851 39.1905C112.981 39.2775 113.154 39.321 113.327 39.321C113.674 39.321 114.063 39.1035 114.237 38.7554C114.453 38.2768 114.28 37.6677 113.76 37.4066Z" fill="#E8BB37"/>
<path d="M71.3797 29.5744V27.4424L69.8645 28.008V30.14L71.3797 29.5744Z" fill="#E2A91F"/>
<path d="M101.812 60.4665C101.812 60.4665 87.0073 62.0764 77.2238 62.0764C65.6654 62.0764 52.4187 60.4665 52.4187 60.4665V39.4513C52.4187 39.4513 63.5009 35.3613 77.2238 35.3613C90.1675 35.3613 101.812 39.4513 101.812 39.4513V60.4665Z" fill="#39567D"/>
<path d="M63.9772 61.5542C56.7911 61.0756 52.3755 60.4664 52.3755 60.4664V39.4512C52.3755 39.4512 57.1374 37.3192 64.2369 35.8398L63.9772 61.5542Z" fill="#273A53"/>
<path d="M77.2239 62.425C61.2066 62.425 54.2802 61.2938 52.3755 60.9022V59.0748C53.3279 59.2923 59.9945 60.6411 77.2239 60.6411C86.2282 60.6411 99.4749 59.2923 101.769 59.0312V60.8152C99.042 61.1632 86.0983 62.425 77.2239 62.425Z" fill="#E2A91F"/>
<path d="M77.1805 62.9467C58.5225 62.9467 52.4186 61.3803 52.1589 61.2933C51.6827 61.1628 51.423 60.6842 51.5528 60.2491C51.6827 59.7705 52.1589 59.5094 52.5918 59.64C52.6351 59.64 58.7823 61.2063 77.1805 61.2063C86.8341 61.2063 101.553 59.64 101.683 59.5964C102.159 59.5529 102.592 59.901 102.635 60.3796C102.678 60.8582 102.332 61.2933 101.856 61.3368C101.726 61.3368 86.9207 62.9467 77.1805 62.9467Z" fill="#E8BB37"/>
<path d="M71.1198 37.5803C70.9466 37.1452 70.8168 36.623 70.8168 36.362V27.747C70.8168 27.3119 70.4704 26.9639 70.0375 26.9639C69.6046 26.9639 69.2583 27.3119 69.2583 27.747V36.362V36.4055C69.2583 36.7101 69.1285 37.4062 68.9986 37.9719C68.8687 38.668 68.6956 39.3642 68.6956 39.7558C68.6956 39.9733 68.8687 40.1473 69.0852 40.1473C69.3016 40.1473 69.4748 39.9733 69.4748 39.7558C69.4748 39.4947 69.6046 38.842 69.7345 38.2764C69.7778 39.0161 69.8211 39.7993 69.8211 40.1038C69.8211 40.3214 69.9943 40.4954 70.2107 40.4954C70.4272 40.4954 70.6003 40.3214 70.6003 40.1038C70.6003 39.7558 70.557 39.0161 70.5137 38.2329C70.5137 38.1894 70.5137 38.1459 70.5137 38.1459C70.6436 38.494 70.7302 38.8856 70.7302 39.1031C70.7302 39.3207 70.9033 39.4947 71.1198 39.4947C71.3362 39.4947 71.5094 39.3207 71.5094 39.1031C71.5094 38.668 71.3362 38.1459 71.1198 37.5803Z" fill="#E8BB37"/>
<path d="M77.0939 52.2869C76.964 52.2869 76.8774 52.1998 76.8774 52.0693V45.4558C76.8774 45.3253 76.964 45.2383 77.0939 45.2383C77.2238 45.2383 77.3103 45.3253 77.3103 45.4558V52.0693C77.3103 52.1998 77.2238 52.2869 77.0939 52.2869Z" fill="#273A53"/>
<path d="M22.2454 44.2373C17.5268 44.2373 12.4619 43.3671 12.4619 41.4092C12.4619 39.4513 17.5268 38.5811 22.2454 38.5811C26.964 38.5811 32.0289 39.4513 32.0289 41.4092C32.0289 43.3671 26.964 44.2373 22.2454 44.2373ZM22.2454 39.5818C16.5745 39.5818 13.4576 40.8001 13.4576 41.4092C13.4576 42.0183 16.5745 43.2366 22.2454 43.2366C27.9164 43.2366 31.0333 42.0183 31.0333 41.4092C31.0333 40.8001 27.9164 39.5818 22.2454 39.5818Z" fill="#E8BB37"/>
<path d="M26.5312 50.0676C25.7953 50.0676 24.8862 49.4585 23.7174 48.2837C22.4187 46.9349 21.0334 45.0205 19.778 42.8015C17.4403 38.7115 15.6654 33.8384 17.3105 32.8812C18.0897 32.4461 19.2152 32.9682 20.6871 34.4911C21.9858 35.8399 23.371 37.7543 24.6264 39.9733C26.9641 44.0633 28.739 48.9364 27.094 49.8936C26.9641 50.0241 26.7476 50.0676 26.5312 50.0676ZM17.9598 33.7514C17.9165 33.7514 17.8732 33.7514 17.8732 33.7514C17.3537 34.056 17.8299 37.3627 20.6871 42.3229C21.8992 44.4548 23.2412 46.3258 24.4966 47.5876C25.8819 49.0234 26.5312 49.1104 26.6611 49.0234C27.1805 48.7188 26.7044 45.4121 23.8472 40.4519C22.6351 38.32 21.2931 36.449 20.0377 35.1872C18.8689 34.0125 18.1763 33.7514 17.9598 33.7514Z" fill="#E8BB37"/>
<path d="M17.9598 50.0677C17.7434 50.0677 17.5702 50.0242 17.3971 49.9372C16.6179 49.5021 16.5313 48.2403 17.094 46.1953C17.6135 44.4114 18.5659 42.2359 19.8213 40.0169C22.159 35.927 25.449 31.9676 27.1373 32.9248C28.8256 33.882 27.0507 38.7551 24.6698 42.8451C23.4144 45.0205 22.0291 46.9785 20.7304 48.3273C19.6049 49.4585 18.6525 50.0677 17.9598 50.0677ZM26.4879 33.7515C25.752 33.7515 23.3278 35.8835 20.6438 40.4955C19.4317 42.6275 18.4793 44.716 18.0031 46.4129C17.4404 48.3273 17.7001 48.9364 17.83 49.0234C17.9598 49.1105 18.6525 48.9799 19.9945 47.5876C21.2066 46.3258 22.5486 44.4549 23.804 42.3229C26.6611 37.3628 27.1373 34.0996 26.6178 33.7515C26.6178 33.7515 26.5745 33.7515 26.4879 33.7515Z" fill="#E8BB37"/>
<path d="M23.1546 41.4088C23.1546 41.8874 22.765 42.3225 22.2455 42.3225C21.726 42.3225 21.3364 41.9309 21.3364 41.4088C21.3364 40.8867 21.726 40.4951 22.2455 40.4951C22.765 40.4951 23.1546 40.9302 23.1546 41.4088Z" fill="#BE2D86"/>
<path d="M156.617 82.0482C154.886 81.178 152.894 81.0039 151.033 81.6566C149.172 82.2657 147.7 83.571 146.791 85.3549C145.925 87.0953 145.795 89.0968 146.401 90.9677C147.007 92.8386 148.306 94.3179 150.081 95.2316C151.12 95.7537 152.245 96.0148 153.327 96.0148C154.107 96.0148 154.886 95.8843 155.622 95.6232C157.483 95.0141 158.955 93.7088 159.864 91.9249C161.682 88.3136 160.21 83.8756 156.617 82.0482ZM159.215 91.0112L158.046 90.4456C158.349 89.7059 158.565 88.9227 158.609 88.1395L159.648 88.6617C159.648 89.4448 159.518 90.228 159.215 91.0112ZM155.102 92.6646L152.548 91.3593L153.587 89.2708L156.704 90.8371C156.271 91.5768 155.752 92.186 155.102 92.6646ZM147.05 88.6181C147.05 87.7915 147.223 87.0083 147.526 86.2686L148.695 86.8342C148.392 87.5739 148.176 88.3571 148.133 89.1403L147.05 88.6181ZM149.561 87.2693L152.678 88.8357L151.639 90.9242L149.085 89.6189C149.085 88.8357 149.258 88.0525 149.561 87.2693ZM151.596 84.5717L154.193 85.877L153.154 87.9655L149.994 86.3992C150.427 85.6595 150.946 85.0503 151.596 84.5717ZM156.358 83.7451C156.964 84.6152 157.353 85.529 157.526 86.4427L155.492 85.3984L156.358 83.7451ZM154.626 84.9633L152.591 83.9626C153.457 83.5275 154.41 83.31 155.449 83.31L154.626 84.9633ZM151.206 91.7944L150.34 93.4912C149.734 92.621 149.345 91.7073 149.171 90.7936L151.206 91.7944ZM152.115 92.273L154.107 93.2737C153.241 93.7088 152.288 93.9263 151.249 93.9699L152.115 92.273ZM154.02 88.4006L155.059 86.3121L157.656 87.6174C157.656 88.4006 157.483 89.1838 157.18 89.967L154.02 88.4006ZM159.561 87.4869L158.609 87.0083C158.522 86.0076 158.219 84.9633 157.7 84.0496C158.652 84.9633 159.301 86.1816 159.561 87.4869ZM153.371 82.2657C153.717 82.2657 154.063 82.3092 154.41 82.3527C153.371 82.5268 152.375 82.8749 151.509 83.397L150.557 82.9184C151.423 82.5268 152.375 82.2657 153.371 82.2657ZM149.561 83.571L150.643 84.0931C150.037 84.6152 149.518 85.2244 149.128 85.9205L147.959 85.3549C148.392 84.6152 148.912 84.0496 149.561 83.571ZM147.353 90.6196C147.267 90.3585 147.18 90.054 147.137 89.7494L148.089 90.228C148.176 91.2287 148.479 92.273 148.998 93.2302C148.262 92.534 147.7 91.6203 147.353 90.6196ZM152.245 94.8836C153.327 94.7095 154.323 94.3614 155.146 93.8393L156.098 94.3179C154.972 94.8836 153.587 95.1011 152.245 94.8836ZM157.137 93.7088L156.098 93.1867C156.704 92.6646 157.223 92.0554 157.613 91.3593L158.782 91.9249C158.306 92.621 157.786 93.2302 157.137 93.7088Z" fill="#9BCBEE"/>
<path d="M140.817 142.309L142.808 142.092C142.981 142.092 143.111 142.222 143.068 142.353L142.635 147.966C142.635 148.227 142.245 148.27 142.159 148.009L140.557 142.614C140.557 142.483 140.643 142.309 140.817 142.309Z" fill="#D7D8DC"/>
<path d="M135.622 84.3973C135.189 84.4408 134.799 84.1363 134.713 83.6577L134.02 77.5663C133.977 77.1312 134.28 76.6961 134.756 76.6526C135.189 76.6091 135.578 76.9136 135.665 77.3922L136.358 83.4836C136.401 83.9622 136.098 84.3538 135.622 84.3973C135.665 84.3973 135.665 84.3973 135.622 84.3973Z" fill="#332F2E"/>
<path d="M141.855 142.353C140.167 142.527 138.652 141.309 138.479 139.655L132.158 81.352C131.985 79.6551 138.046 79.0025 138.219 80.6993L144.539 139.003C144.712 140.656 143.5 142.179 141.855 142.353Z" fill="#D7D8DC"/>
<path d="M141.855 142.352L135.059 79.7416C136.574 79.5676 138.132 79.8287 138.219 80.6553L144.539 138.959C144.712 140.655 143.5 142.178 141.855 142.352Z" fill="#ECEDEF"/>
<path d="M134.669 104.543C134.366 104.586 134.063 104.325 134.02 104.021C133.977 103.716 134.236 103.411 134.539 103.368L140.6 102.672C140.903 102.628 141.206 102.889 141.249 103.194C141.293 103.498 141.033 103.803 140.73 103.847L134.669 104.543Z" fill="#332F2E"/>
<path d="M141.249 96.4933C140.946 96.5368 140.643 96.2757 140.6 95.9712L139.734 88.0959C139.691 87.7913 139.907 87.4867 140.254 87.4432C140.557 87.3997 140.86 87.6608 140.903 87.9654L141.769 95.8406C141.812 96.1452 141.596 96.4498 141.249 96.4933C141.293 96.4933 141.293 96.4933 141.249 96.4933Z" fill="#332F2E"/>
<path d="M138.652 84.7023C138.349 84.7458 138.046 84.4848 138.003 84.1802C137.96 83.8756 138.176 83.5711 138.522 83.5275L140.903 83.2665C141.206 83.223 141.509 83.484 141.553 83.7886C141.596 84.0932 141.379 84.3977 141.033 84.4413L138.652 84.7023C138.695 84.7023 138.695 84.7023 138.652 84.7023Z" fill="#332F2E"/>
<path d="M132.635 85.6594C132.159 85.7029 131.726 85.3549 131.682 84.8762C131.639 84.3976 131.985 83.9625 132.462 83.919L138.522 83.2664C138.998 83.2229 139.431 83.5709 139.475 84.0495C139.518 84.5282 139.172 84.9633 138.695 85.0068L132.635 85.6594Z" fill="#332F2E"/>
<path d="M140.384 88.6177C140.254 88.6177 140.124 88.6177 140.037 88.5307C139.777 88.3566 139.648 88.0085 139.821 87.7475L140.73 86.1376C140.903 85.8766 141.249 85.746 141.509 85.9201C141.769 86.0941 141.899 86.4422 141.726 86.7032L140.816 88.3131C140.73 88.4871 140.557 88.6177 140.384 88.6177Z" fill="#332F2E"/>
<path d="M141.293 87.0083C140.99 87.0518 140.687 86.7908 140.643 86.4862L140.384 83.9191C140.34 83.6146 140.6 83.31 140.903 83.2665C141.206 83.223 141.509 83.484 141.552 83.7886L141.812 86.3557C141.855 86.7038 141.639 86.9648 141.293 87.0083Z" fill="#332F2E"/>
<path d="M143.76 137.088L138.869 137.61C138.479 137.653 138.306 138.001 138.349 138.393C139.172 146.051 141.639 145.964 141.639 145.964L142.808 145.833C142.808 145.833 145.232 145.398 144.41 137.74C144.366 137.392 144.107 137.044 143.76 137.088Z" fill="#9BCBEE"/>
<path d="M138.219 138.132C138.003 138.175 137.786 138.001 137.786 137.783C137.743 137.566 137.916 137.348 138.133 137.348L144.193 136.652C144.41 136.609 144.626 136.783 144.626 137C144.669 137.218 144.496 137.435 144.28 137.435L138.219 138.132Z" fill="#332F2E"/>
<path d="M142.462 148.183C142.419 148.183 142.375 148.183 142.332 148.14C142.289 148.096 142.245 148.052 142.245 148.009C142.245 147.965 142.245 147.922 142.289 147.878C142.332 147.791 142.506 147.791 142.592 147.834C142.636 147.834 142.636 147.878 142.636 147.878C142.636 147.922 142.679 147.922 142.679 147.965C142.679 148.009 142.679 148.052 142.636 148.096L142.592 148.14C142.506 148.14 142.462 148.183 142.462 148.183Z" fill="#332F2E"/>
<path d="M131.423 146.921L120.773 144.397V149.445L131.423 146.921Z" fill="#BB9D6C"/>
<path d="M131.423 146.921L128.695 146.269V147.574L131.423 146.921Z" fill="#211915"/>
<path d="M120.687 149.445C121.163 149.445 121.509 149.053 121.509 148.618C121.509 148.14 121.12 147.792 120.687 147.792C121.163 147.792 121.509 147.4 121.509 146.965C121.509 146.486 121.12 146.138 120.687 146.138C121.163 146.138 121.509 145.747 121.509 145.312C121.509 144.833 121.12 144.485 120.687 144.485L51.5528 144.441H49.345C48.4792 144.441 47.8298 145.138 47.8298 145.964V147.922C47.8298 148.792 48.5225 149.445 49.345 149.445H50.1675H120.687Z" fill="#70A63B"/>
<path d="M120.687 149.445C121.163 149.445 121.509 149.053 121.509 148.618C121.509 148.139 121.12 147.791 120.687 147.791C121.12 147.791 54.6264 147.617 47.7866 147.617V147.878C47.7866 148.748 48.4793 149.401 49.3018 149.401H50.1243L120.687 149.445Z" fill="#A1BC31"/>
<path d="M62.4188 144.354H51.553H49.3452C48.4794 144.354 47.8301 145.051 47.8301 145.877V147.835C47.8301 148.705 48.5227 149.358 49.3452 149.358H50.1677H62.4621L62.4188 144.354Z" fill="#332F2E"/>
<path d="M62.4185 144.354L61.0332 144.311L61.0765 149.401H62.4185V144.354Z" fill="#ECEDEF"/>
<path d="M70.99 147.226V146.573H65.925V147.269L70.99 147.226Z" fill="#332F2E"/>
<path d="M59.1719 147.269L59.2152 146.573H56.6611V147.269H59.1719Z" fill="#ECEDEF"/>
<g opacity="0.4">
<g opacity="0.4">
<g opacity="0.4">
<path opacity="0.4" d="M109.337 34.5852C112.511 29.046 110.616 21.9699 105.104 18.7803C99.5931 15.5907 92.5528 17.4955 89.3793 23.0348C86.2059 28.574 88.101 35.6501 93.6123 38.8397C99.1235 42.0293 106.164 40.1245 109.337 34.5852Z" fill="#9BCBEE"/>
</g>
</g>
</g>
<path d="M93.0246 39.9303C90.1675 38.3204 87.9597 35.5793 87.0073 32.1855C85.1458 25.3545 89.1718 18.2624 95.9683 16.3915C102.765 14.5205 109.821 18.5669 111.683 25.398C113.544 32.229 109.518 39.3211 102.722 41.1921C99.3449 42.1058 95.8817 41.5837 93.0246 39.9303ZM104.453 19.8287C102.159 18.5234 99.3882 18.0883 96.6609 18.828C91.2064 20.3508 87.9597 26.0071 89.4748 31.5329C90.99 37.0151 96.6177 40.2784 102.115 38.7555C107.57 37.2327 110.817 31.5764 109.302 26.0506C108.522 23.3095 106.747 21.134 104.453 19.8287Z" fill="#211915"/>
<path d="M92.4186 24.1798C92.4186 24.1798 92.3753 24.1798 92.3753 24.1363C92.0722 23.9187 92.029 23.5272 92.2021 23.2661C92.7216 22.5264 93.3276 21.8303 94.0203 21.1776C94.28 20.9601 94.6696 20.9601 94.8861 21.2211C95.1025 21.4822 95.1025 21.8738 94.8428 22.0913C94.2367 22.657 93.674 23.2661 93.2411 23.9623C93.0679 24.2668 92.7216 24.3103 92.4186 24.1798Z" fill="#F7F7F8"/>
<path d="M90.9899 27.051C90.7302 26.9204 90.6003 26.5724 90.6869 26.3113C90.86 25.8327 91.0765 25.3106 91.2929 24.8755C91.4661 24.5709 91.8124 24.4404 92.1154 24.5709C92.4185 24.7449 92.5483 25.093 92.4185 25.3976C92.202 25.8327 92.0289 26.2678 91.899 26.7029C91.7691 27.051 91.4228 27.225 91.1198 27.0945C91.0765 27.051 91.0332 27.051 90.9899 27.051Z" fill="#F7F7F8"/>
<path d="M106.791 60.7709C106.358 60.5533 106.055 60.1182 105.925 59.6396L100.773 41.0609C100.514 40.0602 101.076 39.0159 102.072 38.7549C103.068 38.4938 104.107 39.0594 104.366 40.0602L109.518 58.6389C109.778 59.6396 109.215 60.6838 108.219 60.9449C107.7 61.1189 107.224 61.0319 106.791 60.7709Z" fill="#211915"/>
<path d="M100.817 43.7148C100.6 43.5843 100.427 43.4102 100.384 43.1492C100.254 42.6271 100.557 42.1484 101.033 41.9744L104.67 40.9737C105.189 40.8431 105.665 41.1477 105.838 41.6263C105.968 42.1484 105.665 42.6271 105.189 42.8011L101.553 43.8018C101.25 43.8888 100.99 43.8453 100.817 43.7148Z" fill="#E8BB37"/>
<path d="M77.0937 14.3028C76.7474 14.3028 76.4443 13.9983 76.4443 13.6502V8.42901C76.4443 8.08094 76.7474 7.77637 77.0937 7.77637C77.44 7.77637 77.743 8.08094 77.743 8.42901V13.6502C77.743 13.9983 77.44 14.3028 77.0937 14.3028Z" fill="#E8BB37"/>
<path d="M66.3145 16.3041C66.1414 16.3041 65.9682 16.2606 65.8383 16.1301L62.1587 12.4318C61.8989 12.1707 61.8989 11.7791 62.1587 11.5181C62.4184 11.257 62.808 11.257 63.0678 11.5181L66.7474 15.2164C67.0072 15.4775 67.0072 15.869 66.7474 16.1301C66.6175 16.2606 66.4877 16.3041 66.3145 16.3041Z" fill="#E8BB37"/>
<path d="M87.8729 16.3041C87.6997 16.3041 87.5266 16.2606 87.3967 16.1301C87.137 15.869 87.137 15.4775 87.3967 15.2164L91.0763 11.5181C91.3361 11.257 91.7257 11.257 91.9854 11.5181C92.2452 11.7791 92.2452 12.1707 91.9854 12.4318L88.3058 16.1301C88.2192 16.2606 88.0461 16.3041 87.8729 16.3041Z" fill="#E8BB37"/>
</svg>
