<svg width="242" height="157" viewBox="0 0 242 157" fill="none" xmlns="http://www.w3.org/2000/svg">
<g clip-path="url(#clip0_34_1614)">
<path d="M217.562 157H0L25.8418 128.876H191.721L217.562 157Z" fill="#C9DB57"/>
<path d="M236.113 135.773L204.844 138.574C203.791 138.682 202.738 138.574 201.712 138.332L166.5 129.442L196.257 127.152L236.113 135.773Z" fill="#3588CC"/>
<path d="M201.739 138.332L166.5 129.469V130.25C166.5 131.004 167.013 131.651 167.742 131.839L202.495 140.595C203.008 140.729 203.521 140.756 204.034 140.702L234.169 137.981C235.249 137.874 236.086 136.958 236.086 135.88V135.772L204.79 138.574C203.791 138.682 202.738 138.601 201.739 138.332Z" fill="#345454"/>
<path d="M197.229 126.505L202.441 93.3436C202.522 92.7509 203.062 92.293 203.656 92.293C203.71 92.293 203.764 92.293 203.845 92.293L240.083 97.4652C240.407 97.5191 240.704 97.6808 240.893 97.9501C241.082 98.2195 241.163 98.5428 241.109 98.8661L235.384 134.695L197.229 126.505Z" fill="#FEF6E5"/>
<path d="M197.229 126.505L235.411 134.749L236.302 129.118L198.093 120.875L197.229 126.505Z" fill="#BF743C"/>
<path d="M203.656 93.1552C203.683 93.1552 203.683 93.1552 203.71 93.1552L239.948 98.3274C240.083 98.3544 240.164 98.4082 240.191 98.4891C240.245 98.5429 240.272 98.6507 240.272 98.7854L234.709 133.725L198.201 125.859L203.278 93.4784C203.305 93.2629 203.494 93.1552 203.656 93.1552ZM203.656 91.458C202.63 91.458 201.766 92.1854 201.604 93.209L196.257 127.179L236.113 135.772L241.973 99.0548C242.162 97.8964 241.352 96.8188 240.218 96.6572L203.98 91.4849C203.845 91.458 203.737 91.458 203.656 91.458Z" fill="#3588CC"/>
<path d="M185.564 128.957L196.446 128.122C196.905 128.095 197.391 128.122 197.85 128.23L228.715 135.018C228.958 135.072 228.931 135.395 228.688 135.422L214.403 136.473C213.89 136.5 213.35 136.473 212.864 136.338L185.537 129.361C185.321 129.307 185.348 128.984 185.564 128.957Z" fill="#00C0EA"/>
<path d="M190.398 131.759L182.486 132.378C182.135 132.405 182.081 132.917 182.432 132.998L190.668 135.072C190.83 135.126 190.992 135.126 191.154 135.126L199.12 134.506C199.471 134.479 199.525 133.968 199.174 133.887L190.884 131.812C190.722 131.759 190.56 131.732 190.398 131.759Z" fill="#00C0EA"/>
<path d="M216.78 115.542C216.78 115.542 215.618 116.673 214.916 117.455C214.241 118.236 211.082 120.149 211.082 120.149C211.082 120.149 209.003 120.876 207.977 121.846C206.95 122.815 206.95 122.815 206.95 122.815L207.599 123.435L217.941 119.179L218.535 116.269L216.78 115.542Z" fill="#345454"/>
<path d="M217.887 119.206L223.287 120.876C223.287 120.876 222.666 122.304 222.666 122.816C222.666 123.301 222.288 125.806 222.288 125.806L223.368 125.994C223.368 125.994 224.61 121.361 224.718 120.876C224.826 120.391 225.339 120.041 224.097 119.26C223.125 118.64 221.208 117.805 220.506 117.509C220.344 117.428 220.236 117.266 220.236 117.051L220.263 116.593L218.508 116.27L217.887 119.206Z" fill="#345454"/>
<path d="M222.288 125.806C222.288 125.806 222.126 126.587 221.91 126.722C221.694 126.883 221.559 127.314 222.342 127.368C223.125 127.395 224.367 127.772 224.367 127.772C224.367 127.772 225.285 127.88 225.42 127.799C225.582 127.718 225.312 127.503 224.907 127.341C224.529 127.18 223.287 126.749 223.368 126.021L222.288 125.806Z" fill="#FFBEAC"/>
<path d="M206.923 122.815L206.302 123.139C206.302 123.139 205.465 123.651 205.357 123.866C205.303 123.974 204.952 124.216 206.221 124.432C207.004 124.566 207.004 124.405 207.031 124.351C207.085 124.243 206.761 123.947 207.166 123.704C207.571 123.435 207.571 123.435 207.571 123.435L206.923 122.815Z" fill="#FFBEAC"/>
<path d="M226.014 110.531C226.014 110.531 226.662 110.478 227.581 110.639C228.499 110.801 229.714 111.07 230.038 111.178C230.362 111.286 230.713 111.447 231.064 111.501C231.415 111.555 231.982 111.286 232.063 111.474C232.117 111.663 231.361 111.825 231.253 111.825C231.118 111.825 230.578 112.175 229.606 111.69C229.606 111.69 228.823 111.69 228.445 111.717C228.067 111.744 225.474 111.447 225.474 111.447C225.474 111.447 223.206 111.663 222.747 111.717C222.288 111.744 221.694 112.471 221.694 112.471L221.586 110.208C221.586 110.208 222.639 110.127 223.719 110.343C224.745 110.531 226.014 110.531 226.014 110.531Z" fill="#FFBEAC"/>
<path d="M218.427 109.131C218.427 109.131 217.833 108.969 217.239 108.915C216.644 108.861 215.267 108.646 214.403 108.215C213.539 107.784 211.784 107.595 211.784 107.595C211.784 107.595 211.352 107.46 211.325 107.218C211.325 106.976 211.136 107.002 211.136 107.191C211.136 107.38 211.136 107.434 211.136 107.434C211.136 107.434 210.434 107.326 210.299 107.272C210.164 107.218 209.921 107.218 209.786 107.056C209.651 106.895 209.516 107.029 209.597 107.191C209.732 107.407 209.786 107.407 209.921 107.434C210.029 107.46 209.921 107.972 210.893 108.161C211.433 108.269 211.649 108.161 211.649 108.161C211.649 108.161 213.404 109.104 214.025 109.211C214.646 109.346 215.888 109.939 216.428 110.047C216.969 110.154 217.968 110.747 217.995 111.42L218.4 110.397L218.427 109.131Z" fill="#FFBEAC"/>
<path d="M218.427 109.13L217.536 114.464L216.78 115.541C216.78 115.541 217.05 116.43 218.562 116.7C220.074 116.969 220.263 116.592 220.263 116.592C220.263 116.592 220.344 115.353 221.019 114.141C221.694 112.955 221.991 112.874 221.883 111.985C221.748 111.096 221.559 110.154 221.559 110.154L218.427 109.13Z" fill="#FFBEAC"/>
<path d="M219.669 106.383C220.074 105.386 221.154 104.901 222.072 105.278C222.666 105.521 223.125 106.086 223.206 106.733C223.233 106.921 223.152 107.272 223.125 107.703C223.098 107.864 223.125 107.999 223.179 108.134C223.206 108.214 223.26 108.322 223.26 108.376C223.287 108.538 223.071 108.619 223.071 108.619C223.071 108.619 222.747 109.615 222.45 109.669C222.396 109.696 222.315 109.696 222.207 109.696C221.856 109.696 220.344 108.915 220.317 108.726C219.615 108.241 219.318 107.272 219.669 106.383Z" fill="#FFBEAC"/>
<path d="M222.72 107.73C222.693 107.838 222.747 107.919 222.828 107.946C222.909 107.972 222.99 107.892 222.99 107.784C223.017 107.676 222.963 107.595 222.882 107.568C222.828 107.568 222.747 107.649 222.72 107.73Z" fill="#BF743C"/>
<path d="M222.531 106.463C222.801 106.356 223.044 106.49 223.152 106.787C223.179 106.867 223.179 107.083 223.206 107.083C223.26 106.975 223.26 106.814 223.233 106.733C223.152 106.113 222.693 105.521 222.072 105.278C221.154 104.901 220.074 105.386 219.669 106.383C219.345 107.218 219.588 108.134 220.209 108.645L220.317 108.726C220.479 108.592 221.019 107.73 221.478 107.245C221.937 106.787 222.288 106.544 222.531 106.463Z" fill="#BF743C"/>
<path d="M221.424 107.568C221.424 107.837 221.289 108.08 221.1 108.08C220.911 108.106 220.776 107.891 220.749 107.622C220.749 107.352 220.884 107.11 221.073 107.11C221.262 107.083 221.424 107.298 221.424 107.568Z" fill="#FFBEAC"/>
<path d="M221.478 109.238L221.208 110.612L219.237 109.535L219.48 109.454C219.831 109.346 220.155 109.077 220.317 108.727L221.532 108.942L221.478 109.238Z" fill="#FFBEAC"/>
<path d="M222.828 109.023C222.72 108.996 222.531 108.942 222.477 108.672C222.477 108.646 222.477 108.646 222.504 108.646C222.531 108.646 222.531 108.646 222.531 108.672C222.585 108.969 222.855 108.996 222.882 108.996C222.909 108.996 222.909 109.023 222.909 109.023C222.909 109.05 222.882 109.05 222.882 109.05C222.882 109.023 222.855 109.023 222.828 109.023Z" fill="#BF743C"/>
<path d="M217.644 113.791C217.563 114.222 217.401 114.653 217.131 115.03L216.78 115.542C216.78 115.542 217.05 116.431 218.562 116.701C220.074 116.97 220.263 116.593 220.263 116.593C220.263 116.593 220.344 115.354 221.019 114.141C221.046 114.061 221.883 112.929 221.937 112.66C221.991 112.39 221.559 110.181 221.559 110.181L221.316 110.101L221.478 111.313L219.48 110.936L219.426 109.427L219.345 109.4L219.129 109.319C219.129 109.319 219.048 111.474 218.022 111.367L217.752 113.037L217.644 113.791Z" fill="#FFCC22"/>
<path d="M220.209 105.628C220.209 105.628 219.291 104.308 218.697 105.574C218.103 106.841 218.886 107.918 218.211 107.999C217.536 108.08 218.778 108.538 219.21 107.945C219.642 107.352 220.452 106.598 220.209 105.628Z" fill="#BF743C"/>
<path d="M162.746 90.5959C154.835 87.6327 140.118 84.5077 134.582 83.3763C133.259 83.1069 132.26 82.0563 132.017 80.7363L131.477 77.6114H118.435L105.149 74.7559C105.149 74.7559 98.4255 83.7265 94.7261 89.7339C90.9997 95.7143 71.2876 112.255 71.2876 112.255C71.2876 112.255 57.5701 119.663 51.5755 127.368C45.5808 135.072 45.5808 135.072 45.5808 135.072L51.0084 138.493L118.435 97.7347L159.317 102.287C159.317 102.287 157.022 112.551 157.751 115.838C158.453 119.124 159.317 136.23 159.317 136.23H167.31C167.31 136.23 169.443 104.012 169.443 100.59C169.443 97.1421 172.602 94.2866 162.746 90.5959Z" fill="#FFBEAC"/>
<path d="M159.317 136.203C159.317 136.203 159.182 141.51 157.886 142.803C156.59 144.096 156.293 147.248 161.882 146.521C167.445 145.82 176.896 146.655 176.896 146.655C176.896 146.655 183.485 146.197 184.484 145.497C185.483 144.797 183.188 143.638 180.19 143.073C177.193 142.507 167.796 141.079 167.337 136.203H159.317Z" fill="#BF743C"/>
<path d="M45.5808 135.072L41.6384 137.928C41.6384 137.928 36.3999 142.346 35.9948 143.908C35.7788 144.77 33.5646 146.656 42.9076 146.656C48.7132 146.656 48.4431 145.578 48.5782 145.201C48.8752 144.312 46.1479 142.911 48.5782 140.702C51.0084 138.494 51.0084 138.494 51.0084 138.494L45.5808 135.072Z" fill="#BF743C"/>
<path d="M208.03 29.3641C207.328 28.1787 203.494 30.5763 201.037 30.6841C198.552 30.7918 195.744 30.0106 193.314 29.7412C190.883 29.4449 181.729 29.1755 175.033 29.1755C168.309 29.1755 163.746 30.3069 163.746 30.3069C163.746 30.3069 154.781 31.9233 146.788 31.8694C138.795 31.8155 131.45 33.5665 131.45 33.5665L107.742 30.3069C107.742 30.3069 103.313 30.0106 99.0196 30.3069C94.7262 30.6032 84.6001 30.9804 77.8763 29.0677C71.1526 27.1551 52.9527 28.1518 52.9527 28.1518C52.9527 28.1518 49.6313 27.7747 49.1993 26.1583C48.7672 24.542 47.6331 24.973 47.8221 26.1583C48.0111 27.3436 48.1192 27.8016 48.1192 27.8016C48.1192 27.8016 43.0696 27.9902 42.0165 27.8016C40.9634 27.613 39.2892 27.8824 38.1281 27.0204C36.994 26.1583 36.2109 27.1012 37.048 28.071C38.2631 29.4179 38.7222 29.2563 39.6132 29.3371C40.5313 29.4449 40.4233 32.8931 47.6061 32.8931C51.6565 32.8931 52.9527 32.031 52.9527 32.031C52.9527 32.031 72.2597 36.0718 76.8772 36.1257C81.4947 36.1796 91.2158 38.6041 95.2122 38.7388C99.2086 38.8735 107.093 41.5405 108.282 46.0123L109.011 66.7822L105.149 74.7561C105.149 74.7561 108.444 80.3056 119.569 80.3056C130.694 80.3056 131.477 77.5847 131.477 77.5847C131.477 77.5847 130.289 69.1798 133.286 60.4785C136.041 52.5315 138.066 51.1307 136.743 46.578C137.985 44.9348 139.983 42.6449 141.954 42.1331C145.141 41.3249 160.964 37.0416 160.964 37.0416C160.964 37.0416 179.92 35.9102 182.486 35.2906C185.051 34.671 190.667 33.782 190.667 33.782C198.417 35.8294 201.766 32.8392 202.657 32.6775C203.602 32.5698 208.759 30.5494 208.03 29.3641Z" fill="#BF743C"/>
<path d="M112.629 10.5338C114.06 3.42193 120.973 -1.15768 128.102 0.243142C132.719 1.15906 136.716 4.41867 138.255 8.51339C138.795 9.64482 138.687 12.0693 138.984 15.0326C139.092 16.0563 139.443 16.9183 140.064 17.7265C140.442 18.2383 140.847 18.831 140.982 19.262C141.333 20.2318 140.064 21.1477 140.064 21.1477C140.064 21.1477 139.2 28.098 137.148 28.9331C136.689 29.1217 136.122 29.2564 135.527 29.3641C133.043 29.7682 121.216 26.3469 120.595 25.2963C114.87 22.9526 111.387 16.8375 112.629 10.5338Z" fill="#BF743C"/>
<path d="M136.311 15.813C136.311 16.5134 136.743 17.0791 137.31 17.0791C137.85 17.0791 138.309 16.5134 138.309 15.813C138.309 15.1126 137.877 14.5469 137.31 14.5469C136.77 14.5469 136.311 15.1126 136.311 15.813Z" fill="#513F33"/>
<path d="M115.591 9.78878C117.837 7.54798 117.837 3.91492 115.591 1.67412C113.345 -0.566682 109.703 -0.566684 107.457 1.67412C105.211 3.91492 105.211 7.54797 107.457 9.78878C109.703 12.0296 113.345 12.0296 115.591 9.78878Z" fill="#513F33"/>
<path d="M133.178 7.62362C135.041 6.62688 136.851 7.21954 137.985 8.99751C138.309 9.48241 138.687 10.9102 138.687 10.8832C138.93 10.1559 138.606 9.02445 138.336 8.51261C136.797 4.41789 132.665 1.21216 128.075 0.269299C120.946 -1.15846 114.033 3.44809 112.602 10.56C111.414 16.5135 114.465 22.3053 119.65 24.8645L120.568 25.2686C121.567 24.1372 124.078 17.7796 126.752 14.0351C129.425 10.3445 131.558 8.48567 133.178 7.62362Z" fill="#513F33"/>
<path d="M126.832 16.2441C127.291 18.049 126.616 19.7731 125.347 20.0964C124.078 20.4197 122.674 19.2074 122.215 17.4025C121.756 15.5976 122.431 13.8735 123.7 13.5502C124.969 13.227 126.373 14.4392 126.832 16.2441Z" fill="#BF743C"/>
<path d="M129.668 27.2351V36.6368L114.033 31.9225L115.734 31.1412C118.165 30.0098 120.001 27.8547 120.676 25.2686H129.641V27.2351H129.668Z" fill="#BF743C"/>
<path d="M138.984 24.2184C138.282 24.2184 136.716 24.0029 135.96 22.2788C135.906 22.1711 135.96 22.0364 136.068 22.0094C136.176 21.9555 136.311 22.0094 136.338 22.1172C137.175 24.0837 139.173 23.7874 139.254 23.7874C139.362 23.7605 139.47 23.8413 139.497 23.976C139.524 24.0837 139.443 24.1915 139.308 24.2184C139.335 24.1915 139.2 24.2184 138.984 24.2184Z" fill="#513F33"/>
<path d="M132.773 62.1756C132.935 61.6368 133.097 61.0711 133.286 60.5053C136.04 52.5584 138.066 51.1575 136.743 46.6049L131.423 33.5664L129.641 33.324L132.584 41.1901H117.868L115.329 31.3305L113.169 31.0342C113.169 31.0342 115.707 45.5004 108.281 46.0122L108.849 62.1756H132.773Z" fill="#FFCC22"/>
</g>
<defs>
<clipPath id="clip0_34_1614">
<rect width="242" height="157" fill="white"/>
</clipPath>
</defs>
</svg>
